<?xml version="1.0" encoding="UTF-8" standalone="no"?>
<!-- Created with Inkscape (http://www.inkscape.org/) -->

<svg
   width="512"
   height="256"
   viewBox="0 0 135.46666 67.733335"
   version="1.1"
   id="svg1"
   xml:space="preserve"
   inkscape:version="1.4.3 (0d15f75042, 2025-12-25)"
   sodipodi:docname="home-davo-logo.svg"
   xmlns:inkscape="http://www.inkscape.org/namespaces/inkscape"
   xmlns:sodipodi="http://sodipodi.sourceforge.net/DTD/sodipodi-0.dtd"
   xmlns="http://www.w3.org/2000/svg"
   xmlns:svg="http://www.w3.org/2000/svg"><sodipodi:namedview
     id="namedview1"
     pagecolor="#ffffff"
     bordercolor="#000000"
     borderopacity="0.25"
     inkscape:showpageshadow="false"
     inkscape:pageopacity="0.0"
     inkscape:pagecheckerboard="0"
     inkscape:deskcolor="#d1d1d1"
     inkscape:document-units="px"
     showguides="false"
     inkscape:zoom="0.8258786"
     inkscape:cx="85.969052"
     inkscape:cy="79.914893"
     inkscape:window-width="2514"
     inkscape:window-height="1404"
     inkscape:window-x="2606"
     inkscape:window-y="0"
     inkscape:window-maximized="1"
     inkscape:current-layer="layer1"><inkscape:page
       x="0"
       y="0"
       width="135.46666"
       height="67.733337"
       id="page1"
       margin="0"
       bleed="0" /></sodipodi:namedview><defs
     id="defs1"><inkscape:path-effect
       effect="powerstroke"
       id="path-effect26927"
       is_visible="true"
       lpeversion="1"
       offset_points="0,1"
       not_jump="false"
       sort_points="true"
       interpolator_type="CubicBezierJohan"
       interpolator_beta="0.2"
       start_linecap_type="zerowidth"
       linejoin_type="extrp_arc"
       miter_limit="4"
       scale_width="1"
       end_linecap_type="zerowidth"
       message="" /><inkscape:path-effect
       effect="powerstroke"
       id="path-effect26144"
       is_visible="true"
       lpeversion="1"
       offset_points="0,1"
       not_jump="false"
       sort_points="true"
       interpolator_type="CubicBezierJohan"
       interpolator_beta="0.2"
       start_linecap_type="zerowidth"
       linejoin_type="extrp_arc"
       miter_limit="4"
       scale_width="1"
       end_linecap_type="zerowidth"
       message="" /><inkscape:path-effect
       effect="powerstroke"
       id="path-effect26927-3"
       is_visible="true"
       lpeversion="1"
       offset_points="0,1"
       not_jump="false"
       sort_points="true"
       interpolator_type="CubicBezierJohan"
       interpolator_beta="0.2"
       start_linecap_type="zerowidth"
       linejoin_type="extrp_arc"
       miter_limit="4"
       scale_width="1"
       end_linecap_type="zerowidth"
       message="" /><inkscape:path-effect
       effect="powerstroke"
       id="path-effect26144-6"
       is_visible="true"
       lpeversion="1"
       offset_points="0,1"
       not_jump="false"
       sort_points="true"
       interpolator_type="CubicBezierJohan"
       interpolator_beta="0.2"
       start_linecap_type="zerowidth"
       linejoin_type="extrp_arc"
       miter_limit="4"
       scale_width="1"
       end_linecap_type="zerowidth"
       message="" /></defs><g
     inkscape:label="Layer 1"
     inkscape:groupmode="layer"
     id="layer1"><g
       id="g3"
       transform="translate(0,10.255806)"><path
         id="path25952"
         style="color:#000000;fill:#d9230f;fill-opacity:1;stroke-width:1.33738;stroke-linecap:round;stroke-linejoin:bevel;-inkscape-stroke:none"
         d="m 118.81854,35.88214 c -0.0701,-0.0027 -0.13949,-5.04e-4 -0.20809,0.0062 -0.41161,0.04006 -0.79411,0.245078 -1.11604,0.554518 -0.42924,0.412587 -0.77916,1.007783 -1.06702,1.715644 -0.40396,0.993359 -0.67429,2.21602 -0.8077,3.472178 -0.0524,-0.11025 -0.0893,-0.241061 -0.15095,-0.339432 a 0.27097432,0.27097434 0 0 0 -0.3736,-0.0857 0.27097432,0.27097434 0 0 0 -0.12546,0.259055 c -0.13507,-0.178226 -0.31142,-0.311329 -0.51503,-0.3792 -0.11043,-0.03681 -0.23086,-0.05034 -0.35064,-0.03725 -0.11977,0.01309 -0.23896,0.05277 -0.34671,0.121546 -0.21549,0.137557 -0.37886,0.373191 -0.48618,0.692307 a 0.2710014,0.27100142 0 0 0 -0.012,0.05237 c -0.0454,0.359725 -0.0347,0.635086 0.0479,0.862304 0.0341,0.09397 0.0932,0.170307 0.15543,0.241131 -0.001,0.02724 -0.0141,0.05479 -0.0123,0.08178 0.0155,0.229915 0.15503,0.458 0.38256,0.544995 a 0.2710014,0.27100142 0 0 0 0.0697,0.01653 c 0.22162,0.02222 0.40329,-0.0059 0.56516,-0.06133 l -0.0244,0.149551 a 0.27097432,0.27097434 0 0 0 0.22377,0.311146 0.27097432,0.27097434 0 0 0 0.31114,-0.223767 l 0.23609,-1.447628 a 0.2710014,0.27100142 0 0 0 0.0378,-0.146752 c -0.007,-0.09603 -0.0229,-0.18916 -0.0457,-0.278099 0.14611,0.349822 0.25422,0.784618 0.31703,1.304798 a 0.2710014,0.27100142 0 0 0 0.53995,-0.03137 c 0.002,-0.379011 0.0186,-0.763137 0.0496,-1.146004 0.15477,0.806567 0.84432,1.217696 1.46416,1.101195 0.56966,-0.107073 1.02356,-0.66785 1.01941,-1.475635 0.26688,0.02824 0.53533,0.05569 0.82282,0.07366 1.50889,0.09431 3.25416,0.06943 4.64115,0.134149 a 0.27097432,0.27097434 0 0 0 0.28342,-0.258215 0.27097432,0.27097434 0 0 0 -0.25822,-0.28314 c -1.41429,-0.06599 -3.15578,-0.04129 -4.63246,-0.133589 -0.35831,-0.0224 -0.69906,-0.05258 -1.01634,-0.0913 -0.17001,-0.254431 -0.39782,-0.466907 -0.70547,-0.587005 -0.37881,-0.147878 -0.83984,-0.197135 -1.38798,-0.167756 0.1453,-0.745398 0.34341,-1.444399 0.58617,-2.041353 0.26945,-0.662592 0.59521,-1.197011 0.94044,-1.528845 0.34272,-0.329426 0.67672,-0.460644 1.05666,-0.395165 0.66148,0.167248 0.8315,0.41999 0.90964,0.778566 0.0786,0.360648 -0.003,0.859078 -0.0283,1.372292 a 0.27097432,0.27097434 0 0 0 0.25737,0.28398 0.27097432,0.27097434 0 0 0 0.28398,-0.257094 c 0.0227,-0.46235 0.12963,-0.995522 0.0165,-1.514561 -0.11311,-0.519035 -0.51555,-0.99261 -1.31768,-1.19249 a 0.2710014,0.27100142 0 0 0 -0.0177,-0.0039 c -0.0712,-0.0128 -0.14195,-0.02051 -0.21202,-0.02324 z m -18.35651,0.272217 c -1.275939,-0.02887 -2.633098,0.2156 -3.942394,0.741598 -2.618596,1.052001 -5.052064,3.284022 -6.135265,6.808527 a 0.62150737,0.62150737 0 0 0 0.411688,0.776325 0.62150737,0.62150737 0 0 0 0.776325,-0.411407 c 0.973984,-3.169136 3.104669,-5.0936 5.41103,-6.02016 2.30636,-0.926566 4.782196,-0.801686 6.313666,0.08038 0.77259,0.445007 1.34926,0.996913 1.76241,1.601381 -0.50326,0.11934 -1.04653,0.263438 -1.64115,0.434652 a 0.27100122,0.27100125 0 0 0 -0.0314,0.01092 c -0.37932,0.161382 -0.63498,0.371544 -0.73431,0.652258 -0.0993,0.280715 0.001,0.574861 0.17419,0.789489 0.34642,0.429252 0.98055,0.708415 1.63947,0.770163 a 0.27097414,0.27097417 0 0 0 0.2949,-0.244492 0.27097414,0.27097417 0 0 0 -0.24449,-0.294903 c -0.52451,-0.04915 -1.07074,-0.326752 -1.26811,-0.571321 -0.0987,-0.122284 -0.11093,-0.194335 -0.0849,-0.268017 0.0257,-0.07263 0.13438,-0.202472 0.42625,-0.32907 0.64784,-0.186205 1.22976,-0.339413 1.76214,-0.462939 0.2617,0.499066 0.42571,1.022292 0.50831,1.542008 0.21387,1.345771 -0.16904,2.651406 -0.78893,3.321226 -0.66563,0.718862 -1.44678,0.940001 -2.16038,0.89227 -0.7136,-0.04773 -1.33044,-0.409667 -1.56721,-0.75616 -0.27454,-0.401791 -0.28792,-0.77913 -0.18989,-1.106236 0.0391,-0.130553 0.10976,-0.232772 0.17924,-0.32879 -0.0588,0.274395 0.002,0.507921 0.14031,0.70687 0.15165,0.218702 0.42863,0.396876 0.74272,0.42009 h 8.8e-4 c 0.38097,0.02811 0.67504,-0.134405 0.90291,-0.383962 0.22787,-0.249562 0.37156,-0.636684 0.31003,-1.041822 -0.0715,-0.471372 -0.3696,-0.821984 -0.77184,-1.049943 -0.40225,-0.227958 -0.95421,-0.304881 -1.48824,-0.09466 -0.59633,0.234768 -1.01186,0.76572 -1.206497,1.415141 -0.194641,0.649421 -0.130846,1.455548 0.353437,2.1643 0.52209,0.764041 1.46195,1.225086 2.51129,1.295275 1.04934,0.07019 2.23721,-0.295788 3.15543,-1.287433 0.9637,-1.040795 1.371,-2.682753 1.10428,-4.361087 -0.085,-0.534766 -0.24344,-1.075267 -0.48199,-1.59886 1.5152,-0.249511 2.64413,-0.208672 3.97209,0.002 l -1.14684,2.91626 c -0.0188,-0.0038 -0.0257,-0.0043 -0.0442,-0.0081 -0.0896,-0.01826 -0.09,-0.01897 -0.17084,-0.03585 l 0.0386,-1.223021 A 0.27100122,0.27100125 0 0 0 108.747,41.477219 c -0.0729,0.131457 -0.39022,0.409679 -0.59849,0.715552 -0.10414,0.152937 -0.20349,0.35326 -0.13779,0.583645 0.0657,0.230384 0.27263,0.378375 0.54528,0.476381 a 0.27100122,0.27100125 0 0 0 0.0342,0.0098 c 0,0 0.0636,0.01317 0.07,0.01456 l -0.0555,1.752052 a 0.27100122,0.27100125 0 0 0 0.52287,0.107823 l 0.64553,-1.641429 c 0.14593,0.02676 0.33628,0.06909 0.42653,0.07618 a 0.27100122,0.27100125 0 0 0 0.005,2.77e-4 c 1.61487,0.09511 2.70509,-0.603641 2.96836,-1.545649 0.13163,-0.471004 0.0426,-0.988623 -0.2641,-1.432224 -0.30669,-0.443601 -0.82212,-0.815862 -1.53921,-1.054704 a 0.27100122,0.27100125 0 0 0 -0.0353,-0.0092 c -7.1e-4,-1.31e-4 -10e-4,-1.36e-4 -0.002,-2.77e-4 l 0.71388,-1.815342 a 0.27097414,0.27097417 0 0 0 -0.15291,-0.351194 0.27097414,0.27097417 0 0 0 -0.1039,-0.01877 0.27097414,0.27097417 0 0 0 -0.24757,0.171677 l -0.76121,1.935212 c -1.47062,-0.239877 -2.72842,-0.28283 -4.43225,0.01232 -0.528,-0.926426 -1.32578,-1.774324 -2.43119,-2.411032 -0.98485,-0.567236 -2.17971,-0.869584 -3.45566,-0.898431 z m 10.66719,3.893388 c 0.0289,0.0054 0.0526,0.0063 0.0818,0.01176 0.62246,0.210012 1.02881,0.519535 1.25243,0.842979 0.22534,0.32595 0.27639,0.662395 0.1882,0.977968 -0.17632,0.630871 -0.96525,1.235186 -2.413,1.150484 -0.0242,-0.002 -0.18604,-0.03497 -0.26381,-0.04817 z m 5.10969,0.957803 c 0.13036,0.116526 0.28948,0.209297 0.46574,0.289302 -0.0938,-0.02855 -0.20651,-0.01804 -0.29127,0.02437 -0.0852,0.04261 -0.14385,0.10648 -0.1868,0.173637 -0.0288,0.04512 -0.052,0.09273 -0.0703,0.14311 0.0233,-0.211686 0.0509,-0.422268 0.0826,-0.630415 z m 0.56292,0.331591 c 0.18018,0.07528 0.37598,0.139578 0.594,0.192121 0.2037,0.04909 0.43862,0.08214 0.67018,0.117065 0.0467,0.656834 -0.26042,0.952344 -0.58896,1.014095 -0.1593,0.02994 -0.32474,0.0012 -0.46966,-0.08514 a 0.27097432,0.27097434 0 0 0 0.18484,-0.257935 c -0.0207,-0.27259 -0.0655,-0.483441 -0.13527,-0.650578 -0.0567,-0.135735 -0.12919,-0.257505 -0.25513,-0.32963 z m -2.6096,0.244212 c 0.0287,7.55e-4 0.0584,0.007 0.091,0.01792 0.1625,0.05417 0.35741,0.294686 0.40721,0.623133 l -0.042,0.155993 c -0.0289,0.08414 -0.0705,0.160994 -0.0868,0.23665 -0.16842,0.05067 -0.30832,0.08085 -0.42877,0.09382 a 0.27097432,0.27097434 0 0 0 -0.051,-0.32683 0.27097432,0.27097434 0 0 0 -0.30219,-0.0081 c -0.006,-0.09489 -7.1e-4,-0.217103 0.0157,-0.361556 0.0784,-0.218892 0.17549,-0.336153 0.25346,-0.385922 0.0508,-0.03242 0.0956,-0.04635 0.14339,-0.04509 z m -5.50429,0.813293 -0.01,0.314227 c -0.0665,-0.03635 -0.13523,-0.07909 -0.14507,-0.0815 0.002,-0.0082 0.01,-0.05078 0.0633,-0.129668 0.0203,-0.02986 0.0635,-0.07048 0.0916,-0.103061 z m 0.51083,0.995611 c 0.0156,0.0033 0.0149,0.0032 0.0308,0.0064 l -0.0339,0.08598 z m -7.54508,0.0997 c 0.025,4.62e-4 0.0414,0.01541 0.0695,0.01036 a 0.62150737,0.62150737 0 0 0 -0.29043,0.154593 c 0.0701,-0.07118 0.14326,-0.140003 0.19241,-0.159354 0.011,-0.0043 0.0202,-0.0057 0.0286,-0.0056 z" /><g
         id="g2"
         transform="matrix(0.84854421,0,0,0.84854421,9.9475109,49.087056)"
         style="stroke-width:1.17849"><path
           d="m 58.041282,-53.506358 c 0,0.666351 0,1.23854 -0.03622,1.542739 -0.02176,0.210045 -0.06516,0.369389 -0.210048,0.398365 -0.06517,0.01448 -0.152103,0.02893 -0.260739,0.02893 -0.08687,0 -0.115901,0.02175 -0.115901,0.05796 0,0.05069 0.05076,0.07243 0.144866,0.07243 0.289719,0 0.746015,-0.02175 0.912619,-0.02175 0.202798,0 0.6591,0.02175 1.137128,0.02175 0.07966,0 0.137622,-0.02175 0.137622,-0.07243 0,-0.03622 -0.03622,-0.05796 -0.115893,-0.05796 -0.108636,0 -0.267983,-0.01448 -0.369382,-0.02893 -0.217292,-0.02896 -0.260746,-0.18832 -0.282478,-0.391121 -0.03622,-0.311443 -0.03622,-0.883632 -0.03622,-1.549983 v -2.96959 l 0.912605,0.02176 c 0.644622,0.01448 0.840186,0.217288 0.854674,0.405608 l 0.0073,0.07967 c 0.0073,0.108646 0.02175,0.144862 0.07965,0.144862 0.04342,0 0.05796,-0.04342 0.06517,-0.115886 0,-0.188313 0.02175,-0.688076 0.02175,-0.840179 0,-0.108643 -0.0073,-0.152097 -0.05796,-0.152097 -0.02896,0 -0.08687,0.01448 -0.19555,0.03622 -0.10865,0.01448 -0.267983,0.03622 -0.499757,0.03622 h -2.868207 c -0.239011,0 -0.514251,-0.01448 -0.724286,-0.03622 -0.181076,-0.01448 -0.253515,-0.08692 -0.31145,-0.08692 -0.04342,0 -0.06516,0.04349 -0.08687,0.137618 -0.01455,0.05796 -0.152104,0.717049 -0.152104,0.832935 0,0.07967 0.01455,0.115887 0.06517,0.115887 0.04342,0 0.06516,-0.02896 0.07966,-0.08692 0.01455,-0.05796 0.05076,-0.144859 0.123134,-0.253502 0.108643,-0.159347 0.282478,-0.195556 0.702564,-0.210044 l 1.0792,-0.02896 z"
           style="font-weight:bold;font-size:6.93716px;line-height:1.25;font-family:'Trajan Pro';-inkscape-font-specification:'Trajan Pro Bold';fill:#666666;stroke-width:1.90975"
           id="path761" /><path
           d="m 62.973704,-54.056819 c -0.02175,0 -0.04342,-0.0072 -0.04342,-0.04349 v -0.130372 c 0,-0.934334 0,-1.158866 0.01455,-1.35442 0.01455,-0.217295 0.06516,-0.304206 0.239011,-0.333175 0.07246,-0.01448 0.130371,-0.02175 0.181069,-0.02175 0.07966,0 0.115893,-0.02176 0.115893,-0.06516 0,-0.04342 -0.04342,-0.05796 -0.130374,-0.05796 -0.253495,0 -0.695324,0.01448 -0.84742,0.01448 -0.173828,0 -0.593921,-0.01448 -0.934331,-0.01448 -0.08686,0 -0.137622,0.01448 -0.137622,0.05796 0,0.04342 0.04342,0.06516 0.10865,0.06516 0.09418,0 0.202801,0.0072 0.253488,0.02175 0.202808,0.05796 0.260753,0.123124 0.275234,0.333175 0.0073,0.195554 0.0073,0.369382 0.0073,1.303723 v 1.086433 c 0,0.564946 0,1.050221 -0.02896,1.310967 -0.02176,0.181069 -0.05796,0.296955 -0.18832,0.325928 -0.05796,0.01448 -0.130368,0.02175 -0.224529,0.02175 -0.07966,0 -0.101382,0.03622 -0.101382,0.06517 0,0.04342 0.04342,0.06516 0.123131,0.06516 0.253501,0 0.673594,-0.02176 0.818447,-0.02176 0.181079,0 0.622894,0.02176 1.035742,0.02176 0.07966,0 0.130375,-0.02176 0.130375,-0.06516 0,-0.02896 -0.02896,-0.06517 -0.101382,-0.06517 -0.09417,0 -0.239014,-0.0072 -0.325935,-0.02175 -0.188313,-0.02893 -0.224529,-0.144859 -0.246261,-0.318684 -0.02893,-0.26799 -0.03622,-0.738781 -0.03622,-1.303726 v -0.470787 c 0,-0.02896 0.02175,-0.03622 0.04342,-0.03622 h 2.404644 c 0.01455,0 0.03622,0.01448 0.03622,0.03622 v 0.470787 c 0,0.564945 0,1.035736 -0.02893,1.296482 -0.02175,0.181069 -0.05796,0.296955 -0.188313,0.325928 -0.05796,0.01448 -0.130374,0.02175 -0.231773,0.02175 -0.07246,0 -0.101382,0.03622 -0.101382,0.06517 0,0.04342 0.05076,0.06516 0.137612,0.06516 0.246265,0 0.695317,-0.02176 0.840179,-0.02176 0.173825,0 0.593918,0.02176 1.006767,0.02176 0.07966,0 0.130375,-0.02176 0.130375,-0.06516 0,-0.02896 -0.03622,-0.06517 -0.101382,-0.06517 -0.101379,0 -0.239021,-0.0072 -0.325942,-0.02175 -0.19555,-0.02893 -0.23176,-0.144859 -0.253495,-0.318684 -0.02896,-0.26799 -0.02896,-0.753265 -0.02896,-1.318211 v -1.086433 c 0,-0.934341 0,-1.108169 0.01455,-1.303723 0.01455,-0.217295 0.06516,-0.304206 0.231773,-0.333175 0.07966,-0.01448 0.137609,-0.02175 0.188306,-0.02175 0.07246,0 0.115894,-0.02176 0.115894,-0.06516 0,-0.04342 -0.04342,-0.05796 -0.137616,-0.05796 -0.246261,0 -0.666354,0.01448 -0.818457,0.01448 -0.166574,0 -0.615636,-0.01448 -0.956059,-0.01448 -0.09417,0 -0.137615,0.01448 -0.137615,0.05796 0,0.04342 0.03622,0.06516 0.108649,0.06516 0.08697,0 0.19555,0.0072 0.246255,0.02175 0.202797,0.05796 0.260746,0.123124 0.275237,0.333175 0.0073,0.195554 0.01455,0.420086 0.01455,1.35442 v 0.130372 c 0,0.03622 -0.02175,0.04349 -0.03622,0.04349 z"
           style="font-weight:bold;font-size:6.93716px;line-height:1.25;font-family:'Trajan Pro';-inkscape-font-specification:'Trajan Pro Bold';fill:#666666;stroke-width:1.90975"
           id="path758" /><path
           d="m 68.355178,-53.194908 c 0,0.564945 0,1.05022 -0.02896,1.310966 -0.02175,0.181069 -0.05796,0.296956 -0.188306,0.325928 -0.05796,0.01448 -0.130375,0.02176 -0.224536,0.02176 -0.07966,0 -0.101382,0.03622 -0.101382,0.06516 0,0.04342 0.04342,0.06516 0.123137,0.06516 0.130361,0 0.289705,-0.0072 0.441808,-0.01448 0.152103,0 0.289722,-0.0072 0.362148,-0.0072 0.18832,0 0.42733,0.0072 0.738777,0.01448 0.311444,0.01448 0.69532,0.02176 1.173351,0.02176 0.239018,0 0.296959,0 0.340416,-0.159341 0.03622,-0.12313 0.08687,-0.543223 0.08687,-0.680838 0,-0.06516 -0.0073,-0.144853 -0.05796,-0.144853 -0.04342,0 -0.05796,0.02896 -0.07246,0.09415 -0.04342,0.253505 -0.115877,0.383877 -0.275224,0.456303 -0.166584,0.07243 -0.434581,0.07968 -0.601162,0.07968 -0.651866,0 -0.847423,-0.09416 -0.861904,-0.514248 -0.0073,-0.181069 0,-0.702564 0,-0.912605 v -0.492519 c 0,-0.03622 0.0073,-0.06516 0.03622,-0.06516 0.159347,0 0.88364,0.01448 0.999527,0.02896 0.239017,0.02175 0.318694,0.115886 0.354897,0.239014 0.01455,0.07968 0.01455,0.159347 0.02175,0.224529 0,0.02893 0.01448,0.05069 0.05796,0.05069 0.05796,0 0.06516,-0.08692 0.06516,-0.137615 0,-0.04342 0.01455,-0.289715 0.02893,-0.412842 0.03622,-0.311451 0.05076,-0.412853 0.05076,-0.449062 0,-0.03622 -0.02175,-0.06516 -0.05076,-0.06516 -0.02893,0 -0.05076,0.03622 -0.101379,0.07967 -0.05796,0.06516 -0.152103,0.07968 -0.304206,0.09416 -0.144852,0.01448 -0.970547,0.01448 -1.115406,0.01448 -0.03622,0 -0.04342,-0.02893 -0.04342,-0.06517 v -1.521011 c 0,-0.03622 0.01455,-0.05796 0.04342,-0.05796 0.130375,0 0.890884,0.01448 0.999526,0.02896 0.318684,0.02896 0.369382,0.115887 0.420086,0.22453 0.03622,0.07243 0.04342,0.181069 0.04342,0.224529 0,0.05069 0.0073,0.07967 0.05075,0.07967 0.05076,0 0.06517,-0.07243 0.07245,-0.101399 0.01455,-0.07243 0.02896,-0.340416 0.03622,-0.405601 0.01455,-0.282475 0.05076,-0.354901 0.05076,-0.398361 0,-0.02896 -0.0073,-0.05796 -0.04342,-0.05796 -0.02893,0 -0.06516,0.02175 -0.101379,0.02896 -0.05076,0.0072 -0.152103,0.02893 -0.267983,0.03622 -0.123131,0.0072 -1.535496,0 -1.73829,0 -0.181076,0 -0.586674,-0.01448 -0.919856,-0.01448 -0.09417,0 -0.144859,0.01448 -0.144859,0.05796 0,0.04342 0.04342,0.06516 0.108643,0.06516 0.09418,0 0.2028,0.0072 0.253505,0.02175 0.202797,0.05796 0.260746,0.123124 0.275223,0.333172 0.0073,0.195557 0.0073,0.369392 0.0073,1.303726 z"
           style="font-weight:bold;font-size:6.93716px;line-height:1.25;font-family:'Trajan Pro';-inkscape-font-specification:'Trajan Pro Bold';fill:#666666;stroke-width:1.90975"
           id="path755" /><path
           d="m 26.554114,-39.212211 c 0,2.529672 0,4.701889 -0.137478,5.856744 -0.109983,0.797402 -0.247468,1.402322 -0.797395,1.512312 -0.247469,0.05493 -0.577426,0.109977 -0.989876,0.109977 -0.329957,0 -0.439941,0.08252 -0.439941,0.219977 0,0.192473 0.192476,0.274966 0.549928,0.274966 0.549931,0 1.264838,-0.05493 1.897255,-0.05493 0.659915,-0.02745 1.264837,-0.02745 1.567297,-0.02745 0.687413,0 1.64979,0.0825 2.694654,0.164965 1.044864,0.08251 2.172217,0.164989 3.162089,0.164989 5.086849,0 7.946495,-1.952257 9.211336,-3.244585 1.539813,-1.567298 2.997127,-4.206966 2.997127,-7.671515 0,-3.27208 -1.292342,-5.554277 -2.667166,-6.984093 -2.997134,-3.134605 -7.589047,-3.134605 -11.026105,-3.134605 -1.649786,0 -3.382063,0.08252 -4.23445,0.08252 -0.769902,0 -2.502178,-0.08252 -3.959489,-0.08252 -0.412446,0 -0.604923,0.05493 -0.604923,0.247478 0,0.192466 0.164979,0.247464 0.467439,0.247464 0.384949,0 0.852391,0.02752 1.072361,0.08252 0.907383,0.192473 1.127357,0.632417 1.182349,1.567291 0.05499,0.879888 0.05499,1.649786 0.05499,5.829245 z m 3.437058,-5.279317 c 0,-2.172224 0,-4.564415 0.02749,-5.499295 0,-0.30246 0.08249,-0.439945 0.329954,-0.549925 0.219974,-0.10999 1.237343,-0.192476 1.787271,-0.192476 2.144726,0 5.279321,0.329964 7.808996,2.749652 1.182352,1.127347 2.639676,3.382053 2.639676,6.87411 0,2.832125 -0.549934,5.334303 -2.309718,6.846612 -1.64979,1.429809 -3.519551,1.979751 -6.324185,1.979751 -2.172224,0 -3.244585,-0.577432 -3.60204,-1.099863 -0.219971,-0.302463 -0.274959,-1.402318 -0.302457,-2.089734 -0.02749,-0.522434 -0.055,-2.639659 -0.055,-5.554283 z"
           style="font-weight:bold;font-size:19.1004px;line-height:1.25;font-family:'Trajan Pro';-inkscape-font-specification:'Trajan Pro Bold';fill:#666666;stroke-width:7.25008"
           id="path752" /><path
           d="m 57.523458,-39.264641 c 0.09971,0 0.159535,0.03985 0.199435,0.139593 l 1.595382,4.227753 c 0.09971,0.239305 -0.03985,0.418785 -0.179487,0.458672 -0.199422,0.01991 -0.279186,0.05985 -0.279186,0.17948 0,0.139597 0.239299,0.139597 0.598269,0.159538 1.595375,0.03985 3.051164,0.03985 3.76908,0.03985 0.737856,0 0.917339,-0.03985 0.917339,-0.199422 0,-0.139597 -0.09971,-0.159542 -0.259247,-0.159542 -0.239313,0 -0.53844,-0.01991 -0.837572,-0.07976 -0.418788,-0.09971 -0.997116,-0.378902 -1.754919,-2.173702 -1.276306,-3.031218 -4.467062,-11.167655 -4.945684,-12.264473 -0.199431,-0.45867 -0.319083,-0.638153 -0.498563,-0.638153 -0.199425,0 -0.319076,0.219367 -0.558381,0.797691 l -5.005529,12.523721 c -0.398847,0.997116 -0.777756,1.675145 -1.695098,1.794803 -0.159541,0.01991 -0.438734,0.03985 -0.618214,0.03985 -0.159542,0 -0.239312,0.03985 -0.239312,0.159542 0,0.159538 0.119654,0.199422 0.378908,0.199422 1.037,0 2.133832,-0.05985 2.353199,-0.05985 0.618204,0 1.475731,0.05985 2.113883,0.05985 0.219374,0 0.339025,-0.03985 0.339025,-0.199422 0,-0.119655 -0.05985,-0.159542 -0.299144,-0.159542 h -0.299125 c -0.618221,0 -0.797701,-0.259244 -0.797701,-0.618207 0,-0.239306 0.09971,-0.717917 0.299145,-1.216473 l 1.07688,-2.851735 c 0.03992,-0.119658 0.07977,-0.159545 0.17948,-0.159545 z m -4.04829,-0.99711 c -0.07977,0 -0.09971,-0.05985 -0.07977,-0.139596 l 1.834701,-4.905789 c 0.01991,-0.07977 0.05985,-0.179484 0.119651,-0.179484 0.05985,0 0.07977,0.09971 0.09971,0.179484 l 1.794817,4.925727 c 0.01991,0.05985 0,0.119658 -0.09971,0.119658 z"
           style="font-weight:bold;font-size:19.1004px;line-height:1.25;font-family:'Trajan Pro';-inkscape-font-specification:'Trajan Pro Bold';fill:#666666;stroke-width:5.25822"
           id="path749" /><path
           d="m 67.876256,-34.997005 c 0.378901,0.937284 0.498553,1.216477 0.75781,1.216477 0.279186,0 0.398834,-0.319077 0.917345,-1.475727 0.438718,-0.99711 1.376002,-3.170815 2.65231,-6.082383 1.07687,-2.452888 1.61532,-3.529774 2.393069,-5.404342 0.538444,-1.276299 0.837568,-1.61532 1.096819,-1.7948 0.35897,-0.239306 0.777742,-0.239306 0.977174,-0.239306 0.199415,0 0.319063,-0.03985 0.319063,-0.179483 0,-0.139596 -0.159528,-0.17948 -0.418772,-0.17948 -0.598276,0 -1.53555,0.05985 -1.874574,0.05985 -0.259251,0 -1.096819,-0.05985 -2.093932,-0.05985 -0.378902,0 -0.558382,0.03985 -0.558382,0.199429 0,0.139592 0.159535,0.159534 0.339015,0.159534 0.259251,0 0.558375,0.01991 0.797688,0.09971 0.17948,0.05985 0.259244,0.219367 0.259244,0.378901 0,0.179481 -0.07976,0.478612 -0.179474,0.737862 -0.478611,1.316186 -3.071102,7.737586 -3.928621,9.93123 h -0.07976 l -3.430066,-9.053771 c -0.279196,-0.717924 -0.458669,-1.276306 -0.458669,-1.53555 0,-0.179483 0.05984,-0.319076 0.199418,-0.418789 0.159542,-0.119654 0.458673,-0.139593 0.777749,-0.139593 0.179473,0 0.299138,-0.03985 0.299138,-0.179483 0,-0.139596 -0.219367,-0.17948 -0.458673,-0.17948 -0.997109,0 -1.954338,0.05985 -2.452894,0.05985 -0.697985,0 -1.834691,-0.05985 -2.891622,-0.05985 -0.299138,0 -0.518505,0.01991 -0.518505,0.17948 0,0.119658 0.05984,0.179483 0.239305,0.179483 0.159542,0 0.478611,0 0.777749,0.07976 0.717917,0.199426 1.056942,0.418786 1.515614,1.515611 z"
           style="font-weight:bold;font-size:19.1004px;line-height:1.25;font-family:'Trajan Pro';-inkscape-font-specification:'Trajan Pro Bold';fill:#666666;stroke-width:5.25822"
           id="path746" /><path
           d="m 84.9867,-33.780528 c 5.065334,0 8.256084,-3.609549 8.256084,-8.176317 0,-4.566768 -3.091041,-7.458397 -8.056656,-7.458397 -5.982669,0 -8.236146,4.407233 -8.236146,7.81736 0,3.529775 2.313299,7.817354 8.036718,7.817354 z m 0.837574,-0.99711 c -3.828913,0 -6.122259,-3.290469 -6.122259,-7.438458 0,-4.965615 2.61243,-6.241913 4.905789,-6.241913 3.270518,0 5.843063,2.771971 5.843063,7.239029 0,5.763303 -3.23063,6.441342 -4.626593,6.441342 z"
           style="font-weight:bold;font-size:19.1004px;line-height:1.25;font-family:'Trajan Pro';-inkscape-font-specification:'Trajan Pro Bold';fill:#666666;stroke-width:5.25822"
           id="path743" /><path
           d="m 99.424875,-33.780528 c 1.056935,0 2.173705,-0.17948 3.170815,-0.817636 1.43584,-0.937284 1.87456,-2.313292 1.87456,-3.469943 0,-1.894513 -0.8575,-3.270531 -3.27051,-5.085273 l -0.55838,-0.418785 c -1.655219,-1.25636 -2.113885,-1.954338 -2.113885,-2.871684 0,-1.196528 0.897407,-2.054047 2.373125,-2.054047 1.29625,0 1.87457,0.598269 2.1737,0.97717 0.41879,0.518495 0.5185,1.136709 0.5185,1.31619 0,0.239305 0.0598,0.358956 0.19943,0.358956 0.15953,0 0.21936,-0.159535 0.21936,-0.598269 0,-1.555491 0.0798,-2.133818 0.0798,-2.393062 0,-0.139597 -0.0997,-0.199422 -0.2792,-0.239306 -0.5185,-0.139596 -1.35608,-0.339025 -2.65231,-0.339025 -2.771975,0 -4.606665,1.575437 -4.606665,3.769087 0,1.615317 0.75781,3.011274 2.951454,4.726306 l 0.917341,0.717924 c 1.65521,1.296244 1.95434,2.213582 1.95434,3.190756 0,1.056935 -0.87746,2.273415 -2.672256,2.273415 -1.236431,0 -2.413007,-0.538443 -2.851741,-2.014167 -0.09971,-0.339018 -0.179474,-0.757804 -0.179474,-1.017055 0,-0.159534 -0.01991,-0.339018 -0.199435,-0.339018 -0.159528,0 -0.219357,0.219367 -0.239299,0.518498 -0.01991,0.319077 -0.09971,1.515611 -0.09971,2.61243 0,0.438734 0.05985,0.538443 0.378895,0.67804 0.85752,0.378901 1.754923,0.518498 2.911567,0.518498 z"
           style="font-weight:bold;font-size:19.1004px;line-height:1.25;font-family:'Trajan Pro';-inkscape-font-specification:'Trajan Pro Bold';fill:#666666;stroke-width:5.25822"
           id="path740" /><path
           d="m 111.64948,-43.352798 c 0,-3.031219 0,-3.5896 0.0399,-4.227753 0.0399,-0.697978 0.19941,-1.036993 0.73785,-1.136712 0.23932,-0.03985 0.35897,-0.05984 0.55838,-0.05984 0.15955,0 0.2792,-0.03985 0.2792,-0.179476 0,-0.139597 -0.13959,-0.17948 -0.41879,-0.17948 -0.67803,0 -1.9344,0.05985 -2.41301,0.05985 -0.47862,0 -1.73497,-0.05985 -2.7919,-0.05985 -0.29915,0 -0.43874,0.03985 -0.43874,0.17948 0,0.139596 0.11965,0.179476 0.33901,0.179476 0.2792,0 0.61823,0.01991 0.77776,0.05984 0.65808,0.139596 0.81763,0.458672 0.85752,1.136712 0.0399,0.638153 0.0399,1.196534 0.0399,4.227753 v 3.509833 c 0,1.834684 0,3.41012 -0.0997,4.247691 -0.0798,0.578331 -0.17947,1.017055 -0.57832,1.096826 -0.17948,0.03985 -0.41878,0.07976 -0.71791,0.07976 -0.23932,0 -0.31909,0.05984 -0.31909,0.159541 0,0.139597 0.13961,0.199422 0.39885,0.199422 0.79769,0 2.05405,-0.05985 2.51272,-0.05985 0.49856,0 1.75492,0.05985 2.87169,0.05985 0.21936,0 0.3789,-0.05985 0.3789,-0.199422 0,-0.09971 -0.0997,-0.159541 -0.25925,-0.159541 -0.25925,0 -0.69798,-0.03985 -0.97717,-0.07976 -0.49857,-0.07977 -0.67803,-0.518495 -0.71793,-1.076877 -0.0598,-0.85752 -0.0598,-2.432956 -0.0598,-4.26764 v -1.814742 h 0.0997 l 0.21935,0.299131 c 0.41879,0.57832 4.34741,5.184982 5.22487,5.962724 0.85751,0.757807 1.39596,1.196535 2.47284,1.296247 0.41879,0.03985 0.77773,0.03985 1.37601,0.03985 h 1.73497 c 0.3789,0 0.47862,-0.05985 0.47862,-0.199422 0,-0.119655 -0.11965,-0.159542 -0.25925,-0.159542 -0.2393,0 -0.63815,-0.05985 -1.23643,-0.299131 -1.07687,-0.418785 -1.97427,-1.316182 -2.85174,-2.153763 -0.77773,-0.737856 -4.68642,-4.94567 -5.40433,-5.882954 0.67804,-0.717923 3.68931,-3.709255 4.30752,-4.307524 0.85752,-0.837571 1.53555,-1.25636 2.15376,-1.495665 0.3789,-0.139593 0.87746,-0.219364 1.15666,-0.219364 0.19941,0 0.29912,-0.03985 0.29912,-0.179484 0,-0.139596 -0.13959,-0.17948 -0.33901,-0.17948 -0.61822,0 -1.71504,0.05985 -2.33325,0.05985 -0.53843,0 -1.63525,-0.05985 -2.05405,-0.05985 -0.21936,0 -0.31907,0.03985 -0.31907,0.17948 0,0.119658 0.0798,0.159542 0.25925,0.199422 0.19942,0.03985 0.27918,0.17948 0.27918,0.398847 0,0.339015 -0.43872,0.837572 -0.9971,1.495666 -0.57833,0.678036 -3.48989,3.649429 -4.16792,4.387295 h -0.0997 z"
           style="font-weight:bold;font-size:19.1004px;line-height:1.25;font-family:'Trajan Pro';-inkscape-font-specification:'Trajan Pro Bold';fill:#666666;stroke-width:5.25822"
           id="path737" /><path
           d="m 126.76568,-37.589496 c 0,0.319077 0,1.156651 -0.0598,1.994222 -0.0399,0.578331 -0.21936,1.017055 -0.6182,1.096826 -0.17949,0.03985 -0.41879,0.07976 -0.69799,0.07976 -0.21936,0 -0.31907,0.05984 -0.31907,0.159541 0,0.159538 0.15954,0.199422 0.43872,0.199422 0.73787,0 1.99423,-0.05985 2.49278,-0.05985 0.53845,0 1.79481,0.05985 3.05117,0.05985 0.25925,0 0.41878,-0.05985 0.41878,-0.199422 0,-0.09971 -0.0997,-0.159541 -0.31907,-0.159541 -0.27919,0 -0.71792,-0.03985 -0.9971,-0.07976 -0.59827,-0.07977 -0.77776,-0.518495 -0.81765,-1.096826 -0.0598,-0.837571 -0.0598,-1.675145 -0.0598,-1.994222 v -1.635262 c 0,-0.658091 0,-1.276305 0.29913,-1.994222 0.35896,-0.857519 3.15088,-5.543938 3.80897,-6.341633 0.43873,-0.538436 0.6581,-0.777742 1.07688,-0.977167 0.29913,-0.159535 0.67804,-0.239306 0.87746,-0.239306 0.21937,0 0.3789,-0.05985 0.3789,-0.199422 0,-0.119657 -0.13959,-0.159541 -0.35896,-0.159541 -0.3789,0 -1.69509,0.05985 -2.13382,0.05985 -0.57832,0 -1.21647,-0.05985 -1.87457,-0.05985 -0.2393,0 -0.33901,0.03985 -0.33901,0.17948 0,0.119658 0.17948,0.159541 0.35895,0.199429 0.33903,0.07976 0.41879,0.299131 0.41879,0.498549 0,0.259251 -0.0798,0.598269 -0.27919,1.037 -0.27919,0.618207 -2.79191,5.005495 -2.99133,5.484113 -0.31908,-0.558382 -3.11099,-5.364462 -3.39018,-5.962731 -0.13961,-0.279189 -0.23931,-0.518495 -0.23931,-0.67803 0,-0.159541 0.0997,-0.319076 0.27919,-0.358963 0.29913,-0.07977 0.43874,-0.09971 0.43874,-0.219367 0,-0.119648 -0.0997,-0.17948 -0.29914,-0.17948 -0.89741,0 -1.71503,0.05985 -2.13382,0.05985 -0.6581,0 -2.15376,-0.05985 -2.51272,-0.05985 -0.23931,0 -0.3789,0.05985 -0.3789,0.17948 0,0.139596 0.13959,0.179483 0.29914,0.179483 0.23929,0 0.57832,0.119655 0.83756,0.259251 0.3789,0.21936 0.87746,0.717917 1.37602,1.455779 0.69797,1.036996 3.37024,5.424287 3.50983,5.743364 0.25925,0.578323 0.45867,1.017054 0.45867,2.093934 z"
           style="font-weight:bold;font-size:19.1004px;line-height:1.25;font-family:'Trajan Pro';-inkscape-font-specification:'Trajan Pro Bold';fill:#666666;stroke-width:5.25822"
           id="path734" /><path
           d="m 60.569379,-23.117162 c 0.633332,0 1.377788,-0.05554 1.766686,-0.211114 0.166661,-0.06671 0.21111,-0.111107 0.255553,-0.277778 0.100021,-0.322234 0.211114,-1.144459 0.211114,-1.255572 0,-0.07778 -0.0445,-0.166665 -0.111113,-0.166665 -0.07779,0 -0.100021,0.0445 -0.122222,0.188886 -0.03332,0.177784 -0.166669,0.444446 -0.33334,0.633346 -0.388898,0.433327 -0.866674,0.500004 -1.733349,0.500004 -1.311131,0 -3.044493,-1.066679 -3.044493,-3.311155 0,-0.92223 0.177784,-1.833353 0.900018,-2.45558 0.444453,-0.377786 0.9889,-0.533341 1.844469,-0.533341 0.900005,0 1.555565,0.233335 1.888911,0.555562 0.244452,0.244448 0.366664,0.577784 0.377786,0.877787 0,0.122222 0.02222,0.200002 0.100024,0.200002 0.08885,0 0.122216,-0.100001 0.133328,-0.233336 0.01103,-0.188892 0.01103,-0.711118 0.03332,-1.02223 0.02222,-0.333343 0.0445,-0.444456 0.0445,-0.522236 0,-0.05553 -0.03332,-0.1 -0.14445,-0.111106 -0.288891,-0.03332 -0.611111,-0.100004 -0.977788,-0.155563 -0.444453,-0.05553 -0.811123,-0.1 -1.422247,-0.1 -1.455574,0 -2.388913,0.377782 -3.100038,1.000009 -0.933359,0.833344 -1.144466,1.944469 -1.144466,2.588921 0,0.911127 0.255557,1.9778 1.222245,2.788923 0.88891,0.744455 2.022253,1.022233 3.355605,1.022233 z"
           style="font-weight:bold;font-size:10.6422px;line-height:1.25;font-family:'Trajan Pro';-inkscape-font-specification:'Trajan Pro Bold';fill:#666666;stroke-width:2.92972"
           id="path731" /><path
           d="m 67.825022,-23.117162 c 2.522247,0 4.100046,-1.700015 4.100046,-3.866711 0,-2.16669 -1.533357,-3.533375 -4.000052,-3.533375 -2.966693,0 -4.100054,2.088916 -4.100054,3.700046 0,1.677791 1.155568,3.70004 4.00006,3.70004 z m 0.399993,-0.51112 c -1.844459,0 -2.955588,-1.533344 -2.955588,-3.477813 0,-2.333368 1.277787,-2.911149 2.366695,-2.911149 1.577793,0 2.833365,1.288906 2.833365,3.377826 0,2.688915 -1.555578,3.011136 -2.244472,3.011136 z"
           style="font-weight:bold;font-size:10.6422px;line-height:1.25;font-family:'Trajan Pro';-inkscape-font-specification:'Trajan Pro Bold';fill:#666666;stroke-width:2.92972"
           id="path728" /><path
           d="m 74.2473,-28.383889 h 0.03332 c 0.188893,0.166665 1.222239,1.311124 2.288925,2.333354 1.022231,0.98891 2.244469,2.155591 2.85558,2.722259 0.100028,0.100018 0.233342,0.200005 0.400007,0.200005 0.07778,0 0.155556,-0.08885 0.155556,-0.300006 l 0.111113,-5.955628 c 0.01103,-0.533334 0.08885,-0.700003 0.355555,-0.777782 0.122235,-0.03332 0.200008,-0.03332 0.300006,-0.03332 0.111119,0 0.166678,-0.04443 0.166678,-0.100001 0,-0.07777 -0.08885,-0.08889 -0.222227,-0.08889 -0.477783,0 -0.844453,0.02222 -0.955573,0.02222 -0.211107,0 -0.733333,-0.02222 -1.244453,-0.02222 -0.14445,0 -0.244448,0.0111 -0.244448,0.08889 0,0.05554 0.03332,0.100001 0.155556,0.100001 0.133341,0 0.36667,0 0.51112,0.05553 0.233339,0.0889 0.322217,0.255557 0.33334,0.833348 l 0.100021,4.200044 h -0.0445 c -0.144451,-0.133344 -1.444466,-1.466686 -2.111142,-2.122247 -1.422237,-1.388903 -2.888923,-2.88892 -3.011149,-3.011142 -0.166665,-0.166672 -0.300006,-0.311115 -0.422221,-0.311115 -0.100025,0 -0.166668,0.133338 -0.166668,0.32222 l -0.08885,5.600074 c -0.01103,0.822225 -0.0445,1.077782 -0.299999,1.144446 -0.133342,0.03332 -0.311115,0.0445 -0.444457,0.0445 -0.08885,0 -0.155556,0.0445 -0.155556,0.100018 0,0.08885 0.08885,0.100021 0.22222,0.100021 0.500005,0 0.966689,-0.03332 1.055567,-0.03332 0.177791,0 0.633346,0.03332 1.266688,0.03332 0.133335,0 0.222227,-0.02222 0.222227,-0.100021 0,-0.05553 -0.05554,-0.100018 -0.166665,-0.100018 -0.155569,0 -0.344449,-0.01103 -0.511127,-0.06671 -0.188876,-0.06671 -0.311111,-0.2889 -0.333333,-1.022247 z"
           style="font-weight:bold;font-size:10.6422px;line-height:1.25;font-family:'Trajan Pro';-inkscape-font-specification:'Trajan Pro Bold';fill:#666666;stroke-width:2.92972"
           id="path725" /><path
           d="m 83.591849,-28.383889 h 0.03332 c 0.188899,0.166665 1.222238,1.311124 2.288918,2.333354 1.022237,0.98891 2.244476,2.155591 2.855593,2.722259 0.100021,0.100018 0.233329,0.200005 0.400007,0.200005 0.07779,0 0.155556,-0.08885 0.155556,-0.300006 l 0.111107,-5.955628 c 0.01103,-0.533334 0.08885,-0.700003 0.35556,-0.777782 0.122223,-0.03332 0.200002,-0.03332 0.300007,-0.03332 0.111106,0 0.166664,-0.04443 0.166664,-0.100001 0,-0.07777 -0.08885,-0.08889 -0.222219,-0.08889 -0.477787,0 -0.844454,0.02222 -0.95557,0.02222 -0.211111,0 -0.733343,-0.02222 -1.244457,-0.02222 -0.144457,0 -0.244454,0.0111 -0.244454,0.08889 0,0.05554 0.03332,0.100001 0.155569,0.100001 0.133328,0 0.366663,0 0.51111,0.05553 0.233329,0.0889 0.322227,0.255557 0.333336,0.833348 l 0.100025,4.200044 h -0.04443 c -0.144434,-0.133344 -1.444456,-1.466686 -2.111125,-2.122247 -1.42225,-1.388903 -2.888937,-2.88892 -3.011149,-3.011142 -0.166678,-0.166672 -0.300013,-0.311115 -0.422228,-0.311115 -0.100025,0 -0.166675,0.133338 -0.166675,0.32222 l -0.08885,5.600074 c -0.01103,0.822225 -0.0445,1.077782 -0.30001,1.144446 -0.133344,0.03332 -0.311122,0.0445 -0.444449,0.0445 -0.08885,0 -0.155556,0.0445 -0.155556,0.100018 0,0.08885 0.08885,0.100021 0.222219,0.100021 0.500012,0 0.966683,-0.03332 1.055574,-0.03332 0.177784,0 0.633339,0.03332 1.266678,0.03332 0.133338,0 0.22223,-0.02222 0.22223,-0.100021 0,-0.05553 -0.05554,-0.100018 -0.166671,-0.100018 -0.155556,0 -0.344456,-0.01103 -0.51112,-0.06671 -0.18889,-0.06671 -0.311112,-0.2889 -0.33334,-1.022247 z"
           style="font-weight:bold;font-size:10.6422px;line-height:1.25;font-family:'Trajan Pro';-inkscape-font-specification:'Trajan Pro Bold';fill:#666666;stroke-width:2.92972"
           id="path722" /><path
           d="m 92.436391,-25.983858 c 0,0.866675 0,1.61113 -0.0445,2.011127 -0.03332,0.277785 -0.08885,0.455569 -0.288891,0.500005 -0.08885,0.02222 -0.200005,0.03332 -0.344442,0.03332 -0.122229,0 -0.155556,0.05554 -0.155556,0.100018 0,0.06664 0.06671,0.100027 0.188886,0.100027 0.199999,0 0.444447,-0.01103 0.677789,-0.02222 0.233329,0 0.444456,-0.01116 0.555563,-0.01116 0.288883,0 0.65556,0.01116 1.133343,0.02222 0.47779,0.02222 1.066673,0.03332 1.800019,0.03332 0.36667,0 0.455562,0 0.522226,-0.244441 0.05554,-0.188893 0.133341,-0.833348 0.133341,-1.044462 0,-0.100017 -0.01103,-0.222219 -0.08885,-0.222219 -0.06671,0 -0.08885,0.0445 -0.111107,0.144436 -0.06671,0.388898 -0.17779,0.588903 -0.422238,0.70001 -0.255557,0.111113 -0.666669,0.122229 -0.922226,0.122229 -1.000016,0 -1.300022,-0.144444 -1.322236,-0.788905 -0.01103,-0.277771 0,-1.077782 0,-1.400012 v -0.755568 c 0,-0.05554 0.01103,-0.100021 0.05554,-0.100021 0.244448,0 1.35557,0.02222 1.533347,0.0445 0.366677,0.03332 0.488899,0.177784 0.54445,0.366676 0.02223,0.122223 0.02223,0.244442 0.03332,0.344442 0,0.0445 0.02222,0.07779 0.08885,0.07779 0.08885,0 0.100021,-0.133345 0.100021,-0.211114 0,-0.06671 0.02223,-0.44445 0.0445,-0.633346 0.05554,-0.477787 0.07779,-0.633342 0.07779,-0.688897 0,-0.05554 -0.03332,-0.100001 -0.07779,-0.100001 -0.0445,0 -0.07779,0.05554 -0.155563,0.122229 -0.08885,0.1 -0.233329,0.122218 -0.466671,0.14444 -0.22222,0.02222 -1.488901,0.02222 -1.711134,0.02222 -0.05554,0 -0.06664,-0.04443 -0.06664,-0.100004 v -2.333361 c 0,-0.05554 0.02222,-0.08889 0.06664,-0.08889 0.200005,0 1.366679,0.02222 1.53335,0.04443 0.488892,0.04443 0.566682,0.177777 0.644455,0.344448 0.05553,0.111113 0.06671,0.277778 0.06671,0.344449 0,0.07778 0.01103,0.122219 0.07779,0.122219 0.07778,0 0.100024,-0.111114 0.111113,-0.155556 0.02223,-0.111113 0.0445,-0.522226 0.05554,-0.622227 0.02222,-0.43334 0.07778,-0.544454 0.07778,-0.611117 0,-0.04443 -0.01103,-0.08889 -0.06671,-0.08889 -0.0445,0 -0.100028,0.03332 -0.155559,0.04443 -0.07778,0.01109 -0.233339,0.04443 -0.41112,0.05554 -0.188889,0.0111 -2.355585,0 -2.6667,0 -0.277785,0 -0.900008,-0.02222 -1.411128,-0.02222 -0.144444,0 -0.222227,0.02222 -0.222227,0.08889 0,0.06664 0.06671,0.100001 0.166675,0.100001 0.144444,0 0.311115,0.0111 0.388885,0.03332 0.311128,0.08889 0.400007,0.18889 0.422235,0.511117 0.01103,0.300006 0.01103,0.566679 0.01103,2.000028 z"
           style="font-weight:bold;font-size:10.6422px;line-height:1.25;font-family:'Trajan Pro';-inkscape-font-specification:'Trajan Pro Bold';fill:#666666;stroke-width:2.92972"
           id="path719" /><path
           d="m 102.34763,-23.117162 c 0.63334,0 1.37779,-0.05554 1.76669,-0.211114 0.16667,-0.06671 0.21112,-0.111107 0.25556,-0.277778 0.10002,-0.322234 0.21111,-1.144459 0.21111,-1.255572 0,-0.07778 -0.0445,-0.166665 -0.11111,-0.166665 -0.0778,0 -0.10002,0.0445 -0.12223,0.188886 -0.0333,0.177784 -0.16667,0.444446 -0.33333,0.633346 -0.38889,0.433327 -0.86669,0.500004 -1.73336,0.500004 -1.31113,0 -3.044478,-1.066679 -3.044478,-3.311155 0,-0.92223 0.17777,-1.833353 0.900008,-2.45558 0.44446,-0.377786 0.9889,-0.533341 1.84447,-0.533341 0.9,0 1.55557,0.233335 1.88891,0.555562 0.24445,0.244448 0.36667,0.577784 0.37778,0.877787 0,0.122222 0.0222,0.200002 0.10003,0.200002 0.0889,0 0.12223,-0.100001 0.13334,-0.233336 0.011,-0.188892 0.011,-0.711118 0.0333,-1.02223 0.0222,-0.333343 0.0445,-0.444456 0.0445,-0.522236 0,-0.05553 -0.0333,-0.1 -0.14444,-0.111106 -0.28888,-0.03332 -0.61112,-0.100004 -0.97779,-0.155563 -0.44445,-0.05553 -0.81112,-0.1 -1.42223,-0.1 -1.45558,0 -2.388927,0.377782 -3.100039,1.000009 -0.933345,0.833344 -1.144459,1.944469 -1.144459,2.588921 0,0.911127 0.255557,1.9778 1.222232,2.788923 0.88891,0.744455 2.022246,1.022233 3.355606,1.022233 z"
           style="font-weight:bold;font-size:10.6422px;line-height:1.25;font-family:'Trajan Pro';-inkscape-font-specification:'Trajan Pro Bold';fill:#666666;stroke-width:2.92972"
           id="path716" /><path
           d="m 107.91436,-25.983858 c 0,0.866675 0,1.61113 -0.0445,2.011127 -0.0333,0.277785 -0.0889,0.455569 -0.2889,0.500005 -0.0778,0.02222 -0.2,0.03332 -0.34445,0.03332 -0.12222,0 -0.15556,0.05554 -0.15556,0.100018 0,0.06664 0.0667,0.100027 0.1889,0.100027 0.38888,0 1.05557,-0.03332 1.27779,-0.03332 0.27778,0 0.93334,0.03332 1.57779,0.03332 0.11111,0 0.18889,-0.03332 0.18889,-0.100027 0,-0.0445 -0.0445,-0.100018 -0.15556,-0.100018 -0.14444,0 -0.36666,-0.01103 -0.5,-0.03332 -0.28889,-0.0445 -0.34445,-0.22222 -0.37779,-0.488882 -0.0445,-0.41112 -0.0555,-1.155575 -0.0555,-2.02225 v -3.822275 l 1.23336,0.02222 c 0.87778,0.0111 1.13334,0.300006 1.15557,0.544447 l 0.011,0.100007 c 0.011,0.144444 0.0333,0.188886 0.11111,0.188886 0.0555,0 0.0778,-0.05554 0.0889,-0.155555 0,-0.244445 0.0222,-0.944454 0.0222,-1.144453 0,-0.14445 -0.011,-0.200008 -0.0778,-0.200008 -0.0333,0 -0.11111,0.02222 -0.26669,0.04443 -0.14443,0.02222 -0.35555,0.04443 -0.66666,0.04443 h -3.96671 c -0.32224,0 -0.6889,-0.01109 -0.9778,-0.04443 -0.24444,-0.03332 -0.34444,-0.111116 -0.42222,-0.111116 -0.0555,0 -0.0888,0.05554 -0.11111,0.17778 -0.0222,0.07778 -0.21111,0.9889 -0.21111,1.144456 0,0.100001 0.0222,0.155559 0.0889,0.155559 0.0667,0 0.0888,-0.04443 0.11112,-0.122222 0.0222,-0.06664 0.0667,-0.188893 0.16666,-0.322227 0.14445,-0.211114 0.37778,-0.277785 0.94446,-0.288891 l 1.45557,-0.03332 z"
           style="font-weight:bold;font-size:10.6422px;line-height:1.25;font-family:'Trajan Pro';-inkscape-font-specification:'Trajan Pro Bold';fill:#666666;stroke-width:2.92972"
           id="path713" /><path
           d="m 113.64776,-25.983858 c 0,0.911124 0,1.666685 -0.0445,2.05557 -0.0333,0.277791 -0.0888,0.411126 -0.2889,0.455562 -0.0888,0.02222 -0.2,0.03332 -0.34445,0.03332 -0.12221,0 -0.15556,0.05554 -0.15556,0.100018 0,0.06664 0.0667,0.100027 0.1889,0.100027 0.38889,0 1.05557,-0.03332 1.27779,-0.03332 0.26667,0 0.93334,0.03332 1.57779,0.03332 0.11111,0 0.1889,-0.03332 0.1889,-0.100027 0,-0.0445 -0.0445,-0.100018 -0.15556,-0.100018 -0.14445,0 -0.36667,-0.01103 -0.50001,-0.03332 -0.28889,-0.0445 -0.35555,-0.188886 -0.3889,-0.44444 -0.0445,-0.400007 -0.0445,-1.155568 -0.0445,-2.066692 v -1.666691 c 0,-1.43335 0,-1.700022 0.0222,-2.000018 0.0222,-0.333343 0.10002,-0.466678 0.36667,-0.51112 0.11111,-0.02222 0.18889,-0.03332 0.28889,-0.03332 0.10003,0 0.15556,-0.02222 0.15556,-0.111107 0,-0.05554 -0.0778,-0.07779 -0.2,-0.07779 -0.37779,0 -1.01112,0.02222 -1.25557,0.02222 -0.27778,0 -0.94446,-0.02222 -1.31113,-0.02222 -0.15556,0 -0.23334,0.02222 -0.23334,0.07779 0,0.08889 0.0555,0.111107 0.15557,0.111107 0.12222,0 0.24443,0.0111 0.35555,0.04443 0.21111,0.06664 0.31112,0.177777 0.33334,0.500004 0.011,0.300006 0.011,0.566679 0.011,2.000028 z"
           style="font-weight:bold;font-size:10.6422px;line-height:1.25;font-family:'Trajan Pro';-inkscape-font-specification:'Trajan Pro Bold';fill:#666666;stroke-width:2.92972"
           id="path710" /><path
           d="m 120.99228,-23.117162 c 2.52226,0 4.10006,-1.700015 4.10006,-3.866711 0,-2.16669 -1.53335,-3.533375 -4.00005,-3.533375 -2.9667,0 -4.10005,2.088916 -4.10005,3.700046 0,1.677791 1.15557,3.70004 4.00004,3.70004 z m 0.40001,-0.51112 c -1.84446,0 -2.95558,-1.533344 -2.95558,-3.477813 0,-2.333368 1.27779,-2.911149 2.36669,-2.911149 1.5778,0 2.83337,1.288906 2.83337,3.377826 0,2.688915 -1.55558,3.011136 -2.24448,3.011136 z"
           style="font-weight:bold;font-size:10.6422px;line-height:1.25;font-family:'Trajan Pro';-inkscape-font-specification:'Trajan Pro Bold';fill:#666666;stroke-width:2.92972"
           id="path707" /><path
           d="m 127.41458,-28.383889 h 0.0333 c 0.18889,0.166665 1.22224,1.311124 2.28891,2.333354 1.02224,0.98891 2.24448,2.155591 2.8556,2.722259 0.10002,0.100018 0.23333,0.200005 0.40001,0.200005 0.0778,0 0.15555,-0.08885 0.15555,-0.300006 l 0.11111,-5.955628 c 0.011,-0.533334 0.0888,-0.700003 0.35556,-0.777782 0.12221,-0.03332 0.2,-0.03332 0.3,-0.03332 0.11111,0 0.16667,-0.04443 0.16667,-0.100001 0,-0.07777 -0.0889,-0.08889 -0.22222,-0.08889 -0.47779,0 -0.84446,0.02222 -0.95557,0.02222 -0.21111,0 -0.73335,-0.02222 -1.24446,-0.02222 -0.14445,0 -0.24445,0.0111 -0.24445,0.08889 0,0.05554 0.0333,0.100001 0.15555,0.100001 0.13334,0 0.36668,0 0.51113,0.05553 0.23333,0.0889 0.32222,0.255557 0.33333,0.833348 l 0.10003,4.200044 h -0.0445 c -0.14445,-0.133344 -1.44446,-1.466686 -2.11114,-2.122247 -1.42224,-1.388903 -2.88893,-2.88892 -3.01114,-3.011142 -0.16668,-0.166672 -0.3,-0.311115 -0.42224,-0.311115 -0.10002,0 -0.16666,0.133338 -0.16666,0.32222 l -0.0889,5.600074 c -0.011,0.822225 -0.0445,1.077782 -0.3,1.144446 -0.13333,0.03332 -0.31111,0.0445 -0.44444,0.0445 -0.0888,0 -0.15556,0.0445 -0.15556,0.100018 0,0.08885 0.0888,0.100021 0.22222,0.100021 0.50001,0 0.96668,-0.03332 1.05558,-0.03332 0.17777,0 0.63333,0.03332 1.26667,0.03332 0.13334,0 0.22223,-0.02222 0.22223,-0.100021 0,-0.05553 -0.0555,-0.100018 -0.16667,-0.100018 -0.15555,0 -0.34445,-0.01103 -0.51112,-0.06671 -0.18889,-0.06671 -0.31111,-0.2889 -0.33334,-1.022247 z"
           style="font-weight:bold;font-size:10.6422px;line-height:1.25;font-family:'Trajan Pro';-inkscape-font-specification:'Trajan Pro Bold';fill:#666666;stroke-width:2.92972"
           id="path704" /><path
           style="color:#000000;fill:#d9230f;fill-opacity:1;stroke-width:2.52675;stroke-linecap:round;stroke-linejoin:bevel;-inkscape-stroke:none"
           d="m 9.8153492,-57.843683 c -2.7196087,-0.06153 -5.6120997,0.459481 -8.4028021,1.580619 -5.5814065,2.242287 -10.7684772,6.999584 -13.0772651,14.511893 a 1.3247125,1.3247125 0 0 0 0.877339,1.655006 1.3247125,1.3247125 0 0 0 1.6550125,-0.877338 c 2.0759973,-6.754857 6.6172538,-10.856687 11.5331482,-12.831604 4.915893,-1.974927 10.1934363,-1.708825 13.4576783,0.17125 3.387892,1.951395 5.007419,4.868457 5.463367,7.737432 0.45586,2.868445 -0.360408,5.651381 -1.681686,7.079072 -1.418754,1.532218 -3.083264,2.00381 -4.604275,1.902072 -1.521011,-0.101744 -2.836242,-0.872956 -3.340906,-1.611492 -0.585161,-0.856397 -0.613243,-1.661083 -0.404278,-2.358294 0.0834,-0.278271 0.233729,-0.495804 0.381817,-0.700462 -0.125296,0.584857 0.005,1.082156 0.298998,1.506208 0.323224,0.466151 0.913945,0.846116 1.583423,0.895593 h 0.0013 c 0.812021,0.05991 1.438836,-0.28646 1.924531,-0.81838 0.485694,-0.531927 0.792304,-1.357195 0.661161,-2.220726 -0.152445,-1.004708 -0.787825,-1.751681 -1.645184,-2.237563 -0.857359,-0.485879 -2.034201,-0.65022 -3.172458,-0.202144 -1.271057,0.500393 -2.1567867,1.63244 -2.5716564,3.016647 -0.4148686,1.38421 -0.2784109,3.102022 0.7538107,4.612692 1.1128117,1.628517 3.1158507,2.611565 5.3524687,2.76117 2.236618,0.149613 4.768194,-0.630674 6.725331,-2.744319 2.054061,-2.218403 2.92259,-5.718297 2.354074,-9.295581 -0.568441,-3.577295 -2.682998,-7.270138 -6.757546,-9.617045 -2.09916,-1.209034 -4.645826,-1.853217 -7.3654344,-1.914706 z m 2.4790088,15.647526 c 0.09349,-0.03682 0.129364,0.02417 0.209157,0.0098 a 1.3247125,1.3247125 0 0 0 -0.619049,0.329874 c 0.149483,-0.151704 0.305134,-0.298457 0.409892,-0.339702 z"
           id="path701" /><path
           style="color:#000000;fill:#666666;stroke-width:0.332261;stroke-linecap:round;stroke-linejoin:round;-inkscape-stroke:none"
           d="m 145.34118,-57.847678 c -0.49,-0.01106 -1.0106,0.08303 -1.51288,0.284821 -1.00457,0.403577 -1.93857,1.260617 -2.3537,2.61138 a 0.2625587,0.2625587 0 0 0 0.17389,0.328013 0.2625587,0.2625587 0 0 0 0.32801,-0.173882 c 0.36899,-1.200634 1.1748,-1.927796 2.04746,-2.278379 0.87266,-0.350587 1.80965,-0.30184 2.38433,0.02916 0.59921,0.34513 0.88403,0.859206 0.96448,1.365402 0.0804,0.506196 -0.065,0.996888 -0.29423,1.244497 -0.2485,0.268375 -0.5379,0.349624 -0.80296,0.331892 -0.26507,-0.01773 -0.4936,-0.153619 -0.57795,-0.277068 -0.10032,-0.14681 -0.10441,-0.281794 -0.069,-0.399819 0.003,-0.0092 0.009,-0.01418 0.0125,-0.02289 0.008,0.06356 0.0279,0.122219 0.0639,0.174066 0.0618,0.08907 0.17498,0.161888 0.30235,0.171298 0.15564,0.0115 0.2734,-0.05443 0.36493,-0.154685 0.0915,-0.100249 0.14937,-0.25627 0.12478,-0.418279 -0.0288,-0.189986 -0.14742,-0.328332 -0.30678,-0.418645 -0.15937,-0.09032 -0.37888,-0.120415 -0.58958,-0.03747 -0.23703,0.09331 -0.39894,0.301605 -0.47513,0.555797 -0.0762,0.254193 -0.0505,0.570406 0.13844,0.846894 0.20489,0.299851 0.56957,0.477632 0.97648,0.504851 0.4069,0.02722 0.86806,-0.115514 1.22327,-0.499129 0.37443,-0.404378 0.53045,-1.037231 0.42769,-1.683818 -0.10276,-0.646587 -0.48575,-1.314386 -1.22106,-1.737904 -0.37991,-0.218818 -0.83922,-0.335043 -1.32922,-0.346105 z"
           id="path1038" /><path
           id="path626"
           style="color:#000000;fill:#666666;stroke-width:0.332258;stroke-linecap:round;stroke-linejoin:round"
           d="m 141.70231,-52.771859 a 0.23939561,0.23939899 0 0 0 -0.12811,0.441557 l 2.67156,1.693935 -2.67156,1.693988 a 0.23939561,0.23939899 0 0 0 0.12811,0.441553 h 2.86921 0.24219 2.86921 a 0.23939561,0.23939899 0 0 0 0.1283,-0.441553 l -2.67171,-1.693988 2.67171,-1.693935 a 0.23939561,0.23939899 0 0 0 -0.1283,-0.441557 h -2.86921 -0.24219 z m 0.82439,0.478819 h 2.04482 0.24219 2.04486 l -2.16593,1.373357 z m 2.16594,1.940039 2.16593,1.37355 h -2.04486 -0.24219 -2.04482 z" /><path
           id="path651"
           style="color:#000000;fill:#666666;stroke-width:0.332772;stroke-linecap:round;stroke-linejoin:round"
           d="m 147.70192,-32.464212 a 0.23896188,0.23982249 0 0 0 -0.14604,0.03631 l -2.8631,1.814856 -2.86319,-1.814856 a 0.23896188,0.23982249 0 0 0 -0.24287,-0.0072 0.23896188,0.23982249 0 0 0 -0.12368,0.210024 v 1.818923 0.153527 1.81907 a 0.23896188,0.23982249 0 0 0 0.36655,0.202623 l 2.86319,-1.814852 2.8631,1.814852 a 0.23896188,0.23982249 0 0 0 0.3665,-0.202623 v -1.819073 -0.153524 -1.818926 a 0.23896188,0.23982249 0 0 0 -0.12344,-0.210025 0.23896188,0.23982249 0 0 0 -0.097,-0.0291 z m -5.76106,0.674178 2.30452,1.460717 -2.30452,1.460716 v -1.384026 -0.153525 z m 5.50375,0 v 1.383882 0.153525 1.384026 l -2.30438,-1.460716 z" /><path
           style="color:#000000;fill:#666666;stroke-width:0.321752;stroke-linecap:round;stroke-linejoin:round"
           d="m 142.497,-47.69511 c -0.0772,-6.71e-4 -0.1555,0.01696 -0.22354,0.05635 -0.13606,0.07875 -0.22969,0.208301 -0.31615,0.374711 -0.17291,0.332817 -0.32214,0.846924 -0.48848,1.6372 a 0.23275961,0.25191491 0 0 0 0.17526,0.301441 0.23275961,0.25191491 0 0 0 0.27852,-0.189681 c 0.16221,-0.770632 0.31554,-1.261405 0.44054,-1.502004 0.0625,-0.120298 0.11663,-0.169729 0.1299,-0.177405 0.0133,-0.0077 -0.0128,-0.0098 0.0149,0.005 0.0556,0.02967 0.22821,0.234405 0.40464,0.551372 0.17643,0.316968 0.37843,0.736562 0.61202,1.189589 a 0.23275961,0.25191491 0 0 0 0.31667,0.09707 0.23275961,0.25191491 0 0 0 0.0899,-0.342725 c -0.22952,-0.44513 -0.43098,-0.864761 -0.61976,-1.203909 -0.18877,-0.339149 -0.34302,-0.607364 -0.59759,-0.743283 -0.0636,-0.03398 -0.13966,-0.05305 -0.21684,-0.05374 z"
           id="path636" /><path
           style="color:#000000;fill:#666666;stroke-width:0.321752;stroke-linecap:round;stroke-linejoin:round"
           d="m 143.79047,-45.813932 a 0.23278289,0.2519401 0 0 0 -0.26426,0.368205 c 0.54795,1.030466 1.07013,1.607258 1.58882,1.86723 0.5187,0.259971 1.02488,0.164784 1.41769,-0.08629 0.39281,-0.251071 0.69464,-0.639476 0.92148,-0.992285 0.22683,-0.352809 0.38323,-0.685478 0.43728,-0.787356 a 0.23275961,0.25191491 0 0 0 -0.0859,-0.343842 0.23275961,0.25191491 0 0 0 -0.3177,0.09298 c -0.0741,0.13969 -0.20981,0.430153 -0.4158,0.750537 -0.20599,0.320383 -0.47776,0.655422 -0.77612,0.846122 -0.29835,0.190696 -0.60088,0.255758 -0.98539,0.06304 -0.38186,-0.19139 -0.85368,-0.677272 -1.37044,-1.643521 a 0.23275961,0.25191491 0 0 0 -0.1445,-0.133335 z"
           id="path633" /><path
           id="path641"
           style="color:#000000;fill:#666666;stroke-width:0.332261;stroke-linecap:round;stroke-linejoin:round"
           d="m 143.06656,-42.613314 a 0.25005651,0.25005651 0 0 0 -0.2501,0.249912 v 2.146235 h -1.0876 a 0.25005651,0.25005651 0 0 0 -0.25011,0.249908 0.25005651,0.25005651 0 0 0 0.25011,0.250156 h 1.08701 l -0.003,1.113972 a 0.25005651,0.25005651 0 0 0 0.24937,0.250689 0.25005651,0.25005651 0 0 0 0.25064,-0.249566 l 0.003,-1.115095 h 1.12139 a 0.25005651,0.25005651 0 0 0 0.24991,-0.250156 0.25005651,0.25005651 0 0 0 -0.24991,-0.249908 h -1.12081 v -2.146235 a 0.25005651,0.25005651 0 0 0 -0.24996,-0.249912 z m 2.24201,2.396147 a 0.25005651,0.25005651 0 0 0 -0.2501,0.249908 0.25005651,0.25005651 0 0 0 0.2501,0.250156 h 2.34819 a 0.25005651,0.25005651 0 0 0 0.24991,-0.250156 0.25005651,0.25005651 0 0 0 -0.24991,-0.249908 z" /><path
           style="color:#000000;fill:#666666;stroke-width:0.333085;stroke-linecap:round;stroke-linejoin:round"
           d="m 145.44781,-37.541483 a 0.2504322,0.25097394 0 0 0 -0.22275,0.156719 l -1.31297,3.262211 -0.6782,-1.315442 a 0.2504322,0.25097394 0 0 0 -0.22256,-0.135788 h -1.298 a 0.25040716,0.25094885 0 0 0 -0.25029,0.251011 0.25040716,0.25094885 0 0 0 0.25029,0.250824 h 1.1455 l 0.8588,1.665562 a 0.2504322,0.25097394 0 0 0 0.45473,-0.02129 l 1.30798,-3.249242 0.70981,1.441412 a 0.2504322,0.25097394 0 0 0 0.22201,0.140048 l 1.25733,0.0124 a 0.25040716,0.25094885 0 0 0 0.25287,-0.248416 0.25040716,0.25094885 0 0 0 -0.24788,-0.253422 l -1.10335,-0.01093 -0.8893,-1.805979 a 0.2504322,0.25097394 0 0 0 -0.23402,-0.139677 z"
           id="path646" /><path
           id="path656"
           style="color:#000000;fill:#666666;stroke-width:0.333809;stroke-linecap:round;stroke-linejoin:round;paint-order:stroke markers fill"
           d="m 147.53828,-27.388141 a 0.25040727,0.2520389 0 0 0 -10e-4,9.4e-5 l -1.46908,0.001 a 0.25040727,0.2520389 0 0 0 -0.25007,0.252087 0.25040727,0.2520389 0 0 0 0.25045,0.251943 l 0.0673,-5e-5 -1.51922,0.564577 c -0.16252,-0.206485 -0.413,-0.340007 -0.69262,-0.340007 -0.4862,0 -0.88509,0.403241 -0.88509,0.892868 0,0.4024 0.26943,0.746279 0.63531,0.856044 l 0.002,0.551581 -1.96311,0.0039 a 0.25040727,0.2520389 0 0 0 -0.24992,0.252483 0.25040727,0.2520389 0 0 0 0.25085,0.251547 l 1.96374,-0.0038 0.002,0.48547 a 0.25040727,0.2520389 0 0 0 0.25119,0.25135 0.25040727,0.2520389 0 0 0 0.24957,-0.252825 l -0.002,-0.480696 1.98032,-0.0038 a 0.25040727,0.2520389 0 0 0 0.24986,-0.25248 0.25040727,0.2520389 0 0 0 -0.25079,-0.251695 l -1.98101,0.0039 -0.002,-0.555372 c 0.36521,-0.110165 0.63389,-0.453701 0.63389,-0.855649 0,-0.02876 -0.002,-0.05717 -0.004,-0.08526 l 2.61533,-0.971921 0.002,1.331619 a 0.25040727,0.2520389 0 0 0 0.25065,0.251695 0.25040727,0.2520389 0 0 0 0.25011,-0.252285 l -0.002,-1.644306 a 0.25040727,0.2520389 0 0 0 0,-5.1e-5 0.25040727,0.2520389 0 0 0 0,-5e-5 0.25040727,0.2520389 0 0 0 0,-4.7e-5 0.25040727,0.2520389 0 0 0 0,-5e-5 0.25040727,0.2520389 0 0 0 -0.009,-0.06503 0.25040727,0.2520389 0 0 0 0,-5e-5 0.25040727,0.2520389 0 0 0 -5e-5,-1.88e-4 0.25040727,0.2520389 0 0 0 -0.003,-0.0083 0.25040727,0.2520389 0 0 0 -0.008,-0.02283 0.25040727,0.2520389 0 0 0 -0.0144,-0.0294 0.25040727,0.2520389 0 0 0 -9e-5,-1.87e-4 0.25040727,0.2520389 0 0 0 -0.0181,-0.02722 0.25040727,0.2520389 0 0 0 -9e-5,-1.87e-4 0.25040727,0.2520389 0 0 0 -0.0461,-0.04637 0.25040727,0.2520389 0 0 0 -1.9e-4,-9.4e-5 0.25040727,0.2520389 0 0 0 -0.0271,-0.01817 0.25040727,0.2520389 0 0 0 -2e-4,-9.4e-5 0.25040727,0.2520389 0 0 0 -0.0602,-0.02504 0.25040727,0.2520389 0 0 0 -1.9e-4,-5e-5 0.25040727,0.2520389 0 0 0 -0.007,-0.0013 0.25040727,0.2520389 0 0 0 -0.0256,-0.0051 0.25040727,0.2520389 0 0 0 -0.0327,-0.002 l -0.13068,9.7e-5 a 0.25040727,0.2520389 0 0 0 -0.001,-9.7e-5 z m -3.61413,1.233713 c 0.15766,0 0.29081,0.09207 0.35047,0.227325 a 0.25040727,0.2520389 0 0 0 0.001,0.0039 0.25040727,0.2520389 0 0 0 0.005,0.011 c 0.0177,0.045 0.0275,0.09434 0.0275,0.146448 0,0.21807 -0.16945,0.388643 -0.38412,0.388643 -2.9e-4,0 -6.7e-4,0 -0.001,0 -0.21423,-3.35e-4 -0.38319,-0.170888 -0.38319,-0.388643 0,-0.218073 0.16945,-0.388643 0.38413,-0.388643 z" /></g></g></g><g
     id="g1"
     inkscape:groupmode="layer"
     inkscape:label="1"
     transform="matrix(0.26458332,0,0,0.26458334,145.46666,0)"><g
       inkscape:groupmode="layer"
       id="layer2"
       inkscape:label="main"
       transform="matrix(3.7795277,0,0,3.7795275,-549.79528,0)" /></g></svg>
