<?xml version="1.0" encoding="UTF-8" standalone="no"?>
<!-- Created with Inkscape (http://www.inkscape.org/) -->

<svg
   width="512"
   height="256"
   viewBox="0 0 135.46666 67.733335"
   version="1.1"
   id="svg1"
   inkscape:version="1.4.3 (0d15f75042, 2025-12-25)"
   sodipodi:docname="home-logo.svg"
   xml:space="preserve"
   xmlns:inkscape="http://www.inkscape.org/namespaces/inkscape"
   xmlns:sodipodi="http://sodipodi.sourceforge.net/DTD/sodipodi-0.dtd"
   xmlns:xlink="http://www.w3.org/1999/xlink"
   xmlns="http://www.w3.org/2000/svg"
   xmlns:svg="http://www.w3.org/2000/svg"><sodipodi:namedview
     id="namedview1"
     pagecolor="#ffffff"
     bordercolor="#000000"
     borderopacity="0.25"
     inkscape:showpageshadow="false"
     inkscape:pageopacity="0.0"
     inkscape:pagecheckerboard="0"
     inkscape:deskcolor="#d1d1d1"
     inkscape:document-units="px"
     inkscape:zoom="2.1131032"
     inkscape:cx="324.64103"
     inkscape:cy="174.15146"
     inkscape:window-width="2514"
     inkscape:window-height="1404"
     inkscape:window-x="2606"
     inkscape:window-y="0"
     inkscape:window-maximized="1"
     inkscape:current-layer="layer1" /><defs
     id="defs1"><linearGradient
       id="linearGradient3"
       inkscape:collect="always"><stop
         style="stop-color:#ffffff;stop-opacity:1;"
         offset="0"
         id="stop3" /><stop
         style="stop-color:#d9230f;stop-opacity:1"
         offset="1"
         id="stop4" /></linearGradient><linearGradient
       inkscape:collect="always"
       xlink:href="#linearGradient3"
       id="linearGradient4"
       x1="32.186363"
       y1="38.400898"
       x2="98.275101"
       y2="38.400898"
       gradientUnits="userSpaceOnUse" /></defs><g
     inkscape:label="Layer 1"
     inkscape:groupmode="layer"
     id="layer1"><g
       id="g2"
       transform="matrix(1.0434638,0,0,1.0437039,-2.9440024,3.920298)"
       style="stroke-width:0.958236"><g
         id="g1"
         transform="matrix(0.94806858,0,0,0.94761633,3.5153188,0.63363555)"
         style="stroke-width:1.01097"><ellipse
           style="fill:#d9230f;fill-opacity:1;stroke:#d9230f;stroke-width:0.505482;stroke-linecap:square;stroke-opacity:1"
           id="path1"
           cx="16.477251"
           cy="27.632769"
           rx="15.459113"
           ry="15.463493" /><path
           style="font-weight:800;font-stretch:condensed;font-size:28.2133px;font-family:'Barlow Condensed';-inkscape-font-specification:'Barlow Condensed,  Ultra-Bold Condensed';letter-spacing:0px;fill:#d9230f;stroke-width:0.505482;stroke-linecap:square"
           d="m 134.71686,20.895812 c 0,0.09406 -0.0376,0.17871 -0.11284,0.253956 -0.0564,0.05644 -0.13162,0.08465 -0.22568,0.08465 h -5.67006 c -0.094,0 -0.14105,0.04703 -0.14105,0.141086 v 3.55538 c 0,0.09406 0.047,0.141087 0.14105,0.141087 h 3.10302 c 0.0941,0 0.16925,0.03762 0.22568,0.112868 0.0752,0.05644 0.11283,0.131681 0.11283,0.225738 v 3.357859 c 0,0.09405 -0.0376,0.178711 -0.11283,0.253956 -0.0564,0.05644 -0.13163,0.08465 -0.22568,0.08465 h -3.10302 c -0.094,0 -0.14105,0.04703 -0.14105,0.141086 v 3.583598 c 0,0.09405 0.047,0.141086 0.14105,0.141086 h 5.67006 c 0.0941,0 0.16926,0.03762 0.22568,0.112869 0.0752,0.05644 0.11284,0.131681 0.11284,0.225739 v 3.329641 c 0,0.09406 -0.0376,0.17871 -0.11284,0.253956 -0.0564,0.05644 -0.13162,0.08465 -0.22568,0.08465 h -10.15535 c -0.094,0 -0.17865,-0.02821 -0.25387,-0.08465 -0.0564,-0.07525 -0.0846,-0.159898 -0.0846,-0.253956 v -7.534019 h -4.95271 v -4.035073 h 4.95271 v -7.505802 c 0,-0.09405 0.0282,-0.169304 0.0846,-0.225739 0.0752,-0.07524 0.15985,-0.112869 0.25387,-0.112869 h 10.15535 c 0.0941,0 0.16926,0.03762 0.22568,0.112869 0.0752,0.05644 0.11284,0.131681 0.11284,0.225739 z"
           id="path12"
           sodipodi:nodetypes="sssssssscssssssssscssssscsccccsssscss" /><path
           id="path11"
           style="font-weight:800;font-stretch:condensed;font-size:28.2133px;font-family:'Barlow Condensed';-inkscape-font-specification:'Barlow Condensed,  Ultra-Bold Condensed';letter-spacing:0px;fill:#d9230f;stroke-width:0.505482;stroke-linecap:square"
           d="m 113.44682,17.227372 c -0.20689,0 -0.32879,0.103648 -0.36639,0.310575 l -4.09019,19.074805 c -0.0564,0.24455 0.0372,0.366903 0.28164,0.366903 h 4.00596 c 0.22568,0 0.3481,-0.103648 0.3669,-0.310575 l 0.33848,-2.454631 c 0,-0.09406 0.0562,-0.141077 0.16898,-0.141077 h 3.04685 c 0.11283,0 0.16897,0.04702 0.16897,0.141077 l 0.36691,2.454631 c 0.0188,0.206927 0.14123,0.310575 0.3669,0.310575 h 4.09019 c 0.20687,0 0.31007,-0.08443 0.31007,-0.253731 l -0.0279,-0.113172 -4.06228,-19.074805 c -0.0376,-0.206927 -0.16004,-0.310575 -0.36691,-0.310575 z m 2.17248,6.546371 c 0.0376,0 0.066,0.03793 0.0847,0.113171 l 1.01544,6.433715 c 0,0.09406 -0.0379,0.141077 -0.11317,0.141077 h -1.88981 c -0.0752,0 -0.11265,-0.04702 -0.11265,-0.141077 l 0.93069,-6.433715 c 0.0188,-0.07525 0.0472,-0.113171 0.0847,-0.113171 z" /><path
           style="font-weight:800;font-stretch:condensed;font-size:28.2133px;font-family:'Barlow Condensed';-inkscape-font-specification:'Barlow Condensed,  Ultra-Bold Condensed';letter-spacing:0px;fill:#d9230f;stroke-width:0.505482;stroke-linecap:square"
           d="m 109.4131,17.227563 q 0.14105,0 0.22568,0.112869 0.11283,0.08465 0.11283,0.225739 v 3.329641 q 0,0.141087 -0.11283,0.253956 -0.0846,0.08465 -0.22568,0.08465 h -3.49795 q -0.14104,0 -0.14104,0.141086 v 15.265559 q 0,0.141087 -0.11285,0.253956 -0.0846,0.08465 -0.22567,0.08465 h -4.00572 q -0.14105,0 -0.25388,-0.08465 -0.0846,-0.112869 -0.0846,-0.253956 V 21.375506 q 0,-0.141086 -0.14105,-0.141086 h -3.356907 q -0.141046,0 -0.253883,-0.08465 -0.08463,-0.112869 -0.08463,-0.253956 v -3.329641 q 0,-0.141087 0.08463,-0.225739 0.112837,-0.112869 0.253883,-0.112869 z"
           id="path9" /><path
           style="font-weight:800;font-stretch:condensed;font-size:28.2133px;font-family:'Barlow Condensed';-inkscape-font-specification:'Barlow Condensed,  Ultra-Bold Condensed';letter-spacing:0px;fill:#d9230f;stroke-width:0.505482;stroke-linecap:square"
           d="m 88.143262,36.979673 c -0.09403,0 -0.178659,-0.02821 -0.253883,-0.08465 -0.05642,-0.07525 -0.08463,-0.159898 -0.08463,-0.253956 V 17.566171 c 0,-0.09405 0.02821,-0.169304 0.08463,-0.225739 0.07522,-0.07524 0.159852,-0.112869 0.253883,-0.112869 h 4.005721 c 0.09404,0 0.169256,0.03762 0.225675,0.112869 0.07523,0.05644 0.112837,0.131681 0.112837,0.225739 V 32.83173 c 0,0.09405 0.04701,0.141086 0.141046,0.141086 h 6.231737 c 0.09399,0 0.169246,0.03762 0.225668,0.112869 0.07519,0.05644 0.112834,0.131681 0.112834,0.225739 v 3.329641 c 0,0.09406 -0.03759,0.17871 -0.112834,0.253956 -0.05639,0.05644 -0.131641,0.08465 -0.225668,0.08465 z"
           id="path8"
           sodipodi:nodetypes="scssssscsssscsssss" /><path
           style="font-weight:800;font-stretch:condensed;font-size:28.2133px;font-family:'Barlow Condensed';-inkscape-font-specification:'Barlow Condensed,  Ultra-Bold Condensed';letter-spacing:0px;fill:#d9230f;stroke-width:0.505482;stroke-linecap:square"
           d="m 80.047203,37.205411 q -1.748978,0 -3.074815,-0.73365 -1.325837,-0.761867 -2.059279,-2.116297 -0.733442,-1.354431 -0.733442,-3.132121 V 17.566171 q 0,-0.141087 0.08463,-0.225739 0.112837,-0.112869 0.253884,-0.112869 H 78.5239 q 0.141046,0 0.225674,0.112869 0.112837,0.08465 0.112837,0.225739 V 31.67482 q 0,0.677215 0.310303,1.100475 0.338511,0.423259 0.874489,0.423259 0.535977,0 0.846279,-0.423259 0.338511,-0.42326 0.338511,-1.100475 V 17.566171 q 0,-0.141087 0.08463,-0.225739 0.112838,-0.112869 0.253884,-0.112869 h 4.005721 q 0.141046,0 0.225674,0.112869 0.112837,0.08465 0.112837,0.225739 v 13.657172 q 0,1.77769 -0.733441,3.132121 -0.733442,1.35443 -2.059279,2.116297 -1.325837,0.73365 -3.074814,0.73365 z"
           id="path7" /><path
           style="font-weight:800;font-stretch:condensed;font-size:28.2133px;font-family:'Barlow Condensed';-inkscape-font-specification:'Barlow Condensed,  Ultra-Bold Condensed';letter-spacing:0px;fill:#d9230f;stroke-width:0.505482;stroke-linecap:square"
           d="m 66.704222,37.20541 q 2.679884,0 4.287814,-1.580169 1.60793,-1.580168 1.60793,-4.204376 v -8.662712 q 0,-2.652425 -1.60793,-4.204377 -1.60793,-1.551951 -4.287814,-1.551951 -2.679884,0 -4.287814,1.551951 -1.63614,1.551952 -1.63614,4.204377 v 0.253956 q 0,0.141086 0.112837,0.253956 0.08463,0.08465 0.225675,0.08465 l 4.005721,0.169303 q 0.338512,0 0.338512,-0.338607 v -0.761867 q 0,-0.648998 0.338512,-1.015823 0.338511,-0.395042 0.902697,-0.395042 0.535977,0 0.874489,0.395042 0.338511,0.366825 0.338511,1.015823 v 9.396361 q 0,0.62078 -0.338511,1.015823 -0.338512,0.366824 -0.874489,0.366824 -0.564186,0 -0.902697,-0.366824 -0.338512,-0.395043 -0.338512,-1.015823 v -0.818302 q 0,-0.141086 -0.08463,-0.225738 -0.112837,-0.11287 -0.253883,-0.11287 l -4.005721,0.169304 q -0.141047,0 -0.225675,0.112869 -0.112837,0.08465 -0.112837,0.225739 v 0.253956 q 0,2.624208 1.63614,4.204376 1.60793,1.580169 4.287814,1.580169 z"
           id="path6" /><path
           style="font-weight:800;font-stretch:condensed;font-size:28.2133px;font-family:'Barlow Condensed';-inkscape-font-specification:'Barlow Condensed,  Ultra-Bold Condensed';letter-spacing:0px;fill:#d9230f;stroke-width:0.505482;stroke-linecap:square"
           d="m 53.417658,37.205411 q -2.679885,0 -4.287815,-1.580169 -1.60793,-1.580168 -1.60793,-4.204377 v -8.662711 q 0,-2.652426 1.60793,-4.204378 1.60793,-1.551951 4.287815,-1.551951 2.679883,0 4.287813,1.551951 1.636141,1.551952 1.636141,4.204378 v 0.253956 q 0,0.141086 -0.112837,0.253956 -0.08463,0.08465 -0.225675,0.08465 l -4.005721,0.169303 q -0.338512,0 -0.338512,-0.338607 v -0.761867 q 0,-0.648998 -0.338512,-1.015823 -0.338511,-0.395042 -0.902697,-0.395042 -0.535977,0 -0.874489,0.395042 -0.338511,0.366825 -0.338511,1.015823 v 9.39636 q 0,0.62078 0.338511,1.015823 0.338512,0.366824 0.874489,0.366824 0.564186,0 0.902697,-0.366824 0.338512,-0.395043 0.338512,-1.015823 v -0.818302 q 0,-0.141086 0.08463,-0.225738 0.112837,-0.11287 0.253884,-0.11287 l 4.005721,0.169304 q 0.141047,0 0.225675,0.112869 0.112837,0.08465 0.112837,0.225739 v 0.253956 q 0,2.624209 -1.636141,4.204377 -1.60793,1.580169 -4.287813,1.580169 z"
           id="path5" /><path
           id="path2"
           style="font-weight:800;font-stretch:condensed;font-size:28.2133px;font-family:'Barlow Condensed';-inkscape-font-specification:'Barlow Condensed,  Ultra-Bold Condensed';letter-spacing:0px;fill:#d9230f;stroke-width:0.505482;stroke-linecap:square"
           d="m 39.989807,17.002063 c -1.824202,0 -3.281584,0.535913 -4.372344,1.60817 -1.071954,1.053446 -1.607653,2.464533 -1.607653,4.232817 v 8.521443 c 0,1.787096 0.535699,3.207277 1.607653,4.260723 1.09076,1.053445 2.548142,1.580265 4.372344,1.580265 1.805395,0 3.253678,-0.52682 4.344438,-1.580265 1.109565,-1.053446 1.664497,-2.473627 1.664497,-4.260723 V 22.84305 c 0,-1.768284 -0.554932,-3.179371 -1.664497,-4.232817 -1.09076,-1.072257 -2.539043,-1.60817 -4.344438,-1.60817 z m 0,4.006474 c 0.413736,0 0.73344,0.150667 0.959114,0.451652 0.244481,0.282173 0.366903,0.677029 0.366903,1.18494 v 8.916768 c 0,0.507912 -0.122422,0.912378 -0.366903,1.213363 -0.225674,0.282173 -0.545378,0.42323 -0.959114,0.42323 -0.413736,0 -0.73344,-0.141057 -0.959115,-0.42323 -0.225675,-0.300985 -0.33848,-0.705451 -0.33848,-1.213363 v -8.916768 c 0,-0.507911 0.112805,-0.902767 0.33848,-1.18494 0.225675,-0.300985 0.545379,-0.451652 0.959115,-0.451652 z" /><rect
           style="fill:#d9230f;fill-opacity:1;stroke:none;stroke-width:0.505482;stroke-linecap:square"
           id="rect12"
           width="10.079469"
           height="4.5701938"
           x="55.021206"
           y="24.888624"
           rx="0.79374999"
           ry="0.79374999" /><circle
           style="fill:#d9230f;stroke:#ffffff;stroke-width:1.60491;stroke-linecap:square"
           id="path10"
           cx="16.477251"
           cy="27.632769"
           r="10.768127" /><circle
           style="fill:#f9f9f9;stroke:#ffffff;stroke-width:1.60491;stroke-linecap:square"
           id="circle10"
           cx="16.477251"
           cy="27.632769"
           r="3.2554798" /><path
           style="fill:#f9f9f9;stroke:url(#linearGradient4);stroke-width:1.60491;stroke-linecap:round;stroke-linejoin:round"
           d="M 16.477251,38.400897 H 133.87022"
           id="path3"
           sodipodi:nodetypes="cc" /></g><path
         style="font-weight:500;font-stretch:condensed;font-size:5.35625px;font-family:'Barlow Condensed';-inkscape-font-specification:'Barlow Condensed,  Medium Condensed';letter-spacing:0px;fill:#666666;stroke-width:1.5212;stroke-linecap:round;stroke-linejoin:round"
         d="m 37.993314,44.672897 q -0.03704,0 -0.04527,-0.03704 l -0.09053,-0.473242 q 0,-0.0082 -0.0082,-0.01234 -0.0041,-0.0041 -0.01234,-0.0041 h -0.670773 q -0.0082,0 -0.01646,0.0041 -0.0041,0.0041 -0.0041,0.01234 l -0.08642,0.473245 q -0.0041,0.03704 -0.04527,0.03704 h -0.312754 q -0.02057,0 -0.03292,-0.01234 -0.0082,-0.01234 -0.0041,-0.03292 l 0.613161,-2.798318 q 0.0082,-0.03704 0.04527,-0.03704 h 0.366251 q 0.04115,0 0.04527,0.03704 l 0.617276,2.798318 v 0.0082 q 0,0.03704 -0.03704,0.03704 z m -0.777768,-0.855956 q 0,0.01647 0.01234,0.01647 h 0.547318 q 0.01234,0 0.01234,-0.01647 l -0.279832,-1.460887 q -0.0041,-0.0082 -0.0082,-0.0082 -0.0041,0 -0.0082,0.0082 z m 2.218082,-1.271589 q 0.267486,0 0.423863,0.181067 0.160491,0.176953 0.160491,0.46913 v 0.855956 q 0,0.304524 -0.160491,0.481476 -0.156377,0.172837 -0.423863,0.172837 -0.09876,0 -0.201643,-0.03704 -0.09876,-0.03704 -0.176952,-0.115225 -0.02057,-0.01234 -0.02057,0.0082 v 0.855956 q 0,0.04115 -0.04115,0.04115 h -0.312754 q -0.04115,0 -0.04115,-0.04115 v -2.798318 q 0,-0.04115 0.04115,-0.04115 h 0.312754 q 0.04115,0 0.04115,0.04115 v 0.06584 q 0,0.0082 0.0082,0.01234 0.0082,0 0.01646,-0.0082 0.07819,-0.07407 0.176952,-0.106994 0.09876,-0.03704 0.197528,-0.03704 z m 0.193413,0.679004 q 0,-0.148147 -0.08642,-0.242796 -0.0823,-0.09465 -0.213989,-0.09465 -0.12757,0 -0.209873,0.09465 -0.0823,0.09465 -0.0823,0.242796 v 0.802458 q 0,0.148147 0.0823,0.242796 0.0823,0.09465 0.209873,0.09465 0.131686,0 0.213989,-0.09465 0.08642,-0.09465 0.08642,-0.242796 z m 1.596685,-0.679004 q 0.267487,0 0.423863,0.181067 0.160492,0.176953 0.160492,0.46913 v 0.855956 q 0,0.304524 -0.160492,0.481476 -0.156376,0.172837 -0.423863,0.172837 -0.09876,0 -0.201644,-0.03704 -0.09876,-0.03704 -0.176952,-0.115225 -0.02057,-0.01234 -0.02057,0.0082 v 0.855956 q 0,0.04115 -0.04115,0.04115 h -0.312753 q -0.04115,0 -0.04115,-0.04115 v -2.798318 q 0,-0.04115 0.04115,-0.04115 h 0.312753 q 0.04115,0 0.04115,0.04115 v 0.06584 q 0,0.0082 0.0082,0.01234 0.0082,0 0.01647,-0.0082 0.07819,-0.07407 0.176952,-0.106994 0.09876,-0.03704 0.197529,-0.03704 z m 0.193413,0.679004 q 0,-0.148147 -0.08642,-0.242796 -0.0823,-0.09465 -0.213989,-0.09465 -0.12757,0 -0.209875,0.09465 -0.0823,0.09465 -0.0823,0.242796 v 0.802458 q 0,0.148147 0.0823,0.242796 0.0823,0.09465 0.209875,0.09465 0.131686,0 0.213989,-0.09465 0.08642,-0.09465 0.08642,-0.242796 z m 0.806573,1.448541 q -0.04115,0 -0.04115,-0.04115 v -2.798318 q 0,-0.04115 0.04115,-0.04115 h 0.312753 q 0.04115,0 0.04115,0.04115 v 2.798318 q 0,0.04115 -0.04115,0.04115 z m 0.979411,-2.423838 q -0.115225,0 -0.189298,-0.07407 -0.07407,-0.07407 -0.07407,-0.189298 0,-0.115224 0.07407,-0.189298 0.07408,-0.07407 0.189298,-0.07407 0.11934,0 0.189298,0.07407 0.07408,0.06996 0.07408,0.189298 0,0.115225 -0.07408,0.189298 -0.07407,0.07407 -0.189298,0.07407 z m -0.152261,2.423838 q -0.04115,0 -0.04115,-0.04115 v -2.012321 q 0,-0.04115 0.04115,-0.04115 h 0.312753 q 0.04115,0 0.04115,0.04115 v 2.012321 q 0,0.04115 -0.04115,0.04115 z m 1.460885,0.03292 q -0.316868,0 -0.506166,-0.176953 -0.185183,-0.176952 -0.185183,-0.47736 v -0.85184 q 0,-0.292178 0.185183,-0.473246 0.189298,-0.181067 0.506166,-0.181067 0.209875,0 0.366251,0.0823 0.160492,0.07819 0.242795,0.218104 0.08642,0.135801 0.08642,0.308639 v 0.05349 q 0,0.04115 -0.04115,0.04115 l -0.312753,0.01234 q -0.04115,0 -0.04115,-0.04115 v -0.04115 q 0,-0.11934 -0.08642,-0.205758 -0.08642,-0.08642 -0.213989,-0.08642 -0.131686,0 -0.213989,0.09465 -0.0823,0.09465 -0.0823,0.242796 v 0.802459 q 0,0.148147 0.0823,0.242796 0.0823,0.09465 0.213989,0.09465 0.12757,0 0.213989,-0.08642 0.08642,-0.08642 0.08642,-0.205758 v -0.04115 q 0,-0.04115 0.04115,-0.04115 l 0.312753,0.0041 q 0.04115,0 0.04115,0.04115 v 0.06172 q 0,0.267486 -0.189298,0.440324 -0.189298,0.168721 -0.506166,0.168721 z m 1.720144,-2.160466 q 0.300407,0 0.489706,0.189298 0.193413,0.189298 0.193413,0.497936 v 1.39916 q 0,0.04115 -0.04115,0.04115 h -0.312753 q -0.04115,0 -0.04115,-0.04115 v -0.09053 q 0,-0.0082 -0.0082,-0.01234 -0.0041,-0.0041 -0.01234,0.0041 -0.14403,0.172837 -0.423862,0.172837 -0.234565,0 -0.415633,-0.131686 -0.176952,-0.135801 -0.176952,-0.47736 0,-0.35802 0.21399,-0.522628 0.218104,-0.168721 0.567892,-0.168721 h 0.238681 q 0.01647,0 0.01647,-0.01647 v -0.11934 q 0,-0.172837 -0.0823,-0.275717 -0.0823,-0.106993 -0.21399,-0.106993 -0.102879,0 -0.172838,0.06996 -0.06996,0.06996 -0.0823,0.181067 0,0.04115 -0.04115,0.04115 h -0.333329 q -0.04115,0 -0.04115,-0.04115 0.02057,-0.26337 0.209874,-0.427977 0.189297,-0.164608 0.46913,-0.164608 z m -0.06996,1.814791 q 0.144031,0 0.251025,-0.09053 0.106996,-0.09053 0.106996,-0.255142 v -0.279833 q 0,-0.01647 -0.01647,-0.01647 h -0.251026 q -0.164607,0 -0.263372,0.09053 -0.09876,0.08642 -0.09876,0.25514 0,0.148147 0.07408,0.22222 0.07407,0.07407 0.197528,0.07407 z m 1.086402,0.312754 q -0.04115,0 -0.04115,-0.04115 v -0.288063 q 0,-0.0288 0.01234,-0.0535 l 0.769537,-1.329201 q 0.0041,-0.0082 0,-0.01234 -0.0041,-0.0082 -0.01234,-0.0082 h -0.711925 q -0.04115,0 -0.04115,-0.04115 v -0.279831 q 0,-0.04115 0.04115,-0.04115 h 1.164594 q 0.04115,0 0.04115,0.04115 v 0.292176 q 0,0.0288 -0.01234,0.05349 l -0.790114,1.329202 q -0.0041,0.0082 0,0.01647 0.0041,0.0041 0.01234,0.0041 h 0.761308 q 0.04115,0 0.04115,0.04115 v 0.275717 q 0,0.04115 -0.04115,0.04115 z m 1.777755,-2.423838 q -0.115225,0 -0.189298,-0.07407 -0.07408,-0.07407 -0.07408,-0.189298 0,-0.115225 0.07408,-0.189298 0.07407,-0.07407 0.189298,-0.07407 0.11934,0 0.189298,0.07407 0.07407,0.06996 0.07407,0.189298 0,0.115225 -0.07407,0.189298 -0.07408,0.07407 -0.189298,0.07407 z m -0.152262,2.423836 q -0.04115,0 -0.04115,-0.04115 v -2.012321 q 0,-0.04115 0.04115,-0.04115 h 0.312754 q 0.04115,0 0.04115,0.04115 v 2.012321 q 0,0.04115 -0.04115,0.04115 z m 1.465002,0.03292 q -0.320984,0 -0.510282,-0.176953 -0.185182,-0.181068 -0.185182,-0.47736 v -0.85184 q 0,-0.292178 0.189297,-0.473246 0.189299,-0.181067 0.506167,-0.181067 0.320983,0 0.510282,0.181067 0.189297,0.181068 0.189297,0.473246 v 0.85184 q 0,0.296292 -0.189297,0.47736 -0.189299,0.176953 -0.510282,0.176953 z m 0,-0.345675 q 0.131686,0 0.218104,-0.09053 0.08642,-0.09465 0.08642,-0.24691 v -0.798346 q 0,-0.148147 -0.08642,-0.242796 -0.08642,-0.09465 -0.218104,-0.09465 -0.131686,0 -0.218104,0.09465 -0.0823,0.09465 -0.0823,0.242796 V 44.0227 q 0,0.152261 0.0823,0.24691 0.08642,0.09053 0.218104,0.09053 z m 1.921784,-1.810676 q 0.259257,0 0.395056,0.176952 0.139917,0.172837 0.139917,0.493821 v 1.411506 q 0,0.04115 -0.04115,0.04115 H 52.44168 q -0.04115,0 -0.04115,-0.04115 v -1.378584 q 0,-0.172838 -0.07407,-0.267487 -0.07408,-0.09465 -0.205759,-0.09465 -0.135801,0 -0.213988,0.09465 -0.07408,0.09053 -0.0823,0.259256 0,0.02469 -0.0041,0.02469 v 1.362123 q 0,0.04115 -0.04115,0.04115 H 51.46641 q -0.04115,0 -0.04115,-0.04115 v -2.01232 q 0,-0.04115 0.04115,-0.04115 h 0.312753 q 0.04115,0 0.04115,0.04115 v 0.11111 q 0,0.0082 0.0082,0.01234 0.0082,0 0.01647,-0.01234 0.148146,-0.181068 0.415633,-0.181068 z m 2.288033,1.197516 q 0,0.04115 -0.04115,0.04115 h -0.93003 q -0.01647,0 -0.01647,0.01647 v 0.222221 q 0,0.148146 0.0823,0.242795 0.0823,0.09465 0.213989,0.09465 0.115225,0 0.193413,-0.06996 0.07819,-0.06996 0.09877,-0.181067 0.01234,-0.03292 0.04527,-0.03292 l 0.304522,0.01646 q 0.02057,0 0.0288,0.01234 0.01234,0.01234 0.0082,0.0288 -0.0288,0.267487 -0.20576,0.419748 -0.172837,0.148146 -0.473245,0.148146 -0.316868,0 -0.506165,-0.176952 -0.185184,-0.176952 -0.185184,-0.473245 v -0.855956 q 0,-0.292178 0.185184,-0.473245 0.189297,-0.181068 0.506165,-0.181068 0.320984,0 0.506167,0.181068 0.185182,0.181067 0.185182,0.473245 z m -0.691349,-0.860072 q -0.131685,0 -0.213988,0.09465 -0.0823,0.09465 -0.0823,0.242795 v 0.218105 q 0,0.01647 0.01647,0.01647 h 0.563779 q 0.01647,0 0.01647,-0.01647 v -0.218106 q 0,-0.148147 -0.0823,-0.242796 -0.0823,-0.09465 -0.218105,-0.09465 z m 2.370344,1.785986 q -0.03704,0 -0.04527,-0.03704 l -0.547318,-2.798319 v -0.0082 q 0,-0.03704 0.03704,-0.03704 h 0.325098 q 0.04115,0 0.04527,0.03704 l 0.333329,1.930017 q 0.0041,0.0082 0.0082,0.0082 0.0041,0 0.0082,-0.0082 l 0.296293,-1.930017 q 0.0041,-0.03704 0.04115,-0.03704 h 0.275716 q 0.03704,0 0.04115,0.03704 l 0.316869,1.930017 q 0.0041,0.0082 0.0082,0.0082 0.0041,0 0.0082,-0.0082 l 0.304522,-1.930017 q 0.0082,-0.03704 0.04115,-0.03704 h 0.320983 q 0.02057,0 0.0288,0.01234 0.01234,0.01234 0.0082,0.03292 l -0.518511,2.798318 q -0.0041,0.03704 -0.04527,0.03704 h -0.292178 q -0.03292,0 -0.04115,-0.03704 l -0.312754,-1.946476 q -0.0041,-0.0082 -0.01234,-0.0082 -0.0041,0 -0.0041,0.0082 l -0.296292,1.946476 q -0.0041,0.03704 -0.04115,0.03704 z m 3.345635,-0.925914 q 0,0.04115 -0.04115,0.04115 h -0.930029 q -0.01647,0 -0.01647,0.01647 v 0.222221 q 0,0.148146 0.0823,0.242795 0.0823,0.09465 0.213989,0.09465 0.115225,0 0.193413,-0.06996 0.07819,-0.06996 0.09876,-0.181067 0.01234,-0.03292 0.04527,-0.03292 l 0.304522,0.01646 q 0.02057,0 0.0288,0.01234 0.01234,0.01234 0.0082,0.0288 -0.0288,0.267487 -0.205758,0.419748 -0.172838,0.148146 -0.473245,0.148146 -0.316868,0 -0.506167,-0.176952 -0.185182,-0.176952 -0.185182,-0.473245 v -0.855956 q 0,-0.292178 0.185182,-0.473245 0.189299,-0.181068 0.506167,-0.181068 0.320984,0 0.506167,0.181068 0.185182,0.181067 0.185182,0.473245 z m -0.691349,-0.860072 q -0.131685,0 -0.213989,0.09465 -0.0823,0.09465 -0.0823,0.242795 v 0.218105 q 0,0.01647 0.01647,0.01647 h 0.563778 q 0.01647,0 0.01647,-0.01647 v -0.218106 q 0,-0.148147 -0.0823,-0.242796 -0.0823,-0.09465 -0.218104,-0.09465 z m 1.855942,-0.341559 q 0.271602,0 0.427978,0.176953 0.156377,0.172837 0.156377,0.47736 v 0.855956 q 0,0.292176 -0.160492,0.473244 -0.156376,0.176953 -0.423863,0.176953 -0.09876,0 -0.201643,-0.03704 -0.09877,-0.03704 -0.176953,-0.11111 -0.0082,-0.0082 -0.01647,-0.0041 -0.0041,0.0041 -0.0041,0.01234 v 0.06585 q 0,0.04115 -0.04115,0.04115 h -0.312753 q -0.04115,0 -0.04115,-0.04115 v -2.798318 q 0,-0.04115 0.04115,-0.04115 h 0.312753 q 0.04115,0 0.04115,0.04115 v 0.855956 q 0,0.0082 0.0082,0.01234 0.0082,0 0.01646,-0.01234 0.156376,-0.144031 0.37448,-0.144031 z m 0.193413,0.679003 q 0,-0.148146 -0.08642,-0.242795 -0.0823,-0.09465 -0.213989,-0.09465 -0.127571,0 -0.209874,0.09465 -0.0823,0.09465 -0.0823,0.242795 v 0.802459 q 0,0.148147 0.0823,0.242796 0.0823,0.09465 0.209874,0.09465 0.131686,0 0.213989,-0.09465 0.08642,-0.09465 0.08642,-0.242796 z m 2.423842,-0.679003 q 0.267486,0 0.423863,0.181067 0.160492,0.176953 0.160492,0.46913 v 0.855956 q 0,0.304524 -0.160492,0.481476 -0.156377,0.172837 -0.423863,0.172837 -0.09876,0 -0.201644,-0.03704 -0.09876,-0.03704 -0.176952,-0.115225 -0.02057,-0.01234 -0.02057,0.0082 v 0.855956 q 0,0.04115 -0.04115,0.04115 h -0.312754 q -0.04115,0 -0.04115,-0.04115 v -2.798318 q 0,-0.04115 0.04115,-0.04115 h 0.312754 q 0.04115,0 0.04115,0.04115 v 0.06584 q 0,0.0082 0.0082,0.01234 0.0082,0 0.01647,-0.0082 0.07819,-0.07407 0.176953,-0.106994 0.09876,-0.03704 0.197528,-0.03704 z m 0.193413,0.679003 q 0,-0.148146 -0.08642,-0.242795 -0.0823,-0.09465 -0.21399,-0.09465 -0.12757,0 -0.209874,0.09465 -0.0823,0.09465 -0.0823,0.242795 v 0.802459 q 0,0.148147 0.0823,0.242796 0.08231,0.09465 0.209874,0.09465 0.131686,0 0.21399,-0.09465 0.08642,-0.09465 0.08642,-0.242796 z m 2.127541,0.522628 q 0,0.04115 -0.04115,0.04115 h -0.930029 q -0.01647,0 -0.01647,0.01647 v 0.222221 q 0,0.148146 0.0823,0.242795 0.0823,0.09465 0.213988,0.09465 0.115225,0 0.193413,-0.06996 0.07819,-0.06996 0.09876,-0.181067 0.01234,-0.03292 0.04527,-0.03292 l 0.304522,0.01646 q 0.02057,0 0.0288,0.01234 0.01234,0.01234 0.0082,0.0288 -0.0288,0.267487 -0.205759,0.419748 -0.172837,0.148146 -0.473244,0.148146 -0.316869,0 -0.506167,-0.176952 -0.185182,-0.176952 -0.185182,-0.473245 v -0.855956 q 0,-0.292178 0.185182,-0.473245 0.189298,-0.181068 0.506167,-0.181068 0.320983,0 0.506166,0.181068 0.185182,0.181067 0.185182,0.473245 z m -0.691349,-0.860073 q -0.131686,0 -0.213989,0.09465 -0.0823,0.09465 -0.0823,0.242796 v 0.218104 q 0,0.01647 0.01647,0.01647 h 0.563778 q 0.01647,0 0.01647,-0.01647 v -0.218104 q 0,-0.148147 -0.0823,-0.242796 -0.0823,-0.09465 -0.218104,-0.09465 z m 1.855942,-0.329214 q 0.102879,0 0.176953,0.04527 0.0288,0.01647 0.02057,0.05349 l -0.06172,0.312753 q -0.0041,0.03704 -0.04938,0.0247 -0.05349,-0.02057 -0.115224,-0.02057 -0.02469,0 -0.07407,0.0082 -0.127571,0.01234 -0.213989,0.139917 -0.08231,0.12757 -0.08231,0.308637 v 1.201631 q 0,0.04115 -0.04115,0.04115 h -0.312753 q -0.04115,0 -0.04115,-0.04115 v -2.012321 q 0,-0.04115 0.04115,-0.04115 h 0.312753 q 0.04115,0 0.04115,0.04115 v 0.238681 q 0,0.01234 0.0041,0.01646 0.0082,0 0.01234,-0.01234 0.11934,-0.304523 0.38271,-0.304523 z m 1.304517,2.115199 q -0.04115,0 -0.04115,-0.04115 v -2.798318 q 0,-0.04115 0.04115,-0.04115 h 0.312752 q 0.04115,0 0.04115,0.04115 v 2.798318 q 0,0.04115 -0.04115,0.04115 z m 1.436195,-2.127545 q 0.300409,0 0.489707,0.189298 0.193413,0.189298 0.193413,0.497936 v 1.39916 q 0,0.04115 -0.04115,0.04115 h -0.312754 q -0.04115,0 -0.04115,-0.04115 v -0.09053 q 0,-0.0082 -0.0082,-0.01234 -0.0041,-0.0041 -0.01234,0.0041 -0.144031,0.172837 -0.423864,0.172837 -0.234564,0 -0.415632,-0.131686 -0.176953,-0.135801 -0.176953,-0.47736 0,-0.35802 0.213989,-0.522628 0.218104,-0.168721 0.567894,-0.168721 h 0.238681 q 0.01647,0 0.01647,-0.01647 v -0.11934 q 0,-0.172837 -0.0823,-0.275717 -0.0823,-0.106993 -0.213989,-0.106993 -0.102879,0 -0.172837,0.06996 -0.06996,0.06996 -0.0823,0.181068 0,0.04115 -0.04115,0.04115 h -0.333329 q -0.04115,0 -0.04115,-0.04115 0.02057,-0.263371 0.209874,-0.427978 0.189298,-0.164607 0.46913,-0.164607 z m -0.06996,1.814791 q 0.144031,0 0.251026,-0.09053 0.106994,-0.09053 0.106994,-0.255141 v -0.279832 q 0,-0.01647 -0.01647,-0.01647 h -0.251025 q -0.164607,0 -0.263371,0.09053 -0.09876,0.08642 -0.09876,0.25514 0,0.148147 0.07407,0.22222 0.07408,0.07407 0.197528,0.07407 z m 2.761282,-1.802445 q 0.102879,0 0.176953,0.04527 0.0288,0.01647 0.02057,0.05349 l -0.06172,0.312753 q -0.0041,0.03704 -0.04938,0.0247 -0.05349,-0.02057 -0.115225,-0.02057 -0.0247,0 -0.07408,0.0082 -0.12757,0.01234 -0.213988,0.139917 -0.0823,0.12757 -0.0823,0.308637 v 1.201631 q 0,0.04115 -0.04115,0.04115 h -0.312752 q -0.04115,0 -0.04115,-0.04115 v -2.012321 q 0,-0.04115 0.04115,-0.04115 h 0.312752 q 0.04115,0 0.04115,0.04115 v 0.238681 q 0,0.01234 0.0041,0.01646 0.0082,0 0.01234,-0.01234 0.119339,-0.304523 0.38271,-0.304523 z m 0.674892,-0.308639 q -0.115225,0 -0.189299,-0.07407 -0.07408,-0.07407 -0.07408,-0.189298 0,-0.115224 0.07408,-0.189298 0.07407,-0.07407 0.189299,-0.07407 0.11934,0 0.189297,0.07407 0.07408,0.06996 0.07408,0.189298 0,0.115225 -0.07408,0.189298 -0.07407,0.07407 -0.189297,0.07407 z m -0.152261,2.423838 q -0.04115,0 -0.04115,-0.04115 V 42.61942 q 0,-0.04115 0.04115,-0.04115 h 0.312753 q 0.04115,0 0.04115,0.04115 v 2.012321 q 0,0.04115 -0.04115,0.04115 z m 0.831265,0 q -0.04115,0 -0.04115,-0.04115 v -2.798318 q 0,-0.04115 0.04115,-0.04115 h 0.312753 q 0.04115,0 0.04115,0.04115 v 2.798318 q 0,0.04115 -0.04115,0.04115 z m 2.106968,-0.925914 q 0,0.04115 -0.04115,0.04115 h -0.93003 q -0.01647,0 -0.01647,0.01647 v 0.22222 q 0,0.148146 0.0823,0.242795 0.0823,0.09465 0.213989,0.09465 0.115225,0 0.193413,-0.06996 0.07819,-0.06996 0.09877,-0.181067 0.01234,-0.03292 0.04527,-0.03292 l 0.304522,0.01646 q 0.02057,0 0.0288,0.01234 0.01234,0.01234 0.0082,0.0288 -0.0288,0.267486 -0.20576,0.419747 -0.172837,0.148146 -0.473245,0.148146 -0.316868,0 -0.506165,-0.176952 -0.185184,-0.176952 -0.185184,-0.473245 v -0.855956 q 0,-0.292178 0.185184,-0.473245 0.189297,-0.181068 0.506165,-0.181068 0.320984,0 0.506167,0.181068 0.185182,0.181067 0.185182,0.473245 z m -0.691349,-0.860071 q -0.131685,0 -0.213988,0.09465 -0.0823,0.09465 -0.0823,0.242796 v 0.218104 q 0,0.01647 0.01647,0.01647 h 0.563779 q 0.01647,0 0.01647,-0.01647 v -0.218104 q 0,-0.148147 -0.0823,-0.242796 -0.0823,-0.09465 -0.218105,-0.09465 z m 1.452653,1.785985 q -0.03704,0 -0.04527,-0.03704 l -0.506167,-2.01232 -0.0041,-0.01647 q 0,-0.0288 0.03704,-0.0288 h 0.34979 q 0.04115,0 0.04527,0.03704 l 0.296292,1.411505 q 0.0041,0.01234 0.0082,0.01234 0.0041,0 0.0082,-0.01234 l 0.292178,-1.411505 q 0.0082,-0.03704 0.04527,-0.03704 l 0.34979,0.0041 q 0.02057,0 0.0288,0.01234 0.01234,0.01234 0.0041,0.03292 L 76.9023,44.635867 q -0.0041,0.03704 -0.04527,0.03704 z m 1.851824,-2.127545 q 0.300408,0 0.489706,0.189298 0.193414,0.189298 0.193414,0.497936 v 1.39916 q 0,0.04115 -0.04115,0.04115 h -0.31275 q -0.04115,0 -0.04115,-0.04115 v -0.09053 q 0,-0.0082 -0.0082,-0.01234 -0.0041,-0.0041 -0.01234,0.0041 -0.144031,0.172837 -0.423862,0.172837 -0.234565,0 -0.415633,-0.131686 -0.176952,-0.135801 -0.176952,-0.47736 0,-0.35802 0.213989,-0.522628 0.218104,-0.168721 0.567893,-0.168721 h 0.238681 q 0.01646,0 0.01646,-0.01647 v -0.11934 q 0,-0.172837 -0.08231,-0.275717 -0.0823,-0.106993 -0.213989,-0.106993 -0.10288,0 -0.172838,0.06996 -0.06996,0.06996 -0.0823,0.181068 0,0.04115 -0.04115,0.04115 h -0.333307 q -0.04115,0 -0.04115,-0.04115 0.02057,-0.263371 0.209874,-0.427978 0.189298,-0.164607 0.46913,-0.164607 z m -0.06996,1.814791 q 0.144031,0 0.251025,-0.09053 0.106996,-0.09053 0.106996,-0.255141 v -0.279832 q 0,-0.01647 -0.01646,-0.01647 h -0.251026 q -0.164606,0 -0.263371,0.09053 -0.09876,0.08642 -0.09876,0.25514 0,0.148147 0.07408,0.22222 0.07407,0.07407 0.197528,0.07407 z m 1.086406,0.312754 q -0.04115,0 -0.04115,-0.04115 v -0.288063 q 0,-0.0288 0.01234,-0.05349 l 0.769538,-1.329201 q 0.0041,-0.0082 0,-0.01234 -0.0041,-0.0082 -0.01234,-0.0082 H 79.3796 q -0.04115,0 -0.04115,-0.04115 v -0.279831 q 0,-0.04115 0.04115,-0.04115 h 1.164593 q 0.04115,0 0.04115,0.04115 v 0.292177 q 0,0.0288 -0.01234,0.05349 l -0.790113,1.329202 q -0.0041,0.0082 0,0.01647 0.0041,0.0041 0.01234,0.0041 h 0.761307 q 0.04115,0 0.04115,0.04115 v 0.275717 q 0,0.04115 -0.04115,0.04115 z m 1.777752,-2.423838 q -0.115225,0 -0.189298,-0.07407 -0.07408,-0.07407 -0.07408,-0.189298 0,-0.115224 0.07408,-0.189298 0.07408,-0.07407 0.189298,-0.07407 0.119341,0 0.189298,0.07407 0.07407,0.06996 0.07407,0.189298 0,0.115225 -0.07407,0.189298 -0.07408,0.07407 -0.189298,0.07407 z m -0.152261,2.423838 q -0.04115,0 -0.04115,-0.04115 V 42.61942 q 0,-0.04115 0.04115,-0.04115 h 0.312753 q 0.04115,0 0.04115,0.04115 v 2.012321 q 0,0.04115 -0.04115,0.04115 z m 1.465002,0.03292 q -0.320984,0 -0.510282,-0.176953 -0.185182,-0.181068 -0.185182,-0.47736 v -0.85184 q 0,-0.292178 0.189298,-0.473246 0.189297,-0.181067 0.506166,-0.181067 0.320983,0 0.510281,0.181067 0.189298,0.181068 0.189298,0.473246 v 0.85184 q 0,0.296292 -0.189298,0.47736 -0.189298,0.176953 -0.510281,0.176953 z m 0,-0.345675 q 0.131685,0 0.218104,-0.09053 0.08642,-0.09465 0.08642,-0.24691 V 43.22435 q 0,-0.148147 -0.08642,-0.242796 -0.08642,-0.09465 -0.218104,-0.09465 -0.131685,0 -0.218104,0.09465 -0.0823,0.09465 -0.0823,0.242796 v 0.79835 q 0,0.152261 0.0823,0.24691 0.08642,0.09053 0.218104,0.09053 z M 84.37542,42.54946 q 0.259257,0 0.395057,0.176952 0.139916,0.172837 0.139916,0.493821 v 1.411506 q 0,0.04115 -0.04115,0.04115 h -0.312752 q -0.04115,0 -0.04115,-0.04115 v -1.378584 q 0,-0.172838 -0.07408,-0.267487 -0.07408,-0.09465 -0.205758,-0.09465 -0.135801,0 -0.213989,0.09465 -0.07407,0.09053 -0.0823,0.259256 0,0.02469 -0.0041,0.02469 v 1.362123 q 0,0.04115 -0.04115,0.04115 h -0.312753 q -0.04115,0 -0.04115,-0.04115 v -2.01232 q 0,-0.04115 0.04115,-0.04115 h 0.312753 q 0.04115,0 0.04115,0.04115 v 0.11111 q 0,0.0082 0.0082,0.01234 0.0082,0 0.01646,-0.01234 0.148147,-0.181068 0.415633,-0.181068 z m 2.288032,1.197516 q 0,0.04115 -0.04115,0.04115 h -0.930029 q -0.01646,0 -0.01646,0.01647 v 0.222221 q 0,0.148146 0.0823,0.242795 0.0823,0.09465 0.213989,0.09465 0.115226,0 0.193413,-0.06996 0.07819,-0.06996 0.09876,-0.181067 0.01234,-0.03292 0.04527,-0.03292 l 0.304524,0.01646 q 0.02057,0 0.0288,0.01234 0.01234,0.01234 0.0082,0.0288 -0.0288,0.267487 -0.205759,0.419748 -0.172837,0.148146 -0.473245,0.148146 -0.316869,0 -0.506167,-0.176952 -0.185182,-0.176952 -0.185182,-0.473245 v -0.855956 q 0,-0.292178 0.185182,-0.473245 0.189298,-0.181068 0.506167,-0.181068 0.320983,0 0.506166,0.181068 0.185184,0.181067 0.185184,0.473245 z M 85.9721,42.886912 q -0.131686,0 -0.213989,0.09465 -0.0823,0.09465 -0.0823,0.242796 v 0.218104 q 0,0.01647 0.01646,0.01647 h 0.563778 q 0.01646,0 0.01646,-0.01647 v -0.218104 q 0,-0.148147 -0.0823,-0.242796 -0.0823,-0.09465 -0.218104,-0.09465 z m 2.831242,-1.053485 q 0,-0.04115 0.04115,-0.04115 h 0.312753 q 0.04115,0 0.04115,0.04115 v 2.798319 q 0,0.04115 -0.04115,0.04115 h -0.312753 q -0.04115,0 -0.04115,-0.04115 v -0.06585 q 0,-0.0082 -0.0082,-0.01234 -0.0041,-0.0041 -0.01234,0.0041 -0.07819,0.07407 -0.176953,0.111109 -0.09876,0.03704 -0.197528,0.03704 -0.271602,0 -0.432093,-0.176953 -0.156377,-0.181067 -0.156377,-0.473244 v -0.855956 q 0,-0.304524 0.156377,-0.47736 0.160491,-0.176953 0.432093,-0.176953 0.09876,0 0.197528,0.03704 0.09876,0.03704 0.176953,0.11111 0.0082,0.0082 0.01234,0.0041 0.0082,-0.0041 0.0082,-0.01234 z m -0.292178,2.530831 q 0.115225,0 0.193414,-0.07407 0.0823,-0.07819 0.09876,-0.201643 V 43.16263 q -0.01647,-0.123455 -0.09876,-0.197528 -0.07819,-0.07819 -0.193414,-0.07819 -0.131686,0 -0.218104,0.09465 -0.0823,0.09465 -0.0823,0.242796 v 0.802459 q 0,0.148146 0.0823,0.242795 0.08642,0.09465 0.218104,0.09465 z m 2.464986,-0.617275 q 0,0.04115 -0.04115,0.04115 h -0.93003 q -0.01646,0 -0.01646,0.01647 v 0.22222 q 0,0.148146 0.0823,0.242795 0.0823,0.09465 0.213989,0.09465 0.115224,0 0.193413,-0.06996 0.07819,-0.06996 0.09876,-0.181067 0.01234,-0.03292 0.04527,-0.03292 l 0.304522,0.01646 q 0.02057,0 0.0288,0.01234 0.01234,0.01234 0.0082,0.0288 -0.0288,0.267486 -0.205759,0.419747 -0.172837,0.148146 -0.473245,0.148146 -0.316868,0 -0.506166,-0.176952 Q 89.5934,44.351914 89.5934,44.055621 v -0.855956 q 0,-0.292178 0.185183,-0.473245 0.189298,-0.181068 0.506166,-0.181068 0.320984,0 0.506166,0.181068 0.185183,0.181067 0.185183,0.473245 z m -0.691349,-0.860071 q -0.131686,0 -0.213989,0.09465 -0.0823,0.09465 -0.0823,0.242796 v 0.218104 q 0,0.01647 0.01646,0.01647 h 0.563779 q 0.01647,0 0.01647,-0.01647 v -0.218104 q 0,-0.148147 -0.0823,-0.242796 -0.0823,-0.09465 -0.218105,-0.09465 z m 1.279821,-0.637853 q -0.115224,0 -0.189298,-0.07407 -0.07407,-0.07407 -0.07407,-0.189298 0,-0.115224 0.07407,-0.189298 0.07407,-0.07407 0.189298,-0.07407 0.11934,0 0.189298,0.07407 0.07408,0.06996 0.07408,0.189298 0,0.115225 -0.07408,0.189298 -0.07408,0.07407 -0.189298,0.07407 z m -0.152261,2.423838 q -0.04115,0 -0.04115,-0.04115 v -2.012321 q 0,-0.04115 0.04115,-0.04115 h 0.312752 q 0.04115,0 0.04115,0.04115 v 2.012321 q 0,0.04115 -0.04115,0.04115 z m 2.444416,-2.127545 q 0.267488,0 0.423863,0.181067 0.160493,0.176953 0.160493,0.46913 v 0.855956 q 0,0.304524 -0.160493,0.481476 -0.156375,0.172837 -0.423863,0.172837 -0.09876,0 -0.201643,-0.03704 -0.09876,-0.03704 -0.176953,-0.115225 -0.02057,-0.01234 -0.02057,0.0082 v 0.855956 q 0,0.04115 -0.04115,0.04115 h -0.312753 q -0.04115,0 -0.04115,-0.04115 v -2.798318 q 0,-0.04115 0.04115,-0.04115 h 0.312753 q 0.04115,0 0.04115,0.04115 v 0.06584 q 0,0.0082 0.0082,0.01234 0.0082,0 0.01646,-0.0082 0.07819,-0.07407 0.176952,-0.106994 0.09876,-0.03704 0.197528,-0.03704 z m 0.193414,0.679004 q 0,-0.148147 -0.08642,-0.242796 -0.0823,-0.09465 -0.213988,-0.09465 -0.127572,0 -0.209875,0.09465 -0.0823,0.09465 -0.0823,0.242796 v 0.802458 q 0,0.148147 0.0823,0.242796 0.0823,0.09465 0.209875,0.09465 0.131684,0 0.213988,-0.09465 0.08642,-0.09465 0.08642,-0.242796 z m 2.127541,0.522627 q 0,0.04115 -0.04115,0.04115 h -0.930028 q -0.01646,0 -0.01646,0.01647 v 0.22222 q 0,0.148146 0.08231,0.242795 0.0823,0.09465 0.213988,0.09465 0.115225,0 0.193414,-0.06996 0.07819,-0.06996 0.09876,-0.181067 0.01234,-0.03292 0.04527,-0.03292 l 0.304523,0.01646 q 0.02057,0 0.0288,0.01234 0.01234,0.01234 0.0082,0.0288 -0.0288,0.267486 -0.205758,0.419747 -0.172837,0.148146 -0.473245,0.148146 -0.316868,0 -0.506166,-0.176952 -0.18514,-0.176959 -0.18514,-0.473252 v -0.855956 q 0,-0.292178 0.185183,-0.473245 0.189298,-0.181068 0.506166,-0.181068 0.320984,0 0.506166,0.181068 0.185183,0.181067 0.185183,0.473245 z m -0.691349,-0.860071 q -0.131686,0 -0.21399,0.09465 -0.0823,0.09465 -0.0823,0.242796 v 0.218104 q 0,0.01647 0.01646,0.01647 h 0.563779 q 0.01647,0 0.01647,-0.01647 v -0.218104 q 0,-0.148147 -0.0823,-0.242796 -0.0823,-0.09465 -0.218104,-0.09465 z m 1.855945,-0.329214 q 0.10288,0 0.176952,0.04527 0.0288,0.01647 0.02057,0.05349 l -0.06172,0.312753 q -0.0041,0.03704 -0.04938,0.0247 -0.05349,-0.02057 -0.115225,-0.02057 -0.0247,0 -0.07408,0.0082 -0.12757,0.01234 -0.213988,0.139917 -0.0823,0.12757 -0.0823,0.308637 v 1.201631 q 0,0.04115 -0.04115,0.04115 h -0.312753 q -0.04115,0 -0.04115,-0.04115 v -2.012321 q 0,-0.04115 0.04115,-0.04115 h 0.312753 q 0.04115,0 0.04115,0.04115 v 0.238681 q 0,0.01234 0.0041,0.01646 0.0082,0 0.01234,-0.01234 0.11934,-0.304523 0.382711,-0.304523 z m 2.218081,-0.0082 q 0.25514,0 0.390941,0.185182 0.13992,0.181068 0.13992,0.510282 v 1.386814 q 0,0.04115 -0.0412,0.04115 h -0.308627 q -0.04115,0 -0.04115,-0.04115 v -1.358008 q 0,-0.181067 -0.07408,-0.279832 -0.07407,-0.102879 -0.197528,-0.102879 -0.131686,0 -0.209874,0.102879 -0.07819,0.09877 -0.07819,0.275717 v 1.362123 q 0,0.04115 -0.04115,0.04115 h -0.308625 q -0.04115,0 -0.04115,-0.04115 v -1.358008 q 0,-0.181067 -0.07408,-0.279832 -0.07408,-0.102879 -0.197529,-0.102879 -0.131685,0 -0.209874,0.102879 -0.07819,0.09877 -0.07819,0.275717 v 1.362123 q 0,0.04115 -0.04115,0.04115 h -0.308638 q -0.04115,0 -0.04115,-0.04115 v -2.012302 q 0,-0.04115 0.04115,-0.04115 h 0.308638 q 0.04115,0 0.04115,0.04115 v 0.10288 q 0,0.0082 0.0041,0.01234 0.0082,0.0041 0.01647,-0.0041 0.0823,-0.09053 0.189297,-0.135801 0.106996,-0.04527 0.213989,-0.04527 0.312754,0 0.448555,0.275717 0.0041,0.0082 0.01234,0.0082 0.0082,-0.0041 0.01234,-0.02057 0.0823,-0.139916 0.209875,-0.201643 0.127569,-0.06172 0.263371,-0.06172 z m 2.288031,1.197515 q 0,0.04115 -0.0412,0.04115 h -0.93003 q -0.0165,0 -0.0165,0.01647 v 0.222219 q 0,0.148146 0.0823,0.242796 0.0823,0.09465 0.21399,0.09465 0.11522,0 0.19341,-0.06996 0.0782,-0.06996 0.0988,-0.181068 0.0123,-0.03292 0.0453,-0.03292 l 0.30452,0.01646 q 0.0206,0 0.0288,0.01234 0.0123,0.01234 0.008,0.0288 -0.0288,0.267485 -0.20576,0.419747 -0.17283,0.148147 -0.47324,0.148147 -0.31687,0 -0.50617,-0.176953 -0.18518,-0.176952 -0.18518,-0.473244 v -0.855931 q 0,-0.292178 0.18518,-0.473246 0.1893,-0.181067 0.50617,-0.181067 0.32098,0 0.50616,0.181067 0.18519,0.181068 0.18519,0.473246 z m -0.69135,-0.86007 q -0.13168,0 -0.21399,0.09465 -0.0823,0.09465 -0.0823,0.242796 v 0.218104 q 0,0.01647 0.0165,0.01647 h 0.56377 q 0.0165,0 0.0165,-0.01647 v -0.218104 q 0,-0.148146 -0.0823,-0.242796 -0.0823,-0.09465 -0.21811,-0.09465 z m 1.65018,1.810676 q -0.30863,0 -0.48971,-0.148146 -0.17695,-0.152263 -0.17695,-0.407403 v -0.03704 q 0,-0.04115 0.0411,-0.04115 h 0.29218 q 0.0412,0 0.0412,0.04115 v 0.0288 q 0,0.11111 0.0864,0.189299 0.0864,0.07407 0.21399,0.07407 0.12346,0 0.19754,-0.07407 0.0782,-0.07408 0.0782,-0.189299 0,-0.09053 -0.0535,-0.152261 -0.0535,-0.06172 -0.12757,-0.09465 -0.0699,-0.03704 -0.2181,-0.09876 -0.16049,-0.06996 -0.26748,-0.135801 -0.10289,-0.06585 -0.18519,-0.189298 -0.0823,-0.123455 -0.0823,-0.312753 0,-0.279832 0.17284,-0.436209 0.17695,-0.156376 0.47324,-0.156376 0.30453,0 0.47737,0.160492 0.17695,0.160492 0.17695,0.436208 v 0.01234 q 0,0.04115 -0.0411,0.04115 h -0.28394 q -0.0411,0 -0.0411,-0.04115 v -0.0288 q 0,-0.111111 -0.0782,-0.189299 -0.0782,-0.07819 -0.20164,-0.07819 -0.12757,0 -0.20164,0.07819 -0.074,0.07819 -0.074,0.189299 0,0.08642 0.0494,0.144031 0.0494,0.05762 0.11934,0.09465 0.07,0.03292 0.22222,0.09876 0.16872,0.07408 0.27983,0.144031 0.11111,0.06585 0.19342,0.189299 0.0864,0.123455 0.0864,0.308637 0,0.267488 -0.18519,0.423864 -0.18107,0.156376 -0.49382,0.156376 z m 1.51438,0 q -0.30863,0 -0.4897,-0.148146 Q 103.655,44.39721 103.655,44.14207 v -0.03704 q 0,-0.04115 0.0411,-0.04115 h 0.29217 q 0.0411,0 0.0411,0.04115 v 0.0288 q 0,0.11111 0.0864,0.189299 0.0864,0.07407 0.21399,0.07407 0.12346,0 0.19753,-0.07407 0.0782,-0.07408 0.0782,-0.189299 0,-0.09053 -0.0535,-0.152261 -0.0535,-0.06172 -0.12757,-0.09465 -0.0699,-0.03704 -0.2181,-0.09876 -0.16049,-0.06996 -0.26748,-0.135801 -0.10288,-0.06585 -0.18518,-0.189298 -0.0823,-0.123455 -0.0823,-0.312753 0,-0.279832 0.17284,-0.436209 0.17695,-0.156376 0.47324,-0.156376 0.30452,0 0.47736,0.160492 0.17695,0.160492 0.17695,0.436208 v 0.01234 q 0,0.04115 -0.0411,0.04115 h -0.28394 q -0.0412,0 -0.0412,-0.04115 v -0.0288 q 0,-0.111111 -0.0782,-0.189299 -0.0782,-0.07819 -0.20163,-0.07819 -0.12757,0 -0.20165,0.07819 -0.074,0.07819 -0.074,0.189299 0,0.08642 0.0494,0.144031 0.0494,0.05762 0.11934,0.09465 0.07,0.03292 0.22222,0.09876 0.16872,0.07408 0.27984,0.144031 0.1111,0.06585 0.1934,0.189299 0.0864,0.123455 0.0864,0.308637 0,0.267488 -0.18518,0.423864 -0.18106,0.156376 -0.49382,0.156376 z m 1.21398,-2.448529 q -0.11522,0 -0.1893,-0.07408 -0.074,-0.07408 -0.074,-0.189298 0,-0.115225 0.074,-0.189297 0.074,-0.07408 0.1893,-0.07408 0.11935,0 0.1893,0.07408 0.074,0.06996 0.074,0.189297 0,0.115225 -0.074,0.189298 -0.074,0.07408 -0.1893,0.07408 z m -0.15226,2.423837 q -0.0411,0 -0.0411,-0.04115 v -2.012321 q 0,-0.04115 0.0411,-0.04115 h 0.31276 q 0.0411,0 0.0411,0.04115 v 2.012321 q 0,0.04115 -0.0411,0.04115 z m 2.58022,-2.053472 q 0,-0.04115 0.0411,-0.04115 h 0.31276 q 0.0411,0 0.0411,0.04115 v 2.012321 q 0,0.04115 -0.0411,0.04115 h -0.31276 q -0.0411,0 -0.0411,-0.04115 v -0.119341 q 0,-0.01234 -0.008,-0.01234 -0.004,0 -0.0124,0.0082 -0.12346,0.193414 -0.39505,0.193414 -0.24692,0 -0.39917,-0.148146 -0.15227,-0.152261 -0.15227,-0.4609 v -1.473232 q 0,-0.04115 0.0412,-0.04115 h 0.31275 q 0.0411,0 0.0411,0.04115 v 1.386814 q 0,0.353905 0.27982,0.353905 0.13993,0 0.21399,-0.09877 0.0782,-0.102878 0.0782,-0.279831 z m 1.64606,0.205759 q 0,0.04115 -0.0411,0.04115 h -0.28807 q -0.0164,0 -0.0164,0.01647 v 1.156364 q 0,0.164607 0.0576,0.23045 0.0576,0.06172 0.18107,0.05762 h 0.037 q 0.0412,0 0.0412,0.04115 v 0.263371 q 0,0.04115 -0.0412,0.04115 h -0.12757 q -0.26337,0 -0.39917,-0.102879 -0.13168,-0.102879 -0.13168,-0.390942 v -1.29628 q 0,-0.01647 -0.0164,-0.01647 h -0.1605 q -0.0411,0 -0.0411,-0.04115 V 42.61946 q 0,-0.04115 0.0411,-0.04115 h 0.1605 q 0.0164,0 0.0164,-0.01647 v -0.465014 q 0,-0.04115 0.0411,-0.04115 h 0.3004 q 0.0411,0 0.0411,0.04115 v 0.465014 q 0,0.01647 0.0164,0.01647 h 0.28807 q 0.0411,0 0.0411,0.04115 z m 1.65842,0.921799 q 0,0.04115 -0.0411,0.04115 h -0.93003 q -0.0164,0 -0.0164,0.01647 v 0.222219 q 0,0.148146 0.0823,0.242796 0.0823,0.09465 0.21399,0.09465 0.11522,0 0.1934,-0.06996 0.0782,-0.06996 0.0988,-0.181068 0.0124,-0.03292 0.0453,-0.03292 l 0.30452,0.01646 q 0.0206,0 0.0288,0.01234 0.0124,0.01234 0.008,0.0288 -0.0288,0.267485 -0.20576,0.419747 -0.17285,0.148147 -0.47325,0.148147 -0.31687,0 -0.50616,-0.176953 -0.18518,-0.176952 -0.18518,-0.473244 v -0.855931 q 0,-0.292178 0.18518,-0.473246 0.18929,-0.181067 0.50616,-0.181067 0.32098,0 0.50617,0.181067 0.18518,0.181068 0.18518,0.473246 z m -0.69135,-0.86007 q -0.13169,0 -0.214,0.09465 -0.0823,0.09465 -0.0823,0.242796 v 0.218104 q 0,0.01647 0.0164,0.01647 h 0.56378 q 0.0164,0 0.0164,-0.01647 v -0.218104 q 0,-0.148146 -0.0823,-0.242796 -0.0823,-0.09465 -0.21811,-0.09465 z m 1.89709,-0.337445 q 0.25926,0 0.39506,0.176952 0.13992,0.172837 0.13992,0.493821 v 1.411505 q 0,0.04115 -0.0412,0.04115 h -0.31275 q -0.0411,0 -0.0411,-0.04115 v -1.378584 q 0,-0.172838 -0.074,-0.267485 -0.074,-0.09465 -0.20576,-0.09465 -0.1358,0 -0.21399,0.09465 -0.074,0.09053 -0.0823,0.259255 0,0.0247 -0.004,0.0247 v 1.362123 q 0,0.04115 -0.0411,0.04115 h -0.31275 q -0.0412,0 -0.0412,-0.04115 v -2.012321 q 0,-0.04115 0.0412,-0.04115 h 0.31275 q 0.0411,0 0.0411,0.04115 v 0.111109 q 0,0.0082 0.008,0.01234 0.008,0 0.0164,-0.01234 0.14816,-0.181067 0.41564,-0.181067 z m 1.76129,0.275716 q 0,0.04115 -0.0411,0.04115 h -0.28807 q -0.0164,0 -0.0164,0.01647 v 1.156364 q 0,0.164607 0.0576,0.23045 0.0576,0.06172 0.18106,0.05762 h 0.037 q 0.0412,0 0.0412,0.04115 v 0.263371 q 0,0.04115 -0.0412,0.04115 h -0.12757 q -0.26337,0 -0.39917,-0.102879 -0.13168,-0.102879 -0.13168,-0.390942 v -1.29628 q 0,-0.01647 -0.0164,-0.01647 h -0.16049 q -0.0412,0 -0.0412,-0.04115 V 42.61946 q 0,-0.04115 0.0412,-0.04115 h 0.16049 q 0.0164,0 0.0164,-0.01647 v -0.465014 q 0,-0.04115 0.0411,-0.04115 h 0.30041 q 0.0411,0 0.0411,0.04115 v 0.465014 q 0,0.01647 0.0164,0.01647 h 0.28807 q 0.0411,0 0.0411,0.04115 z m 1.65841,0.921799 q 0,0.04115 -0.0412,0.04115 h -0.93002 q -0.0164,0 -0.0164,0.01647 v 0.222219 q 0,0.148146 0.0823,0.242796 0.0823,0.09465 0.21398,0.09465 0.11522,0 0.19341,-0.06996 0.0782,-0.06996 0.0988,-0.181068 0.0124,-0.03292 0.0453,-0.03292 l 0.30452,0.01646 q 0.0206,0 0.0288,0.01234 0.0124,0.01234 0.008,0.0288 -0.0288,0.267485 -0.20577,0.419747 -0.17284,0.148147 -0.47325,0.148147 -0.31686,0 -0.50615,-0.176953 -0.18519,-0.176952 -0.18519,-0.473244 v -0.855931 q 0,-0.292178 0.18519,-0.473246 0.18929,-0.181067 0.50615,-0.181067 0.32099,0 0.50617,0.181067 0.18518,0.181068 0.18518,0.473246 z m -0.69135,-0.86007 q -0.13169,0 -0.21398,0.09465 -0.0823,0.09465 -0.0823,0.242796 v 0.218104 q 0,0.01647 0.0164,0.01647 h 0.56377 q 0.0164,0 0.0164,-0.01647 v -0.218104 q 0,-0.148146 -0.0823,-0.242796 -0.0823,-0.09465 -0.21811,-0.09465 z m 2.83124,-1.053486 q 0,-0.04115 0.0412,-0.04115 h 0.31276 q 0.0411,0 0.0411,0.04115 v 2.798319 q 0,0.04115 -0.0411,0.04115 h -0.31276 q -0.0412,0 -0.0412,-0.04115 v -0.06584 q 0,-0.0082 -0.008,-0.01234 -0.004,-0.0041 -0.0124,0.0041 -0.0782,0.07407 -0.17695,0.11111 -0.0988,0.03704 -0.19752,0.03704 -0.27161,0 -0.43211,-0.176952 -0.15638,-0.181069 -0.15638,-0.473245 v -0.855956 q 0,-0.304523 0.15638,-0.47736 0.1605,-0.176953 0.43211,-0.176953 0.0988,0 0.19752,0.03704 0.0988,0.03704 0.17695,0.11111 0.008,0.0082 0.0124,0.0041 0.008,-0.0041 0.008,-0.01234 z m -0.29217,2.530832 q 0.11522,0 0.19341,-0.07408 0.0823,-0.07819 0.0988,-0.201643 v -0.925915 q -0.0164,-0.123455 -0.0988,-0.197528 -0.0782,-0.07819 -0.19341,-0.07819 -0.13169,0 -0.21811,0.09465 -0.0823,0.09465 -0.0823,0.242795 v 0.80246 q 0,0.148145 0.0823,0.242795 0.0864,0.09465 0.21811,0.09465 z m 1.33742,-2.115199 q -0.11521,0 -0.18929,-0.07408 -0.074,-0.07408 -0.074,-0.189298 0,-0.115225 0.074,-0.189297 0.074,-0.07408 0.18929,-0.07408 0.11935,0 0.18931,0.07408 0.074,0.06996 0.074,0.189297 0,0.115225 -0.074,0.189298 -0.074,0.07408 -0.18931,0.07408 z m -0.15225,2.423837 q -0.0412,0 -0.0412,-0.04115 v -2.012321 q 0,-0.04115 0.0412,-0.04115 h 0.31276 q 0.0411,0 0.0411,0.04115 v 2.012321 q 0,0.04115 -0.0411,0.04115 z m 2.29627,0.03292 q -0.3251,0 -0.52674,-0.201644 -0.19754,-0.205759 -0.19754,-0.534973 v -0.106994 q 0,-0.04115 0.0412,-0.04115 h 0.30452 q 0.0411,0 0.0411,0.04115 v 0.08642 q 0,0.189299 0.0947,0.304524 0.0947,0.111109 0.2428,0.111109 0.14815,0 0.24279,-0.106994 0.0988,-0.11111 0.0988,-0.288063 0,-0.11934 -0.0535,-0.209873 -0.0494,-0.09053 -0.1358,-0.160492 -0.0823,-0.07408 -0.2716,-0.213989 -0.20988,-0.156377 -0.32921,-0.267486 -0.11934,-0.11111 -0.20164,-0.267487 -0.0823,-0.156376 -0.0823,-0.36625 0,-0.333329 0.19753,-0.526743 0.19752,-0.197528 0.51439,-0.197528 0.32922,0 0.52674,0.209874 0.20165,0.209875 0.20165,0.551433 v 0.10288 q 0,0.04115 -0.0411,0.04115 h -0.30453 q -0.0412,0 -0.0412,-0.04115 v -0.111109 q 0,-0.185184 -0.0946,-0.296293 -0.0947,-0.115225 -0.24692,-0.115225 -0.14402,0 -0.23456,0.102879 -0.0905,0.09876 -0.0905,0.279832 0,0.164606 0.0905,0.279831 0.0905,0.111111 0.34979,0.300408 0.24691,0.185184 0.37037,0.300409 0.12757,0.115224 0.19341,0.25514 0.07,0.1358 0.07,0.325099 0,0.345674 -0.20165,0.555548 -0.20164,0.205759 -0.52674,0.205759 z m 1.30451,-2.456759 q -0.11522,0 -0.18929,-0.07408 -0.074,-0.07408 -0.074,-0.189298 0,-0.115225 0.074,-0.189298 0.074,-0.07408 0.18929,-0.07408 0.11934,0 0.1893,0.07408 0.074,0.06996 0.074,0.189298 0,0.115225 -0.074,0.189298 -0.074,0.07408 -0.1893,0.07408 z m -0.15226,2.423837 q -0.0411,0 -0.0411,-0.04115 v -2.012321 q 0,-0.04115 0.0411,-0.04115 h 0.31275 q 0.0412,0 0.0412,0.04115 v 2.012321 q 0,0.04115 -0.0412,0.04115 z m 1.64195,-2.12343 q 0.25926,0 0.39506,0.176953 0.13991,0.172837 0.13991,0.493821 v 1.411505 q 0,0.04115 -0.0411,0.04115 h -0.31275 q -0.0412,0 -0.0412,-0.04115 V 43.25319 q 0,-0.172838 -0.074,-0.267486 -0.074,-0.09465 -0.20576,-0.09465 -0.1358,0 -0.21399,0.09465 -0.074,0.09053 -0.0823,0.259256 0,0.0247 -0.004,0.0247 v 1.362122 q 0,0.04115 -0.0411,0.04115 h -0.31275 q -0.0411,0 -0.0411,-0.04115 v -2.01232 q 0,-0.04115 0.0411,-0.04115 h 0.31275 q 0.0411,0 0.0411,0.04115 v 0.111109 q 0,0.0082 0.008,0.01234 0.008,0 0.0164,-0.01234 0.14814,-0.181067 0.41563,-0.181067 z m 1.66665,2.156352 q -0.33333,0 -0.53909,-0.201644 -0.20165,-0.205759 -0.20165,-0.543203 v -1.46093 q 0,-0.337443 0.20165,-0.539087 0.20576,-0.201644 0.53909,-0.201644 0.33744,0 0.53909,0.201644 0.20575,0.201644 0.20575,0.539087 v 0.06585 q 0,0.04115 -0.0411,0.04115 l -0.31275,0.01647 q -0.0412,0 -0.0412,-0.04115 v -0.106994 q 0,-0.168722 -0.0988,-0.271602 -0.0946,-0.102879 -0.25101,-0.102879 -0.15638,0 -0.25103,0.102879 -0.0947,0.10288 -0.0947,0.271602 v 1.514385 q 0,0.168721 0.0947,0.2716 0.0947,0.10288 0.25103,0.10288 0.15637,0 0.25101,-0.10288 0.0988,-0.102879 0.0988,-0.2716 v -0.106996 q 0,-0.04115 0.0412,-0.04115 l 0.31275,0.01647 q 0.0411,0 0.0411,0.04115 v 0.06172 q 0,0.337444 -0.20575,0.543204 -0.20165,0.201643 -0.53909,0.201643 z m 1.86005,0 q -0.33332,0 -0.53908,-0.197529 -0.20165,-0.197528 -0.20165,-0.522627 v -1.506153 q 0,-0.3251 0.20165,-0.522628 0.20576,-0.197528 0.53908,-0.197528 0.33333,0 0.53909,0.197528 0.20577,0.197528 0.20577,0.526743 v 0.172838 q 0,0.04115 -0.0411,0.04115 h -0.31274 q -0.0412,0 -0.0412,-0.04115 V 42.47538 q 0,-0.168723 -0.0988,-0.271602 -0.0947,-0.102879 -0.25102,-0.102879 -0.15637,0 -0.25514,0.102879 -0.0947,0.102879 -0.0947,0.271602 v 1.514383 q 0,0.168723 0.0947,0.271602 0.0988,0.102879 0.25514,0.102879 0.15637,0 0.25102,-0.102879 0.0988,-0.102879 0.0988,-0.271602 v -0.452669 q 0,-0.01647 -0.0164,-0.01647 h -0.31275 q -0.0411,0 -0.0411,-0.04115 v -0.255141 q 0,-0.04115 0.0411,-0.04115 h 0.68312 q 0.0411,0 0.0411,0.04115 v 0.761307 q 0,0.325099 -0.20577,0.522627 -0.20575,0.197529 -0.53908,0.197529 z m 1.23868,-0.03292 q -0.0412,0 -0.0412,-0.04115 v -2.798319 q 0,-0.04115 0.0412,-0.04115 h 0.31275 q 0.0411,0 0.0411,0.04115 v 2.798319 q 0,0.04115 -0.0411,0.04115 z m 0.90532,0 q -0.0411,0 -0.0411,-0.04115 v -2.798319 q 0,-0.04115 0.0411,-0.04115 h 0.31276 q 0.0411,0 0.0411,0.04115 v 2.48145 q 0,0.01647 0.0164,0.01647 h 0.92181 q 0.0411,0 0.0411,0.04115 v 0.259257 q 0,0.04115 -0.0411,0.04115 z"
         id="text1"
         aria-label="Applicazione Web per la rilevazione dei permessi utente di SinCGIL" /></g></g></svg>
