<?xml version="1.0" encoding="UTF-8" standalone="no"?>
<!-- Created with Inkscape (http://www.inkscape.org/) -->

<svg
   width="512"
   height="256"
   viewBox="0 0 135.46666 67.733335"
   version="1.1"
   id="svg1"
   inkscape:version="1.4.3 (0d15f75042, 2025-12-25)"
   sodipodi:docname="home-logo.svg"
   xml:space="preserve"
   xmlns:inkscape="http://www.inkscape.org/namespaces/inkscape"
   xmlns:sodipodi="http://sodipodi.sourceforge.net/DTD/sodipodi-0.dtd"
   xmlns:xlink="http://www.w3.org/1999/xlink"
   xmlns="http://www.w3.org/2000/svg"
   xmlns:svg="http://www.w3.org/2000/svg"><sodipodi:namedview
     id="namedview1"
     pagecolor="#ffffff"
     bordercolor="#000000"
     borderopacity="0.25"
     inkscape:showpageshadow="false"
     inkscape:pageopacity="0.0"
     inkscape:pagecheckerboard="0"
     inkscape:deskcolor="#d1d1d1"
     inkscape:document-units="px"
     inkscape:zoom="2.1131032"
     inkscape:cx="324.64103"
     inkscape:cy="174.62469"
     inkscape:window-width="2514"
     inkscape:window-height="1404"
     inkscape:window-x="2606"
     inkscape:window-y="0"
     inkscape:window-maximized="1"
     inkscape:current-layer="layer1" /><defs
     id="defs1"><linearGradient
       id="linearGradient3"
       inkscape:collect="always"><stop
         style="stop-color:#ffffff;stop-opacity:1;"
         offset="0"
         id="stop3" /><stop
         style="stop-color:#d9230f;stop-opacity:1"
         offset="1"
         id="stop4" /></linearGradient><linearGradient
       inkscape:collect="always"
       xlink:href="#linearGradient3"
       id="linearGradient4"
       x1="32.186363"
       y1="38.400898"
       x2="98.275101"
       y2="38.400898"
       gradientUnits="userSpaceOnUse" /></defs><g
     inkscape:label="Layer 1"
     inkscape:groupmode="layer"
     id="layer1"><g
       id="g1"
       transform="matrix(0.98927524,0,0,0.98903086,0.72410551,4.5816259)"
       style="stroke-width:1.01097"><ellipse
         style="fill:#d9230f;fill-opacity:1;stroke:#d9230f;stroke-width:0.505482;stroke-linecap:square;stroke-opacity:1"
         id="path1"
         cx="16.477251"
         cy="27.632769"
         rx="15.459113"
         ry="15.463493" /><path
         style="font-weight:800;font-stretch:condensed;font-size:28.2133px;font-family:'Barlow Condensed';-inkscape-font-specification:'Barlow Condensed,  Ultra-Bold Condensed';letter-spacing:0px;fill:#d9230f;stroke-width:0.505482;stroke-linecap:square"
         d="m 134.71686,20.895812 c 0,0.09406 -0.0376,0.17871 -0.11284,0.253956 -0.0564,0.05644 -0.13162,0.08465 -0.22568,0.08465 h -5.67006 c -0.094,0 -0.14105,0.04703 -0.14105,0.141086 v 3.55538 c 0,0.09406 0.047,0.141087 0.14105,0.141087 h 3.10302 c 0.0941,0 0.16925,0.03762 0.22568,0.112868 0.0752,0.05644 0.11283,0.131681 0.11283,0.225738 v 3.357859 c 0,0.09405 -0.0376,0.178711 -0.11283,0.253956 -0.0564,0.05644 -0.13163,0.08465 -0.22568,0.08465 h -3.10302 c -0.094,0 -0.14105,0.04703 -0.14105,0.141086 v 3.583598 c 0,0.09405 0.047,0.141086 0.14105,0.141086 h 5.67006 c 0.0941,0 0.16926,0.03762 0.22568,0.112869 0.0752,0.05644 0.11284,0.131681 0.11284,0.225739 v 3.329641 c 0,0.09406 -0.0376,0.17871 -0.11284,0.253956 -0.0564,0.05644 -0.13162,0.08465 -0.22568,0.08465 h -10.15535 c -0.094,0 -0.17865,-0.02821 -0.25387,-0.08465 -0.0564,-0.07525 -0.0846,-0.159898 -0.0846,-0.253956 v -7.534019 h -4.95271 v -4.035073 h 4.95271 v -7.505802 c 0,-0.09405 0.0282,-0.169304 0.0846,-0.225739 0.0752,-0.07524 0.15985,-0.112869 0.25387,-0.112869 h 10.15535 c 0.0941,0 0.16926,0.03762 0.22568,0.112869 0.0752,0.05644 0.11284,0.131681 0.11284,0.225739 z"
         id="path12"
         sodipodi:nodetypes="sssssssscssssssssscssssscsccccsssscss" /><path
         id="path11"
         style="font-weight:800;font-stretch:condensed;font-size:28.2133px;font-family:'Barlow Condensed';-inkscape-font-specification:'Barlow Condensed,  Ultra-Bold Condensed';letter-spacing:0px;fill:#d9230f;stroke-width:0.505482;stroke-linecap:square"
         d="m 113.44682,17.227372 c -0.20689,0 -0.32879,0.103648 -0.36639,0.310575 l -4.09019,19.074805 c -0.0564,0.24455 0.0372,0.366903 0.28164,0.366903 h 4.00596 c 0.22568,0 0.3481,-0.103648 0.3669,-0.310575 l 0.33848,-2.454631 c 0,-0.09406 0.0562,-0.141077 0.16898,-0.141077 h 3.04685 c 0.11283,0 0.16897,0.04702 0.16897,0.141077 l 0.36691,2.454631 c 0.0188,0.206927 0.14123,0.310575 0.3669,0.310575 h 4.09019 c 0.20687,0 0.31007,-0.08443 0.31007,-0.253731 l -0.0279,-0.113172 -4.06228,-19.074805 c -0.0376,-0.206927 -0.16004,-0.310575 -0.36691,-0.310575 z m 2.17248,6.546371 c 0.0376,0 0.066,0.03793 0.0847,0.113171 l 1.01544,6.433715 c 0,0.09406 -0.0379,0.141077 -0.11317,0.141077 h -1.88981 c -0.0752,0 -0.11265,-0.04702 -0.11265,-0.141077 l 0.93069,-6.433715 c 0.0188,-0.07525 0.0472,-0.113171 0.0847,-0.113171 z" /><path
         style="font-weight:800;font-stretch:condensed;font-size:28.2133px;font-family:'Barlow Condensed';-inkscape-font-specification:'Barlow Condensed,  Ultra-Bold Condensed';letter-spacing:0px;fill:#d9230f;stroke-width:0.505482;stroke-linecap:square"
         d="m 109.4131,17.227563 q 0.14105,0 0.22568,0.112869 0.11283,0.08465 0.11283,0.225739 v 3.329641 q 0,0.141087 -0.11283,0.253956 -0.0846,0.08465 -0.22568,0.08465 h -3.49795 q -0.14104,0 -0.14104,0.141086 v 15.265559 q 0,0.141087 -0.11285,0.253956 -0.0846,0.08465 -0.22567,0.08465 h -4.00572 q -0.14105,0 -0.25388,-0.08465 -0.0846,-0.112869 -0.0846,-0.253956 V 21.375506 q 0,-0.141086 -0.14105,-0.141086 h -3.356907 q -0.141046,0 -0.253883,-0.08465 -0.08463,-0.112869 -0.08463,-0.253956 v -3.329641 q 0,-0.141087 0.08463,-0.225739 0.112837,-0.112869 0.253883,-0.112869 z"
         id="path9" /><path
         style="font-weight:800;font-stretch:condensed;font-size:28.2133px;font-family:'Barlow Condensed';-inkscape-font-specification:'Barlow Condensed,  Ultra-Bold Condensed';letter-spacing:0px;fill:#d9230f;stroke-width:0.505482;stroke-linecap:square"
         d="m 88.143262,36.979673 c -0.09403,0 -0.178659,-0.02821 -0.253883,-0.08465 -0.05642,-0.07525 -0.08463,-0.159898 -0.08463,-0.253956 V 17.566171 c 0,-0.09405 0.02821,-0.169304 0.08463,-0.225739 0.07522,-0.07524 0.159852,-0.112869 0.253883,-0.112869 h 4.005721 c 0.09404,0 0.169256,0.03762 0.225675,0.112869 0.07523,0.05644 0.112837,0.131681 0.112837,0.225739 V 32.83173 c 0,0.09405 0.04701,0.141086 0.141046,0.141086 h 6.231737 c 0.09399,0 0.169246,0.03762 0.225668,0.112869 0.07519,0.05644 0.112834,0.131681 0.112834,0.225739 v 3.329641 c 0,0.09406 -0.03759,0.17871 -0.112834,0.253956 -0.05639,0.05644 -0.131641,0.08465 -0.225668,0.08465 z"
         id="path8"
         sodipodi:nodetypes="scssssscsssscsssss" /><path
         style="font-weight:800;font-stretch:condensed;font-size:28.2133px;font-family:'Barlow Condensed';-inkscape-font-specification:'Barlow Condensed,  Ultra-Bold Condensed';letter-spacing:0px;fill:#d9230f;stroke-width:0.505482;stroke-linecap:square"
         d="m 80.047203,37.205411 q -1.748978,0 -3.074815,-0.73365 -1.325837,-0.761867 -2.059279,-2.116297 -0.733442,-1.354431 -0.733442,-3.132121 V 17.566171 q 0,-0.141087 0.08463,-0.225739 0.112837,-0.112869 0.253884,-0.112869 H 78.5239 q 0.141046,0 0.225674,0.112869 0.112837,0.08465 0.112837,0.225739 V 31.67482 q 0,0.677215 0.310303,1.100475 0.338511,0.423259 0.874489,0.423259 0.535977,0 0.846279,-0.423259 0.338511,-0.42326 0.338511,-1.100475 V 17.566171 q 0,-0.141087 0.08463,-0.225739 0.112838,-0.112869 0.253884,-0.112869 h 4.005721 q 0.141046,0 0.225674,0.112869 0.112837,0.08465 0.112837,0.225739 v 13.657172 q 0,1.77769 -0.733441,3.132121 -0.733442,1.35443 -2.059279,2.116297 -1.325837,0.73365 -3.074814,0.73365 z"
         id="path7" /><path
         style="font-weight:800;font-stretch:condensed;font-size:28.2133px;font-family:'Barlow Condensed';-inkscape-font-specification:'Barlow Condensed,  Ultra-Bold Condensed';letter-spacing:0px;fill:#d9230f;stroke-width:0.505482;stroke-linecap:square"
         d="m 66.704222,37.20541 q 2.679884,0 4.287814,-1.580169 1.60793,-1.580168 1.60793,-4.204376 v -8.662712 q 0,-2.652425 -1.60793,-4.204377 -1.60793,-1.551951 -4.287814,-1.551951 -2.679884,0 -4.287814,1.551951 -1.63614,1.551952 -1.63614,4.204377 v 0.253956 q 0,0.141086 0.112837,0.253956 0.08463,0.08465 0.225675,0.08465 l 4.005721,0.169303 q 0.338512,0 0.338512,-0.338607 v -0.761867 q 0,-0.648998 0.338512,-1.015823 0.338511,-0.395042 0.902697,-0.395042 0.535977,0 0.874489,0.395042 0.338511,0.366825 0.338511,1.015823 v 9.396361 q 0,0.62078 -0.338511,1.015823 -0.338512,0.366824 -0.874489,0.366824 -0.564186,0 -0.902697,-0.366824 -0.338512,-0.395043 -0.338512,-1.015823 v -0.818302 q 0,-0.141086 -0.08463,-0.225738 -0.112837,-0.11287 -0.253883,-0.11287 l -4.005721,0.169304 q -0.141047,0 -0.225675,0.112869 -0.112837,0.08465 -0.112837,0.225739 v 0.253956 q 0,2.624208 1.63614,4.204376 1.60793,1.580169 4.287814,1.580169 z"
         id="path6" /><path
         style="font-weight:800;font-stretch:condensed;font-size:28.2133px;font-family:'Barlow Condensed';-inkscape-font-specification:'Barlow Condensed,  Ultra-Bold Condensed';letter-spacing:0px;fill:#d9230f;stroke-width:0.505482;stroke-linecap:square"
         d="m 53.417658,37.205411 q -2.679885,0 -4.287815,-1.580169 -1.60793,-1.580168 -1.60793,-4.204377 v -8.662711 q 0,-2.652426 1.60793,-4.204378 1.60793,-1.551951 4.287815,-1.551951 2.679883,0 4.287813,1.551951 1.636141,1.551952 1.636141,4.204378 v 0.253956 q 0,0.141086 -0.112837,0.253956 -0.08463,0.08465 -0.225675,0.08465 l -4.005721,0.169303 q -0.338512,0 -0.338512,-0.338607 v -0.761867 q 0,-0.648998 -0.338512,-1.015823 -0.338511,-0.395042 -0.902697,-0.395042 -0.535977,0 -0.874489,0.395042 -0.338511,0.366825 -0.338511,1.015823 v 9.39636 q 0,0.62078 0.338511,1.015823 0.338512,0.366824 0.874489,0.366824 0.564186,0 0.902697,-0.366824 0.338512,-0.395043 0.338512,-1.015823 v -0.818302 q 0,-0.141086 0.08463,-0.225738 0.112837,-0.11287 0.253884,-0.11287 l 4.005721,0.169304 q 0.141047,0 0.225675,0.112869 0.112837,0.08465 0.112837,0.225739 v 0.253956 q 0,2.624209 -1.636141,4.204377 -1.60793,1.580169 -4.287813,1.580169 z"
         id="path5" /><path
         id="path2"
         style="font-weight:800;font-stretch:condensed;font-size:28.2133px;font-family:'Barlow Condensed';-inkscape-font-specification:'Barlow Condensed,  Ultra-Bold Condensed';letter-spacing:0px;fill:#d9230f;stroke-width:0.505482;stroke-linecap:square"
         d="m 39.989807,17.002063 c -1.824202,0 -3.281584,0.535913 -4.372344,1.60817 -1.071954,1.053446 -1.607653,2.464533 -1.607653,4.232817 v 8.521443 c 0,1.787096 0.535699,3.207277 1.607653,4.260723 1.09076,1.053445 2.548142,1.580265 4.372344,1.580265 1.805395,0 3.253678,-0.52682 4.344438,-1.580265 1.109565,-1.053446 1.664497,-2.473627 1.664497,-4.260723 V 22.84305 c 0,-1.768284 -0.554932,-3.179371 -1.664497,-4.232817 -1.09076,-1.072257 -2.539043,-1.60817 -4.344438,-1.60817 z m 0,4.006474 c 0.413736,0 0.73344,0.150667 0.959114,0.451652 0.244481,0.282173 0.366903,0.677029 0.366903,1.18494 v 8.916768 c 0,0.507912 -0.122422,0.912378 -0.366903,1.213363 -0.225674,0.282173 -0.545378,0.42323 -0.959114,0.42323 -0.413736,0 -0.73344,-0.141057 -0.959115,-0.42323 -0.225675,-0.300985 -0.33848,-0.705451 -0.33848,-1.213363 v -8.916768 c 0,-0.507911 0.112805,-0.902767 0.33848,-1.18494 0.225675,-0.300985 0.545379,-0.451652 0.959115,-0.451652 z" /><rect
         style="fill:#d9230f;fill-opacity:1;stroke:none;stroke-width:0.505482;stroke-linecap:square"
         id="rect12"
         width="10.079469"
         height="4.5701938"
         x="55.021206"
         y="24.888624"
         rx="0.79374999"
         ry="0.79374999" /><circle
         style="fill:#d9230f;stroke:#ffffff;stroke-width:1.60491;stroke-linecap:square"
         id="path10"
         cx="16.477251"
         cy="27.632769"
         r="10.768127" /><circle
         style="fill:#f9f9f9;stroke:#ffffff;stroke-width:1.60491;stroke-linecap:square"
         id="circle10"
         cx="16.477251"
         cy="27.632769"
         r="3.2554798" /><path
         style="fill:#f9f9f9;stroke:url(#linearGradient4);stroke-width:1.60491;stroke-linecap:round;stroke-linejoin:round"
         d="M 16.477251,38.400897 H 133.87022"
         id="path3"
         sodipodi:nodetypes="cc" /></g><path
       style="font-weight:500;font-stretch:condensed;font-size:3.55431px;font-family:'Barlow Condensed';-inkscape-font-specification:'Barlow Condensed,  Medium Condensed';letter-spacing:0px;fill:#d9230f;stroke-width:2.11668;stroke-linecap:round;stroke-linejoin:round;fill-opacity:1"
       d="m 132.60427,49.513287 q -0.0416,0 -0.0416,-0.0416 v -2.829364 q 0,-0.04161 0.0416,-0.04161 h 0.31623 q 0.0416,0 0.0416,0.04161 v 2.50898 q 0,0.01665 0.0166,0.01665 h 0.93202 q 0.0417,0 0.0417,0.0416 v 0.262133 q 0,0.0416 -0.0417,0.0416 z"
       id="path77" /><path
       style="font-weight:500;font-stretch:condensed;font-size:3.55431px;font-family:'Barlow Condensed';-inkscape-font-specification:'Barlow Condensed,  Medium Condensed';letter-spacing:0px;fill:#d9230f;stroke-width:2.11668;stroke-linecap:round;stroke-linejoin:round;fill-opacity:1"
       d="m 131.68889,49.513287 q -0.0416,0 -0.0416,-0.0416 v -2.829364 q 0,-0.04161 0.0416,-0.04161 h 0.31622 q 0.0417,0 0.0417,0.04161 v 2.829364 q 0,0.0416 -0.0417,0.0416 z"
       id="path76" /><path
       style="font-weight:500;font-stretch:condensed;font-size:3.55431px;font-family:'Barlow Condensed';-inkscape-font-specification:'Barlow Condensed,  Medium Condensed';letter-spacing:0px;fill:#d9230f;stroke-width:2.11668;stroke-linecap:round;stroke-linejoin:round;fill-opacity:1"
       d="m 130.43649,49.546568 q -0.33703,0 -0.54508,-0.19972 -0.20388,-0.19972 -0.20388,-0.528425 v -1.522864 q 0,-0.328705 0.20388,-0.528425 0.20805,-0.19972 0.54508,-0.19972 0.33702,0 0.54506,0.19972 0.20805,0.19972 0.20805,0.532587 v 0.174755 q 0,0.0416 -0.0417,0.0416 h -0.31621 q -0.0417,0 -0.0417,-0.0416 v -0.183077 q 0,-0.170595 -0.0999,-0.274614 -0.0957,-0.104024 -0.25381,-0.104024 -0.15812,0 -0.25798,0.104024 -0.0956,0.104023 -0.0956,0.274614 v 1.531185 q 0,0.170594 0.0956,0.274615 0.0999,0.104024 0.25798,0.104024 0.15811,0 0.25381,-0.104024 0.0999,-0.104023 0.0999,-0.274615 v -0.457696 q 0,-0.01665 -0.0166,-0.01665 h -0.31623 q -0.0417,0 -0.0417,-0.0416 v -0.257971 q 0,-0.0416 0.0417,-0.0416 h 0.69069 q 0.0417,0 0.0417,0.0416 v 0.769753 q 0,0.328705 -0.20805,0.528425 -0.20803,0.19972 -0.54506,0.19972 z"
       id="path75" /><path
       style="font-weight:500;font-stretch:condensed;font-size:3.55431px;font-family:'Barlow Condensed';-inkscape-font-specification:'Barlow Condensed,  Medium Condensed';letter-spacing:0px;fill:#d9230f;stroke-width:2.11668;stroke-linecap:round;stroke-linejoin:round;fill-opacity:1"
       d="m 128.55579,49.546568 q -0.33703,0 -0.54506,-0.20388 -0.20388,-0.208042 -0.20388,-0.54923 v -1.477094 q 0,-0.341188 0.20388,-0.545069 0.20803,-0.203881 0.54506,-0.203881 0.34118,0 0.54507,0.203881 0.20804,0.203881 0.20804,0.545069 v 0.06657 q 0,0.0416 -0.0416,0.0416 l -0.31622,0.01665 q -0.0416,0 -0.0416,-0.0416 v -0.108179 q 0,-0.170595 -0.0999,-0.274614 -0.0956,-0.104024 -0.25381,-0.104024 -0.1581,0 -0.2538,0.104024 -0.0956,0.104023 -0.0956,0.274614 v 1.531185 q 0,0.170594 0.0956,0.274615 0.0956,0.104024 0.2538,0.104024 0.15812,0 0.25381,-0.104024 0.0999,-0.104023 0.0999,-0.274615 v -0.108179 q 0,-0.04161 0.0416,-0.04161 l 0.31622,0.01665 q 0.0416,0 0.0416,0.0416 v 0.06241 q 0,0.341188 -0.20804,0.54923 -0.20389,0.20388 -0.54507,0.20388 z"
       id="path74" /><path
       style="font-weight:500;font-stretch:condensed;font-size:3.55431px;font-family:'Barlow Condensed';-inkscape-font-specification:'Barlow Condensed,  Medium Condensed';letter-spacing:0px;fill:#d9230f;stroke-width:2.11668;stroke-linecap:round;stroke-linejoin:round;fill-opacity:1"
       d="m 126.87066,47.366294 q 0.26213,0 0.39943,0.178915 0.14148,0.174755 0.14148,0.4993 v 1.427165 q 0,0.0416 -0.0417,0.0416 h -0.31621 q -0.0417,0 -0.0417,-0.0416 v -1.393878 q 0,-0.174755 -0.0749,-0.270454 -0.0749,-0.0957 -0.20804,-0.0957 -0.13731,0 -0.21636,0.0957 -0.0749,0.09153 -0.0832,0.262132 0,0.02497 -0.005,0.02497 v 1.377235 q 0,0.0416 -0.0417,0.0416 h -0.31623 q -0.0416,0 -0.0416,-0.0416 v -2.034646 q 0,-0.0416 0.0416,-0.0416 h 0.31623 q 0.0417,0 0.0417,0.0416 v 0.112346 q 0,0.0083 0.008,0.01248 0.008,0 0.0166,-0.01248 0.14979,-0.183075 0.42025,-0.183075 z"
       id="path73" /><path
       style="font-weight:500;font-stretch:condensed;font-size:3.55431px;font-family:'Barlow Condensed';-inkscape-font-specification:'Barlow Condensed,  Medium Condensed';letter-spacing:0px;fill:#d9230f;stroke-width:2.11668;stroke-linecap:round;stroke-linejoin:round;fill-opacity:1"
       d="m 125.21049,49.513282 q -0.0416,0 -0.0416,-0.0416 v -2.034645 q 0,-0.04161 0.0416,-0.04161 h 0.31622 q 0.0416,0 0.0416,0.04161 v 2.034645 q 0,0.0416 -0.0416,0.0416 z"
       id="path72" /><path
       style="font-weight:500;font-stretch:condensed;font-size:3.55431px;font-family:'Barlow Condensed';-inkscape-font-specification:'Barlow Condensed,  Medium Condensed';letter-spacing:0px;fill:#d9230f;stroke-width:2.11668;stroke-linecap:round;stroke-linejoin:round;fill-opacity:1"
       d="m 125.36444,47.062553 q -0.11648,0 -0.1914,-0.0749 -0.0749,-0.0749 -0.0749,-0.191397 0,-0.116503 0.0749,-0.191398 0.0749,-0.0749 0.1914,-0.0749 0.12067,0 0.1914,0.0749 0.0749,0.07073 0.0749,0.191398 0,0.116502 -0.0749,0.191397 -0.0749,0.0749 -0.1914,0.0749 z"
       id="path71" /><path
       style="font-weight:500;font-stretch:condensed;font-size:3.55431px;font-family:'Barlow Condensed';-inkscape-font-specification:'Barlow Condensed,  Medium Condensed';letter-spacing:0px;fill:#d9230f;stroke-width:2.11668;stroke-linecap:round;stroke-linejoin:round;fill-opacity:1"
       d="m 124.04545,49.546568 q -0.32871,0 -0.53259,-0.20388 -0.19972,-0.208042 -0.19972,-0.540908 v -0.108179 q 0,-0.0416 0.0416,-0.0416 h 0.30791 q 0.0416,0 0.0416,0.0416 v 0.08738 q 0,0.191398 0.0956,0.307901 0.0956,0.112347 0.2455,0.112347 0.14978,0 0.24548,-0.108179 0.0999,-0.112347 0.0999,-0.291257 0,-0.120664 -0.0541,-0.212203 -0.05,-0.09154 -0.13732,-0.162272 -0.0832,-0.0749 -0.27461,-0.216363 -0.2122,-0.158112 -0.33286,-0.270455 -0.12067,-0.112347 -0.20389,-0.270454 -0.0832,-0.15811 -0.0832,-0.370313 0,-0.337027 0.19971,-0.532586 0.19972,-0.19972 0.5201,-0.19972 0.33288,0 0.5326,0.212202 0.20388,0.212203 0.20388,0.557551 v 0.10402 q 0,0.0416 -0.0417,0.0416 h -0.3079 q -0.0416,0 -0.0416,-0.0416 v -0.112346 q 0,-0.187238 -0.0956,-0.29958 -0.0956,-0.116502 -0.24965,-0.116502 -0.14563,0 -0.23716,0.104023 -0.0915,0.09986 -0.0915,0.282936 0,0.166433 0.0915,0.282937 0.0915,0.112346 0.35366,0.30374 0.24965,0.187237 0.37448,0.30374 0.12899,0.116503 0.19556,0.257972 0.0707,0.137308 0.0707,0.328706 0,0.349509 -0.20388,0.561712 -0.20388,0.208041 -0.53258,0.208041 z"
       id="path70" /><path
       style="font-weight:500;font-stretch:condensed;font-size:3.55431px;font-family:'Barlow Condensed';-inkscape-font-specification:'Barlow Condensed,  Medium Condensed';letter-spacing:0px;fill:#d9230f;stroke-width:2.11668;stroke-linecap:round;stroke-linejoin:round;fill-opacity:1"
       d="m 121.7237,49.513287 q -0.0417,0 -0.0417,-0.0416 v -2.034646 q 0,-0.0416 0.0417,-0.0416 h 0.31623 q 0.0416,0 0.0416,0.0416 v 2.034646 q 0,0.0416 -0.0416,0.0416 z"
       id="path69" /><path
       style="font-weight:500;font-stretch:condensed;font-size:3.55431px;font-family:'Barlow Condensed';-inkscape-font-specification:'Barlow Condensed,  Medium Condensed';letter-spacing:0px;fill:#d9230f;stroke-width:2.11668;stroke-linecap:round;stroke-linejoin:round;fill-opacity:1"
       d="m 121.87766,47.062558 q -0.11648,0 -0.19141,-0.0749 -0.0749,-0.0749 -0.0749,-0.191398 0,-0.116502 0.0749,-0.191398 0.0749,-0.0749 0.19141,-0.0749 0.12065,0 0.1914,0.0749 0.0749,0.07073 0.0749,0.191398 0,0.116503 -0.0749,0.191398 -0.0749,0.0749 -0.1914,0.0749 z"
       id="path68" /><path
       style="font-weight:500;font-stretch:condensed;font-size:3.55431px;font-family:'Barlow Condensed';-inkscape-font-specification:'Barlow Condensed,  Medium Condensed';letter-spacing:0px;fill:#d9230f;stroke-width:2.11668;stroke-linecap:round;stroke-linejoin:round;fill-opacity:1"
       d="m 120.8208,46.642315 q 0,-0.04161 0.0417,-0.04161 h 0.31622 q 0.0417,0 0.0417,0.04161 v 2.829364 q 0,0.0416 -0.0417,0.0416 h -0.31622 q -0.0417,0 -0.0417,-0.0416 v -0.06658 q 0,-0.0083 -0.008,-0.01248 -0.005,-0.0042 -0.0125,0.0042 -0.079,0.0749 -0.17891,0.112347 -0.0999,0.03745 -0.19972,0.03745 -0.27461,0 -0.43689,-0.178915 -0.15812,-0.183077 -0.15812,-0.478496 v -0.865452 q 0,-0.307901 0.15812,-0.482656 0.16228,-0.178917 0.43689,-0.178917 0.0999,0 0.19972,0.03745 0.0998,0.03745 0.17891,0.112347 0.008,0.0083 0.0125,0.0042 0.008,-0.0042 0.008,-0.01248 z m -0.29541,2.558909 q 0.11648,0 0.19555,-0.0749 0.0832,-0.07905 0.0999,-0.20388 v -0.936187 q -0.0166,-0.124825 -0.0999,-0.19972 -0.079,-0.07905 -0.19555,-0.07905 -0.13315,0 -0.22053,0.0957 -0.0832,0.0957 -0.0832,0.24549 v 0.811361 q 0,0.14979 0.0832,0.245489 0.0873,0.0957 0.22053,0.0957 z"
       id="path67" /><path
       style="font-weight:500;font-stretch:condensed;font-size:3.55431px;font-family:'Barlow Condensed';-inkscape-font-specification:'Barlow Condensed,  Medium Condensed';letter-spacing:0px;fill:#d9230f;stroke-width:2.11668;stroke-linecap:round;stroke-linejoin:round;fill-opacity:1"
       d="m 118.65717,48.5771 q 0,0.0416 -0.0416,0.0416 h -0.94034 q -0.0166,0 -0.0166,0.01665 v 0.224685 q 0,0.14979 0.0832,0.245489 0.0832,0.0957 0.21636,0.0957 0.11647,0 0.19555,-0.07073 0.079,-0.07073 0.0999,-0.183077 0.0125,-0.03328 0.0458,-0.03328 l 0.3079,0.01665 q 0.0208,0 0.0292,0.01248 0.0125,0.01248 0.008,0.02913 -0.0292,0.270454 -0.20804,0.424405 -0.17476,0.149789 -0.4785,0.149789 -0.32038,0 -0.51178,-0.178915 -0.18723,-0.178916 -0.18723,-0.478496 v -0.865452 q 0,-0.295419 0.18723,-0.478495 0.1914,-0.183077 0.51178,-0.183077 0.32455,0 0.51178,0.183077 0.18724,0.183076 0.18724,0.478495 z m -0.69902,-0.869614 q -0.13314,0 -0.21635,0.0957 -0.0832,0.0957 -0.0832,0.24549 V 48.2692 q 0,0.01665 0.0166,0.01665 h 0.57003 q 0.0166,0 0.0166,-0.01665 v -0.220524 q 0,-0.149791 -0.0832,-0.24549 -0.0832,-0.0957 -0.22053,-0.0957 z"
       id="path66" /><path
       style="font-weight:500;font-stretch:condensed;font-size:3.55431px;font-family:'Barlow Condensed';-inkscape-font-specification:'Barlow Condensed,  Medium Condensed';letter-spacing:0px;fill:#d9230f;stroke-width:2.11668;stroke-linecap:round;stroke-linejoin:round;fill-opacity:1"
       d="m 116.98036,47.645074 q 0,0.0416 -0.0416,0.0416 h -0.29131 q -0.0166,0 -0.0166,0.01665 v 1.169193 q 0,0.166432 0.0583,0.233006 0.0583,0.06241 0.18308,0.05825 h 0.0375 q 0.0416,0 0.0416,0.0416 v 0.266293 q 0,0.0416 -0.0416,0.0416 h -0.12899 q -0.26629,0 -0.4036,-0.104023 Q 116.244,49.30522 116.244,49.013964 v -1.310661 q 0,-0.01665 -0.0166,-0.01665 h -0.16228 q -0.0416,0 -0.0416,-0.0416 v -0.208041 q 0,-0.0416 0.0416,-0.0416 h 0.16228 q 0.0166,0 0.0166,-0.01665 v -0.470174 q 0,-0.0416 0.0416,-0.0416 h 0.30373 q 0.0417,0 0.0417,0.0416 v 0.470174 q 0,0.01665 0.0166,0.01665 h 0.29127 q 0.0416,0 0.0416,0.0416 z"
       id="path65" /><path
       style="font-weight:500;font-stretch:condensed;font-size:3.55431px;font-family:'Barlow Condensed';-inkscape-font-specification:'Barlow Condensed,  Medium Condensed';letter-spacing:0px;fill:#d9230f;stroke-width:2.11668;stroke-linecap:round;stroke-linejoin:round;fill-opacity:1"
       d="m 115.19953,47.366299 q 0.26213,0 0.39944,0.178915 0.14147,0.174755 0.14147,0.499299 v 1.427166 q 0,0.0416 -0.0416,0.0416 h -0.31621 q -0.0417,0 -0.0417,-0.0416 v -1.393878 q 0,-0.174755 -0.0749,-0.270454 -0.0749,-0.0957 -0.20803,-0.0957 -0.13731,0 -0.21637,0.0957 -0.0749,0.09153 -0.0832,0.262132 0,0.02497 -0.005,0.02497 v 1.377235 q 0,0.04161 -0.0416,0.04161 h -0.31622 q -0.0416,0 -0.0416,-0.04161 v -2.034646 q 0,-0.0416 0.0416,-0.0416 h 0.31622 q 0.0416,0 0.0416,0.0416 v 0.112347 q 0,0.0083 0.008,0.01248 0.008,0 0.0166,-0.01248 0.1498,-0.183076 0.42025,-0.183076 z"
       id="path64" /><path
       style="font-weight:500;font-stretch:condensed;font-size:3.55431px;font-family:'Barlow Condensed';-inkscape-font-specification:'Barlow Condensed,  Medium Condensed';letter-spacing:0px;fill:#d9230f;stroke-width:2.11668;stroke-linecap:round;stroke-linejoin:round;fill-opacity:1"
       d="m 113.9804,48.5771 q 0,0.0416 -0.0416,0.0416 h -0.94034 q -0.0166,0 -0.0166,0.01665 v 0.224685 q 0,0.14979 0.0832,0.245489 0.0832,0.0957 0.21637,0.0957 0.11648,0 0.19556,-0.07073 0.079,-0.07073 0.0999,-0.183077 0.0125,-0.03328 0.0458,-0.03328 l 0.30791,0.01665 q 0.0208,0 0.0292,0.01248 0.0125,0.01248 0.008,0.02913 -0.0292,0.270454 -0.20805,0.424405 -0.17475,0.149789 -0.47848,0.149789 -0.32039,0 -0.51179,-0.178915 -0.18724,-0.178916 -0.18724,-0.478496 v -0.865452 q 0,-0.295419 0.18724,-0.478495 0.1914,-0.183077 0.51179,-0.183077 0.32453,0 0.51178,0.183077 0.18723,0.183076 0.18723,0.478495 z m -0.69901,-0.869614 q -0.13315,0 -0.21637,0.0957 -0.0832,0.0957 -0.0832,0.24549 V 48.2692 q 0,0.01665 0.0166,0.01665 h 0.57003 q 0.0166,0 0.0166,-0.01665 v -0.220524 q 0,-0.149791 -0.0832,-0.24549 -0.0832,-0.0957 -0.22052,-0.0957 z"
       id="path63" /><path
       style="font-weight:500;font-stretch:condensed;font-size:3.55431px;font-family:'Barlow Condensed';-inkscape-font-specification:'Barlow Condensed,  Medium Condensed';letter-spacing:0px;fill:#d9230f;stroke-width:2.11668;stroke-linecap:round;stroke-linejoin:round;fill-opacity:1"
       d="m 112.3036,47.645074 q 0,0.0416 -0.0416,0.0416 h -0.29127 q -0.0166,0 -0.0166,0.01665 v 1.169193 q 0,0.166432 0.0583,0.233006 0.0583,0.06241 0.18308,0.05825 h 0.0375 q 0.0416,0 0.0416,0.0416 v 0.266293 q 0,0.0416 -0.0416,0.0416 h -0.12899 q -0.26629,0 -0.4036,-0.104023 -0.13314,-0.104023 -0.13314,-0.395279 v -1.310661 q 0,-0.01665 -0.0166,-0.01665 h -0.16228 q -0.0416,0 -0.0416,-0.0416 v -0.208041 q 0,-0.0416 0.0416,-0.0416 h 0.16228 q 0.0166,0 0.0166,-0.01665 v -0.470174 q 0,-0.0416 0.0416,-0.0416 h 0.30373 q 0.0416,0 0.0416,0.0416 v 0.470174 q 0,0.01665 0.0166,0.01665 h 0.29127 q 0.0416,0 0.0416,0.0416 z"
       id="path62" /><path
       style="font-weight:500;font-stretch:condensed;font-size:3.55431px;font-family:'Barlow Condensed';-inkscape-font-specification:'Barlow Condensed,  Medium Condensed';letter-spacing:0px;fill:#d9230f;stroke-width:2.11668;stroke-linecap:round;stroke-linejoin:round;fill-opacity:1"
       d="m 110.63927,47.437033 q 0,-0.0416 0.0416,-0.0416 h 0.31622 q 0.0416,0 0.0416,0.0416 v 2.034646 q 0,0.0416 -0.0416,0.0416 h -0.31622 q -0.0416,0 -0.0416,-0.0416 v -0.120664 q 0,-0.01248 -0.008,-0.01248 -0.005,0 -0.0125,0.0083 -0.12483,0.19556 -0.39944,0.19556 -0.24965,0 -0.4036,-0.14979 -0.15395,-0.153951 -0.15395,-0.466013 v -1.489577 q 0,-0.0416 0.0417,-0.0416 h 0.31622 q 0.0416,0 0.0416,0.0416 v 1.402199 q 0,0.357831 0.28293,0.357831 0.14147,0 0.21636,-0.09985 0.079,-0.104024 0.079,-0.282937 z"
       id="path61" /><path
       style="font-weight:500;font-stretch:condensed;font-size:3.55431px;font-family:'Barlow Condensed';-inkscape-font-specification:'Barlow Condensed,  Medium Condensed';letter-spacing:0px;fill:#d9230f;stroke-width:2.11668;stroke-linecap:round;stroke-linejoin:round;fill-opacity:1"
       d="m 108.03042,49.513287 q -0.0416,0 -0.0416,-0.0416 v -2.034646 q 0,-0.0416 0.0416,-0.0416 h 0.31623 q 0.0416,0 0.0416,0.0416 v 2.034646 q 0,0.0416 -0.0416,0.0416 z"
       id="path60" /><path
       style="font-weight:500;font-stretch:condensed;font-size:3.55431px;font-family:'Barlow Condensed';-inkscape-font-specification:'Barlow Condensed,  Medium Condensed';letter-spacing:0px;fill:#d9230f;stroke-width:2.11668;stroke-linecap:round;stroke-linejoin:round;fill-opacity:1"
       d="m 108.18437,47.062558 q -0.11648,0 -0.19139,-0.0749 -0.0749,-0.0749 -0.0749,-0.191398 0,-0.116502 0.0749,-0.191398 0.0749,-0.0749 0.19139,-0.0749 0.12067,0 0.1914,0.0749 0.0749,0.07073 0.0749,0.191398 0,0.116503 -0.0749,0.191398 -0.0749,0.0749 -0.1914,0.0749 z"
       id="path59" /><path
       style="font-weight:500;font-stretch:condensed;font-size:3.55431px;font-family:'Barlow Condensed';-inkscape-font-specification:'Barlow Condensed,  Medium Condensed';letter-spacing:0px;fill:#d9230f;stroke-width:2.11668;stroke-linecap:round;stroke-linejoin:round;fill-opacity:1"
       d="m 106.95693,49.538252 q -0.31206,0 -0.49514,-0.149791 -0.17891,-0.15395 -0.17891,-0.411921 v -0.03745 q 0,-0.0416 0.0416,-0.0416 h 0.29542 q 0.0416,0 0.0416,0.0416 v 0.02913 q 0,0.112346 0.0873,0.191397 0.0873,0.0749 0.21636,0.0749 0.12483,0 0.19972,-0.0749 0.079,-0.0749 0.079,-0.191397 0,-0.09155 -0.0541,-0.153951 -0.0541,-0.06241 -0.12899,-0.0957 -0.0707,-0.03745 -0.22053,-0.09986 -0.16226,-0.07073 -0.27045,-0.137307 -0.10396,-0.06657 -0.18724,-0.191399 -0.0832,-0.124824 -0.0832,-0.316222 0,-0.282936 0.17475,-0.441048 0.17893,-0.158112 0.47851,-0.158112 0.3079,0 0.48265,0.162272 0.17892,0.162273 0.17892,0.441048 v 0.01248 q 0,0.0416 -0.0417,0.0416 h -0.28709 q -0.0417,0 -0.0417,-0.0416 v -0.02913 q 0,-0.112347 -0.079,-0.191398 -0.079,-0.07905 -0.20388,-0.07905 -0.12899,0 -0.20388,0.07905 -0.0749,0.07905 -0.0749,0.191398 0,0.08738 0.05,0.145629 0.0499,0.05825 0.12067,0.0957 0.0707,0.03328 0.22468,0.09986 0.1706,0.0749 0.28294,0.145629 0.11238,0.06658 0.19556,0.191399 0.0873,0.124825 0.0873,0.312062 0,0.270454 -0.18724,0.428566 -0.18308,0.158111 -0.4993,0.158111 z"
       id="path58" /><path
       style="font-weight:500;font-stretch:condensed;font-size:3.55431px;font-family:'Barlow Condensed';-inkscape-font-specification:'Barlow Condensed,  Medium Condensed';letter-spacing:0px;fill:#d9230f;stroke-width:2.11668;stroke-linecap:round;stroke-linejoin:round;fill-opacity:1"
       d="m 105.42575,49.538252 q -0.31207,0 -0.49515,-0.149791 -0.17891,-0.15395 -0.17891,-0.411921 v -0.03745 q 0,-0.0416 0.0416,-0.0416 h 0.29543 q 0.0416,0 0.0416,0.0416 v 0.02913 q 0,0.112346 0.0873,0.191397 0.0873,0.0749 0.21637,0.0749 0.12483,0 0.19971,-0.0749 0.079,-0.0749 0.079,-0.191397 0,-0.09155 -0.0541,-0.153951 -0.0541,-0.06241 -0.12898,-0.0957 -0.0707,-0.03745 -0.22053,-0.09986 -0.16227,-0.07073 -0.27045,-0.137307 -0.10407,-0.06657 -0.18725,-0.191399 -0.0832,-0.124824 -0.0832,-0.316222 0,-0.282936 0.17475,-0.441048 0.17891,-0.158112 0.47849,-0.158112 0.30791,0 0.48266,0.162272 0.17892,0.162273 0.17892,0.441048 v 0.01248 q 0,0.0416 -0.0416,0.0416 h -0.2871 q -0.0416,0 -0.0416,-0.0416 v -0.02913 q 0,-0.112347 -0.079,-0.191398 -0.079,-0.07905 -0.20388,-0.07905 -0.12898,0 -0.20388,0.07905 -0.0749,0.07905 -0.0749,0.191398 0,0.08738 0.0499,0.145629 0.05,0.05825 0.12067,0.0957 0.0707,0.03328 0.22468,0.09986 0.1706,0.0749 0.28294,0.145629 0.11238,0.06658 0.19556,0.191399 0.0873,0.124825 0.0873,0.312062 0,0.270454 -0.18725,0.428566 -0.18306,0.158111 -0.49929,0.158111 z"
       id="path57" /><path
       style="font-weight:500;font-stretch:condensed;font-size:3.55431px;font-family:'Barlow Condensed';-inkscape-font-specification:'Barlow Condensed,  Medium Condensed';letter-spacing:0px;fill:#d9230f;stroke-width:2.11668;stroke-linecap:round;stroke-linejoin:round;fill-opacity:1"
       d="m 104.45628,48.5771 q 0,0.0416 -0.0417,0.0416 h -0.94035 q -0.0166,0 -0.0166,0.01665 v 0.224685 q 0,0.14979 0.0832,0.245489 0.0832,0.0957 0.21636,0.0957 0.11648,0 0.19556,-0.07073 0.079,-0.07073 0.0999,-0.183077 0.0125,-0.03328 0.0458,-0.03328 l 0.3079,0.01665 q 0.0208,0 0.0292,0.01248 0.0125,0.01248 0.008,0.02913 -0.0291,0.270454 -0.20803,0.424405 -0.17476,0.149789 -0.4785,0.149789 -0.32038,0 -0.51178,-0.178915 Q 103.058,49.18876 103.058,48.88918 v -0.865452 q 0,-0.295419 0.18724,-0.478495 0.1914,-0.183077 0.51178,-0.183077 0.32455,0 0.51178,0.183077 0.18724,0.183076 0.18724,0.478495 z m -0.69902,-0.869614 q -0.13315,0 -0.21636,0.0957 -0.0832,0.0957 -0.0832,0.24549 V 48.2692 q 0,0.01665 0.0166,0.01665 h 0.57003 q 0.0166,0 0.0166,-0.01665 v -0.220524 q 0,-0.149791 -0.0832,-0.24549 -0.0832,-0.0957 -0.22052,-0.0957 z"
       id="path56" /><path
       style="font-weight:500;font-stretch:condensed;font-size:3.55431px;font-family:'Barlow Condensed';-inkscape-font-specification:'Barlow Condensed,  Medium Condensed';letter-spacing:0px;fill:#d9230f;stroke-width:2.11668;stroke-linecap:round;stroke-linejoin:round;fill-opacity:1"
       d="m 102.14286,47.366299 q 0.25797,0 0.39528,0.187237 0.14147,0.183076 0.14147,0.515943 v 1.4022 q 0,0.0416 -0.0416,0.0416 h -0.31207 q -0.0416,0 -0.0416,-0.0416 v -1.373075 q 0,-0.183076 -0.0749,-0.282936 -0.0749,-0.104023 -0.19972,-0.104023 -0.13314,0 -0.2122,0.104023 -0.079,0.09986 -0.079,0.278776 v 1.377235 q 0,0.0416 -0.0416,0.0416 h -0.31206 q -0.0416,0 -0.0416,-0.0416 v -1.373075 q 0,-0.183076 -0.0749,-0.282936 -0.0749,-0.104023 -0.19972,-0.104023 -0.13315,0 -0.2122,0.104023 -0.079,0.09986 -0.079,0.278776 v 1.377235 q 0,0.0416 -0.0417,0.0416 h -0.31206 q -0.0416,0 -0.0416,-0.0416 v -2.034646 q 0,-0.0416 0.0416,-0.0416 h 0.31206 q 0.0417,0 0.0417,0.0416 v 0.104023 q 0,0.0083 0.005,0.01248 0.008,0.0042 0.0166,-0.0042 0.0832,-0.09154 0.1914,-0.137307 0.10817,-0.04577 0.21636,-0.04577 0.31623,0 0.45353,0.278774 0.005,0.0083 0.0125,0.0083 0.008,-0.0042 0.0125,-0.0208 0.0832,-0.141468 0.21221,-0.203881 0.12898,-0.06241 0.26628,-0.06241 z"
       id="path55" /><path
       style="font-weight:500;font-stretch:condensed;font-size:3.55431px;font-family:'Barlow Condensed';-inkscape-font-specification:'Barlow Condensed,  Medium Condensed';letter-spacing:0px;fill:#d9230f;stroke-width:2.11668;stroke-linecap:round;stroke-linejoin:round;fill-opacity:1"
       d="m 99.900173,47.37461 q 0.104067,0 0.178907,0.04577 0.0292,0.01665 0.0208,0.05409 l -0.0624,0.316222 q -0.005,0.03745 -0.04998,0.02497 -0.05408,-0.0208 -0.116479,-0.0208 -0.02493,0 -0.07492,0.0083 -0.128981,0.01248 -0.21637,0.141469 -0.08323,0.128985 -0.08323,0.312062 v 1.214963 q 0,0.0416 -0.04156,0.0416 h -0.316226 q -0.04167,0 -0.04167,-0.0416 V 47.43701 q 0,-0.0416 0.04167,-0.0416 h 0.316226 q 0.04156,0 0.04156,0.0416 v 0.241328 q 0,0.01248 0.0047,0.01665 0.0082,0 0.01253,-0.01248 0.120658,-0.307901 0.386956,-0.307901 z"
       id="path54" /><path
       style="font-weight:500;font-stretch:condensed;font-size:3.55431px;font-family:'Barlow Condensed';-inkscape-font-specification:'Barlow Condensed,  Medium Condensed';letter-spacing:0px;fill:#d9230f;stroke-width:2.11668;stroke-linecap:round;stroke-linejoin:round;fill-opacity:1"
       d="m 98.722658,48.577091 q 0,0.0416 -0.04167,0.0416 h -0.940342 q -0.01662,0 -0.01662,0.01665 v 0.224685 q 0,0.14979 0.08323,0.245488 0.08323,0.0957 0.216359,0.0957 0.116479,0 0.195567,-0.07073 0.07902,-0.07073 0.09986,-0.183077 0.01253,-0.03328 0.04577,-0.03328 l 0.307903,0.01665 q 0.02084,0 0.02915,0.01248 0.01253,0.01248 0.0082,0.02913 -0.02915,0.270455 -0.208035,0.424405 -0.174754,0.14979 -0.478501,0.14979 -0.320382,0 -0.511782,-0.178915 -0.187232,-0.178917 -0.187232,-0.478496 V 48.02371 q 0,-0.295419 0.187232,-0.478496 0.1914,-0.183077 0.511782,-0.183077 0.324549,0 0.511782,0.183077 0.187244,0.183077 0.187244,0.478496 z m -0.699026,-0.869614 q -0.133149,0 -0.216358,0.0957 -0.08323,0.0957 -0.08323,0.24549 v 0.220523 q 0,0.01665 0.01662,0.01665 h 0.570033 q 0.01662,0 0.01662,-0.01665 v -0.220523 q 0,-0.149791 -0.08323,-0.24549 -0.08323,-0.0957 -0.220526,-0.0957 z"
       id="path53" /><path
       style="font-weight:500;font-stretch:condensed;font-size:3.55431px;font-family:'Barlow Condensed';-inkscape-font-specification:'Barlow Condensed,  Medium Condensed';letter-spacing:0px;fill:#d9230f;stroke-width:2.11668;stroke-linecap:round;stroke-linejoin:round;fill-opacity:1"
       d="m 96.375952,47.362128 q 0.270453,0 0.428561,0.183077 0.162274,0.178915 0.162274,0.474334 v 0.865453 q 0,0.307901 -0.162274,0.486817 -0.158108,0.174755 -0.428561,0.174755 -0.09986,0 -0.20388,-0.03745 -0.09986,-0.03745 -0.178921,-0.116503 -0.02084,-0.01248 -0.02084,0.0083 v 0.865453 q 0,0.04161 -0.04156,0.04161 H 95.61453 q -0.04156,0 -0.04156,-0.04161 V 47.437 q 0,-0.0416 0.04156,-0.0416 h 0.316226 q 0.04156,0 0.04156,0.0416 v 0.06657 q 0,0.0083 0.0082,0.01248 0.0082,0 0.01662,-0.0083 0.07902,-0.0749 0.178909,-0.108179 0.09986,-0.03745 0.199723,-0.03745 z m 0.195556,0.686538 q 0,-0.149791 -0.08733,-0.24549 -0.08323,-0.0957 -0.216359,-0.0957 -0.128993,0 -0.212202,0.0957 -0.08323,0.0957 -0.08323,0.24549 v 0.811361 q 0,0.14979 0.08323,0.245488 0.08323,0.0957 0.212202,0.0957 0.133138,0 0.216359,-0.0957 0.08733,-0.0957 0.08733,-0.245488 z"
       id="path52" /><path
       style="font-weight:500;font-stretch:condensed;font-size:3.55431px;font-family:'Barlow Condensed';-inkscape-font-specification:'Barlow Condensed,  Medium Condensed';letter-spacing:0px;fill:#d9230f;stroke-width:2.11668;stroke-linecap:round;stroke-linejoin:round;fill-opacity:1"
       d="m 93.904413,49.513277 q -0.0416,0 -0.0416,-0.0416 v -2.034646 q 0,-0.0416 0.0416,-0.0416 h 0.31622 q 0.04167,0 0.04167,0.0416 v 2.034646 q 0,0.0416 -0.04167,0.0416 z"
       id="path51" /><path
       style="font-weight:500;font-stretch:condensed;font-size:3.55431px;font-family:'Barlow Condensed';-inkscape-font-specification:'Barlow Condensed,  Medium Condensed';letter-spacing:0px;fill:#d9230f;stroke-width:2.11668;stroke-linecap:round;stroke-linejoin:round;fill-opacity:1"
       d="m 94.058367,47.062547 q -0.116502,0 -0.191398,-0.0749 -0.0749,-0.0749 -0.0749,-0.191398 0,-0.116503 0.0749,-0.191398 0.0749,-0.0749 0.191398,-0.0749 0.120664,0 0.191392,0.0749 0.07492,0.07073 0.07492,0.191398 0,0.116502 -0.07492,0.191398 -0.07489,0.0749 -0.191392,0.0749 z"
       id="path50" /><path
       style="font-weight:500;font-stretch:condensed;font-size:3.55431px;font-family:'Barlow Condensed';-inkscape-font-specification:'Barlow Condensed,  Medium Condensed';letter-spacing:0px;fill:#d9230f;stroke-width:2.11668;stroke-linecap:round;stroke-linejoin:round;fill-opacity:1"
       d="m 93.463369,48.577089 q 0,0.0416 -0.04161,0.0416 h -0.940347 q -0.01665,0 -0.01665,0.01665 v 0.224685 q 0,0.149789 0.08322,0.245488 0.08322,0.0957 0.216363,0.0957 0.116503,0 0.195559,-0.07073 0.07905,-0.07073 0.09986,-0.183077 0.01248,-0.03328 0.04577,-0.03328 l 0.307901,0.01665 q 0.0208,0 0.02913,0.01248 0.01248,0.01248 0.0083,0.02913 -0.02912,0.270455 -0.208042,0.424405 -0.174755,0.14979 -0.478494,0.14979 -0.320384,0 -0.511782,-0.178916 -0.187238,-0.178916 -0.187238,-0.478495 v -0.865452 q 0,-0.295419 0.187238,-0.478496 0.191398,-0.183077 0.511782,-0.183077 0.324544,0 0.511782,0.183077 0.187237,0.183077 0.187237,0.478496 z M 92.76435,47.707476 q -0.133147,0 -0.216363,0.0957 -0.08322,0.0957 -0.08322,0.24549 v 0.220523 q 0,0.01665 0.01665,0.01665 h 0.570033 q 0.01665,0 0.01665,-0.01665 v -0.220523 q 0,-0.149791 -0.08322,-0.24549 -0.08322,-0.0957 -0.220524,-0.0957 z"
       id="path49" /><path
       style="font-weight:500;font-stretch:condensed;font-size:3.55431px;font-family:'Barlow Condensed';-inkscape-font-specification:'Barlow Condensed,  Medium Condensed';letter-spacing:0px;fill:#d9230f;stroke-width:2.11668;stroke-linecap:round;stroke-linejoin:round;fill-opacity:1"
       d="m 91.266453,46.642304 q 0,-0.04161 0.04161,-0.04161 h 0.316222 q 0.04161,0 0.04161,0.04161 v 2.829364 q 0,0.0416 -0.04161,0.0416 h -0.316222 q -0.04161,0 -0.04161,-0.0416 v -0.06657 q 0,-0.0083 -0.0083,-0.01248 -0.0042,-0.0042 -0.01248,0.0042 -0.07905,0.0749 -0.178915,0.112347 -0.09986,0.03745 -0.19972,0.03745 -0.274615,0 -0.436887,-0.178915 -0.158111,-0.183077 -0.158111,-0.478496 v -0.865452 q 0,-0.307901 0.158111,-0.482656 0.162272,-0.178916 0.436887,-0.178916 0.09986,0 0.19972,0.03745 0.09986,0.03745 0.178915,0.112346 0.0083,0.0083 0.01248,0.0042 0.0083,-0.0042 0.0083,-0.01248 z m -0.295419,2.558909 q 0.116503,0 0.195559,-0.0749 0.08322,-0.07905 0.09985,-0.20388 v -0.936187 q -0.01665,-0.124824 -0.09985,-0.19972 -0.07905,-0.07905 -0.195559,-0.07905 -0.133146,0 -0.220524,0.0957 -0.08322,0.0957 -0.08322,0.24549 v 0.811361 q 0,0.149789 0.08322,0.245488 0.08738,0.0957 0.220524,0.0957 z"
       id="path48" /><path
       style="font-weight:500;font-stretch:condensed;font-size:3.55431px;font-family:'Barlow Condensed';-inkscape-font-specification:'Barlow Condensed,  Medium Condensed';letter-spacing:0px;fill:#d9230f;stroke-width:2.11668;stroke-linecap:round;stroke-linejoin:round;fill-opacity:1"
       d="m 88.378834,49.546562 q -0.324544,0 -0.515942,-0.178915 -0.187237,-0.183077 -0.187237,-0.482656 v -0.861292 q 0,-0.295418 0.191397,-0.478495 0.191398,-0.183077 0.511782,-0.183077 0.324545,0 0.515944,0.183077 0.191398,0.183077 0.191398,0.478495 v 0.861292 q 0,0.299579 -0.191398,0.482656 -0.191399,0.178915 -0.515944,0.178915 z m 0,-0.349509 q 0.133147,0 0.220525,-0.09154 0.08738,-0.0957 0.08738,-0.249649 v -0.8072 q 0,-0.149791 -0.08738,-0.24549 -0.08738,-0.0957 -0.220525,-0.0957 -0.133146,0 -0.220523,0.0957 -0.08322,0.0957 -0.08322,0.24549 v 0.8072 q 0,0.153951 0.08322,0.249649 0.08738,0.09154 0.220523,0.09154 z"
       id="path47" /><path
       style="font-weight:500;font-stretch:condensed;font-size:3.55431px;font-family:'Barlow Condensed';-inkscape-font-specification:'Barlow Condensed,  Medium Condensed';letter-spacing:0px;fill:#d9230f;stroke-width:2.11668;stroke-linecap:round;stroke-linejoin:round;fill-opacity:1"
       d="m 86.89758,49.513281 q -0.04161,0 -0.04161,-0.0416 V 47.43703 q 0,-0.0416 0.04161,-0.0416 h 0.316223 q 0.04161,0 0.04161,0.0416 v 2.034646 q 0,0.0416 -0.04161,0.0416 z"
       id="path46" /><path
       style="font-weight:500;font-stretch:condensed;font-size:3.55431px;font-family:'Barlow Condensed';-inkscape-font-specification:'Barlow Condensed,  Medium Condensed';letter-spacing:0px;fill:#d9230f;stroke-width:2.11668;stroke-linecap:round;stroke-linejoin:round;fill-opacity:1"
       d="m 87.051531,47.062552 q -0.116503,0 -0.191399,-0.0749 -0.0749,-0.0749 -0.0749,-0.191398 0,-0.116502 0.0749,-0.191397 0.0749,-0.0749 0.191399,-0.0749 0.120664,0 0.191398,0.0749 0.0749,0.07073 0.0749,0.191397 0,0.116503 -0.0749,0.191398 -0.0749,0.0749 -0.191398,0.0749 z"
       id="path45" /><path
       style="font-weight:500;font-stretch:condensed;font-size:3.55431px;font-family:'Barlow Condensed';-inkscape-font-specification:'Barlow Condensed,  Medium Condensed';letter-spacing:0px;fill:#d9230f;stroke-width:2.11668;stroke-linecap:round;stroke-linejoin:round;fill-opacity:1"
       d="m 86.007164,47.437027 q 0,-0.0416 0.0416,-0.0416 h 0.316223 q 0.0416,0 0.0416,0.0416 v 2.013841 q 0,0.436888 -0.19972,0.674054 -0.199718,0.241328 -0.686536,0.241328 l -0.112347,-0.0042 q -0.0416,-0.0042 -0.0416,-0.04577 v -0.266293 q 0,-0.0416 0.04577,-0.0416 0.341188,0.01248 0.466013,-0.137308 0.128986,-0.14563 0.128986,-0.457691 v -0.08738 q 0,-0.0083 -0.0083,-0.0083 -0.0042,-0.0042 -0.01248,0.0042 -0.141467,0.191399 -0.4036,0.191399 -0.274614,0 -0.424405,-0.174754 -0.145629,-0.178917 -0.145629,-0.482657 v -0.832165 q 0,-0.307902 0.149791,-0.482657 0.149789,-0.178916 0.420243,-0.178916 0.270454,0 0.4036,0.191399 0.0083,0.0083 0.01248,0.0042 0.0083,-0.0042 0.0083,-0.01248 z m -0.295419,1.730905 q 0.133146,0 0.212201,-0.09154 0.08322,-0.0957 0.08322,-0.245489 v -0.782236 q 0,-0.14979 -0.08322,-0.245489 -0.07905,-0.0957 -0.212201,-0.0957 -0.133147,0 -0.216364,0.0957 -0.08322,0.0957 -0.08322,0.245489 v 0.782236 q 0,0.14979 0.08322,0.245489 0.08322,0.09154 0.216364,0.09154 z"
       id="path44" /><path
       style="font-weight:500;font-stretch:condensed;font-size:3.55431px;font-family:'Barlow Condensed';-inkscape-font-specification:'Barlow Condensed,  Medium Condensed';letter-spacing:0px;fill:#d9230f;stroke-width:2.11668;stroke-linecap:round;stroke-linejoin:round;fill-opacity:1"
       d="m 84.247134,47.437027 q 0,-0.0416 0.04161,-0.0416 h 0.316223 q 0.04161,0 0.04161,0.0416 v 2.013841 q 0,0.436888 -0.19972,0.674054 -0.19972,0.241328 -0.686537,0.241328 l -0.112346,-0.0042 q -0.04161,-0.0042 -0.04161,-0.04577 v -0.266293 q 0,-0.0416 0.04577,-0.0416 0.341188,0.01248 0.466014,-0.137308 0.128985,-0.14563 0.128985,-0.457691 v -0.08738 q 0,-0.0083 -0.0083,-0.0083 -0.0042,-0.0042 -0.01248,0.0042 -0.141469,0.191399 -0.4036,0.191399 -0.274616,0 -0.424405,-0.174754 -0.14563,-0.178917 -0.14563,-0.482657 v -0.832165 q 0,-0.307902 0.14979,-0.482657 0.14979,-0.178916 0.420245,-0.178916 0.270453,0 0.4036,0.191399 0.0083,0.0083 0.01248,0.0042 0.0083,-0.0042 0.0083,-0.01248 z m -0.295419,1.730905 q 0.133147,0 0.212203,-0.09154 0.08322,-0.0957 0.08322,-0.245489 v -0.782236 q 0,-0.14979 -0.08322,-0.245489 -0.07905,-0.0957 -0.212203,-0.0957 -0.133146,0 -0.216363,0.0957 -0.08322,0.0957 -0.08322,0.245489 v 0.782236 q 0,0.14979 0.08322,0.245489 0.08322,0.09154 0.216363,0.09154 z"
       id="path43" /><path
       style="font-weight:500;font-stretch:condensed;font-size:3.55431px;font-family:'Barlow Condensed';-inkscape-font-specification:'Barlow Condensed,  Medium Condensed';letter-spacing:0px;fill:#d9230f;stroke-width:2.11668;stroke-linecap:round;stroke-linejoin:round;fill-opacity:1"
       d="m 82.204164,47.362131 q 0.30374,0 0.495139,0.191399 0.195558,0.191398 0.195558,0.50346 v 1.414683 q 0,0.0416 -0.04161,0.0416 h -0.316222 q -0.04161,0 -0.04161,-0.0416 v -0.09155 q 0,-0.0083 -0.0083,-0.01248 -0.0042,-0.0042 -0.01248,0.0042 -0.14563,0.174755 -0.428566,0.174755 -0.237168,0 -0.420243,-0.133147 -0.178917,-0.137307 -0.178917,-0.482656 0,-0.361993 0.216363,-0.528425 0.220525,-0.170595 0.574195,-0.170595 h 0.241328 q 0.01665,0 0.01665,-0.01665 v -0.120716 q 0,-0.174754 -0.08322,-0.278775 -0.08322,-0.10818 -0.216363,-0.10818 -0.104024,0 -0.174755,0.07073 -0.07073,0.07073 -0.08322,0.183077 0,0.0416 -0.04161,0.0416 h -0.337027 q -0.0416,0 -0.0416,-0.0416 0.0208,-0.266294 0.212202,-0.432726 0.191399,-0.166434 0.474335,-0.166434 z m -0.07073,1.834926 q 0.145628,0 0.253809,-0.09154 0.108179,-0.09154 0.108179,-0.257971 V 48.56461 q 0,-0.01665 -0.01665,-0.01665 h -0.253811 q -0.166433,0 -0.266293,0.09154 -0.09986,0.08738 -0.09986,0.257972 0,0.149789 0.0749,0.224685 0.0749,0.0749 0.19972,0.0749 z"
       id="path42" /><path
       style="font-weight:500;font-stretch:condensed;font-size:3.55431px;font-family:'Barlow Condensed';-inkscape-font-specification:'Barlow Condensed,  Medium Condensed';letter-spacing:0px;fill:#d9230f;stroke-width:2.11668;stroke-linecap:round;stroke-linejoin:round;fill-opacity:1"
       d="m 81.072419,47.37461 q 0.104023,0 0.178915,0.04577 0.02913,0.01665 0.0208,0.05409 l -0.06241,0.316222 q -0.0042,0.03745 -0.04993,0.02497 -0.0541,-0.0208 -0.116502,-0.0208 -0.02497,0 -0.0749,0.0083 -0.128986,0.01248 -0.216363,0.141469 -0.08322,0.128985 -0.08322,0.312062 v 1.214963 q 0,0.0416 -0.04161,0.0416 H 80.31099 q -0.04161,0 -0.04161,-0.0416 V 47.43701 q 0,-0.0416 0.04161,-0.0416 h 0.316222 q 0.04161,0 0.04161,0.0416 v 0.241328 q 0,0.01248 0.0042,0.01665 0.0083,0 0.01248,-0.01248 0.120664,-0.307901 0.386957,-0.307901 z"
       id="path41" /><path
       style="font-weight:500;font-stretch:condensed;font-size:3.55431px;font-family:'Barlow Condensed';-inkscape-font-specification:'Barlow Condensed,  Medium Condensed';letter-spacing:0px;fill:#d9230f;stroke-width:2.11668;stroke-linecap:round;stroke-linejoin:round;fill-opacity:1"
       d="m 79.17092,49.546564 q -0.324544,0 -0.515943,-0.178916 -0.187237,-0.183077 -0.187237,-0.482656 v -0.861291 q 0,-0.295419 0.191399,-0.478496 0.191397,-0.183077 0.511781,-0.183077 0.324545,0 0.515943,0.183077 0.191398,0.183077 0.191398,0.478496 v 0.861291 q 0,0.299579 -0.191398,0.482656 -0.191398,0.178916 -0.515943,0.178916 z m 0,-0.34951 q 0.133147,0 0.220524,-0.09154 0.08738,-0.0957 0.08738,-0.249649 V 48.04866 q 0,-0.149791 -0.08738,-0.24549 -0.08738,-0.0957 -0.220524,-0.0957 -0.133146,0 -0.220524,0.0957 -0.08322,0.0957 -0.08322,0.24549 v 0.807201 q 0,0.15395 0.08322,0.249649 0.08738,0.09154 0.220524,0.09154 z"
       id="path40" /><path
       style="font-weight:500;font-stretch:condensed;font-size:3.55431px;font-family:'Barlow Condensed';-inkscape-font-specification:'Barlow Condensed,  Medium Condensed';letter-spacing:0px;fill:#d9230f;stroke-width:2.11668;stroke-linecap:round;stroke-linejoin:round;fill-opacity:1"
       d="m 78.188964,47.645064 q 0,0.04161 -0.04161,0.04161 h -0.291258 q -0.01665,0 -0.01665,0.01665 v 1.169193 q 0,0.166433 0.05825,0.233006 0.05825,0.06241 0.183077,0.05825 h 0.03745 q 0.04161,0 0.04161,0.04161 v 0.266293 q 0,0.0416 -0.04161,0.0416 h -0.128986 q -0.266293,0 -0.4036,-0.104023 -0.133147,-0.104024 -0.133147,-0.39528 v -1.31066 q 0,-0.01665 -0.01665,-0.01665 h -0.16227 q -0.04161,0 -0.04161,-0.0416 v -0.208041 q 0,-0.0416 0.04161,-0.0416 h 0.162272 q 0.01665,0 0.01665,-0.01665 v -0.470174 q 0,-0.04161 0.04161,-0.04161 h 0.303741 q 0.0416,0 0.0416,0.04161 v 0.470174 q 0,0.01665 0.01665,0.01665 h 0.291259 q 0.0416,0 0.0416,0.0416 z"
       id="path39" /><path
       style="font-weight:500;font-stretch:condensed;font-size:3.55431px;font-family:'Barlow Condensed';-inkscape-font-specification:'Barlow Condensed,  Medium Condensed';letter-spacing:0px;fill:#d9230f;stroke-width:2.11668;stroke-linecap:round;stroke-linejoin:round;fill-opacity:1"
       d="m 76.545437,49.513277 q -0.04161,0 -0.04161,-0.0416 v -2.034646 q 0,-0.0416 0.04161,-0.0416 h 0.316222 q 0.0416,0 0.0416,0.0416 v 2.034646 q 0,0.0416 -0.0416,0.0416 z"
       id="path38" /><path
       style="font-weight:500;font-stretch:condensed;font-size:3.55431px;font-family:'Barlow Condensed';-inkscape-font-specification:'Barlow Condensed,  Medium Condensed';letter-spacing:0px;fill:#d9230f;stroke-width:2.11668;stroke-linecap:round;stroke-linejoin:round;fill-opacity:1"
       d="m 76.699387,47.062549 q -0.116502,0 -0.191398,-0.0749 -0.0749,-0.0749 -0.0749,-0.191398 0,-0.116502 0.0749,-0.191398 0.0749,-0.0749 0.191398,-0.0749 0.120664,0 0.191398,0.0749 0.0749,0.07073 0.0749,0.191398 0,0.116502 -0.0749,0.191398 -0.0749,0.0749 -0.191398,0.0749 z"
       id="path37" /><path
       style="font-weight:500;font-stretch:condensed;font-size:3.55431px;font-family:'Barlow Condensed';-inkscape-font-specification:'Barlow Condensed,  Medium Condensed';letter-spacing:0px;fill:#d9230f;stroke-width:2.11668;stroke-linecap:round;stroke-linejoin:round;fill-opacity:1"
       d="m 75.526038,47.36629 q 0.262133,0 0.39944,0.178915 0.141468,0.174755 0.141468,0.499299 v 1.427165 q 0,0.04161 -0.04161,0.04161 h -0.316222 q -0.04161,0 -0.04161,-0.04161 v -1.393878 q 0,-0.174754 -0.0749,-0.270453 -0.0749,-0.0957 -0.208041,-0.0957 -0.137308,0 -0.216364,0.0957 -0.0749,0.09153 -0.08322,0.262131 0,0.02497 -0.0042,0.02497 v 1.377235 q 0,0.0416 -0.04161,0.0416 h -0.316223 q -0.04161,0 -0.04161,-0.0416 v -2.034646 q 0,-0.0416 0.04161,-0.0416 h 0.316223 q 0.04161,0 0.04161,0.0416 v 0.112347 q 0,0.0083 0.0083,0.01248 0.0083,0 0.01665,-0.01248 0.14979,-0.183076 0.420243,-0.183076 z"
       id="path36" /><path
       style="font-weight:500;font-stretch:condensed;font-size:3.55431px;font-family:'Barlow Condensed';-inkscape-font-specification:'Barlow Condensed,  Medium Condensed';letter-spacing:0px;fill:#d9230f;stroke-width:2.11668;stroke-linecap:round;stroke-linejoin:round;fill-opacity:1"
       d="m 73.582932,49.546564 q -0.324544,0 -0.515942,-0.178916 -0.187238,-0.183077 -0.187238,-0.482656 v -0.861291 q 0,-0.295419 0.191398,-0.478496 0.191398,-0.183077 0.511782,-0.183077 0.324544,0 0.515943,0.183077 0.191398,0.183077 0.191398,0.478496 v 0.861291 q 0,0.299579 -0.191398,0.482656 -0.191399,0.178916 -0.515943,0.178916 z m 0,-0.34951 q 0.133147,0 0.220525,-0.09154 0.08738,-0.0957 0.08738,-0.249649 V 48.04866 q 0,-0.149791 -0.08738,-0.24549 -0.08738,-0.0957 -0.220525,-0.0957 -0.133147,0 -0.220523,0.0957 -0.08322,0.0957 -0.08322,0.24549 v 0.807201 q 0,0.15395 0.08322,0.249649 0.08738,0.09154 0.220523,0.09154 z"
       id="path35" /><path
       style="font-weight:500;font-stretch:condensed;font-size:3.55431px;font-family:'Barlow Condensed';-inkscape-font-specification:'Barlow Condensed,  Medium Condensed';letter-spacing:0px;fill:#d9230f;stroke-width:2.11668;stroke-linecap:round;stroke-linejoin:round;fill-opacity:1"
       d="m 71.964371,47.36629 q 0.257971,0 0.395279,0.187237 0.141468,0.183076 0.141468,0.515942 v 1.4022 q 0,0.04161 -0.0416,0.04161 h -0.312062 q -0.04161,0 -0.04161,-0.04161 v -1.373074 q 0,-0.183076 -0.0749,-0.282936 -0.0749,-0.104024 -0.19972,-0.104024 -0.133146,0 -0.212202,0.104024 -0.07905,0.09986 -0.07905,0.278775 v 1.377235 q 0,0.04161 -0.0416,0.04161 h -0.312062 q -0.04161,0 -0.04161,-0.04161 v -1.373074 q 0,-0.183076 -0.0749,-0.282936 -0.0749,-0.104024 -0.19972,-0.104024 -0.133146,0 -0.212201,0.104024 -0.07905,0.09986 -0.07905,0.278775 v 1.377235 q 0,0.04161 -0.0416,0.04161 h -0.312063 q -0.04161,0 -0.04161,-0.04161 v -2.034646 q 0,-0.0416 0.04161,-0.0416 h 0.312063 q 0.0416,0 0.0416,0.0416 v 0.104024 q 0,0.0083 0.0042,0.01248 0.0083,0.0042 0.01665,-0.0042 0.08322,-0.09154 0.191398,-0.137307 0.108179,-0.04577 0.216364,-0.04577 0.316223,0 0.45353,0.278775 0.0042,0.0083 0.01248,0.0083 0.0083,-0.0042 0.01248,-0.0208 0.08322,-0.141469 0.212202,-0.203882 0.128987,-0.06241 0.266294,-0.06241 z"
       id="path34" /><path
       style="font-weight:500;font-stretch:condensed;font-size:3.55431px;font-family:'Barlow Condensed';-inkscape-font-specification:'Barlow Condensed,  Medium Condensed';letter-spacing:0px;fill:#d9230f;stroke-width:2.11668;stroke-linecap:round;stroke-linejoin:round;fill-opacity:1"
       d="m 68.581614,49.513277 q -0.04161,0 -0.04161,-0.0416 v -2.829364 q 0,-0.0416 0.04161,-0.0416 h 0.316223 q 0.04161,0 0.04161,0.0416 v 2.829364 q 0,0.0416 -0.04161,0.0416 z"
       id="path33" /><path
       style="font-weight:500;font-stretch:condensed;font-size:3.55431px;font-family:'Barlow Condensed';-inkscape-font-specification:'Barlow Condensed,  Medium Condensed';letter-spacing:0px;fill:#d9230f;stroke-width:2.11668;stroke-linecap:round;stroke-linejoin:round;fill-opacity:1"
       d="m 67.741127,49.513277 q -0.04161,0 -0.04161,-0.0416 v -2.034646 q 0,-0.0416 0.04161,-0.0416 h 0.316222 q 0.04161,0 0.04161,0.0416 v 2.034646 q 0,0.0416 -0.04161,0.0416 z"
       id="path32" /><path
       style="font-weight:500;font-stretch:condensed;font-size:3.55431px;font-family:'Barlow Condensed';-inkscape-font-specification:'Barlow Condensed,  Medium Condensed';letter-spacing:0px;fill:#d9230f;stroke-width:2.11668;stroke-linecap:round;stroke-linejoin:round;fill-opacity:1"
       d="m 67.895081,47.062539 q -0.116503,0 -0.191398,-0.0749 -0.0749,-0.0749 -0.0749,-0.191397 0,-0.116503 0.0749,-0.191398 0.0749,-0.0749 0.191398,-0.0749 0.120664,0 0.191397,0.0749 0.0749,0.07073 0.0749,0.191398 0,0.116502 -0.0749,0.191397 -0.0749,0.0749 -0.191397,0.0749 z"
       id="path31" /><path
       style="font-weight:500;font-stretch:condensed;font-size:3.55431px;font-family:'Barlow Condensed';-inkscape-font-specification:'Barlow Condensed,  Medium Condensed';letter-spacing:0px;fill:#d9230f;stroke-width:2.11668;stroke-linecap:round;stroke-linejoin:round;fill-opacity:1"
       d="m 66.380533,47.374601 q 0.104023,0 0.178915,0.04577 0.02913,0.01665 0.0208,0.0541 l -0.06241,0.316222 q -0.0042,0.03745 -0.04993,0.02497 -0.0541,-0.0208 -0.116502,-0.0208 -0.02496,0 -0.0749,0.0083 -0.128986,0.01248 -0.216363,0.141469 -0.08322,0.128985 -0.08322,0.312062 v 1.214962 q 0,0.0416 -0.0416,0.0416 h -0.316222 q -0.0416,0 -0.0416,-0.0416 V 47.43701 q 0,-0.0416 0.0416,-0.0416 h 0.316222 q 0.0416,0 0.0416,0.0416 v 0.241329 q 0,0.01248 0.0042,0.01665 0.0083,0 0.01248,-0.01248 0.120664,-0.307901 0.386957,-0.307901 z"
       id="path30" /><path
       style="font-weight:500;font-stretch:condensed;font-size:3.55431px;font-family:'Barlow Condensed';-inkscape-font-specification:'Barlow Condensed,  Medium Condensed';letter-spacing:0px;fill:#d9230f;stroke-width:2.11668;stroke-linecap:round;stroke-linejoin:round;fill-opacity:1"
       d="m 65.203018,48.577081 q 0,0.0416 -0.04161,0.0416 h -0.940347 q -0.01665,0 -0.01665,0.01665 v 0.224686 q 0,0.149789 0.08322,0.245488 0.08322,0.0957 0.216363,0.0957 0.116503,0 0.195558,-0.07073 0.07905,-0.07073 0.09986,-0.183077 0.01248,-0.03328 0.04577,-0.03328 l 0.307901,0.01665 q 0.0208,0 0.02913,0.01248 0.01248,0.01248 0.0083,0.02913 -0.02912,0.270455 -0.208042,0.424405 -0.174755,0.14979 -0.478495,0.14979 -0.320384,0 -0.511781,-0.178916 -0.187238,-0.178916 -0.187238,-0.478496 V 48.02371 q 0,-0.295419 0.187238,-0.478496 0.191397,-0.183077 0.511781,-0.183077 0.324545,0 0.511782,0.183077 0.187238,0.183077 0.187238,0.478496 z m -0.69902,-0.869613 q -0.133146,0 -0.216362,0.0957 -0.08322,0.0957 -0.08322,0.24549 v 0.220523 q 0,0.01665 0.01665,0.01665 h 0.570033 q 0.01665,0 0.01665,-0.01665 v -0.220523 q 0,-0.149791 -0.08322,-0.24549 -0.08322,-0.0957 -0.220524,-0.0957 z"
       id="path29" /><path
       style="font-weight:500;font-stretch:condensed;font-size:3.55431px;font-family:'Barlow Condensed';-inkscape-font-specification:'Barlow Condensed,  Medium Condensed';letter-spacing:0px;fill:#d9230f;stroke-width:2.11668;stroke-linecap:round;stroke-linejoin:round;fill-opacity:1"
       d="m 62.856311,47.362119 q 0.270455,0 0.428566,0.183076 0.162272,0.178916 0.162272,0.474335 v 0.865453 q 0,0.307901 -0.162272,0.486816 -0.158111,0.174755 -0.428566,0.174755 -0.09986,0 -0.20388,-0.03745 -0.09986,-0.03745 -0.178916,-0.116502 -0.0208,-0.01248 -0.0208,0.0083 v 0.865453 q 0,0.0416 -0.04161,0.0416 h -0.316222 q -0.04161,0 -0.04161,-0.0416 v -2.829364 q 0,-0.0416 0.04161,-0.0416 h 0.316222 q 0.04161,0 0.04161,0.0416 v 0.06658 q 0,0.0083 0.0083,0.01248 0.0083,0 0.01665,-0.0083 0.07905,-0.0749 0.178917,-0.108179 0.09985,-0.03745 0.199718,-0.03745 z m 0.195559,0.686537 q 0,-0.14979 -0.08738,-0.245489 -0.08322,-0.0957 -0.216363,-0.0957 -0.128985,0 -0.212202,0.0957 -0.08322,0.0957 -0.08322,0.245489 v 0.811362 q 0,0.149789 0.08322,0.245488 0.08322,0.0957 0.212202,0.0957 0.133146,0 0.216363,-0.0957 0.08738,-0.0957 0.08738,-0.245488 z"
       id="path28" /><path
       style="font-weight:500;font-stretch:condensed;font-size:3.55431px;font-family:'Barlow Condensed';-inkscape-font-specification:'Barlow Condensed,  Medium Condensed';letter-spacing:0px;fill:#d9230f;stroke-width:2.11668;stroke-linecap:round;stroke-linejoin:round;fill-opacity:1"
       d="m 60.210023,47.362119 q 0.274614,0 0.432726,0.178916 0.158111,0.174755 0.158111,0.482656 v 0.865452 q 0,0.295419 -0.162272,0.478496 -0.158112,0.178915 -0.428565,0.178915 -0.09986,0 -0.203881,-0.03745 -0.09986,-0.03745 -0.178916,-0.112346 -0.0083,-0.0083 -0.01665,-0.0042 -0.0042,0.0042 -0.0042,0.01248 v 0.06658 q 0,0.0416 -0.0416,0.0416 h -0.316223 q -0.04161,0 -0.04161,-0.0416 v -2.829364 q 0,-0.04161 0.04161,-0.04161 h 0.316223 q 0.0416,0 0.0416,0.04161 v 0.865452 q 0,0.0083 0.0083,0.01248 0.0083,0 0.01665,-0.01248 0.158111,-0.14563 0.378635,-0.14563 z m 0.195558,0.686537 q 0,-0.14979 -0.08738,-0.245489 -0.08322,-0.0957 -0.216363,-0.0957 -0.128986,0 -0.212202,0.0957 -0.08322,0.0957 -0.08322,0.245489 v 0.811362 q 0,0.149789 0.08322,0.245488 0.08322,0.0957 0.212202,0.0957 0.133147,0 0.216363,-0.0957 0.08738,-0.0957 0.08738,-0.245488 z"
       id="path27" /><path
       style="font-weight:500;font-stretch:condensed;font-size:3.55431px;font-family:'Barlow Condensed';-inkscape-font-specification:'Barlow Condensed,  Medium Condensed';letter-spacing:0px;fill:#d9230f;stroke-width:2.11668;stroke-linecap:round;stroke-linejoin:round;fill-opacity:1"
       d="m 59.032508,48.577081 q 0,0.0416 -0.0416,0.0416 h -0.940347 q -0.01665,0 -0.01665,0.01665 v 0.224686 q 0,0.149789 0.08322,0.245488 0.08322,0.0957 0.216363,0.0957 0.116503,0 0.19556,-0.07073 0.07905,-0.07073 0.09986,-0.183077 0.01248,-0.03328 0.04577,-0.03328 l 0.307901,0.01665 q 0.0208,0 0.02913,0.01248 0.01248,0.01248 0.0083,0.02913 -0.02913,0.270455 -0.208041,0.424405 -0.174754,0.14979 -0.478495,0.14979 -0.320384,0 -0.511782,-0.178916 -0.187238,-0.178916 -0.187238,-0.478496 V 48.02371 q 0,-0.295419 0.187238,-0.478496 0.191398,-0.183077 0.511782,-0.183077 0.324544,0 0.511781,0.183077 0.187238,0.183077 0.187238,0.478496 z m -0.69902,-0.869613 q -0.133146,0 -0.216362,0.0957 -0.08322,0.0957 -0.08322,0.24549 v 0.220523 q 0,0.01665 0.01665,0.01665 h 0.570033 q 0.01665,0 0.01665,-0.01665 v -0.220523 q 0,-0.149791 -0.08322,-0.24549 -0.08322,-0.0957 -0.220524,-0.0957 z"
       id="path26" /><path
       style="font-weight:500;font-stretch:condensed;font-size:3.55431px;font-family:'Barlow Condensed';-inkscape-font-specification:'Barlow Condensed,  Medium Condensed';letter-spacing:0px;fill:#d9230f;stroke-width:2.11668;stroke-linecap:round;stroke-linejoin:round;fill-opacity:1"
       d="m 55.683039,49.513268 q -0.03745,0 -0.04577,-0.03745 l -0.445208,-2.034646 v -0.0083 q 0,-0.03745 0.03745,-0.03745 h 0.303741 q 0.0416,0 0.04577,0.03745 l 0.257971,1.435486 q 0.0042,0.0083 0.0083,0.0083 0.0042,0 0.0083,-0.0083 l 0.262133,-1.435486 q 0.0083,-0.03745 0.04577,-0.03745 h 0.274614 q 0.04161,0 0.04577,0.03745 l 0.270454,1.435486 q 0.0042,0.0083 0.0083,0.0083 0.0042,0 0.0083,-0.0083 l 0.262133,-1.435486 q 0.0083,-0.03745 0.04577,-0.03745 l 0.299581,0.0042 q 0.0208,0 0.02913,0.01248 0.01248,0.01248 0.0083,0.03329 l -0.449369,2.030485 q -0.0042,0.03745 -0.04577,0.03745 h -0.312062 q -0.03745,0 -0.04577,-0.03745 L 56.298785,48.11107 q -0.0042,-0.0083 -0.0083,-0.0083 -0.0042,0 -0.0083,0.0083 l -0.253811,1.364753 q -0.0042,0.03745 -0.04577,0.03745 z"
       id="path25" /><path
       style="font-weight:500;font-stretch:condensed;font-size:3.55431px;font-family:'Barlow Condensed';-inkscape-font-specification:'Barlow Condensed,  Medium Condensed';letter-spacing:0px;fill:#d9230f;stroke-width:2.11668;stroke-linecap:round;stroke-linejoin:round;fill-opacity:1"
       d="m 54.114403,48.577081 q 0,0.0416 -0.0416,0.0416 h -0.940348 q -0.01665,0 -0.01665,0.01665 v 0.224686 q 0,0.149789 0.08322,0.245488 0.08322,0.0957 0.216363,0.0957 0.116502,0 0.195559,-0.07073 0.07905,-0.07073 0.09986,-0.183077 0.01248,-0.03328 0.04577,-0.03328 l 0.307902,0.01665 q 0.0208,0 0.02913,0.01248 0.01248,0.01248 0.0083,0.02913 -0.02913,0.270455 -0.208042,0.424405 -0.174755,0.14979 -0.478496,0.14979 -0.320384,0 -0.511782,-0.178916 -0.187237,-0.178916 -0.187237,-0.478496 V 48.02371 q 0,-0.295419 0.187237,-0.478496 0.191398,-0.183077 0.511782,-0.183077 0.324546,0 0.511782,0.183077 0.187237,0.183077 0.187237,0.478496 z m -0.699019,-0.869613 q -0.133146,0 -0.216363,0.0957 -0.08322,0.0957 -0.08322,0.24549 v 0.220523 q 0,0.01665 0.01665,0.01665 h 0.570034 q 0.01665,0 0.01665,-0.01665 v -0.220523 q 0,-0.149791 -0.08322,-0.24549 -0.08322,-0.0957 -0.220524,-0.0957 z"
       id="path24" /><path
       style="font-weight:500;font-stretch:condensed;font-size:3.55431px;font-family:'Barlow Condensed';-inkscape-font-specification:'Barlow Condensed,  Medium Condensed';letter-spacing:0px;fill:#d9230f;stroke-width:2.11668;stroke-linecap:round;stroke-linejoin:round;fill-opacity:1"
       d="m 51.800985,47.36628 q 0.262133,0 0.39944,0.178915 0.141469,0.174755 0.141469,0.4993 v 1.427165 q 0,0.0416 -0.04161,0.0416 h -0.316223 q -0.0416,0 -0.0416,-0.0416 v -1.393878 q 0,-0.174755 -0.0749,-0.270454 -0.0749,-0.0957 -0.208041,-0.0957 -0.137307,0 -0.216363,0.0957 -0.0749,0.09153 -0.08322,0.262132 0,0.02497 -0.0042,0.02497 v 1.377235 q 0,0.0416 -0.04161,0.0416 h -0.316176 q -0.0416,0 -0.0416,-0.0416 v -2.034646 q 0,-0.0416 0.0416,-0.0416 h 0.316222 q 0.0416,0 0.0416,0.0416 v 0.112346 q 0,0.0083 0.0083,0.01248 0.0083,0 0.01665,-0.01248 0.149789,-0.183075 0.420243,-0.183075 z"
       id="path23" /><path
       style="font-weight:500;font-stretch:condensed;font-size:3.55431px;font-family:'Barlow Condensed';-inkscape-font-specification:'Barlow Condensed,  Medium Condensed';letter-spacing:0px;fill:#d9230f;stroke-width:2.11668;stroke-linecap:round;stroke-linejoin:round;fill-opacity:1"
       d="m 49.857879,49.546554 q -0.324545,0 -0.515942,-0.178915 -0.187238,-0.183077 -0.187238,-0.482656 v -0.861292 q 0,-0.295419 0.191398,-0.478496 0.191399,-0.183076 0.511782,-0.183076 0.324545,0 0.515943,0.183076 0.191398,0.183077 0.191398,0.478496 v 0.861292 q 0,0.299579 -0.191398,0.482656 -0.191398,0.178915 -0.515943,0.178915 z m 0,-0.349509 q 0.133146,0 0.220524,-0.09155 0.08738,-0.0957 0.08738,-0.249649 V 48.04865 q 0,-0.14979 -0.08738,-0.245489 -0.08738,-0.0957 -0.220524,-0.0957 -0.133146,0 -0.220524,0.0957 -0.08322,0.0957 -0.08322,0.245489 v 0.807201 q 0,0.15395 0.08322,0.249649 0.08738,0.09155 0.220524,0.09155 z"
       id="path22" /><path
       style="font-weight:500;font-stretch:condensed;font-size:3.55431px;font-family:'Barlow Condensed';-inkscape-font-specification:'Barlow Condensed,  Medium Condensed';letter-spacing:0px;fill:#d9230f;stroke-width:2.11668;stroke-linecap:round;stroke-linejoin:round;fill-opacity:1"
       d="m 48.376624,49.513273 q -0.0416,0 -0.0416,-0.0416 v -2.034646 q 0,-0.0416 0.0416,-0.0416 h 0.316224 q 0.0416,0 0.0416,0.0416 v 2.034646 q 0,0.0416 -0.0416,0.0416 z"
       id="path21" /><path
       style="font-weight:500;font-stretch:condensed;font-size:3.55431px;font-family:'Barlow Condensed';-inkscape-font-specification:'Barlow Condensed,  Medium Condensed';letter-spacing:0px;fill:#d9230f;stroke-width:2.11668;stroke-linecap:round;stroke-linejoin:round;fill-opacity:1"
       d="m 48.530575,47.062544 q -0.116502,0 -0.191397,-0.0749 -0.0749,-0.0749 -0.0749,-0.191398 0,-0.116502 0.0749,-0.191398 0.0749,-0.0749 0.191397,-0.0749 0.120664,0 0.191398,0.0749 0.0749,0.07073 0.0749,0.191398 0,0.116503 -0.0749,0.191398 -0.0749,0.0749 -0.191398,0.0749 z"
       id="path20" /><path
       style="font-weight:500;font-stretch:condensed;font-size:3.55431px;font-family:'Barlow Condensed';-inkscape-font-specification:'Barlow Condensed,  Medium Condensed';letter-spacing:0px;fill:#d9230f;stroke-width:2.11668;stroke-linecap:round;stroke-linejoin:round;fill-opacity:1"
       d="m 46.733098,49.513273 q -0.0416,0 -0.0416,-0.0416 V 49.18041 q 0,-0.02913 0.01248,-0.0541 l 0.778075,-1.343947 q 0.0042,-0.0083 0,-0.01248 -0.0042,-0.0083 -0.01248,-0.0083 h -0.719824 q -0.0416,0 -0.0416,-0.0416 v -0.282936 q 0,-0.04161 0.0416,-0.04161 h 1.177515 q 0.0416,0 0.0416,0.04161 v 0.295419 q 0,0.02913 -0.01248,0.0541 l -0.798878,1.343948 q -0.0042,0.0083 0,0.01665 0.0042,0.0042 0.01248,0.0042 h 0.769754 q 0.0416,0 0.0416,0.0416 v 0.278775 q 0,0.0416 -0.0416,0.0416 z"
       id="path19" /><path
       style="font-weight:500;font-stretch:condensed;font-size:3.55431px;font-family:'Barlow Condensed';-inkscape-font-specification:'Barlow Condensed,  Medium Condensed';letter-spacing:0px;fill:#d9230f;stroke-width:2.11668;stroke-linecap:round;stroke-linejoin:round;fill-opacity:1"
       d="m 45.705373,47.362123 q 0.303741,0 0.495139,0.191399 0.195558,0.191398 0.195558,0.50346 v 1.414683 q 0,0.0416 -0.04161,0.0416 h -0.316222 q -0.04161,0 -0.04161,-0.0416 v -0.09155 q 0,-0.0083 -0.0083,-0.01248 -0.0042,-0.0042 -0.01248,0.0042 -0.14563,0.174754 -0.428566,0.174754 -0.237166,0 -0.420243,-0.133146 -0.178915,-0.137307 -0.178915,-0.482657 0,-0.361992 0.216363,-0.528424 0.220523,-0.170595 0.574193,-0.170595 h 0.241328 q 0.01665,0 0.01665,-0.01665 v -0.120708 q 0,-0.174754 -0.08322,-0.278775 -0.08322,-0.10818 -0.216363,-0.10818 -0.104024,0 -0.174755,0.07073 -0.07073,0.07073 -0.08322,0.183077 0,0.0416 -0.04161,0.0416 h -0.337027 q -0.0416,0 -0.0416,-0.0416 0.0208,-0.266294 0.212202,-0.432726 0.191398,-0.166434 0.474334,-0.166434 z m -0.07073,1.834926 q 0.145629,0 0.25381,-0.09154 0.108179,-0.09154 0.108179,-0.257971 v -0.282937 q 0,-0.01665 -0.01665,-0.01665 h -0.25381 q -0.166433,0 -0.266293,0.09154 -0.09986,0.08738 -0.09986,0.257971 0,0.14979 0.0749,0.224685 0.0749,0.0749 0.19972,0.0749 z"
       id="path18" /><path
       style="font-weight:500;font-stretch:condensed;font-size:3.55431px;font-family:'Barlow Condensed';-inkscape-font-specification:'Barlow Condensed,  Medium Condensed';letter-spacing:0px;fill:#d9230f;stroke-width:2.11668;stroke-linecap:round;stroke-linejoin:round;fill-opacity:1"
       d="m 43.966146,49.546559 q -0.320384,0 -0.511782,-0.178915 -0.187237,-0.178917 -0.187237,-0.482657 v -0.861291 q 0,-0.295419 0.187237,-0.478496 0.191398,-0.183077 0.511782,-0.183077 0.212202,0 0.370314,0.08322 0.162272,0.07905 0.245489,0.220524 0.08738,0.137307 0.08738,0.312062 v 0.05409 q 0,0.04161 -0.0416,0.04161 l -0.316223,0.01248 q -0.0416,0 -0.0416,-0.0416 v -0.04161 q 0,-0.120664 -0.08738,-0.20804 -0.08738,-0.08738 -0.216363,-0.08738 -0.133147,0 -0.216363,0.0957 -0.08322,0.0957 -0.08322,0.24549 v 0.811361 q 0,0.149789 0.08322,0.245488 0.08322,0.0957 0.216363,0.0957 0.128986,0 0.216363,-0.08738 0.08738,-0.08738 0.08738,-0.208042 v -0.0416 q 0,-0.04161 0.0416,-0.04161 l 0.316223,0.0042 q 0.0416,0 0.0416,0.0416 v 0.06241 q 0,0.270454 -0.191399,0.445209 -0.191397,0.170594 -0.511781,0.170594 z"
       id="path17" /><path
       style="font-weight:500;font-stretch:condensed;font-size:3.55431px;font-family:'Barlow Condensed';-inkscape-font-specification:'Barlow Condensed,  Medium Condensed';letter-spacing:0px;fill:#d9230f;stroke-width:2.11668;stroke-linecap:round;stroke-linejoin:round;fill-opacity:1"
       d="m 42.489052,49.513277 q -0.04161,0 -0.04161,-0.0416 v -2.034646 q 0,-0.0416 0.04161,-0.0416 h 0.316223 q 0.0416,0 0.0416,0.0416 v 2.034646 q 0,0.0416 -0.0416,0.0416 z"
       id="path16" /><path
       style="font-weight:500;font-stretch:condensed;font-size:3.55431px;font-family:'Barlow Condensed';-inkscape-font-specification:'Barlow Condensed,  Medium Condensed';letter-spacing:0px;fill:#d9230f;stroke-width:2.11668;stroke-linecap:round;stroke-linejoin:round;fill-opacity:1"
       d="m 42.643003,47.062549 q -0.116503,0 -0.191398,-0.0749 -0.0749,-0.0749 -0.0749,-0.191398 0,-0.116502 0.0749,-0.191398 0.0749,-0.0749 0.191398,-0.0749 0.120664,0 0.191398,0.0749 0.0749,0.07073 0.0749,0.191398 0,0.116502 -0.0749,0.191398 -0.0749,0.0749 -0.191398,0.0749 z"
       id="path15" /><path
       style="font-weight:500;font-stretch:condensed;font-size:3.55431px;font-family:'Barlow Condensed';-inkscape-font-specification:'Barlow Condensed,  Medium Condensed';letter-spacing:0px;fill:#d9230f;stroke-width:2.11668;stroke-linecap:round;stroke-linejoin:round;fill-opacity:1"
       d="m 41.652725,49.513277 q -0.0416,0 -0.0416,-0.0416 v -2.829364 q 0,-0.0416 0.0416,-0.0416 h 0.316224 q 0.0416,0 0.0416,0.0416 v 2.829364 q 0,0.0416 -0.0416,0.0416 z"
       id="path14" /><path
       style="font-weight:500;font-stretch:condensed;font-size:3.55431px;font-family:'Barlow Condensed';-inkscape-font-specification:'Barlow Condensed,  Medium Condensed';letter-spacing:0px;fill:#d9230f;stroke-width:2.11668;stroke-linecap:round;stroke-linejoin:round;fill-opacity:1"
       d="m 40.641646,47.362128 q 0.270454,0 0.428566,0.183077 0.162272,0.178915 0.162272,0.474334 v 0.865453 q 0,0.307901 -0.162272,0.486817 -0.158112,0.174755 -0.428566,0.174755 -0.09985,0 -0.20388,-0.03745 -0.09986,-0.03745 -0.178916,-0.116503 -0.0208,-0.01248 -0.0208,0.0083 v 0.865453 q 0,0.04161 -0.0416,0.04161 h -0.316229 q -0.0416,0 -0.0416,-0.04161 V 47.437 q 0,-0.0416 0.0416,-0.0416 h 0.316224 q 0.0416,0 0.0416,0.0416 v 0.06657 q 0,0.0083 0.0083,0.01248 0.0083,0 0.01665,-0.0083 0.07905,-0.0749 0.178915,-0.108179 0.09986,-0.03745 0.19972,-0.03745 z m 0.195559,0.686538 q 0,-0.149791 -0.08738,-0.24549 -0.08322,-0.0957 -0.216363,-0.0957 -0.128986,0 -0.212203,0.0957 -0.08322,0.0957 -0.08322,0.24549 v 0.811361 q 0,0.14979 0.08322,0.245488 0.08322,0.0957 0.212203,0.0957 0.133147,0 0.216363,-0.0957 0.08738,-0.0957 0.08738,-0.245488 z"
       id="path13" /><path
       style="font-weight:500;font-stretch:condensed;font-size:3.55431px;font-family:'Barlow Condensed';-inkscape-font-specification:'Barlow Condensed,  Medium Condensed';letter-spacing:0px;fill:#d9230f;stroke-width:2.11668;stroke-linecap:round;stroke-linejoin:round;fill-opacity:1"
       d="m 38.831688,47.362128 q 0.270454,0 0.428565,0.183077 0.162273,0.178915 0.162273,0.474334 v 0.865453 q 0,0.307901 -0.162273,0.486817 -0.158111,0.174755 -0.428565,0.174755 -0.09986,0 -0.203881,-0.03745 -0.09985,-0.03745 -0.178916,-0.116503 -0.0208,-0.01248 -0.0208,0.0083 v 0.865453 q 0,0.04161 -0.0416,0.04161 h -0.316223 q -0.04161,0 -0.04161,-0.04161 V 47.437 q 0,-0.0416 0.04161,-0.0416 h 0.316223 q 0.0416,0 0.0416,0.0416 v 0.06657 q 0,0.0083 0.0083,0.01248 0.0083,0 0.01665,-0.0083 0.07905,-0.0749 0.178915,-0.108179 0.09986,-0.03745 0.19972,-0.03745 z m 0.195558,0.686538 q 0,-0.149791 -0.08738,-0.24549 -0.08322,-0.0957 -0.216363,-0.0957 -0.128986,0 -0.212202,0.0957 -0.08322,0.0957 -0.08322,0.24549 v 0.811361 q 0,0.14979 0.08322,0.245488 0.08322,0.0957 0.212202,0.0957 0.133147,0 0.216363,-0.0957 0.08738,-0.0957 0.08738,-0.245488 z"
       id="path4" /><path
       style="font-weight:500;font-stretch:condensed;font-size:3.55431px;font-family:'Barlow Condensed';-inkscape-font-specification:'Barlow Condensed,  Medium Condensed';letter-spacing:0px;fill:#d9230f;stroke-width:2.11668;stroke-linecap:round;stroke-linejoin:round;fill-opacity:1"
       d="m 37.375394,49.513277 q -0.03745,0 -0.04577,-0.03745 l -0.09154,-0.478496 q 0,-0.0083 -0.0083,-0.01248 -0.0042,-0.0042 -0.01248,-0.0042 h -0.678215 q -0.0083,0 -0.01665,0.0042 -0.0042,0.0042 -0.0042,0.01248 l -0.08738,0.478496 q -0.0042,0.03745 -0.04577,0.03745 H 36.06884 q -0.0208,0 -0.03329,-0.01248 -0.0083,-0.01248 -0.0042,-0.03329 l 0.619964,-2.829364 q 0.0083,-0.03745 0.04577,-0.03745 h 0.370313 q 0.04161,0 0.04577,0.03745 l 0.624124,2.829364 v 0.0083 q 0,0.03745 -0.03745,0.03745 z m -0.786396,-0.865453 q 0,0.01665 0.01248,0.01665 h 0.55339 q 0.01248,0 0.01248,-0.01665 L 36.884409,47.17073 q -0.0042,-0.0083 -0.0083,-0.0083 -0.0042,0 -0.0083,0.0083 z"
       id="text2" /></g></svg>
