<?xml version="1.0" encoding="UTF-8" standalone="no"?>
<!-- Created with Inkscape (http://www.inkscape.org/) -->

<svg
   width="512"
   height="512"
   viewBox="0 0 135.46666 135.46667"
   version="1.1"
   id="svg1"
   inkscape:version="1.4.3 (0d15f75042, 2025-12-25)"
   sodipodi:docname="users-icon.svg"
   xml:space="preserve"
   xmlns:inkscape="http://www.inkscape.org/namespaces/inkscape"
   xmlns:sodipodi="http://sodipodi.sourceforge.net/DTD/sodipodi-0.dtd"
   xmlns="http://www.w3.org/2000/svg"
   xmlns:svg="http://www.w3.org/2000/svg"><sodipodi:namedview
     id="namedview1"
     pagecolor="#ffffff"
     bordercolor="#000000"
     borderopacity="0.25"
     inkscape:showpageshadow="false"
     inkscape:pageopacity="0.0"
     inkscape:pagecheckerboard="0"
     inkscape:deskcolor="#d1d1d1"
     inkscape:document-units="px"
     inkscape:zoom="0.50000001"
     inkscape:cx="205.99999"
     inkscape:cy="371.99999"
     inkscape:window-width="2514"
     inkscape:window-height="1404"
     inkscape:window-x="2606"
     inkscape:window-y="0"
     inkscape:window-maximized="1"
     inkscape:current-layer="layer1" /><defs
     id="defs1"><inkscape:perspective
       sodipodi:type="inkscape:persp3d"
       inkscape:vp_x="-2.1166666 : 139.55193 : 1"
       inkscape:vp_y="0 : 1000 : 0"
       inkscape:vp_z="128.58749 : 40.333178 : 1"
       inkscape:persp3d-origin="60.854164 : 17.7554 : 1"
       id="perspective69" /><linearGradient
       id="linearGradient841"
       y2="461.2496"
       y1="381.08466"
       x2="290.91505"
       x1="185.41303"
       gradientTransform="matrix(0.33925388,0,0,0.20634794,6.82096,14.11287)"
       gradientUnits="userSpaceOnUse"><stop
         id="stop839"
         style="stop-color:#000000;stop-opacity:.6667"
         offset="0" /><stop
         id="stop840"
         style="stop-color:#003a00;stop-opacity:.1176"
         offset="1" /></linearGradient><linearGradient
       id="linearGradient882"
       y2="324.68274"
       y1="157.96686"
       x2="312.29534"
       x1="207.02526"
       gradientTransform="matrix(0.25245216,0,0,0.27729743,6.82096,14.11287)"
       gradientUnits="userSpaceOnUse"><stop
         id="stop884"
         style="stop-color:#ffffff;stop-opacity:1"
         offset="0" /><stop
         id="stop885"
         style="stop-color:#29abe0;stop-opacity:1"
         offset="1" /></linearGradient><linearGradient
       id="linearGradient886"
       y2="7.5225039"
       y1="7.5225039"
       x1="7.7122393"
       gradientTransform="matrix(0.26207804,0,0,0.26711256,6.82096,14.11287)"
       x2="416.12694"
       gradientUnits="userSpaceOnUse"><stop
         id="stop888"
         style="stop-color:#325d88;stop-opacity:1"
         offset="0" /><stop
         id="stop889"
         style="stop-color:#29abe0;stop-opacity:1"
         offset="1" /></linearGradient></defs><g
     inkscape:label="Layer 1"
     inkscape:groupmode="layer"
     id="layer1"><path
       d="m 40.973189,88.916818 c 6.60086,2.766882 16.080809,4.506322 26.756284,4.506322 10.675475,0 20.156777,-1.73944 26.758538,-4.506322 H 40.970936 Z"
       fill="#d35400"
       id="path1-3"
       style="fill:#483e37;fill-opacity:1;stroke-width:8.81943" /><path
       d="m 45.197866,48.359924 h 45.063215 l 4.506322,40.556894 H 40.691544 Z"
       fill="#d35400"
       id="path2-6"
       style="fill:#483e37;fill-opacity:1;stroke-width:8.81943" /><path
       d="m 49.704187,97.929462 c -10.296494,4.956968 -28.699156,18.828328 -28.699156,18.828328 39.085418,29.96815 72.018846,18.70887 94.088289,-0.61097 0,0 -18.361683,-13.07664 -29.338155,-18.217358 H 49.704592 Z"
       fill="#16a085"
       id="path3"
       style="fill:#007bff;fill-opacity:1;stroke-width:8.81943"
       sodipodi:nodetypes="cccccc" /><rect
       height="22.531609"
       width="27.037931"
       y="84.410606"
       x="54.210506"
       fill="#95a5a6"
       id="rect3"
       style="fill:#deaa87;stroke-width:8.81943" /><path
       d="m 67.729473,25.828317 c -13.350429,0 -24.41525,12.167067 -26.615236,27.939192 -0.511468,0 -1.081968,-0.450631 -1.549273,-0.450631 -2.36627,0.901264 -2.949388,5.407586 -1.408225,10.364538 0.904417,2.703795 2.409079,4.956955 3.943031,5.858218 3.498257,13.969598 13.586558,23.883506 25.629703,23.883506 12.040892,0 22.130545,-9.913908 25.631958,-23.883506 1.532149,-0.901263 3.037259,-3.154423 3.938527,-5.858218 1.541159,-4.956952 0.959841,-9.463274 -1.405975,-10.364538 -0.468657,0 -1.036454,0.450631 -1.550175,0.450631 C 92.144724,37.995384 81.081704,25.828317 67.729473,25.828317 Z"
       fill="#bdc3c7"
       id="path4-7"
       style="fill:#ffccaa;stroke-width:8.81943" /><path
       d="M 49.704187,97.929462 C 47.852104,118.2304 67.729473,133.98011 67.729473,133.98011 85.903697,122.40275 85.754759,105.26578 85.754759,97.929462 Z"
       fill="#ecf0f1"
       id="path5-5"
       style="stroke-width:8.81943"
       sodipodi:nodetypes="cccc" /><path
       d="m 67.729473,25.828317 c -16.166428,0 -32.117005,16.222756 -31.54425,31.544251 -0.232075,9.913905 4.504068,20.729078 4.678012,30.642986 4.717217,-5.858218 4.551384,-13.068333 4.359415,-20.278447 0.957593,-4.956954 0.04687,-12.167068 4.481537,-14.870861 C 60.402195,47.45866 66.913829,37.094121 70.406228,25.828317 Z"
       fill="#f39c12"
       id="path6-3"
       style="fill:#917c6f;fill-opacity:1;stroke-width:8.81943" /><path
       d="m 49.704187,97.929462 c 0,6.308868 8.070371,27.037998 18.025286,27.037998 9.954465,0 18.025286,-20.72913 18.025286,-27.037998 z"
       fill="#95a5a6"
       id="path7"
       style="fill:#deaa87;stroke-width:8.81943" /><path
       d="m 67.729473,25.828317 c 16.164176,0 32.116556,16.222756 31.544247,31.544251 0.229824,9.913905 -4.501812,20.729078 -4.677558,30.642986 C 89.878044,82.157336 90.044778,74.947221 90.234042,67.737107 89.278704,62.780153 90.188979,55.570039 85.754759,52.866246 75.056752,47.45866 68.545118,37.094121 65.052718,25.828317 Z"
       fill="#e67e22"
       id="path8"
       style="fill:#6c5d53;fill-opacity:1;stroke-width:8.81943" /><path
       style="baseline-shift:baseline;display:inline;overflow:visible;vector-effect:none;fill:#444444;stroke-linecap:round;stroke-linejoin:round;enable-background:accumulate;stop-color:#000000;stop-opacity:1;opacity:1"
       d="M 67.732422,0 C 30.336868,0 0,30.336868 0,67.732422 0,105.12798 30.336868,135.4668 67.732422,135.4668 105.12798,135.4668 135.4668,105.12798 135.4668,67.732422 135.4668,30.336868 105.12798,0 67.732422,0 Z m 0,2.1171875 c 36.251618,0 65.617188,29.3636135 65.617188,65.6152345 0,36.251618 -29.36557,65.617188 -65.617188,65.617188 -36.251621,0 -65.6152345,-29.36557 -65.6152345,-65.617188 0,-36.251621 29.3636135,-65.6152345 65.6152345,-65.6152345 z"
       id="path1" /></g></svg>
