<?xml version="1.0" encoding="UTF-8" standalone="no"?>
<!-- Created with Inkscape (http://www.inkscape.org/) -->

<svg
   width="512"
   height="512"
   viewBox="0 0 135.46666 135.46667"
   version="1.1"
   id="svg1"
   inkscape:version="1.4.3 (0d15f75042, 2025-12-25)"
   sodipodi:docname="users-male-logo.svg"
   xml:space="preserve"
   xmlns:inkscape="http://www.inkscape.org/namespaces/inkscape"
   xmlns:sodipodi="http://sodipodi.sourceforge.net/DTD/sodipodi-0.dtd"
   xmlns="http://www.w3.org/2000/svg"
   xmlns:svg="http://www.w3.org/2000/svg"><sodipodi:namedview
     id="namedview1"
     pagecolor="#ffffff"
     bordercolor="#000000"
     borderopacity="0.25"
     inkscape:showpageshadow="false"
     inkscape:pageopacity="0.0"
     inkscape:pagecheckerboard="0"
     inkscape:deskcolor="#d1d1d1"
     inkscape:document-units="px"
     inkscape:zoom="1.4142136"
     inkscape:cx="191.62593"
     inkscape:cy="319.61226"
     inkscape:window-width="2514"
     inkscape:window-height="1404"
     inkscape:window-x="2606"
     inkscape:window-y="0"
     inkscape:window-maximized="1"
     inkscape:current-layer="layer1" /><defs
     id="defs1"><inkscape:perspective
       sodipodi:type="inkscape:persp3d"
       inkscape:vp_x="-2.1166666 : 139.55193 : 1"
       inkscape:vp_y="0 : 1000 : 0"
       inkscape:vp_z="128.58749 : 40.333178 : 1"
       inkscape:persp3d-origin="60.854164 : 17.7554 : 1"
       id="perspective69" /><linearGradient
       id="linearGradient841"
       y2="461.2496"
       y1="381.08466"
       x2="290.91505"
       x1="185.41303"
       gradientTransform="matrix(0.33925388,0,0,0.20634794,6.82096,14.11287)"
       gradientUnits="userSpaceOnUse"><stop
         id="stop839"
         style="stop-color:#000000;stop-opacity:.6667"
         offset="0" /><stop
         id="stop840"
         style="stop-color:#003a00;stop-opacity:.1176"
         offset="1" /></linearGradient><linearGradient
       id="linearGradient882"
       y2="324.68274"
       y1="157.96686"
       x2="312.29534"
       x1="207.02526"
       gradientTransform="matrix(0.25245216,0,0,0.27729743,6.82096,14.11287)"
       gradientUnits="userSpaceOnUse"><stop
         id="stop884"
         style="stop-color:#ffffff;stop-opacity:1"
         offset="0" /><stop
         id="stop885"
         style="stop-color:#29abe0;stop-opacity:1"
         offset="1" /></linearGradient><linearGradient
       id="linearGradient886"
       y2="7.5225039"
       y1="7.5225039"
       x1="7.7122393"
       gradientTransform="matrix(0.26207804,0,0,0.26711256,6.82096,14.11287)"
       x2="416.12694"
       gradientUnits="userSpaceOnUse"><stop
         id="stop888"
         style="stop-color:#325d88;stop-opacity:1"
         offset="0" /><stop
         id="stop889"
         style="stop-color:#29abe0;stop-opacity:1"
         offset="1" /></linearGradient></defs><g
     inkscape:label="Layer 1"
     inkscape:groupmode="layer"
     id="layer1"><path
       d="m 50.947088,84.594302 34.896903,0.458132 V 113.3689 l -34.868406,-0.26523 z"
       fill="#f9dca4"
       fill-rule="evenodd"
       id="path1"
       style="stroke-width:3.42505" /><path
       d="m 117.2249,113.96952 a 67.544796,67.544796 0 0 1 -49.491349,21.4971 68.445715,68.445715 0 0 1 -8.410768,-0.51951 67.292715,67.292715 0 0 1 -24.46948,-7.9877 A 68.024848,68.024848 0 0 1 17.63063,113.3141 l 2.814549,-6.79525 30.52383,-13.616805 c 0,9.940795 4.03331,13.485285 17.470371,13.686955 16.593565,0.24769 17.404611,-3.52038 17.404611,-13.765868 l 28.035889,13.768058 z"
       fill="#d5e1ed"
       fill-rule="evenodd"
       id="path2"
       style="stroke-width:3.42505;fill:#bbbbbb;fill-opacity:1" /><path
       d="m 85.850567,85.002017 v 7.461624 C 79.822522,103.23521 55.162336,103.41934 50.947088,84.594302 Z"
       fill-rule="evenodd"
       opacity="0.11"
       id="path3-3"
       style="stroke-width:3.42505" /><path
       d="m 68.235523,18.483085 c 46.648307,0 28.467718,77.303653 0,77.303653 -26.889467,0 -46.648304,-77.303653 0,-77.303653 z"
       fill="#ffe8be"
       fill-rule="evenodd"
       id="path4"
       style="stroke-width:3.42505" /><path
       d="m 40.256624,52.707038 c -6.729491,2.937302 -1.008328,16.850031 3.226648,16.786463 A 70.085344,70.085344 0 0 1 40.256624,52.707038 Z"
       fill="#f9dca4"
       fill-rule="evenodd"
       id="path5"
       style="stroke-width:3.42505" /><path
       d="m 96.755849,52.707038 c 6.729491,2.93511 1.008328,16.850031 -3.224456,16.786463 a 70.126992,70.126992 0 0 0 3.224456,-16.786463 z"
       fill="#f9dca4"
       fill-rule="evenodd"
       id="path6"
       style="stroke-width:3.42505" /><path
       d="m 95.153485,64.848618 c 0,0 2.33669,-19.105616 -4.416913,-25.760578 -2.937302,7.733434 -16.444508,10.374814 -16.444508,10.374814 a 36.431314,36.431314 0 0 0 7.047333,-6.459873 c -3.621211,1.567292 -15.072305,6.264783 -25.449311,2.544931 A 51.983671,51.983671 0 0 0 63.818609,39.6755 c 0,0 -9.397174,5.089862 -18.500619,3.818493 -6.556321,4.892581 -3.638747,20.083255 -3.638747,20.083255 -8.798755,-23.206879 -0.69487,-49.776311 27.128396,-49.929752 27.08894,-0.151249 35.444911,25.96882 26.343654,51.201122 z"
       fill="#ecbe6a"
       fill-rule="evenodd"
       id="path7-6"
       style="stroke-width:3.42505;fill:#777777;fill-opacity:1" /><path
       d="M 50.975585,92.457065 A 38.119167,38.119167 0 0 0 68.419652,106.5868 l -11.35903,11.7251 -14.44758,-22.148135 z"
       fill="#ffffff"
       fill-rule="evenodd"
       id="path8-7"
       style="stroke-width:3.42505" /><path
       d="M 85.839607,92.457065 A 38.121359,38.121359 0 0 1 68.39554,106.5868 L 79.752377,118.3119 94.20215,96.165957 Z"
       fill="#ffffff"
       fill-rule="evenodd"
       id="path9"
       style="stroke-width:3.42505" /><path
       d="m 73.139063,135.24742 q -2.715908,0.21263 -5.488809,0.21482 -2.091184,0 -4.153871,-0.12276 L 65.756352,116.144 h 5.28276 z"
       fill="#3dbc93"
       fill-rule="evenodd"
       id="path10"
       style="stroke-width:3.42505;fill:#d9230f;fill-opacity:1" /><path
       d="m 62.411335,112.7924 5.999549,-6.17491 5.997357,6.17491 -5.997357,6.17491 z"
       fill="#3dbc93"
       fill-rule="evenodd"
       id="path11"
       style="stroke-width:3.42505;fill:#d9230f;fill-opacity:1" /></g></svg>
