<?xml version="1.0" encoding="UTF-8" standalone="no"?>
<!-- Created with Inkscape (http://www.inkscape.org/) -->

<svg
   width="512"
   height="512"
   viewBox="0 0 135.46666 135.46667"
   version="1.1"
   id="svg1"
   inkscape:version="1.4.3 (0d15f75042, 2025-12-25)"
   sodipodi:docname="users-female-logo.svg"
   xml:space="preserve"
   xmlns:inkscape="http://www.inkscape.org/namespaces/inkscape"
   xmlns:sodipodi="http://sodipodi.sourceforge.net/DTD/sodipodi-0.dtd"
   xmlns="http://www.w3.org/2000/svg"
   xmlns:svg="http://www.w3.org/2000/svg"><sodipodi:namedview
     id="namedview1"
     pagecolor="#ffffff"
     bordercolor="#000000"
     borderopacity="0.25"
     inkscape:showpageshadow="false"
     inkscape:pageopacity="0.0"
     inkscape:pagecheckerboard="0"
     inkscape:deskcolor="#d1d1d1"
     inkscape:document-units="px"
     inkscape:zoom="1.4142136"
     inkscape:cx="370.52394"
     inkscape:cy="294.15641"
     inkscape:window-width="2514"
     inkscape:window-height="1404"
     inkscape:window-x="2606"
     inkscape:window-y="0"
     inkscape:window-maximized="1"
     inkscape:current-layer="layer1" /><defs
     id="defs1"><inkscape:perspective
       sodipodi:type="inkscape:persp3d"
       inkscape:vp_x="-2.1166666 : 139.55193 : 1"
       inkscape:vp_y="0 : 1000 : 0"
       inkscape:vp_z="128.58749 : 40.333178 : 1"
       inkscape:persp3d-origin="60.854164 : 17.7554 : 1"
       id="perspective69" /><linearGradient
       id="linearGradient841"
       y2="461.2496"
       y1="381.08466"
       x2="290.91505"
       x1="185.41303"
       gradientTransform="matrix(0.33925388,0,0,0.20634794,6.82096,14.11287)"
       gradientUnits="userSpaceOnUse"><stop
         id="stop839"
         style="stop-color:#000000;stop-opacity:.6667"
         offset="0" /><stop
         id="stop840"
         style="stop-color:#003a00;stop-opacity:.1176"
         offset="1" /></linearGradient><linearGradient
       id="linearGradient882"
       y2="324.68274"
       y1="157.96686"
       x2="312.29534"
       x1="207.02526"
       gradientTransform="matrix(0.25245216,0,0,0.27729743,6.82096,14.11287)"
       gradientUnits="userSpaceOnUse"><stop
         id="stop884"
         style="stop-color:#ffffff;stop-opacity:1"
         offset="0" /><stop
         id="stop885"
         style="stop-color:#29abe0;stop-opacity:1"
         offset="1" /></linearGradient><linearGradient
       id="linearGradient886"
       y2="7.5225039"
       y1="7.5225039"
       x1="7.7122393"
       gradientTransform="matrix(0.26207804,0,0,0.26711256,6.82096,14.11287)"
       x2="416.12694"
       gradientUnits="userSpaceOnUse"><stop
         id="stop888"
         style="stop-color:#325d88;stop-opacity:1"
         offset="0" /><stop
         id="stop889"
         style="stop-color:#29abe0;stop-opacity:1"
         offset="1" /></linearGradient></defs><g
     inkscape:label="Layer 1"
     inkscape:groupmode="layer"
     id="layer1"><path
       d="m 51.755007,93.212169 c 0,6.283733 7.807883,26.930281 17.439027,26.930281 9.630703,0 17.439028,-20.646548 17.439028,-26.930281 z"
       fill="#95a5a6"
       id="path7"
       style="fill:#deaa87;stroke-width:8.81943" /><rect
       height="24.98514"
       width="29.982168"
       y="75.268723"
       x="54.119488"
       fill="#95a5a6"
       id="rect3"
       style="fill:#deaa87;stroke-width:8.81943" /><path
       d="m 118.05964,114.76327 a 67.544796,67.544796 0 0 1 -49.49135,21.4971 68.445715,68.445715 0 0 1 -8.41077,-0.51951 67.292715,67.292715 0 0 1 -24.46948,-7.9877 68.024848,68.024848 0 0 1 -17.22267,-13.64531 l 2.81455,-6.79525 30.52383,-13.616801 c 0,9.940791 4.03331,13.485281 17.47037,13.686951 16.59356,0.24769 17.40461,-3.52038 17.40461,-13.765864 l 28.03589,13.768054 z"
       fill="#d5e1ed"
       fill-rule="evenodd"
       id="path12"
       style="fill:#bbbbbb;fill-opacity:1;stroke-width:3.42505" /><path
       d="M 51.81032,93.250819 A 38.119167,38.119167 0 0 0 69.25439,107.38055 L 57.89536,119.10565 43.44778,96.957519 Z"
       fill="#ffffff"
       fill-rule="evenodd"
       id="path13"
       style="stroke-width:3.42505" /><path
       d="M 86.67434,93.250819 A 38.121359,38.121359 0 0 1 69.23028,107.38055 l 11.35683,11.7251 14.44978,-22.145939 z"
       fill="#ffffff"
       fill-rule="evenodd"
       id="path14"
       style="stroke-width:3.42505" /><path
       d="m 39.440728,82.276828 c 7.31964,3.06817 17.83189,4.99702 29.669848,4.99702 11.837959,0 22.351707,-1.92885 29.672354,-4.99702 H 39.438228 Z"
       fill="#d35400"
       id="path1-3"
       style="fill:#333333;fill-opacity:1;stroke-width:8.81943" /><path
       d="m 44.125438,37.303578 h 49.970278 l 4.997024,44.97325 H 39.128408 Z"
       fill="#d35400"
       id="path2-6"
       style="fill:#333333;fill-opacity:1;stroke-width:8.81943" /><path
       d="m 69.110576,12.318438 c -14.804198,0 -27.073898,13.49197 -29.513448,30.98157 -0.56716,0 -1.19978,-0.4997 -1.71797,-0.4997 -2.62394,0.9994 -3.27056,5.99643 -1.56158,11.49316 1.00291,2.99822 2.67142,5.49673 4.3724,6.49614 3.8792,15.49078 15.06604,26.48424 28.420598,26.48424 13.35206,0 24.540404,-10.99346 28.423096,-26.48424 1.698988,-0.99941 3.367998,-3.49792 4.367408,-6.49614 1.70898,-5.49673 1.06436,-10.49376 -1.55908,-11.49316 -0.519693,0 -1.14932,0.4997 -1.71898,0.4997 -2.438546,-17.4896 -14.70625,-30.98157 -29.512444,-30.98157 z"
       fill="#bdc3c7"
       id="path4-7"
       style="fill:#ffccaa;stroke-width:8.81943" /><path
       d="m 69.110576,12.318438 c -17.926838,0 -35.614318,17.9893 -34.979198,34.97919 -0.25734,10.99346 4.99453,22.98633 5.18742,33.97979 5.23089,-6.49614 5.047,-14.49138 4.83412,-22.48662 1.06187,-5.49674 0.052,-13.49198 4.96955,-16.4902 11.86294,-5.99643 19.083646,-17.48959 22.956344,-29.98216 z"
       fill="#f39c12"
       id="path6-3"
       style="fill:#a1a1a1;fill-opacity:1;stroke-width:8.81943" /><path
       d="m 69.110576,12.318438 c 17.92434,0 35.613824,17.9893 34.979194,34.97919 0.25485,10.99346 -4.99203,22.98633 -5.18691,33.97979 -5.231891,-6.49614 -5.047001,-14.49138 -4.837127,-22.48662 -1.059368,-5.49674 -0.04997,-13.49198 -4.967045,-16.4902 -11.862944,-5.99643 -19.083648,-17.48959 -22.95635,-29.98216 z"
       fill="#e67e22"
       id="path8"
       style="fill:#777777;fill-opacity:1;stroke-width:8.81943" /></g></svg>
