<?xml version="1.0" encoding="UTF-8" standalone="no"?>
<!-- Created with Inkscape (http://www.inkscape.org/) -->

<svg
   width="512"
   height="512"
   viewBox="0 0 135.46666 135.46667"
   version="1.1"
   id="svg1"
   inkscape:version="1.4.3 (0d15f75042, 2025-12-25)"
   sodipodi:docname="users-logo.svg"
   xml:space="preserve"
   xmlns:inkscape="http://www.inkscape.org/namespaces/inkscape"
   xmlns:sodipodi="http://sodipodi.sourceforge.net/DTD/sodipodi-0.dtd"
   xmlns="http://www.w3.org/2000/svg"
   xmlns:svg="http://www.w3.org/2000/svg"><sodipodi:namedview
     id="namedview1"
     pagecolor="#ffffff"
     bordercolor="#000000"
     borderopacity="0.25"
     inkscape:showpageshadow="false"
     inkscape:pageopacity="0.0"
     inkscape:pagecheckerboard="0"
     inkscape:deskcolor="#d1d1d1"
     inkscape:document-units="px"
     inkscape:zoom="1.4142136"
     inkscape:cx="265.87214"
     inkscape:cy="276.47874"
     inkscape:window-width="2518"
     inkscape:window-height="1404"
     inkscape:window-x="2602"
     inkscape:window-y="0"
     inkscape:window-maximized="1"
     inkscape:current-layer="layer1" /><defs
     id="defs1"><inkscape:perspective
       sodipodi:type="inkscape:persp3d"
       inkscape:vp_x="-2.1166666 : 139.55193 : 1"
       inkscape:vp_y="0 : 1000 : 0"
       inkscape:vp_z="128.58749 : 40.333178 : 1"
       inkscape:persp3d-origin="60.854164 : 17.7554 : 1"
       id="perspective69" /><linearGradient
       id="linearGradient841"
       y2="461.2496"
       y1="381.08466"
       x2="290.91505"
       x1="185.41303"
       gradientTransform="matrix(0.33925388,0,0,0.20634794,6.82096,14.11287)"
       gradientUnits="userSpaceOnUse"><stop
         id="stop839"
         style="stop-color:#000000;stop-opacity:.6667"
         offset="0" /><stop
         id="stop840"
         style="stop-color:#003a00;stop-opacity:.1176"
         offset="1" /></linearGradient><linearGradient
       id="linearGradient882"
       y2="324.68274"
       y1="157.96686"
       x2="312.29534"
       x1="207.02526"
       gradientTransform="matrix(0.25245216,0,0,0.27729743,6.82096,14.11287)"
       gradientUnits="userSpaceOnUse"><stop
         id="stop884"
         style="stop-color:#ffffff;stop-opacity:1"
         offset="0" /><stop
         id="stop885"
         style="stop-color:#29abe0;stop-opacity:1"
         offset="1" /></linearGradient><linearGradient
       id="linearGradient886"
       y2="7.5225039"
       y1="7.5225039"
       x1="7.7122393"
       gradientTransform="matrix(0.26207804,0,0,0.26711256,6.82096,14.11287)"
       x2="416.12694"
       gradientUnits="userSpaceOnUse"><stop
         id="stop888"
         style="stop-color:#325d88;stop-opacity:1"
         offset="0" /><stop
         id="stop889"
         style="stop-color:#29abe0;stop-opacity:1"
         offset="1" /></linearGradient></defs><g
     inkscape:label="Layer 1"
     inkscape:groupmode="layer"
     id="layer1"><g
       id="g1"
       transform="matrix(1.1295603,0,0,1.1295603,-8.7755481,-8.7755484)"
       style="stroke-width:0.8853"><path
         d="m 38.059198,77.727387 c 7.319646,3.068175 17.831894,4.997028 29.669852,4.997028 11.837958,0 22.351706,-1.928853 29.672352,-4.997028 H 38.056699 Z"
         fill="#d35400"
         id="path1-3"
         style="fill:#552200;fill-opacity:1;stroke-width:7.80784" /><path
         d="m 42.743912,32.754137 h 49.970277 l 4.997028,44.97325 H 37.746884 Z"
         fill="#d35400"
         id="path2-6"
         style="fill:#552200;fill-opacity:1;stroke-width:7.80784" /><path
         d="M 47.740939,87.721443 C 36.32323,93.218172 24.891031,98.714902 13.481317,104.71134 c -4.4732394,2.49851 -6.1428464,7.99524 -5.7165999,12.99227 0.2081961,2.99821 -0.9049118,6.99583 2.2031395,8.99464 2.9527934,1.49912 6.4146844,0.49972 9.6202784,0.99942 H 123.2065 c 3.84272,-0.4997 4.86211,-4.49732 4.48733,-7.49555 0.07,-4.99702 0.3398,-9.99405 -3.28804,-13.49197 -2.95324,-2.99822 -7.17074,-4.49733 -10.77859,-6.49614 C 104.99234,96.216388 96.352475,91.719064 87.717611,87.721443 H 47.741388 Z"
         fill="#16a085"
         id="path3"
         style="fill:#29abe0;fill-opacity:1;stroke-width:7.80784" /><rect
         height="24.98514"
         width="29.982168"
         y="72.730476"
         x="52.737965"
         fill="#95a5a6"
         id="rect3"
         style="fill:#deaa87;stroke-width:7.80784" /><path
         d="m 67.72905,7.7689981 c -14.804195,0 -27.073896,13.4919739 -29.513445,30.9815709 -0.567163,0 -1.199787,-0.499702 -1.717978,-0.499702 -2.62394,0.999406 -3.270555,5.996434 -1.561571,11.493163 1.002902,2.998218 2.671411,5.496732 4.372399,6.496136 3.879193,15.490787 15.066038,26.484249 28.420595,26.484249 13.352059,0 24.540403,-10.993462 28.423095,-26.484249 1.698989,-0.999404 3.367995,-3.497918 4.367405,-6.496136 1.70898,-5.496729 1.06436,-10.493757 -1.559076,-11.493163 -0.519691,0 -1.149317,0.499702 -1.718978,0.499702 C 94.802947,21.260972 82.535243,7.7689981 67.72905,7.7689981 Z"
         fill="#bdc3c7"
         id="path4-7"
         style="fill:#ffccaa;stroke-width:7.80784" /><path
         d="m 47.740939,87.721443 c 0,8.13516 5.255374,30.072117 12.647477,39.976227 h 14.681268 c 7.390604,-9.90411 12.647477,-31.841067 12.647477,-39.976227 z"
         fill="#ecf0f1"
         id="path5-5"
         style="stroke-width:7.80784" /><path
         d="m 67.72905,7.7689981 c -17.926837,0 -35.614317,17.9892989 -34.979194,34.9791949 C 32.49251,53.741652 37.744385,65.73452 37.93727,76.727981 43.168159,70.231845 42.984268,62.2366 42.771395,54.241356 43.833263,48.744625 42.823368,40.749381 47.740939,37.751165 59.603884,31.754731 66.824588,20.261568 70.697285,7.7689981 Z"
         fill="#f39c12"
         id="path6-3"
         style="fill:#aa4400;fill-opacity:1;stroke-width:7.80784" /><path
         d="m 47.740939,87.721443 c 0,6.995837 8.949177,29.982167 19.988111,29.982167 11.038435,0 19.988111,-22.98633 19.988111,-29.982167 z"
         fill="#95a5a6"
         id="path7"
         style="fill:#deaa87;stroke-width:7.80784" /><path
         d="m 67.72905,7.7689981 c 17.924339,0 35.61382,17.9892989 34.97919,34.9791949 0.25485,10.993459 -4.992027,22.986327 -5.18691,33.979788 C 92.289442,70.231845 92.474332,62.2366 92.684206,54.241356 91.624838,48.744625 92.634236,40.749381 87.717161,37.751165 75.854217,31.754731 68.633513,20.261568 64.760816,7.7689981 Z"
         fill="#e67e22"
         id="path8"
         style="fill:#803300;fill-opacity:1;stroke-width:7.80784" /></g></g></svg>
