<?xml version="1.0" encoding="UTF-8" standalone="no"?>
<!-- Created with Inkscape (http://www.inkscape.org/) -->

<svg
   width="348"
   height="32"
   viewBox="0 0 92.074996 8.4666669"
   version="1.1"
   id="svg1"
   inkscape:version="1.4.3 (0d15f75042, 2025-12-25)"
   sodipodi:docname="admin-logo.svg"
   xml:space="preserve"
   xmlns:inkscape="http://www.inkscape.org/namespaces/inkscape"
   xmlns:sodipodi="http://sodipodi.sourceforge.net/DTD/sodipodi-0.dtd"
   xmlns:xlink="http://www.w3.org/1999/xlink"
   xmlns="http://www.w3.org/2000/svg"
   xmlns:svg="http://www.w3.org/2000/svg"><sodipodi:namedview
     id="namedview1"
     pagecolor="#ffffff"
     bordercolor="#000000"
     borderopacity="0.25"
     inkscape:showpageshadow="false"
     inkscape:pageopacity="0.0"
     inkscape:pagecheckerboard="0"
     inkscape:deskcolor="#d1d1d1"
     inkscape:document-units="px"
     inkscape:zoom="2.3789093"
     inkscape:cx="208.49892"
     inkscape:cy="60.111583"
     inkscape:window-width="2514"
     inkscape:window-height="1404"
     inkscape:window-x="2606"
     inkscape:window-y="0"
     inkscape:window-maximized="1"
     inkscape:current-layer="layer1" /><defs
     id="defs1"><linearGradient
       id="linearGradient3"
       inkscape:collect="always"><stop
         style="stop-color:#ffffff;stop-opacity:1;"
         offset="0"
         id="stop3" /><stop
         style="stop-color:#d9230f;stop-opacity:1"
         offset="1"
         id="stop4" /></linearGradient><linearGradient
       inkscape:collect="always"
       xlink:href="#linearGradient3"
       id="linearGradient4"
       x1="32.186363"
       y1="38.400898"
       x2="98.275101"
       y2="38.400898"
       gradientUnits="userSpaceOnUse"
       gradientTransform="matrix(0.74192884,0,0,0.74540059,18.24522,74.376121)" /></defs><g
     inkscape:label="Layer 1"
     inkscape:groupmode="layer"
     id="layer1"><g
       id="g20"><g
         id="g19"
         transform="matrix(0.35947702,0,0,0.35947702,-6.123353,-29.907505)"
         style="stroke-width:2.78182"><g
           id="path1"
           style="opacity:1;stroke-width:2.78182"><path
             style="baseline-shift:baseline;display:inline;overflow:visible;vector-effect:none;fill:#d9230f;stroke-width:2.78182;stroke-linecap:square;enable-background:accumulate;stop-color:#000000;stop-opacity:1"
             d="M 41.939729,94.973602 A 11.469562,11.526497 0 0 1 30.470167,106.5001 11.469562,11.526497 0 0 1 19.000606,94.973602 11.469562,11.526497 0 0 1 30.470167,83.447105 11.469562,11.526497 0 0 1 41.939729,94.973602 Z"
             id="path16" /><path
             style="baseline-shift:baseline;display:inline;overflow:visible;vector-effect:none;fill:#d9230f;stroke-width:2.78182;stroke-linecap:square;enable-background:accumulate;stop-color:#000000;stop-opacity:1"
             d="m 30.470703,83.197266 c -6.470244,0 -11.720703,5.275039 -11.720703,11.77539 -1e-6,6.500354 5.250458,11.777344 11.720703,11.777344 6.470245,0 11.718751,-5.27699 11.71875,-11.777344 0,-6.500351 -5.248505,-11.77539 -11.71875,-11.77539 z m 0,0.5 c 6.198684,0 11.21875,5.043924 11.21875,11.27539 10e-7,6.231464 -5.020066,11.277344 -11.21875,11.277344 -6.198683,0 -11.220704,-5.04588 -11.220703,-11.277344 0,-6.231465 5.02202,-11.27539 11.220703,-11.27539 z"
             id="path17" /></g><path
           style="font-weight:800;font-stretch:condensed;font-size:28.2133px;font-family:'Barlow Condensed';-inkscape-font-specification:'Barlow Condensed,  Ultra-Bold Condensed';letter-spacing:0px;fill:#d9230f;stroke-width:1.39091;stroke-linecap:square"
           d="m 118.19554,89.951872 c 0,0.07011 -0.0279,0.13321 -0.0837,0.189299 -0.0418,0.04207 -0.0977,0.0631 -0.16743,0.0631 h -4.20679 c -0.0697,0 -0.10464,0.03506 -0.10464,0.105165 v 2.650183 c 0,0.07011 0.0349,0.105166 0.10464,0.105166 h 2.30222 c 0.0698,0 0.12558,0.02804 0.16744,0.08413 0.0558,0.04207 0.0837,0.09815 0.0837,0.168265 v 2.50295 c 0,0.0701 -0.0279,0.133211 -0.0837,0.189299 -0.0418,0.04207 -0.0977,0.0631 -0.16744,0.0631 h -2.30222 c -0.0697,0 -0.10464,0.03506 -0.10464,0.105166 v 2.671216 c 0,0.0701 0.0349,0.105166 0.10464,0.105166 h 4.20679 c 0.0698,0 0.12557,0.02804 0.16743,0.08413 0.0558,0.04207 0.0837,0.09816 0.0837,0.168266 v 2.481917 c 0,0.0701 -0.0279,0.13321 -0.0837,0.1893 -0.0418,0.0421 -0.0977,0.0631 -0.16743,0.0631 h -7.53455 c -0.0697,0 -0.13255,-0.021 -0.18835,-0.0631 -0.0418,-0.0561 -0.0628,-0.11919 -0.0628,-0.1893 v -5.615863 h -3.67456 v -3.007746 h 3.67456 v -5.594829 c 0,-0.07011 0.0209,-0.126199 0.0628,-0.168266 0.0558,-0.05608 0.11859,-0.08413 0.18835,-0.08413 h 7.53455 c 0.0698,0 0.12557,0.02804 0.16743,0.08413 0.0558,0.04207 0.0837,0.09815 0.0837,0.168266 z"
           id="path12"
           sodipodi:nodetypes="sssssssscssssssssscssssscsccccsssscss" /><path
           id="path11"
           style="font-weight:800;font-stretch:condensed;font-size:28.2133px;font-family:'Barlow Condensed';-inkscape-font-specification:'Barlow Condensed,  Ultra-Bold Condensed';letter-spacing:0px;fill:#d9230f;stroke-width:1.39091;stroke-linecap:square"
           d="m 102.41469,87.217414 c -0.1535,0 -0.24394,0.07726 -0.27184,0.231503 l -3.034628,14.218373 c -0.04184,0.18229 0.0276,0.27349 0.208957,0.27349 h 2.972141 c 0.16743,0 0.25826,-0.0773 0.27221,-0.23151 l 0.25113,-1.829679 c 0,-0.07011 0.0417,-0.105158 0.12537,-0.105158 h 2.26055 c 0.0837,0 0.12536,0.03505 0.12536,0.105158 l 0.27222,1.829679 c 0.014,0.15425 0.10478,0.23151 0.27221,0.23151 h 3.03463 c 0.15349,0 0.23005,-0.0629 0.23005,-0.18913 l -0.0207,-0.0844 -3.01392,-14.218373 c -0.0279,-0.154243 -0.11874,-0.231503 -0.27222,-0.231503 z m 1.61182,4.879669 c 0.0279,0 0.049,0.02827 0.0628,0.08436 l 0.75339,4.795695 c 0,0.07011 -0.0281,0.105159 -0.084,0.105159 h -1.4021 c -0.0558,0 -0.0836,-0.03505 -0.0836,-0.105159 l 0.69051,-4.795695 c 0.0139,-0.05609 0.035,-0.08436 0.0628,-0.08436 z" /><path
           style="font-weight:800;font-stretch:condensed;font-size:28.2133px;font-family:'Barlow Condensed';-inkscape-font-specification:'Barlow Condensed,  Ultra-Bold Condensed';letter-spacing:0px;fill:#d9230f;stroke-width:1.39091;stroke-linecap:square"
           d="m 99.421954,87.217557 q 0.104649,0 0.167439,0.08413 0.08371,0.0631 0.08371,0.168266 v 2.481917 q 0,0.105166 -0.08371,0.189299 -0.06277,0.0631 -0.167439,0.0631 h -2.59523 q -0.104641,0 -0.104641,0.105165 v 11.378956 q 0,0.10517 -0.08373,0.1893 -0.06277,0.0631 -0.167431,0.0631 h -2.971959 q -0.104649,0 -0.188361,-0.0631 -0.06277,-0.0841 -0.06277,-0.1893 V 90.309436 q 0,-0.105166 -0.104649,-0.105166 h -2.490586 q -0.104647,0 -0.188364,-0.0631 -0.06279,-0.08413 -0.06279,-0.189299 v -2.481916 q 0,-0.105167 0.06279,-0.168266 0.08372,-0.08413 0.188364,-0.08413 z"
           id="path9" /><path
           style="font-weight:800;font-stretch:condensed;font-size:28.2133px;font-family:'Barlow Condensed';-inkscape-font-specification:'Barlow Condensed,  Ultra-Bold Condensed';letter-spacing:0px;fill:#d9230f;stroke-width:1.39091;stroke-linecap:square"
           d="m 83.641248,101.94079 c -0.06976,0 -0.132552,-0.021 -0.188363,-0.0631 -0.04186,-0.0561 -0.06279,-0.11919 -0.06279,-0.1893 V 87.469955 c 0,-0.0701 0.02093,-0.126199 0.06279,-0.168266 0.05581,-0.05608 0.118599,-0.08413 0.188363,-0.08413 h 2.97196 c 0.06977,0 0.125576,0.02804 0.167435,0.08413 0.05581,0.04207 0.08372,0.09816 0.08372,0.168266 v 11.378957 c 0,0.0701 0.03488,0.105166 0.104646,0.105166 h 4.623505 c 0.06973,0 0.125569,0.02804 0.16743,0.08413 0.05579,0.04207 0.08371,0.09815 0.08371,0.168266 v 2.481916 c 0,0.0701 -0.02789,0.13321 -0.08371,0.1893 -0.04184,0.0421 -0.09767,0.0631 -0.16743,0.0631 z"
           id="path8"
           sodipodi:nodetypes="scssssscsssscsssss" /><path
           style="font-weight:800;font-stretch:condensed;font-size:28.2133px;font-family:'Barlow Condensed';-inkscape-font-specification:'Barlow Condensed,  Ultra-Bold Condensed';letter-spacing:0px;fill:#d9230f;stroke-width:1.39091;stroke-linecap:square"
           d="m 77.634548,102.10906 q -1.297617,0 -2.281293,-0.54687 -0.983677,-0.56789 -1.527839,-1.577486 -0.544162,-1.009594 -0.544162,-2.334685 V 87.469955 q 0,-0.105166 0.06279,-0.168266 0.08372,-0.08413 0.188364,-0.08413 h 2.971958 q 0.104646,0 0.167434,0.08413 0.08372,0.0631 0.08372,0.168266 v 10.516596 q 0,0.504796 0.230223,0.820294 0.251151,0.315498 0.648808,0.315498 0.397657,0 0.627879,-0.315498 0.251151,-0.315498 0.251151,-0.820294 V 87.469955 q 0,-0.105166 0.06279,-0.168266 0.08372,-0.08413 0.188364,-0.08413 h 2.97196 q 0.104646,0 0.167434,0.08413 0.08372,0.0631 0.08372,0.168266 v 10.180064 q 0,1.325091 -0.544161,2.334685 -0.544162,1.009596 -1.527839,1.577486 -0.983677,0.54687 -2.281293,0.54687 z"
           id="path7" /><path
           style="font-weight:800;font-stretch:condensed;font-size:28.2133px;font-family:'Barlow Condensed';-inkscape-font-specification:'Barlow Condensed,  Ultra-Bold Condensed';letter-spacing:0px;fill:#d9230f;stroke-width:1.39091;stroke-linecap:square"
           d="m 67.735006,102.10906 q 1.988283,0 3.181253,-1.17786 1.19297,-1.177861 1.19297,-3.133948 v -6.45719 q 0,-1.977119 -1.19297,-3.133945 -1.19297,-1.156826 -3.181253,-1.156826 -1.988283,0 -3.181253,1.156826 -1.213899,1.156826 -1.213899,3.133945 v 0.189299 q 0,0.105165 0.08372,0.189299 0.06279,0.0631 0.167435,0.0631 l 2.971959,0.126198 q 0.251152,0 0.251152,-0.252398 v -0.567896 q 0,-0.483763 0.251152,-0.757195 0.251151,-0.294464 0.669737,-0.294464 0.397657,0 0.648809,0.294464 0.251151,0.273432 0.251151,0.757195 v 7.004053 q 0,0.46273 -0.251151,0.757195 -0.251152,0.273431 -0.648809,0.273431 -0.418586,0 -0.669737,-0.273431 -0.251152,-0.294465 -0.251152,-0.757195 v -0.609962 q 0,-0.105166 -0.06279,-0.168266 -0.08372,-0.08413 -0.188363,-0.08413 l -2.97196,0.126199 q -0.104647,0 -0.167435,0.08413 -0.08372,0.0631 -0.08372,0.168266 v 0.189299 q 0,1.956086 1.213899,3.133947 1.19297,1.17785 3.181253,1.17785 z"
           id="path6" /><path
           style="font-weight:800;font-stretch:condensed;font-size:28.2133px;font-family:'Barlow Condensed';-inkscape-font-specification:'Barlow Condensed,  Ultra-Bold Condensed';letter-spacing:0px;fill:#d9230f;stroke-width:1.39091;stroke-linecap:square"
           d="m 57.877321,102.10906 q -1.988284,0 -3.181254,-1.17786 -1.192969,-1.177861 -1.192969,-3.133948 v -6.45719 q 0,-1.977119 1.192969,-3.133945 1.19297,-1.156826 3.181254,-1.156826 1.988283,0 3.181252,1.156826 1.2139,1.156826 1.2139,3.133945 v 0.189299 q 0,0.105166 -0.08372,0.189299 -0.06279,0.0631 -0.167434,0.0631 l -2.97196,0.126199 q -0.251152,0 -0.251152,-0.252398 v -0.567896 q 0,-0.483763 -0.251152,-0.757195 -0.251151,-0.294465 -0.669737,-0.294465 -0.397657,0 -0.648809,0.294465 -0.251151,0.273432 -0.251151,0.757195 v 7.004052 q 0,0.46273 0.251151,0.757195 0.251152,0.273431 0.648809,0.273431 0.418586,0 0.669737,-0.273431 0.251152,-0.294465 0.251152,-0.757195 v -0.609962 q 0,-0.105166 0.06279,-0.168266 0.08372,-0.08413 0.188364,-0.08413 l 2.97196,0.126199 q 0.104647,0 0.167435,0.08413 0.08372,0.0631 0.08372,0.168266 v 0.189299 q 0,1.956087 -1.2139,3.133947 -1.19297,1.17785 -3.181252,1.17785 z"
           id="path5" /><path
           id="path2"
           style="font-weight:800;font-stretch:condensed;font-size:28.2133px;font-family:'Barlow Condensed';-inkscape-font-specification:'Barlow Condensed,  Ultra-Bold Condensed';letter-spacing:0px;fill:#d9230f;stroke-width:1.39091;stroke-linecap:square"
           d="m 47.914811,87.049469 c -1.353428,0 -2.434702,0.39947 -3.243968,1.198731 -0.795314,0.785239 -1.192764,1.837064 -1.192764,3.155144 v 6.351889 c 0,1.332102 0.39745,2.390707 1.192764,3.175947 0.809266,0.78524 1.89054,1.17793 3.243968,1.17793 1.339475,0 2.413998,-0.39269 3.223264,-1.17793 0.823218,-0.78524 1.234938,-1.843845 1.234938,-3.175947 v -6.351889 c 0,-1.31808 -0.41172,-2.369905 -1.234938,-3.155144 -0.809266,-0.799261 -1.883789,-1.198731 -3.223264,-1.198731 z m 0,2.986428 c 0.306963,0 0.54416,0.112307 0.711594,0.336662 0.181388,0.210331 0.272216,0.504657 0.272216,0.883255 v 6.646564 c 0,0.378598 -0.09083,0.680087 -0.272216,0.904441 -0.167434,0.210332 -0.404631,0.315476 -0.711594,0.315476 -0.306963,0 -0.54416,-0.105144 -0.711595,-0.315476 -0.167435,-0.224354 -0.251128,-0.525843 -0.251128,-0.904441 v -6.646564 c 0,-0.378598 0.08369,-0.672924 0.251128,-0.883255 0.167435,-0.224355 0.404632,-0.336662 0.711595,-0.336662 z" /><rect
           style="fill:#d9230f;fill-opacity:1;stroke:none;stroke-width:1.39091;stroke-linecap:square"
           id="rect12"
           width="7.4782486"
           height="3.406625"
           x="59.067039"
           y="92.928116"
           rx="0.58890599"
           ry="0.59166169" /><g
           id="path10"
           style="opacity:1;stroke-width:2.78182"><path
             style="baseline-shift:baseline;display:inline;overflow:visible;vector-effect:none;fill:#d9230f;stroke-width:2.78182;stroke-linecap:square;enable-background:accumulate;stop-color:#000000;stop-opacity:1"
             d="m 38.459352,94.973602 a 7.9891844,8.0265684 0 0 1 -7.989185,8.026568 7.9891844,8.0265684 0 0 1 -7.989184,-8.026568 7.9891844,8.0265684 0 0 1 7.989184,-8.026568 7.9891844,8.0265684 0 0 1 7.989185,8.026568 z"
             id="path14" /><path
             style="baseline-shift:baseline;display:inline;overflow:visible;vector-effect:none;fill:#ffffff;stroke-width:2.78182;stroke-linecap:square;enable-background:accumulate;stop-color:#000000;stop-opacity:1"
             d="m 30.470703,86.152344 c -4.843286,0 -8.783203,3.960385 -8.783203,8.820312 0,4.859928 3.939917,8.820314 8.783203,8.820314 4.843287,0 8.783203,-3.960386 8.783203,-8.820314 0,-4.859928 -3.939916,-8.820313 -8.783203,-8.820312 z m 0,1.58789 c 3.981323,0 7.195312,3.226447 7.195313,7.232422 -10e-7,4.005975 -3.21399,7.234374 -7.195313,7.234374 -3.981323,0 -7.195312,-3.228399 -7.195312,-7.234374 0,-4.005974 3.213989,-7.232421 7.195312,-7.232422 z"
             id="path15" /></g><g
           id="circle10"
           style="opacity:1;stroke-width:2.78182"><path
             style="baseline-shift:baseline;display:inline;overflow:visible;vector-effect:none;fill:#f9f9f9;stroke-width:2.78182;stroke-linecap:square;enable-background:accumulate;stop-color:#000000;stop-opacity:1"
             d="m 32.885502,94.973602 a 2.4153345,2.4266365 0 0 1 -2.415335,2.426637 2.4153345,2.4266365 0 0 1 -2.415334,-2.426637 2.4153345,2.4266365 0 0 1 2.415334,-2.426636 2.4153345,2.4266365 0 0 1 2.415335,2.426636 z"
             id="path18" /><path
             style="baseline-shift:baseline;display:inline;overflow:visible;vector-effect:none;fill:#ffffff;stroke-width:2.78182;stroke-linecap:square;enable-background:accumulate;stop-color:#000000;stop-opacity:1"
             d="m 30.470703,91.753906 c -1.764933,10e-7 -3.208984,1.45158 -3.208984,3.21875 -1e-6,1.767171 1.44405,3.220703 3.208984,3.220703 1.764935,10e-7 3.208985,-1.453532 3.208984,-3.220703 0,-1.76717 -1.44405,-3.21875 -3.208984,-3.21875 z m 0,1.585938 c 0.902971,0 1.621094,0.719594 1.621094,1.632812 0,0.913218 -0.718123,1.634766 -1.621094,1.634766 -0.902971,0 -1.623047,-0.721548 -1.623047,-1.634766 0,-0.913217 0.720077,-1.632812 1.623047,-1.632812 z"
             id="path19" /></g><g
           id="path3"
           style="opacity:1;stroke-width:2.78182"><path
             style="baseline-shift:baseline;display:inline;overflow:visible;vector-effect:none;fill:#f9f9f9;stroke-width:2.78182;stroke-linecap:round;stroke-linejoin:round;enable-background:accumulate;stop-color:#000000;stop-opacity:1"
             d="M 30.470168,103.00017 H 117.5674"
             id="path4" /><path
             style="baseline-shift:baseline;display:inline;overflow:visible;vector-effect:none;fill:url(#linearGradient4);stroke-width:2.78182;stroke-linecap:round;stroke-linejoin:round;enable-background:accumulate;stop-color:#000000;stop-opacity:1"
             d="M 30.470703,102.20703 A 0.79374999,0.79374999 0 0 0 29.675781,103 a 0.79374999,0.79374999 0 0 0 0.794922,0.79297 H 117.56836 A 0.79374999,0.79374999 0 0 0 118.36133,103 a 0.79374999,0.79374999 0 0 0 -0.79297,-0.79297 z"
             id="path13" /></g></g></g><path
       id="path40"
       style="font-weight:500;font-stretch:condensed;font-size:6.09997px;font-family:'Barlow Condensed';-inkscape-font-specification:'Barlow Condensed,  Medium Condensed';letter-spacing:0px;fill:#d9230f;stroke-width:1.5875;stroke-linecap:round;stroke-linejoin:round"
       d="M 84.755033 3.2421793 C 84.441901 3.2421793 84.191757 3.3314476 84.004691 3.51038 C 83.821692 3.6893125 83.730289 3.9234141 83.730289 4.212146 L 83.730289 5.4808024 C 83.730289 5.773601 83.821691 6.0071856 84.004691 6.1820515 C 84.191757 6.3569173 84.441901 6.4445678 84.755033 6.4445678 C 85.051898 6.4445678 85.285999 6.3713423 85.456799 6.224943 C 85.631664 6.0744771 85.733223 5.8670908 85.76169 5.6027587 C 85.765756 5.5864921 85.761487 5.5720673 85.749287 5.5598673 C 85.741154 5.5476673 85.727246 5.5417806 85.706913 5.5417806 L 85.255261 5.5174926 C 85.222727 5.5174926 85.200281 5.5335351 85.188081 5.5660685 C 85.167748 5.6758679 85.119103 5.7656529 85.041837 5.8347859 C 84.96457 5.9039189 84.868899 5.9381388 84.755033 5.9381388 C 84.6249 5.9381388 84.519072 5.8916285 84.437739 5.7980957 C 84.356406 5.7045628 84.315783 5.5843102 84.315783 5.4379109 L 84.315783 5.1087321 C 84.315783 5.0924654 84.323804 5.0844441 84.340071 5.0844441 L 85.718798 5.0844441 C 85.759465 5.0844441 85.779776 5.0641326 85.779776 5.0234659 L 85.779776 4.212146 C 85.779776 3.9234141 85.688373 3.6893125 85.505374 3.51038 C 85.322375 3.3314476 85.072231 3.2421793 84.755033 3.2421793 z M 84.755033 3.7486084 C 84.889232 3.7486084 84.997194 3.7951186 85.078527 3.8886515 C 85.15986 3.9821844 85.200484 4.102437 85.200484 4.2488362 L 85.200484 4.5718139 C 85.200484 4.5880806 85.192462 4.5961019 85.176196 4.5961019 L 84.340071 4.5961019 C 84.323804 4.5961019 84.315783 4.5880806 84.315783 4.5718139 L 84.315783 4.2488362 C 84.315783 4.102437 84.356406 3.9821844 84.437739 3.8886515 C 84.519072 3.7951186 84.6249 3.7486084 84.755033 3.7486084 z " /><path
       style="font-weight:500;font-stretch:condensed;font-size:6.09997px;font-family:'Barlow Condensed';-inkscape-font-specification:'Barlow Condensed,  Medium Condensed';letter-spacing:0px;fill:#d9230f;stroke-width:1.5875;stroke-linecap:round;stroke-linejoin:round"
       d="m 82.388328,3.248193 q 0.384299,0 0.585598,0.2622987 0.207399,0.2561987 0.207399,0.7319964 v 2.0922896 q 0,0.061 -0.061,0.061 h -0.463598 q -0.061,0 -0.061,-0.061 V 4.2912876 q 0,-0.2561987 -0.109799,-0.396498 -0.109799,-0.1402993 -0.304999,-0.1402993 -0.201299,0 -0.317198,0.1402993 -0.109799,0.1341993 -0.121999,0.3842981 0,0.0366 -0.0061,0.0366 v 2.01909 q 0,0.061 -0.061,0.061 h -0.463598 q -0.061,0 -0.061,-0.061 V 3.3518923 q 0,-0.061 0.061,-0.061 h 0.463598 q 0.061,0 0.061,0.061 v 0.1646991 q 0,0.0122 0.0122,0.0183 0.0122,0 0.0244,-0.0183 0.219598,-0.2683986 0.616096,-0.2683984 z"
       id="path38" /><path
       id="path37"
       style="font-weight:500;font-stretch:condensed;font-size:6.09997px;font-family:'Barlow Condensed';-inkscape-font-specification:'Barlow Condensed,  Medium Condensed';letter-spacing:0px;fill:#d9230f;stroke-width:1.5875;stroke-linecap:round;stroke-linejoin:round"
       d="M 79.539847 3.2421793 C 79.226715 3.2421793 78.976571 3.3314476 78.789505 3.51038 C 78.602439 3.6893125 78.508902 3.9234141 78.508902 4.212146 L 78.508902 5.4746012 C 78.508902 5.7673997 78.600305 6.0031189 78.783304 6.1820515 C 78.97037 6.3569173 79.222649 6.4445678 79.539847 6.4445678 C 79.857046 6.4445677 80.108808 6.3569173 80.295873 6.1820515 C 80.482939 6.0031191 80.576476 5.7673997 80.576476 5.4746012 L 80.576476 4.212146 C 80.576476 3.9234141 80.482939 3.6893125 80.295873 3.51038 C 80.108808 3.3314476 79.857046 3.2421793 79.539847 3.2421793 z M 79.539847 3.7486084 C 79.66998 3.7486084 79.777426 3.7951186 79.862825 3.8886515 C 79.948225 3.9821844 79.990982 4.102437 79.990982 4.2488362 L 79.990982 5.4322265 C 79.990982 5.5826925 79.948225 5.7045628 79.862825 5.7980957 C 79.777426 5.8875619 79.66998 5.9319376 79.539847 5.9319376 C 79.409715 5.9319375 79.301752 5.8875619 79.216353 5.7980957 C 79.135019 5.7045628 79.094396 5.5826925 79.094396 5.4322265 L 79.094396 4.2488362 C 79.094396 4.102437 79.135019 3.9821844 79.216353 3.8886515 C 79.301752 3.7951186 79.409715 3.7486084 79.539847 3.7486084 z " /><path
       style="font-weight:500;font-stretch:condensed;font-size:6.09997px;font-family:'Barlow Condensed';-inkscape-font-specification:'Barlow Condensed,  Medium Condensed';letter-spacing:0px;fill:#d9230f;stroke-width:1.5875;stroke-linecap:round;stroke-linejoin:round"
       d="m 77.368055,6.3957772 q -0.061,0 -0.061,-0.061 V 3.3518923 q 0,-0.061 0.061,-0.061 h 0.463597 q 0.061,0 0.061,0.061 v 2.9828852 q 0,0.061 -0.061,0.061 z"
       id="path35" /><path
       style="font-weight:500;font-stretch:condensed;font-size:6.09997px;font-family:'Barlow Condensed';-inkscape-font-specification:'Barlow Condensed,  Medium Condensed';letter-spacing:0px;fill:#d9230f;stroke-width:1.5875;stroke-linecap:round;stroke-linejoin:round"
       d="m 77.593753,2.802895 q -0.170799,0 -0.280598,-0.1097995 -0.1098,-0.1097994 -0.1098,-0.2805986 0,-0.1707992 0.1098,-0.2805986 0.109799,-0.1097995 0.280598,-0.1097995 0.1769,0 0.280599,0.1097995 0.1098,0.1036995 0.1098,0.2805986 0,0.1707992 -0.1098,0.2805986 -0.109799,0.1097995 -0.280599,0.1097995 z"
       id="path34" /><path
       style="font-weight:500;font-stretch:condensed;font-size:6.09997px;font-family:'Barlow Condensed';-inkscape-font-specification:'Barlow Condensed,  Medium Condensed';letter-spacing:0px;fill:#d9230f;stroke-width:1.5875;stroke-linecap:round;stroke-linejoin:round"
       d="m 74.958569,6.3957773 q -0.061,0 -0.061,-0.061 V 5.9077796 q 0,-0.0427 0.0183,-0.0793 l 1.140695,-1.9702902 q 0.0061,-0.0122 0,-0.0183 -0.0061,-0.0122 -0.0183,-0.0122 h -1.055295 q -0.061,0 -0.061,-0.061 V 3.3518923 q 0,-0.061 0.061,-0.061 h 1.726292 q 0.061,0 0.061,0.061 v 0.4330978 q 0,0.0427 -0.0183,0.0793 L 75.580766,5.83458 q -0.0061,0.0122 0,0.0244 0.0061,0.0061 0.0183,0.0061 h 1.128495 q 0.061,0 0.061,0.061 v 0.408698 q 0,0.061 -0.061,0.061 z"
       id="path33" /><path
       id="path32"
       style="font-weight:500;font-stretch:condensed;font-size:6.09997px;font-family:'Barlow Condensed';-inkscape-font-specification:'Barlow Condensed,  Medium Condensed';letter-spacing:0px;fill:#d9230f;stroke-width:1.5875;stroke-linecap:round;stroke-linejoin:round"
       d="M 73.451847 3.2421793 C 73.175315 3.2421793 72.943347 3.3234262 72.756282 3.4860921 C 72.569216 3.648758 72.465523 3.8604133 72.44519 4.1206787 C 72.44519 4.1613453 72.465501 4.1816569 72.506168 4.1816569 L 73.000711 4.1816569 C 73.041378 4.1816569 73.06169 4.1613453 73.06169 4.1206787 C 73.07389 4.0108792 73.114513 3.9210942 73.183646 3.8519612 C 73.252779 3.7828282 73.337778 3.7486084 73.439444 3.7486084 C 73.569577 3.7486084 73.675404 3.8010055 73.756738 3.9067383 C 73.83807 4.0084045 73.878694 4.1446997 73.878694 4.3154988 L 73.878694 4.492749 C 73.878694 4.5090157 73.870673 4.5170369 73.854406 4.5170369 L 73.500423 4.5170369 C 73.154758 4.5170369 72.874663 4.6004183 72.65913 4.7671508 C 72.447665 4.9298167 72.341837 5.1879824 72.341837 5.5417806 C 72.341837 5.8793122 72.428971 6.1150316 72.603837 6.2492309 C 72.782769 6.3793636 72.988537 6.4445678 73.220336 6.4445678 C 73.496868 6.4445678 73.705872 6.3590519 73.848205 6.1882527 C 73.855322 6.1811361 73.861255 6.1787941 73.865258 6.181018 C 73.865528 6.1812245 73.866554 6.1817974 73.866808 6.1820515 C 73.874942 6.1861182 73.878694 6.1925217 73.878694 6.2006551 L 73.878694 6.3350138 C 73.878694 6.3756805 73.899006 6.395992 73.939672 6.395992 L 74.403727 6.395992 C 74.444393 6.395992 74.464705 6.3756805 74.464705 6.3350138 L 74.464705 4.2607218 C 74.464705 3.9557233 74.369033 3.7098481 74.177901 3.5227824 C 73.990835 3.3357166 73.748712 3.2421793 73.451847 3.2421793 z M 73.482336 4.9805745 L 73.854406 4.9805745 C 73.870673 4.9805745 73.878694 4.9885958 73.878694 5.0048624 L 73.878694 5.4198242 C 73.878694 5.58249 73.82578 5.7086294 73.720047 5.7980957 C 73.614315 5.8875619 73.49031 5.9319376 73.347977 5.9319376 C 73.225978 5.9319375 73.128689 5.8955832 73.055489 5.8223836 C 72.982289 5.7491839 72.945418 5.639604 72.945418 5.4932047 C 72.945418 5.3264722 72.994579 5.2003328 73.092179 5.1149332 C 73.189778 5.025467 73.31967 4.9805745 73.482336 4.9805745 z " /><path
       style="font-weight:500;font-stretch:condensed;font-size:6.09997px;font-family:'Barlow Condensed';-inkscape-font-specification:'Barlow Condensed,  Medium Condensed';letter-spacing:0px;fill:#d9230f;stroke-width:1.5875;stroke-linecap:round;stroke-linejoin:round"
       d="m 71.792686,3.2603929 q 0.152499,0 0.262298,0.0671 0.0427,0.0244 0.0305,0.0793 l -0.0915,0.4635977 q -0.0061,0.0549 -0.0732,0.0366 -0.0793,-0.0305 -0.170799,-0.0305 -0.0366,0 -0.1098,0.0122 -0.189099,0.0183 -0.317198,0.207399 -0.121999,0.1890991 -0.121999,0.4574977 v 1.7811912 q 0,0.061 -0.061,0.061 H 70.67639 q -0.061,0 -0.061,-0.061 V 3.3518923 q 0,-0.061 0.061,-0.061 h 0.463598 q 0.061,0 0.061,0.061 v 0.3537982 q 0,0.0183 0.0061,0.0244 0.0122,0 0.0183,-0.0183 0.1769,-0.4513978 0.567298,-0.4513976 z"
       id="path30" /><path
       style="font-weight:500;font-stretch:condensed;font-size:6.09997px;font-family:'Barlow Condensed';-inkscape-font-specification:'Barlow Condensed,  Medium Condensed';letter-spacing:0px;fill:#d9230f;stroke-width:1.5875;stroke-linecap:round;stroke-linejoin:round"
       d="m 70.151795,3.656891 q 0,0.061 -0.061,0.061 h -0.426997 q -0.0244,0 -0.0244,0.0244 v 1.7140916 q 0,0.2439988 0.0854,0.3415983 0.0854,0.0915 0.268399,0.0854 h 0.0549 q 0.061,0 0.061,0.061 v 0.390398 q 0,0.061 -0.061,0.061 h -0.189099 q -0.390398,0 -0.591697,-0.1524992 -0.1952,-0.152501 -0.1952,-0.5794989 V 3.7422903 q 0,-0.0244 -0.0244,-0.0244 h -0.237899 q -0.061,0 -0.061,-0.061 v -0.304998 q 0,-0.061 0.061,-0.061 h 0.237899 q 0.0244,0 0.0244,-0.0244 V 2.5771961 q 0,-0.061 0.061,-0.061 h 0.445298 q 0.061,0 0.061,0.061 v 0.6892966 q 0,0.0244 0.0244,0.0244 h 0.426997 q 0.061,0 0.061,0.061 z"
       id="path29" /><path
       style="font-weight:500;font-stretch:condensed;font-size:6.09997px;font-family:'Barlow Condensed';-inkscape-font-specification:'Barlow Condensed,  Medium Condensed';letter-spacing:0px;fill:#d9230f;stroke-width:1.5875;stroke-linecap:round;stroke-linejoin:round"
       d="m 67.461714,6.4323772 q -0.457497,0 -0.725896,-0.2195989 -0.262299,-0.2256989 -0.262299,-0.603897 v -0.0549 q 0,-0.061 0.061,-0.061 h 0.433098 q 0.061,0 0.061,0.061 v 0.0427 q 0,0.1646992 0.1281,0.2805986 0.128099,0.1097994 0.317198,0.1097994 0.182999,0 0.292799,-0.1097994 0.115899,-0.1097995 0.115899,-0.2805986 0,-0.1341994 -0.0793,-0.2256989 -0.0793,-0.0915 -0.189099,-0.1402993 -0.1037,-0.0549 -0.323299,-0.1463993 Q 67.053016,4.9805842 66.894417,4.8829847 66.741918,4.7853852 66.619918,4.6023861 66.497919,4.419387 66.497919,4.1387884 q 0,-0.414798 0.256199,-0.6465968 0.262299,-0.2317989 0.701496,-0.2317989 0.451398,0 0.707597,0.2378988 0.262299,0.2378989 0.262299,0.6465968 v 0.0183 q 0,0.061 -0.061,0.061 h -0.420898 q -0.061,0 -0.061,-0.061 v -0.0427 q 0,-0.1646992 -0.115899,-0.2805986 -0.1159,-0.1158995 -0.298899,-0.1158995 -0.189099,0 -0.298898,0.1158995 -0.1098,0.1158994 -0.1098,0.2805986 0,0.1280993 0.0732,0.2134989 0.0732,0.0854 0.176899,0.1402993 0.1037,0.0488 0.329398,0.1463993 0.250099,0.1097995 0.414798,0.2134989 0.1647,0.0976 0.286699,0.2805987 0.128099,0.182999 0.128099,0.4574977 0,0.396498 -0.274498,0.6282969 -0.268399,0.2317988 -0.731997,0.2317992 z"
       id="path28" /><path
       style="font-weight:500;font-stretch:condensed;font-size:6.09997px;font-family:'Barlow Condensed';-inkscape-font-specification:'Barlow Condensed,  Medium Condensed';letter-spacing:0px;fill:#d9230f;stroke-width:1.5875;stroke-linecap:round;stroke-linejoin:round"
       d="m 65.381625,6.3957772 q -0.061,0 -0.061,-0.061 V 3.3518923 q 0,-0.061 0.061,-0.061 h 0.463598 q 0.061,0 0.061,0.061 v 2.9828852 q 0,0.061 -0.061,0.061 z"
       id="path27" /><path
       style="font-weight:500;font-stretch:condensed;font-size:6.09997px;font-family:'Barlow Condensed';-inkscape-font-specification:'Barlow Condensed,  Medium Condensed';letter-spacing:0px;fill:#d9230f;stroke-width:1.5875;stroke-linecap:round;stroke-linejoin:round"
       d="m 65.607324,2.802895 q -0.170799,0 -0.280598,-0.1097995 -0.1098,-0.1097994 -0.1098,-0.2805986 0,-0.1707992 0.1098,-0.2805986 0.109799,-0.1097995 0.280598,-0.1097995 0.176899,0 0.280599,0.1097995 0.109799,0.1036995 0.109799,0.2805986 0,0.1707992 -0.109799,0.2805986 -0.1098,0.1097995 -0.280599,0.1097995 z"
       id="path26" /><path
       style="font-weight:500;font-stretch:condensed;font-size:6.09997px;font-family:'Barlow Condensed';-inkscape-font-specification:'Barlow Condensed,  Medium Condensed';letter-spacing:0px;fill:#d9230f;stroke-width:1.5875;stroke-linecap:round;stroke-linejoin:round"
       d="m 63.887137,3.2481928 q 0.384298,0 0.585597,0.2622987 0.207399,0.2561987 0.207399,0.7319964 v 2.0922896 q 0,0.061 -0.061,0.061 h -0.463598 q -0.061,0 -0.061,-0.061 V 4.2912876 q 0,-0.2561987 -0.109799,-0.396498 -0.1098,-0.1402993 -0.304999,-0.1402993 -0.201299,0 -0.317198,0.1402993 -0.1098,0.1341993 -0.121999,0.3842981 0,0.0366 -0.0061,0.0366 v 2.01909 q 0,0.061 -0.061,0.061 h -0.463598 q -0.061,0 -0.061,-0.061 V 3.3518923 q 0,-0.061 0.061,-0.061 h 0.463598 q 0.061,0 0.061,0.061 v 0.1646991 q 0,0.0122 0.0122,0.0183 0.0122,0 0.0244,-0.0183 0.219599,-0.2683986 0.616097,-0.2683986 z"
       id="path25" /><path
       style="font-weight:500;font-stretch:condensed;font-size:6.09997px;font-family:'Barlow Condensed';-inkscape-font-specification:'Barlow Condensed,  Medium Condensed';letter-spacing:0px;fill:#d9230f;stroke-width:1.5875;stroke-linecap:round;stroke-linejoin:round"
       d="m 61.45325,6.3957772 q -0.061,0 -0.061,-0.061 V 3.3518923 q 0,-0.061 0.061,-0.061 h 0.463598 q 0.061,0 0.061,0.061 v 2.9828852 q 0,0.061 -0.061,0.061 z"
       id="path24" /><path
       style="font-weight:500;font-stretch:condensed;font-size:6.09997px;font-family:'Barlow Condensed';-inkscape-font-specification:'Barlow Condensed,  Medium Condensed';letter-spacing:0px;fill:#d9230f;stroke-width:1.5875;stroke-linecap:round;stroke-linejoin:round"
       d="m 61.678949,2.802895 q -0.170799,0 -0.280599,-0.1097995 -0.109799,-0.1097994 -0.109799,-0.2805986 0,-0.1707992 0.109799,-0.2805986 0.1098,-0.1097995 0.280599,-0.1097995 0.176899,0 0.280599,0.1097995 0.109799,0.1036995 0.109799,0.2805986 0,0.1707992 -0.109799,0.2805986 -0.1098,0.1097995 -0.280599,0.1097995 z"
       id="path23" /><path
       style="font-weight:500;font-stretch:condensed;font-size:6.09997px;font-family:'Barlow Condensed';-inkscape-font-specification:'Barlow Condensed,  Medium Condensed';letter-spacing:0px;fill:#d9230f;stroke-width:1.5875;stroke-linecap:round;stroke-linejoin:round"
       d="m 59.95876,3.2481928 q 0.378198,0 0.579497,0.2744986 0.207399,0.2683987 0.207399,0.7563963 v 2.0556898 q 0,0.061 -0.061,0.061 h -0.457498 q -0.061,0 -0.061,-0.061 v -2.01299 q 0,-0.2683987 -0.109799,-0.414798 -0.1098,-0.1524992 -0.292799,-0.1524992 -0.195199,0 -0.311098,0.1524992 -0.1159,0.1463993 -0.1159,0.408698 v 2.01909 q 0,0.061 -0.061,0.061 h -0.457498 q -0.061,0 -0.061,-0.061 v -2.01299 q 0,-0.2683987 -0.109799,-0.414798 -0.1098,-0.1524992 -0.292799,-0.1524992 -0.195199,0 -0.311098,0.1524992 -0.1159,0.1463993 -0.1159,0.408698 v 2.01909 q 0,0.061 -0.061,0.061 h -0.457497 q -0.061,0 -0.061,-0.061 V 3.3518923 q 0,-0.061 0.061,-0.061 h 0.457497 q 0.061,0 0.061,0.061 v 0.1524992 q 0,0.0122 0.0061,0.0183 0.0122,0.0061 0.0244,-0.0061 0.121999,-0.1341993 0.280599,-0.201299 0.158599,-0.0671 0.317198,-0.0671 0.463598,0 0.664897,0.408698 0.0061,0.0122 0.0183,0.0122 0.0122,-0.0061 0.0183,-0.0305 0.121999,-0.2073989 0.311098,-0.2988985 0.189099,-0.091499 0.390398,-0.091499 z"
       id="path22" /><path
       style="font-weight:500;font-stretch:condensed;font-size:6.09997px;font-family:'Barlow Condensed';-inkscape-font-specification:'Barlow Condensed,  Medium Condensed';letter-spacing:0px;fill:#d9230f;stroke-width:1.5875;stroke-linecap:round;stroke-linejoin:round"
       d="m 55.951083,3.2481928 q 0.378198,0 0.579497,0.2744986 0.207399,0.2683987 0.207399,0.7563963 v 2.0556898 q 0,0.061 -0.061,0.061 h -0.457498 q -0.061,0 -0.061,-0.061 v -2.01299 q 0,-0.2683987 -0.1098,-0.414798 -0.109799,-0.1524992 -0.292798,-0.1524992 -0.195199,0 -0.311099,0.1524992 -0.115899,0.1463993 -0.115899,0.408698 v 2.01909 q 0,0.061 -0.061,0.061 h -0.457498 q -0.061,0 -0.061,-0.061 v -2.01299 q 0,-0.2683987 -0.1098,-0.414798 -0.109799,-0.1524992 -0.292799,-0.1524992 -0.195199,0 -0.311098,0.1524992 -0.115899,0.1463993 -0.115899,0.408698 v 2.01909 q 0,0.061 -0.061,0.061 h -0.457498 q -0.061,0 -0.061,-0.061 V 3.3518923 q 0,-0.061 0.061,-0.061 h 0.457498 q 0.061,0 0.061,0.061 v 0.1524992 q 0,0.0122 0.0061,0.0183 0.0122,0.0061 0.0244,-0.0061 0.122,-0.1341993 0.280599,-0.201299 0.158599,-0.0671 0.317199,-0.0671 0.463597,0 0.664896,0.408698 0.0061,0.0122 0.0183,0.0122 0.0122,-0.0061 0.0183,-0.0305 0.121999,-0.2073989 0.311099,-0.2988985 0.189099,-0.091499 0.390398,-0.091499 z"
       id="path21" /><path
       id="path20"
       style="font-weight:500;font-stretch:condensed;font-size:6.09997px;font-family:'Barlow Condensed';-inkscape-font-specification:'Barlow Condensed,  Medium Condensed';letter-spacing:0px;fill:#d9230f;stroke-width:1.5875;stroke-linecap:round;stroke-linejoin:round"
       d="M 51.748262 3.2421793 C 51.47173 3.2421793 51.239763 3.3234262 51.052697 3.4860921 C 50.865632 3.648758 50.761939 3.8604133 50.741605 4.1206787 C 50.741605 4.1613453 50.761917 4.1816569 50.802583 4.1816569 L 51.29661 4.1816569 C 51.337277 4.1816569 51.357588 4.1613453 51.357588 4.1206787 C 51.369788 4.0108792 51.410929 3.9210942 51.480061 3.8519612 C 51.549195 3.7828282 51.634194 3.7486084 51.73586 3.7486084 C 51.865992 3.7486084 51.97182 3.8010055 52.053153 3.9067383 C 52.134486 4.0084045 52.175109 4.1446997 52.175109 4.3154988 L 52.175109 4.492749 C 52.175109 4.5090157 52.167088 4.5170369 52.150822 4.5170369 L 51.796838 4.5170369 C 51.451173 4.5170369 51.170561 4.6004183 50.955029 4.7671508 C 50.743563 4.9298167 50.638252 5.1879824 50.638252 5.5417806 C 50.638252 5.8793122 50.725386 6.1150316 50.900252 6.2492309 C 51.079185 6.3793636 51.284436 6.4445678 51.516235 6.4445678 C 51.792767 6.4445678 52.002288 6.3590519 52.14462 6.1882527 C 52.151229 6.1816444 52.156716 6.1790557 52.16064 6.1805013 C 52.161212 6.180819 52.162716 6.1815432 52.163224 6.1820515 C 52.171357 6.1861182 52.175109 6.1925217 52.175109 6.2006551 L 52.175109 6.3350138 C 52.175109 6.3756805 52.195421 6.395992 52.236088 6.395992 L 52.699625 6.395992 C 52.740292 6.395992 52.760603 6.3756805 52.760603 6.3350138 L 52.760603 4.2607218 C 52.760603 3.9557233 52.665449 3.7098481 52.474316 3.5227824 C 52.287251 3.3357166 52.045127 3.2421793 51.748262 3.2421793 z M 51.778751 4.9805745 L 52.150822 4.9805745 C 52.167088 4.9805745 52.175109 4.9885958 52.175109 5.0048624 L 52.175109 5.4198242 C 52.175109 5.58249 52.122195 5.7086294 52.016463 5.7980957 C 51.910729 5.8875619 51.786725 5.9319376 51.644392 5.9319376 C 51.522393 5.9319375 51.425103 5.8955832 51.351904 5.8223836 C 51.278704 5.7491839 51.241833 5.639604 51.241833 5.4932047 C 51.241833 5.3264722 51.290477 5.2003328 51.388077 5.1149332 C 51.485677 5.025467 51.616085 4.9805745 51.778751 4.9805745 z " /><path
       d="m 45.574421,2.2954822 c 0.03978,-0.039778 0.101654,-0.045672 0.148797,-0.014732 l 0.875838,0.5834012 c 0.06556,0.043459 0.1046,0.117122 0.1046,0.1959401 v 0.3653622 l 0.668849,0.6688487 c 0.245293,-0.1104927 0.54436,-0.065559 0.745456,0.1362744 l 0.928875,0.9288743 c 0.137748,0.1377476 0.137748,0.3616793 0,0.5001635 l -0.442707,0.4427071 c -0.137748,0.1377476 -0.361679,0.1377476 -0.500163,0 L 47.175091,5.1734474 C 46.973258,4.9716142 46.928324,4.6732839 47.038817,4.4279904 L 46.369968,3.7591418 h -0.365362 c -0.07882,0 -0.15248,-0.039042 -0.19594,-0.1045996 L 45.225265,2.7787039 c -0.03094,-0.046408 -0.02505,-0.1090196 0.01473,-0.1487965 z m 1.068095,2.2356336 c -0.04641,0.2718119 0.01694,0.5590925 0.192995,0.7896539 l -0.69905,0.699787 c -0.20699,0.2069893 -0.542888,0.2069893 -0.749877,0 -0.20699,-0.2069898 -0.20699,-0.5428877 0,-0.749877 l 0.99738,-0.9981164 0.259289,0.2585525 z m 1.239728,-2.1862806 c 0.14806,0 0.290227,0.027255 0.420608,0.077345 0.07366,0.027991 0.08692,0.1215418 0.03168,0.177525 l -0.417661,0.417662 c -0.0221,0.022098 -0.03462,0.0523 -0.03462,0.083238 v 0.3049595 c 0,0.064823 0.05304,0.117859 0.117859,0.117859 h 0.304959 c 0.03094,0 0.06114,-0.012523 0.08324,-0.034621 l 0.417662,-0.417662 c 0.05598,-0.055246 0.149533,-0.041987 0.177524,0.031676 0.05009,0.1303814 0.07735,0.2725485 0.07735,0.4206088 0,0.3182185 -0.126698,0.6062362 -0.331477,0.8183821 L 48.367677,3.9801285 C 48.123856,3.7370447 47.789432,3.6434944 47.475633,3.6972673 L 47.057234,3.2788688 V 3.0600909 l -0.0015,-0.036829 c -0.0059,-0.091341 -0.03241,-0.1789977 -0.07734,-0.2570793 0.216565,-0.2578159 0.540677,-0.4213454 0.903829,-0.422082 z"
       id="path1-5"
       style="stroke-width:0.264583;fill:#d9230f;fill-opacity:1" /></g></svg>
