<?xml version="1.0" encoding="UTF-8" standalone="no"?>
<!-- Created with Inkscape (http://www.inkscape.org/) -->

<svg
   width="512"
   height="256"
   viewBox="0 0 135.46666 67.733335"
   version="1.1"
   id="svg1"
   inkscape:version="1.4.3 (0d15f75042, 2025-12-25)"
   sodipodi:docname="login-logo.svg"
   xml:space="preserve"
   xmlns:inkscape="http://www.inkscape.org/namespaces/inkscape"
   xmlns:sodipodi="http://sodipodi.sourceforge.net/DTD/sodipodi-0.dtd"
   xmlns:xlink="http://www.w3.org/1999/xlink"
   xmlns="http://www.w3.org/2000/svg"
   xmlns:svg="http://www.w3.org/2000/svg"><sodipodi:namedview
     id="namedview1"
     pagecolor="#ffffff"
     bordercolor="#000000"
     borderopacity="0.25"
     inkscape:showpageshadow="false"
     inkscape:pageopacity="0.0"
     inkscape:pagecheckerboard="0"
     inkscape:deskcolor="#d1d1d1"
     inkscape:document-units="px"
     inkscape:zoom="2.9883792"
     inkscape:cx="319.2366"
     inkscape:cy="184.38088"
     inkscape:window-width="2514"
     inkscape:window-height="1404"
     inkscape:window-x="2606"
     inkscape:window-y="0"
     inkscape:window-maximized="1"
     inkscape:current-layer="layer1" /><defs
     id="defs1"><linearGradient
       id="linearGradient3"
       inkscape:collect="always"><stop
         style="stop-color:#ffffff;stop-opacity:1;"
         offset="0"
         id="stop3" /><stop
         style="stop-color:#d9230f;stop-opacity:1"
         offset="1"
         id="stop4" /></linearGradient><linearGradient
       inkscape:collect="always"
       xlink:href="#linearGradient3"
       id="linearGradient4"
       x1="32.186363"
       y1="38.400898"
       x2="98.275101"
       y2="38.400898"
       gradientUnits="userSpaceOnUse" /></defs><g
     inkscape:label="Layer 1"
     inkscape:groupmode="layer"
     id="layer1"><ellipse
       style="fill:#d9230f;fill-opacity:1;stroke:#d9230f;stroke-width:0.499999;stroke-linecap:square;stroke-opacity:1"
       id="path1"
       cx="16.477251"
       cy="27.632769"
       rx="15.459113"
       ry="15.463493" /><path
       style="font-weight:800;font-stretch:condensed;font-size:28.2133px;font-family:'Barlow Condensed';-inkscape-font-specification:'Barlow Condensed,  Ultra-Bold Condensed';letter-spacing:0px;fill:#d9230f;stroke-width:0.499998;stroke-linecap:square"
       d="m 134.71686,20.895812 c 0,0.09406 -0.0376,0.17871 -0.11284,0.253956 -0.0564,0.05644 -0.13162,0.08465 -0.22568,0.08465 h -5.67006 c -0.094,0 -0.14105,0.04703 -0.14105,0.141086 v 3.55538 c 0,0.09406 0.047,0.141087 0.14105,0.141087 h 3.10302 c 0.0941,0 0.16925,0.03762 0.22568,0.112868 0.0752,0.05644 0.11283,0.131681 0.11283,0.225738 v 3.357859 c 0,0.09405 -0.0376,0.178711 -0.11283,0.253956 -0.0564,0.05644 -0.13163,0.08465 -0.22568,0.08465 h -3.10302 c -0.094,0 -0.14105,0.04703 -0.14105,0.141086 v 3.583598 c 0,0.09405 0.047,0.141086 0.14105,0.141086 h 5.67006 c 0.0941,0 0.16926,0.03762 0.22568,0.112869 0.0752,0.05644 0.11284,0.131681 0.11284,0.225739 v 3.329641 c 0,0.09406 -0.0376,0.17871 -0.11284,0.253956 -0.0564,0.05644 -0.13162,0.08465 -0.22568,0.08465 h -10.15535 c -0.094,0 -0.17865,-0.02821 -0.25387,-0.08465 -0.0564,-0.07525 -0.0846,-0.159898 -0.0846,-0.253956 v -7.534019 h -4.95271 v -4.035073 h 4.95271 v -7.505802 c 0,-0.09405 0.0282,-0.169304 0.0846,-0.225739 0.0752,-0.07524 0.15985,-0.112869 0.25387,-0.112869 h 10.15535 c 0.0941,0 0.16926,0.03762 0.22568,0.112869 0.0752,0.05644 0.11284,0.131681 0.11284,0.225739 z"
       id="path12"
       sodipodi:nodetypes="sssssssscssssssssscssssscsccccsssscss" /><path
       id="path11"
       style="font-weight:800;font-stretch:condensed;font-size:28.2133px;font-family:'Barlow Condensed';-inkscape-font-specification:'Barlow Condensed,  Ultra-Bold Condensed';letter-spacing:0px;fill:#d9230f;stroke-width:0.499998;stroke-linecap:square"
       d="m 113.44682,17.227372 c -0.20689,0 -0.32879,0.103648 -0.36639,0.310575 l -4.09019,19.074805 c -0.0564,0.24455 0.0372,0.366903 0.28164,0.366903 h 4.00596 c 0.22568,0 0.3481,-0.103648 0.3669,-0.310575 l 0.33848,-2.454631 c 0,-0.09406 0.0562,-0.141077 0.16898,-0.141077 h 3.04685 c 0.11283,0 0.16897,0.04702 0.16897,0.141077 l 0.36691,2.454631 c 0.0188,0.206927 0.14123,0.310575 0.3669,0.310575 h 4.09019 c 0.20687,0 0.31007,-0.08443 0.31007,-0.253731 l -0.0279,-0.113172 -4.06228,-19.074805 c -0.0376,-0.206927 -0.16004,-0.310575 -0.36691,-0.310575 z m 2.17248,6.546371 c 0.0376,0 0.066,0.03793 0.0847,0.113171 l 1.01544,6.433715 c 0,0.09406 -0.0379,0.141077 -0.11317,0.141077 h -1.88981 c -0.0752,0 -0.11265,-0.04702 -0.11265,-0.141077 l 0.93069,-6.433715 c 0.0188,-0.07525 0.0472,-0.113171 0.0847,-0.113171 z" /><path
       style="font-weight:800;font-stretch:condensed;font-size:28.2133px;font-family:'Barlow Condensed';-inkscape-font-specification:'Barlow Condensed,  Ultra-Bold Condensed';letter-spacing:0px;fill:#d9230f;stroke-width:0.499998;stroke-linecap:square"
       d="m 109.4131,17.227563 q 0.14105,0 0.22568,0.112869 0.11283,0.08465 0.11283,0.225739 v 3.329641 q 0,0.141087 -0.11283,0.253956 -0.0846,0.08465 -0.22568,0.08465 h -3.49795 q -0.14104,0 -0.14104,0.141086 v 15.265559 q 0,0.141087 -0.11285,0.253956 -0.0846,0.08465 -0.22567,0.08465 h -4.00572 q -0.14105,0 -0.25388,-0.08465 -0.0846,-0.112869 -0.0846,-0.253956 V 21.375506 q 0,-0.141086 -0.14105,-0.141086 h -3.356907 q -0.141046,0 -0.253883,-0.08465 -0.08463,-0.112869 -0.08463,-0.253956 v -3.329641 q 0,-0.141087 0.08463,-0.225739 0.112837,-0.112869 0.253883,-0.112869 z"
       id="path9" /><path
       style="font-weight:800;font-stretch:condensed;font-size:28.2133px;font-family:'Barlow Condensed';-inkscape-font-specification:'Barlow Condensed,  Ultra-Bold Condensed';letter-spacing:0px;fill:#d9230f;stroke-width:0.499998;stroke-linecap:square"
       d="m 88.143262,36.979673 c -0.09403,0 -0.178659,-0.02821 -0.253883,-0.08465 -0.05642,-0.07525 -0.08463,-0.159898 -0.08463,-0.253956 V 17.566171 c 0,-0.09405 0.02821,-0.169304 0.08463,-0.225739 0.07522,-0.07524 0.159852,-0.112869 0.253883,-0.112869 h 4.005721 c 0.09404,0 0.169256,0.03762 0.225675,0.112869 0.07523,0.05644 0.112837,0.131681 0.112837,0.225739 V 32.83173 c 0,0.09405 0.04701,0.141086 0.141046,0.141086 h 6.231737 c 0.09399,0 0.169246,0.03762 0.225668,0.112869 0.07519,0.05644 0.112834,0.131681 0.112834,0.225739 v 3.329641 c 0,0.09406 -0.03759,0.17871 -0.112834,0.253956 -0.05639,0.05644 -0.131641,0.08465 -0.225668,0.08465 z"
       id="path8"
       sodipodi:nodetypes="scssssscsssscsssss" /><path
       style="font-weight:800;font-stretch:condensed;font-size:28.2133px;font-family:'Barlow Condensed';-inkscape-font-specification:'Barlow Condensed,  Ultra-Bold Condensed';letter-spacing:0px;fill:#d9230f;stroke-width:0.499998;stroke-linecap:square"
       d="m 80.047203,37.205411 q -1.748978,0 -3.074815,-0.73365 -1.325837,-0.761867 -2.059279,-2.116297 -0.733442,-1.354431 -0.733442,-3.132121 V 17.566171 q 0,-0.141087 0.08463,-0.225739 0.112837,-0.112869 0.253884,-0.112869 H 78.5239 q 0.141046,0 0.225674,0.112869 0.112837,0.08465 0.112837,0.225739 V 31.67482 q 0,0.677215 0.310303,1.100475 0.338511,0.423259 0.874489,0.423259 0.535977,0 0.846279,-0.423259 0.338511,-0.42326 0.338511,-1.100475 V 17.566171 q 0,-0.141087 0.08463,-0.225739 0.112838,-0.112869 0.253884,-0.112869 h 4.005721 q 0.141046,0 0.225674,0.112869 0.112837,0.08465 0.112837,0.225739 v 13.657172 q 0,1.77769 -0.733441,3.132121 -0.733442,1.35443 -2.059279,2.116297 -1.325837,0.73365 -3.074814,0.73365 z"
       id="path7" /><path
       style="font-weight:800;font-stretch:condensed;font-size:28.2133px;font-family:'Barlow Condensed';-inkscape-font-specification:'Barlow Condensed,  Ultra-Bold Condensed';letter-spacing:0px;fill:#d9230f;stroke-width:0.499998;stroke-linecap:square"
       d="m 66.704222,37.20541 q 2.679884,0 4.287814,-1.580169 1.60793,-1.580168 1.60793,-4.204376 v -8.662712 q 0,-2.652425 -1.60793,-4.204377 -1.60793,-1.551951 -4.287814,-1.551951 -2.679884,0 -4.287814,1.551951 -1.63614,1.551952 -1.63614,4.204377 v 0.253956 q 0,0.141086 0.112837,0.253956 0.08463,0.08465 0.225675,0.08465 l 4.005721,0.169303 q 0.338512,0 0.338512,-0.338607 v -0.761867 q 0,-0.648998 0.338512,-1.015823 0.338511,-0.395042 0.902697,-0.395042 0.535977,0 0.874489,0.395042 0.338511,0.366825 0.338511,1.015823 v 9.396361 q 0,0.62078 -0.338511,1.015823 -0.338512,0.366824 -0.874489,0.366824 -0.564186,0 -0.902697,-0.366824 -0.338512,-0.395043 -0.338512,-1.015823 v -0.818302 q 0,-0.141086 -0.08463,-0.225738 -0.112837,-0.11287 -0.253883,-0.11287 l -4.005721,0.169304 q -0.141047,0 -0.225675,0.112869 -0.112837,0.08465 -0.112837,0.225739 v 0.253956 q 0,2.624208 1.63614,4.204376 1.60793,1.580169 4.287814,1.580169 z"
       id="path6" /><path
       style="font-weight:800;font-stretch:condensed;font-size:28.2133px;font-family:'Barlow Condensed';-inkscape-font-specification:'Barlow Condensed,  Ultra-Bold Condensed';letter-spacing:0px;fill:#d9230f;stroke-width:0.499998;stroke-linecap:square"
       d="m 53.417658,37.205411 q -2.679885,0 -4.287815,-1.580169 -1.60793,-1.580168 -1.60793,-4.204377 v -8.662711 q 0,-2.652426 1.60793,-4.204378 1.60793,-1.551951 4.287815,-1.551951 2.679883,0 4.287813,1.551951 1.636141,1.551952 1.636141,4.204378 v 0.253956 q 0,0.141086 -0.112837,0.253956 -0.08463,0.08465 -0.225675,0.08465 l -4.005721,0.169303 q -0.338512,0 -0.338512,-0.338607 v -0.761867 q 0,-0.648998 -0.338512,-1.015823 -0.338511,-0.395042 -0.902697,-0.395042 -0.535977,0 -0.874489,0.395042 -0.338511,0.366825 -0.338511,1.015823 v 9.39636 q 0,0.62078 0.338511,1.015823 0.338512,0.366824 0.874489,0.366824 0.564186,0 0.902697,-0.366824 0.338512,-0.395043 0.338512,-1.015823 v -0.818302 q 0,-0.141086 0.08463,-0.225738 0.112837,-0.11287 0.253884,-0.11287 l 4.005721,0.169304 q 0.141047,0 0.225675,0.112869 0.112837,0.08465 0.112837,0.225739 v 0.253956 q 0,2.624209 -1.636141,4.204377 -1.60793,1.580169 -4.287813,1.580169 z"
       id="path5" /><path
       id="path2"
       style="font-weight:800;font-stretch:condensed;font-size:28.2133px;font-family:'Barlow Condensed';-inkscape-font-specification:'Barlow Condensed,  Ultra-Bold Condensed';letter-spacing:0px;fill:#d9230f;stroke-width:0.499998;stroke-linecap:square"
       d="m 39.989807,17.002063 c -1.824202,0 -3.281584,0.535913 -4.372344,1.60817 -1.071954,1.053446 -1.607653,2.464533 -1.607653,4.232817 v 8.521443 c 0,1.787096 0.535699,3.207277 1.607653,4.260723 1.09076,1.053445 2.548142,1.580265 4.372344,1.580265 1.805395,0 3.253678,-0.52682 4.344438,-1.580265 1.109565,-1.053446 1.664497,-2.473627 1.664497,-4.260723 V 22.84305 c 0,-1.768284 -0.554932,-3.179371 -1.664497,-4.232817 -1.09076,-1.072257 -2.539043,-1.60817 -4.344438,-1.60817 z m 0,4.006474 c 0.413736,0 0.73344,0.150667 0.959114,0.451652 0.244481,0.282173 0.366903,0.677029 0.366903,1.18494 v 8.916768 c 0,0.507912 -0.122422,0.912378 -0.366903,1.213363 -0.225674,0.282173 -0.545378,0.42323 -0.959114,0.42323 -0.413736,0 -0.73344,-0.141057 -0.959115,-0.42323 -0.225675,-0.300985 -0.33848,-0.705451 -0.33848,-1.213363 v -8.916768 c 0,-0.507911 0.112805,-0.902767 0.33848,-1.18494 0.225675,-0.300985 0.545379,-0.451652 0.959115,-0.451652 z" /><rect
       style="fill:#d9230f;fill-opacity:1;stroke:none;stroke-width:0.499999;stroke-linecap:square"
       id="rect12"
       width="10.079469"
       height="4.5701938"
       x="55.021206"
       y="24.888624"
       rx="0.79374999"
       ry="0.79374999" /><circle
       style="fill:#d9230f;stroke:#ffffff;stroke-width:1.5875;stroke-linecap:square"
       id="path10"
       cx="16.477251"
       cy="27.632769"
       r="10.768127" /><circle
       style="fill:#f9f9f9;stroke:#ffffff;stroke-width:1.5875;stroke-linecap:square"
       id="circle10"
       cx="16.477251"
       cy="27.632769"
       r="3.2554798" /><path
       style="fill:#f9f9f9;stroke:url(#linearGradient4);stroke-width:1.5875;stroke-linecap:round;stroke-linejoin:round"
       d="m 16.477251,38.400897 117.392969,0"
       id="path3"
       sodipodi:nodetypes="cc" /></g></svg>
