<?xml version="1.0" encoding="UTF-8" standalone="no"?>
<!-- Created with Inkscape (http://www.inkscape.org/) -->

<svg
   width="140"
   height="32"
   viewBox="0 0 37.041665 8.4666669"
   version="1.1"
   id="svg1"
   inkscape:version="1.4.3 (0d15f75042, 2025-12-25)"
   sodipodi:docname="navbar-logo.svg"
   xml:space="preserve"
   xmlns:inkscape="http://www.inkscape.org/namespaces/inkscape"
   xmlns:sodipodi="http://sodipodi.sourceforge.net/DTD/sodipodi-0.dtd"
   xmlns:xlink="http://www.w3.org/1999/xlink"
   xmlns="http://www.w3.org/2000/svg"
   xmlns:svg="http://www.w3.org/2000/svg"><sodipodi:namedview
     id="namedview1"
     pagecolor="#ffffff"
     bordercolor="#000000"
     borderopacity="0.25"
     inkscape:showpageshadow="false"
     inkscape:pageopacity="0.0"
     inkscape:pagecheckerboard="0"
     inkscape:deskcolor="#d1d1d1"
     inkscape:document-units="px"
     inkscape:zoom="4.7578185"
     inkscape:cx="48.551663"
     inkscape:cy="30.686332"
     inkscape:window-width="2514"
     inkscape:window-height="1404"
     inkscape:window-x="2606"
     inkscape:window-y="0"
     inkscape:window-maximized="1"
     inkscape:current-layer="layer1" /><defs
     id="defs1"><linearGradient
       id="linearGradient3"
       inkscape:collect="always"><stop
         style="stop-color:#ffffff;stop-opacity:1;"
         offset="0"
         id="stop3" /><stop
         style="stop-color:#d9230f;stop-opacity:1"
         offset="1"
         id="stop4" /></linearGradient><linearGradient
       inkscape:collect="always"
       xlink:href="#linearGradient3"
       id="linearGradient4"
       x1="32.186363"
       y1="38.400898"
       x2="98.275101"
       y2="38.400898"
       gradientUnits="userSpaceOnUse"
       gradientTransform="matrix(0.74192884,0,0,0.74540059,18.24522,74.376121)" /></defs><g
     inkscape:label="Layer 1"
     inkscape:groupmode="layer"
     id="layer1"><g
       id="g20"><g
         id="g19"
         transform="matrix(0.35947702,0,0,0.35947702,-6.123353,-29.907505)"
         style="stroke-width:2.78182"><g
           id="path1"
           style="opacity:1;stroke-width:2.78182"><path
             style="baseline-shift:baseline;display:inline;overflow:visible;vector-effect:none;fill:#d9230f;stroke-width:2.78182;stroke-linecap:square;enable-background:accumulate;stop-color:#000000;stop-opacity:1"
             d="M 41.939729,94.973602 A 11.469562,11.526497 0 0 1 30.470167,106.5001 11.469562,11.526497 0 0 1 19.000606,94.973602 11.469562,11.526497 0 0 1 30.470167,83.447105 11.469562,11.526497 0 0 1 41.939729,94.973602 Z"
             id="path16" /><path
             style="baseline-shift:baseline;display:inline;overflow:visible;vector-effect:none;fill:#d9230f;stroke-width:2.78182;stroke-linecap:square;enable-background:accumulate;stop-color:#000000;stop-opacity:1"
             d="m 30.470703,83.197266 c -6.470244,0 -11.720703,5.275039 -11.720703,11.77539 -1e-6,6.500354 5.250458,11.777344 11.720703,11.777344 6.470245,0 11.718751,-5.27699 11.71875,-11.777344 0,-6.500351 -5.248505,-11.77539 -11.71875,-11.77539 z m 0,0.5 c 6.198684,0 11.21875,5.043924 11.21875,11.27539 10e-7,6.231464 -5.020066,11.277344 -11.21875,11.277344 -6.198683,0 -11.220704,-5.04588 -11.220703,-11.277344 0,-6.231465 5.02202,-11.27539 11.220703,-11.27539 z"
             id="path17" /></g><path
           style="font-weight:800;font-stretch:condensed;font-size:28.2133px;font-family:'Barlow Condensed';-inkscape-font-specification:'Barlow Condensed,  Ultra-Bold Condensed';letter-spacing:0px;fill:#d9230f;stroke-width:1.39091;stroke-linecap:square"
           d="m 118.19554,89.951872 c 0,0.07011 -0.0279,0.13321 -0.0837,0.189299 -0.0418,0.04207 -0.0977,0.0631 -0.16743,0.0631 h -4.20679 c -0.0697,0 -0.10464,0.03506 -0.10464,0.105165 v 2.650183 c 0,0.07011 0.0349,0.105166 0.10464,0.105166 h 2.30222 c 0.0698,0 0.12558,0.02804 0.16744,0.08413 0.0558,0.04207 0.0837,0.09815 0.0837,0.168265 v 2.50295 c 0,0.0701 -0.0279,0.133211 -0.0837,0.189299 -0.0418,0.04207 -0.0977,0.0631 -0.16744,0.0631 h -2.30222 c -0.0697,0 -0.10464,0.03506 -0.10464,0.105166 v 2.671216 c 0,0.0701 0.0349,0.105166 0.10464,0.105166 h 4.20679 c 0.0698,0 0.12557,0.02804 0.16743,0.08413 0.0558,0.04207 0.0837,0.09816 0.0837,0.168266 v 2.481917 c 0,0.0701 -0.0279,0.13321 -0.0837,0.1893 -0.0418,0.0421 -0.0977,0.0631 -0.16743,0.0631 h -7.53455 c -0.0697,0 -0.13255,-0.021 -0.18835,-0.0631 -0.0418,-0.0561 -0.0628,-0.11919 -0.0628,-0.1893 v -5.615863 h -3.67456 v -3.007746 h 3.67456 v -5.594829 c 0,-0.07011 0.0209,-0.126199 0.0628,-0.168266 0.0558,-0.05608 0.11859,-0.08413 0.18835,-0.08413 h 7.53455 c 0.0698,0 0.12557,0.02804 0.16743,0.08413 0.0558,0.04207 0.0837,0.09815 0.0837,0.168266 z"
           id="path12"
           sodipodi:nodetypes="sssssssscssssssssscssssscsccccsssscss" /><path
           id="path11"
           style="font-weight:800;font-stretch:condensed;font-size:28.2133px;font-family:'Barlow Condensed';-inkscape-font-specification:'Barlow Condensed,  Ultra-Bold Condensed';letter-spacing:0px;fill:#d9230f;stroke-width:1.39091;stroke-linecap:square"
           d="m 102.41469,87.217414 c -0.1535,0 -0.24394,0.07726 -0.27184,0.231503 l -3.034628,14.218373 c -0.04184,0.18229 0.0276,0.27349 0.208957,0.27349 h 2.972141 c 0.16743,0 0.25826,-0.0773 0.27221,-0.23151 l 0.25113,-1.829679 c 0,-0.07011 0.0417,-0.105158 0.12537,-0.105158 h 2.26055 c 0.0837,0 0.12536,0.03505 0.12536,0.105158 l 0.27222,1.829679 c 0.014,0.15425 0.10478,0.23151 0.27221,0.23151 h 3.03463 c 0.15349,0 0.23005,-0.0629 0.23005,-0.18913 l -0.0207,-0.0844 -3.01392,-14.218373 c -0.0279,-0.154243 -0.11874,-0.231503 -0.27222,-0.231503 z m 1.61182,4.879669 c 0.0279,0 0.049,0.02827 0.0628,0.08436 l 0.75339,4.795695 c 0,0.07011 -0.0281,0.105159 -0.084,0.105159 h -1.4021 c -0.0558,0 -0.0836,-0.03505 -0.0836,-0.105159 l 0.69051,-4.795695 c 0.0139,-0.05609 0.035,-0.08436 0.0628,-0.08436 z" /><path
           style="font-weight:800;font-stretch:condensed;font-size:28.2133px;font-family:'Barlow Condensed';-inkscape-font-specification:'Barlow Condensed,  Ultra-Bold Condensed';letter-spacing:0px;fill:#d9230f;stroke-width:1.39091;stroke-linecap:square"
           d="m 99.421954,87.217557 q 0.104649,0 0.167439,0.08413 0.08371,0.0631 0.08371,0.168266 v 2.481917 q 0,0.105166 -0.08371,0.189299 -0.06277,0.0631 -0.167439,0.0631 h -2.59523 q -0.104641,0 -0.104641,0.105165 v 11.378956 q 0,0.10517 -0.08373,0.1893 -0.06277,0.0631 -0.167431,0.0631 h -2.971959 q -0.104649,0 -0.188361,-0.0631 -0.06277,-0.0841 -0.06277,-0.1893 V 90.309436 q 0,-0.105166 -0.104649,-0.105166 h -2.490586 q -0.104647,0 -0.188364,-0.0631 -0.06279,-0.08413 -0.06279,-0.189299 v -2.481916 q 0,-0.105167 0.06279,-0.168266 0.08372,-0.08413 0.188364,-0.08413 z"
           id="path9" /><path
           style="font-weight:800;font-stretch:condensed;font-size:28.2133px;font-family:'Barlow Condensed';-inkscape-font-specification:'Barlow Condensed,  Ultra-Bold Condensed';letter-spacing:0px;fill:#d9230f;stroke-width:1.39091;stroke-linecap:square"
           d="m 83.641248,101.94079 c -0.06976,0 -0.132552,-0.021 -0.188363,-0.0631 -0.04186,-0.0561 -0.06279,-0.11919 -0.06279,-0.1893 V 87.469955 c 0,-0.0701 0.02093,-0.126199 0.06279,-0.168266 0.05581,-0.05608 0.118599,-0.08413 0.188363,-0.08413 h 2.97196 c 0.06977,0 0.125576,0.02804 0.167435,0.08413 0.05581,0.04207 0.08372,0.09816 0.08372,0.168266 v 11.378957 c 0,0.0701 0.03488,0.105166 0.104646,0.105166 h 4.623505 c 0.06973,0 0.125569,0.02804 0.16743,0.08413 0.05579,0.04207 0.08371,0.09815 0.08371,0.168266 v 2.481916 c 0,0.0701 -0.02789,0.13321 -0.08371,0.1893 -0.04184,0.0421 -0.09767,0.0631 -0.16743,0.0631 z"
           id="path8"
           sodipodi:nodetypes="scssssscsssscsssss" /><path
           style="font-weight:800;font-stretch:condensed;font-size:28.2133px;font-family:'Barlow Condensed';-inkscape-font-specification:'Barlow Condensed,  Ultra-Bold Condensed';letter-spacing:0px;fill:#d9230f;stroke-width:1.39091;stroke-linecap:square"
           d="m 77.634548,102.10906 q -1.297617,0 -2.281293,-0.54687 -0.983677,-0.56789 -1.527839,-1.577486 -0.544162,-1.009594 -0.544162,-2.334685 V 87.469955 q 0,-0.105166 0.06279,-0.168266 0.08372,-0.08413 0.188364,-0.08413 h 2.971958 q 0.104646,0 0.167434,0.08413 0.08372,0.0631 0.08372,0.168266 v 10.516596 q 0,0.504796 0.230223,0.820294 0.251151,0.315498 0.648808,0.315498 0.397657,0 0.627879,-0.315498 0.251151,-0.315498 0.251151,-0.820294 V 87.469955 q 0,-0.105166 0.06279,-0.168266 0.08372,-0.08413 0.188364,-0.08413 h 2.97196 q 0.104646,0 0.167434,0.08413 0.08372,0.0631 0.08372,0.168266 v 10.180064 q 0,1.325091 -0.544161,2.334685 -0.544162,1.009596 -1.527839,1.577486 -0.983677,0.54687 -2.281293,0.54687 z"
           id="path7" /><path
           style="font-weight:800;font-stretch:condensed;font-size:28.2133px;font-family:'Barlow Condensed';-inkscape-font-specification:'Barlow Condensed,  Ultra-Bold Condensed';letter-spacing:0px;fill:#d9230f;stroke-width:1.39091;stroke-linecap:square"
           d="m 67.735006,102.10906 q 1.988283,0 3.181253,-1.17786 1.19297,-1.177861 1.19297,-3.133948 v -6.45719 q 0,-1.977119 -1.19297,-3.133945 -1.19297,-1.156826 -3.181253,-1.156826 -1.988283,0 -3.181253,1.156826 -1.213899,1.156826 -1.213899,3.133945 v 0.189299 q 0,0.105165 0.08372,0.189299 0.06279,0.0631 0.167435,0.0631 l 2.971959,0.126198 q 0.251152,0 0.251152,-0.252398 v -0.567896 q 0,-0.483763 0.251152,-0.757195 0.251151,-0.294464 0.669737,-0.294464 0.397657,0 0.648809,0.294464 0.251151,0.273432 0.251151,0.757195 v 7.004053 q 0,0.46273 -0.251151,0.757195 -0.251152,0.273431 -0.648809,0.273431 -0.418586,0 -0.669737,-0.273431 -0.251152,-0.294465 -0.251152,-0.757195 v -0.609962 q 0,-0.105166 -0.06279,-0.168266 -0.08372,-0.08413 -0.188363,-0.08413 l -2.97196,0.126199 q -0.104647,0 -0.167435,0.08413 -0.08372,0.0631 -0.08372,0.168266 v 0.189299 q 0,1.956086 1.213899,3.133947 1.19297,1.17785 3.181253,1.17785 z"
           id="path6" /><path
           style="font-weight:800;font-stretch:condensed;font-size:28.2133px;font-family:'Barlow Condensed';-inkscape-font-specification:'Barlow Condensed,  Ultra-Bold Condensed';letter-spacing:0px;fill:#d9230f;stroke-width:1.39091;stroke-linecap:square"
           d="m 57.877321,102.10906 q -1.988284,0 -3.181254,-1.17786 -1.192969,-1.177861 -1.192969,-3.133948 v -6.45719 q 0,-1.977119 1.192969,-3.133945 1.19297,-1.156826 3.181254,-1.156826 1.988283,0 3.181252,1.156826 1.2139,1.156826 1.2139,3.133945 v 0.189299 q 0,0.105166 -0.08372,0.189299 -0.06279,0.0631 -0.167434,0.0631 l -2.97196,0.126199 q -0.251152,0 -0.251152,-0.252398 v -0.567896 q 0,-0.483763 -0.251152,-0.757195 -0.251151,-0.294465 -0.669737,-0.294465 -0.397657,0 -0.648809,0.294465 -0.251151,0.273432 -0.251151,0.757195 v 7.004052 q 0,0.46273 0.251151,0.757195 0.251152,0.273431 0.648809,0.273431 0.418586,0 0.669737,-0.273431 0.251152,-0.294465 0.251152,-0.757195 v -0.609962 q 0,-0.105166 0.06279,-0.168266 0.08372,-0.08413 0.188364,-0.08413 l 2.97196,0.126199 q 0.104647,0 0.167435,0.08413 0.08372,0.0631 0.08372,0.168266 v 0.189299 q 0,1.956087 -1.2139,3.133947 -1.19297,1.17785 -3.181252,1.17785 z"
           id="path5" /><path
           id="path2"
           style="font-weight:800;font-stretch:condensed;font-size:28.2133px;font-family:'Barlow Condensed';-inkscape-font-specification:'Barlow Condensed,  Ultra-Bold Condensed';letter-spacing:0px;fill:#d9230f;stroke-width:1.39091;stroke-linecap:square"
           d="m 47.914811,87.049469 c -1.353428,0 -2.434702,0.39947 -3.243968,1.198731 -0.795314,0.785239 -1.192764,1.837064 -1.192764,3.155144 v 6.351889 c 0,1.332102 0.39745,2.390707 1.192764,3.175947 0.809266,0.78524 1.89054,1.17793 3.243968,1.17793 1.339475,0 2.413998,-0.39269 3.223264,-1.17793 0.823218,-0.78524 1.234938,-1.843845 1.234938,-3.175947 v -6.351889 c 0,-1.31808 -0.41172,-2.369905 -1.234938,-3.155144 -0.809266,-0.799261 -1.883789,-1.198731 -3.223264,-1.198731 z m 0,2.986428 c 0.306963,0 0.54416,0.112307 0.711594,0.336662 0.181388,0.210331 0.272216,0.504657 0.272216,0.883255 v 6.646564 c 0,0.378598 -0.09083,0.680087 -0.272216,0.904441 -0.167434,0.210332 -0.404631,0.315476 -0.711594,0.315476 -0.306963,0 -0.54416,-0.105144 -0.711595,-0.315476 -0.167435,-0.224354 -0.251128,-0.525843 -0.251128,-0.904441 v -6.646564 c 0,-0.378598 0.08369,-0.672924 0.251128,-0.883255 0.167435,-0.224355 0.404632,-0.336662 0.711595,-0.336662 z" /><rect
           style="fill:#d9230f;fill-opacity:1;stroke:none;stroke-width:1.39091;stroke-linecap:square"
           id="rect12"
           width="7.4782486"
           height="3.406625"
           x="59.067039"
           y="92.928116"
           rx="0.58890599"
           ry="0.59166169" /><g
           id="path10"
           style="opacity:1;stroke-width:2.78182"><path
             style="baseline-shift:baseline;display:inline;overflow:visible;vector-effect:none;fill:#d9230f;stroke-width:2.78182;stroke-linecap:square;enable-background:accumulate;stop-color:#000000;stop-opacity:1"
             d="m 38.459352,94.973602 a 7.9891844,8.0265684 0 0 1 -7.989185,8.026568 7.9891844,8.0265684 0 0 1 -7.989184,-8.026568 7.9891844,8.0265684 0 0 1 7.989184,-8.026568 7.9891844,8.0265684 0 0 1 7.989185,8.026568 z"
             id="path14" /><path
             style="baseline-shift:baseline;display:inline;overflow:visible;vector-effect:none;fill:#ffffff;stroke-width:2.78182;stroke-linecap:square;enable-background:accumulate;stop-color:#000000;stop-opacity:1"
             d="m 30.470703,86.152344 c -4.843286,0 -8.783203,3.960385 -8.783203,8.820312 0,4.859928 3.939917,8.820314 8.783203,8.820314 4.843287,0 8.783203,-3.960386 8.783203,-8.820314 0,-4.859928 -3.939916,-8.820313 -8.783203,-8.820312 z m 0,1.58789 c 3.981323,0 7.195312,3.226447 7.195313,7.232422 -10e-7,4.005975 -3.21399,7.234374 -7.195313,7.234374 -3.981323,0 -7.195312,-3.228399 -7.195312,-7.234374 0,-4.005974 3.213989,-7.232421 7.195312,-7.232422 z"
             id="path15" /></g><g
           id="circle10"
           style="opacity:1;stroke-width:2.78182"><path
             style="baseline-shift:baseline;display:inline;overflow:visible;vector-effect:none;fill:#f9f9f9;stroke-width:2.78182;stroke-linecap:square;enable-background:accumulate;stop-color:#000000;stop-opacity:1"
             d="m 32.885502,94.973602 a 2.4153345,2.4266365 0 0 1 -2.415335,2.426637 2.4153345,2.4266365 0 0 1 -2.415334,-2.426637 2.4153345,2.4266365 0 0 1 2.415334,-2.426636 2.4153345,2.4266365 0 0 1 2.415335,2.426636 z"
             id="path18" /><path
             style="baseline-shift:baseline;display:inline;overflow:visible;vector-effect:none;fill:#ffffff;stroke-width:2.78182;stroke-linecap:square;enable-background:accumulate;stop-color:#000000;stop-opacity:1"
             d="m 30.470703,91.753906 c -1.764933,10e-7 -3.208984,1.45158 -3.208984,3.21875 -1e-6,1.767171 1.44405,3.220703 3.208984,3.220703 1.764935,10e-7 3.208985,-1.453532 3.208984,-3.220703 0,-1.76717 -1.44405,-3.21875 -3.208984,-3.21875 z m 0,1.585938 c 0.902971,0 1.621094,0.719594 1.621094,1.632812 0,0.913218 -0.718123,1.634766 -1.621094,1.634766 -0.902971,0 -1.623047,-0.721548 -1.623047,-1.634766 0,-0.913217 0.720077,-1.632812 1.623047,-1.632812 z"
             id="path19" /></g><g
           id="path3"
           style="opacity:1;stroke-width:2.78182"><path
             style="baseline-shift:baseline;display:inline;overflow:visible;vector-effect:none;fill:#f9f9f9;stroke-width:2.78182;stroke-linecap:round;stroke-linejoin:round;enable-background:accumulate;stop-color:#000000;stop-opacity:1"
             d="M 30.470168,103.00017 H 117.5674"
             id="path4" /><path
             style="baseline-shift:baseline;display:inline;overflow:visible;vector-effect:none;fill:url(#linearGradient4);stroke-width:2.78182;stroke-linecap:round;stroke-linejoin:round;enable-background:accumulate;stop-color:#000000;stop-opacity:1"
             d="M 30.470703,102.20703 A 0.79374999,0.79374999 0 0 0 29.675781,103 a 0.79374999,0.79374999 0 0 0 0.794922,0.79297 H 117.56836 A 0.79374999,0.79374999 0 0 0 118.36133,103 a 0.79374999,0.79374999 0 0 0 -0.79297,-0.79297 z"
             id="path13" /></g></g></g></g></svg>
