<?xml version="1.0" encoding="UTF-8" standalone="no"?>
<!-- Created with Inkscape (http://www.inkscape.org/) -->

<svg
   width="512"
   height="512"
   viewBox="0 0 135.46666 135.46667"
   version="1.1"
   id="svg1"
   inkscape:version="1.4.3 (0d15f75042, 2025-12-25)"
   sodipodi:docname="groups-hover-icon.svg"
   xml:space="preserve"
   xmlns:inkscape="http://www.inkscape.org/namespaces/inkscape"
   xmlns:sodipodi="http://sodipodi.sourceforge.net/DTD/sodipodi-0.dtd"
   xmlns="http://www.w3.org/2000/svg"
   xmlns:svg="http://www.w3.org/2000/svg"><sodipodi:namedview
     id="namedview1"
     pagecolor="#ffffff"
     bordercolor="#000000"
     borderopacity="0.25"
     inkscape:showpageshadow="false"
     inkscape:pageopacity="0.0"
     inkscape:pagecheckerboard="0"
     inkscape:deskcolor="#d1d1d1"
     inkscape:document-units="px"
     inkscape:zoom="1"
     inkscape:cx="145"
     inkscape:cy="291.99999"
     inkscape:window-width="2514"
     inkscape:window-height="1404"
     inkscape:window-x="2606"
     inkscape:window-y="0"
     inkscape:window-maximized="1"
     inkscape:current-layer="layer1" /><defs
     id="defs1"><inkscape:perspective
       sodipodi:type="inkscape:persp3d"
       inkscape:vp_x="-2.1166666 : 139.55193 : 1"
       inkscape:vp_y="0 : 1000 : 0"
       inkscape:vp_z="128.58749 : 40.333178 : 1"
       inkscape:persp3d-origin="60.854164 : 17.7554 : 1"
       id="perspective69" /><linearGradient
       id="linearGradient841"
       y2="461.2496"
       y1="381.08466"
       x2="290.91505"
       x1="185.41303"
       gradientTransform="matrix(0.33925388,0,0,0.20634794,6.82096,14.11287)"
       gradientUnits="userSpaceOnUse"><stop
         id="stop839"
         style="stop-color:#000000;stop-opacity:.6667"
         offset="0" /><stop
         id="stop840"
         style="stop-color:#003a00;stop-opacity:.1176"
         offset="1" /></linearGradient><linearGradient
       id="linearGradient882"
       y2="324.68274"
       y1="157.96686"
       x2="312.29534"
       x1="207.02526"
       gradientTransform="matrix(0.25245216,0,0,0.27729743,6.82096,14.11287)"
       gradientUnits="userSpaceOnUse"><stop
         id="stop884"
         style="stop-color:#ffffff;stop-opacity:1"
         offset="0" /><stop
         id="stop885"
         style="stop-color:#29abe0;stop-opacity:1"
         offset="1" /></linearGradient><linearGradient
       id="linearGradient886"
       y2="7.5225039"
       y1="7.5225039"
       x1="7.7122393"
       gradientTransform="matrix(0.26207804,0,0,0.26711256,6.82096,14.11287)"
       x2="416.12694"
       gradientUnits="userSpaceOnUse"><stop
         id="stop888"
         style="stop-color:#325d88;stop-opacity:1"
         offset="0" /><stop
         id="stop889"
         style="stop-color:#29abe0;stop-opacity:1"
         offset="1" /></linearGradient><inkscape:perspective
       sodipodi:type="inkscape:persp3d"
       inkscape:vp_x="-2.1166666 : 139.55193 : 1"
       inkscape:vp_y="0 : 1000 : 0"
       inkscape:vp_z="128.58749 : 40.333178 : 1"
       inkscape:persp3d-origin="60.854164 : 17.7554 : 1"
       id="perspective69-5" /><inkscape:perspective
       sodipodi:type="inkscape:persp3d"
       inkscape:vp_x="-2.1166666 : 139.55193 : 1"
       inkscape:vp_y="0 : 1000 : 0"
       inkscape:vp_z="128.58749 : 40.333178 : 1"
       inkscape:persp3d-origin="60.854164 : 17.7554 : 1"
       id="perspective69-2" /><inkscape:perspective
       sodipodi:type="inkscape:persp3d"
       inkscape:vp_x="-2.1166666 : 139.55193 : 1"
       inkscape:vp_y="0 : 1000 : 0"
       inkscape:vp_z="128.58749 : 40.333178 : 1"
       inkscape:persp3d-origin="60.854164 : 17.7554 : 1"
       id="perspective69-7" /></defs><g
     inkscape:label="Layer 1"
     inkscape:groupmode="layer"
     id="layer1"><circle
       style="fill:#dddddd;fill-opacity:1;stroke-width:2.11667;stroke-linecap:round;stroke-linejoin:round"
       id="path4"
       cx="67.73333"
       cy="67.73333"
       r="67.73333" /><path
       d="m 102.62995,87.639468 c -5.837219,2.81017 -11.681849,5.62033 -17.514979,8.68597 -2.28691,1.27734 -3.14049,28.315492 -2.92257,30.870182 0.10644,1.53282 -0.46263,3.57658 1.12634,4.59845 1.50959,0.76641 3.27946,0.25547 4.91829,0.51094 14.419129,-9.12915 30.087279,-8.65851 41.375609,-41.850732 0.17707,-0.520663 -4.65013,-1.92741 -6.5449,-2.81481 h -20.43756 z"
       fill="#c0392b"
       id="path1-5"
       style="fill:#d9831f;fill-opacity:1;stroke-width:8.81942"
       sodipodi:nodetypes="cccccsccc" /><path
       d="m 102.62995,87.639468 c -0.83232,0.25547 -1.64215,0.76641 -2.47498,1.27735 0.50302,4.85392 5.97057,8.94143 12.69376,8.94143 6.75973,0 12.2421,-4.08751 12.69428,-9.1969 -0.82261,-0.25547 -1.65544,-0.76641 -2.4755,-1.02188 z"
       fill="#ecf0f1"
       id="path2-62"
       style="stroke-width:8.81942" /><rect
       height="12.773474"
       width="15.328168"
       y="79.975449"
       x="105.18465"
       fill="#95a5a6"
       id="rect2"
       style="fill:#d4aa00;stroke-width:8.81942" /><path
       d="m 112.84873,46.764355 c -7.56854,0 -13.841329,6.871873 -15.088529,15.887135 -0.28996,-0.07919 -0.61339,-0.16631 -0.87831,-0.07996 -1.34147,0.436853 -1.67205,2.985161 -0.79834,5.668102 0.51273,1.574458 1.36574,2.813996 2.23536,3.512705 1.983209,7.709557 7.702399,13.332441 14.529819,13.332441 6.82615,0 12.54611,-5.622884 14.53111,-13.332441 0.86859,-0.698965 1.72186,-1.938503 2.2328,-3.512705 0.8737,-2.682941 0.54414,-5.231249 -0.79707,-5.668102 -0.26568,-0.08635 -0.58758,7.67e-4 -0.87881,0.07996 -1.24669,-9.015517 -7.51847,-15.887135 -15.08803,-15.887135 z"
       fill="#bdc3c7"
       id="path3-9"
       style="fill:#ffe680;stroke-width:8.81942" /><path
       d="m 112.79764,46.764355 c -5.21873,-0.255469 -10.06192,3.321104 -12.72238,8.175024 -1.354499,2.299225 -2.258099,5.109389 -2.656369,7.664084 0.85429,-0.25547 1.53333,0.255469 2.30689,-0.766409 1.606899,-1.532817 2.320679,-2.810164 2.904169,-4.85392 0.99659,-2.299225 3.176,-5.875798 5.10939,-5.109389 1.77041,0.510939 2.5547,1.532817 5.10939,1.532817 2.5547,0 3.33899,-1.021878 5.10939,-1.532817 1.93391,-0.766409 4.11306,2.810164 5.10939,5.109389 0.58247,2.043756 1.1956,3.321103 2.8025,4.85392 0.77407,1.021878 1.45362,0.510939 2.30689,0.766409 -0.39853,-2.554695 -1.30289,-5.364859 -2.65688,-7.664084 -2.65944,-4.85392 -7.50314,-8.430493 -12.72238,-8.175024 z"
       fill="#f39c12"
       id="path4-1"
       style="fill:#483e37;stroke-width:8.81942" /><path
       d="m 102.62995,87.639468 c 0,4.23313 4.57521,7.66409 10.21878,7.66409 5.64332,0 10.21878,-3.43096 10.21878,-7.66409 z"
       fill="#95a5a6"
       id="path5-2"
       style="fill:#d4aa00;fill-opacity:1;stroke-width:8.81942" /><path
       d="m 40.973189,88.916818 c 6.60086,2.766882 16.080809,4.506322 26.756284,4.506322 10.675475,0 20.156777,-1.73944 26.758538,-4.506322 H 40.970936 Z"
       fill="#d35400"
       id="path1-3"
       style="fill:#333333;fill-opacity:1;stroke-width:8.81943" /><path
       d="m 45.197866,48.359924 h 45.063215 l 4.506322,40.556894 H 40.691544 Z"
       fill="#d35400"
       id="path2-6"
       style="fill:#333333;fill-opacity:1;stroke-width:8.81943" /><path
       d="m 38.21679,87.639471 c 5.83722,2.810164 11.68185,5.620328 17.51498,8.685962 2.28691,1.277347 3.14049,28.315497 2.92257,30.870187 -0.10644,1.53282 0.46263,3.57658 -1.12634,4.59845 -1.50959,0.76641 -3.27946,0.25547 -4.91829,0.51094 C 36.279442,122.09957 18.045267,119.25862 5.4854108,94.468882 5.236858,93.978306 15.88423,88.526866 17.779,87.639471 h 20.43756 z"
       fill="#c0392b"
       id="path9"
       style="fill:#469408;fill-opacity:1;stroke-width:8.81942"
       sodipodi:nodetypes="cccccsccc" /><path
       d="m 38.21656,87.639471 c 0.83232,0.255469 1.64215,0.766408 2.47498,1.277347 -0.50302,4.85392 -5.97057,8.941431 -12.69376,8.941431 -6.75973,0 -12.2421,-4.087511 -12.69428,-9.1969 0.82261,-0.25547 1.65544,-0.766409 2.4755,-1.021878 z"
       fill="#ecf0f1"
       id="path10"
       style="stroke-width:8.81942" /><rect
       height="12.773474"
       width="15.328168"
       y="79.975456"
       x="-35.661854"
       fill="#95a5a6"
       id="rect10"
       style="fill:#6c5d53;stroke-width:8.81942"
       transform="scale(-1,1)" /><path
       d="m 27.99778,46.764355 c 7.56854,0 13.84133,6.871873 15.08853,15.887135 0.28996,-0.07919 0.61339,-0.16631 0.87831,-0.07996 1.34147,0.436853 1.67205,2.985161 0.79834,5.668102 -0.51273,1.574458 -1.36574,2.813996 -2.23536,3.512705 -1.98321,7.709557 -7.7024,13.332441 -14.52982,13.332441 -6.82615,0 -12.54611,-5.622884 -14.53111,-13.332441 -0.86859,-0.698965 -1.72186,-1.938503 -2.2328,-3.512705 -0.8737,-2.682941 -0.54414,-5.231249 0.79707,-5.668102 0.26568,-0.08635 0.58758,7.67e-4 0.87881,0.07996 1.24669,-9.015517 7.51847,-15.887135 15.08803,-15.887135 z"
       fill="#bdc3c7"
       id="path11"
       style="fill:#917c6f;stroke-width:8.81942" /><path
       d="m 28.04887,46.764355 c 5.21873,-0.255469 10.06192,3.321104 12.72238,8.175024 1.3545,2.299225 2.2581,5.109389 2.65637,7.664084 -0.85429,-0.25547 -1.53333,0.255469 -2.30689,-0.766409 -1.6069,-1.532817 -2.32068,-2.810164 -2.90417,-4.85392 -0.99659,-2.299225 -3.176,-5.875798 -5.10939,-5.109389 -1.77041,0.510939 -2.5547,1.532817 -5.10939,1.532817 -2.5547,0 -3.33899,-1.021878 -5.10939,-1.532817 -1.93391,-0.766409 -4.11306,2.810164 -5.10939,5.109389 -0.58247,2.043756 -1.1956,3.321103 -2.8025,4.85392 -0.77407,1.021878 -1.45362,0.510939 -2.30689,0.766409 0.39853,-2.554695 1.30289,-5.364859 2.65688,-7.664084 2.65944,-4.85392 7.50314,-8.430493 12.72238,-8.175024 z"
       fill="#f39c12"
       id="path12"
       style="fill:#483e37;stroke-width:8.81942" /><path
       d="m 38.21656,87.63947 c 0,4.233129 -4.57521,7.664084 -10.21878,7.664084 -5.64332,0 -10.21878,-3.430955 -10.21878,-7.664084 z"
       fill="#95a5a6"
       id="path13"
       style="fill:#6c5d53;fill-opacity:1;stroke-width:8.81942" /><path
       d="m 49.704187,97.929462 c -10.296494,4.956968 -28.699156,18.828328 -28.699156,18.828328 39.085418,29.96815 72.018846,18.70887 94.088289,-0.61097 0,0 -18.361683,-13.07664 -29.338155,-18.217358 H 49.704592 Z"
       fill="#16a085"
       id="path3"
       style="fill:#007bff;fill-opacity:1;stroke-width:8.81943"
       sodipodi:nodetypes="cccccc" /><rect
       height="22.531609"
       width="27.037931"
       y="84.410606"
       x="54.210506"
       fill="#95a5a6"
       id="rect3"
       style="fill:#deaa87;stroke-width:8.81943" /><path
       d="m 67.729473,25.828317 c -13.350429,0 -24.41525,12.167067 -26.615236,27.939192 -0.511468,0 -1.081968,-0.450631 -1.549273,-0.450631 -2.36627,0.901264 -2.949388,5.407586 -1.408225,10.364538 0.904417,2.703795 2.409079,4.956955 3.943031,5.858218 3.498257,13.969598 13.586558,23.883506 25.629703,23.883506 12.040892,0 22.130545,-9.913908 25.631958,-23.883506 1.532149,-0.901263 3.037259,-3.154423 3.938527,-5.858218 1.541159,-4.956952 0.959841,-9.463274 -1.405975,-10.364538 -0.468657,0 -1.036454,0.450631 -1.550175,0.450631 C 92.144724,37.995384 81.081704,25.828317 67.729473,25.828317 Z"
       fill="#bdc3c7"
       id="path4-7"
       style="fill:#ffccaa;stroke-width:8.81943" /><path
       d="M 49.704187,97.929462 C 47.852104,118.2304 67.729473,133.98011 67.729473,133.98011 85.903697,122.40275 85.754759,105.26578 85.754759,97.929462 Z"
       fill="#ecf0f1"
       id="path5-5"
       style="stroke-width:8.81943"
       sodipodi:nodetypes="cccc" /><path
       d="m 67.729473,25.828317 c -16.166428,0 -32.117005,16.222756 -31.54425,31.544251 -0.232075,9.913905 4.504068,20.729078 4.678012,30.642986 4.717217,-5.858218 4.551384,-13.068333 4.359415,-20.278447 0.957593,-4.956954 0.04687,-12.167068 4.481537,-14.870861 C 60.402195,47.45866 66.913829,37.094121 70.406228,25.828317 Z"
       fill="#f39c12"
       id="path6-3"
       style="fill:#a1a1a1;fill-opacity:1;stroke-width:8.81943" /><path
       d="m 49.704187,97.929462 c 0,6.308868 8.070371,27.037998 18.025286,27.037998 9.954465,0 18.025286,-20.72913 18.025286,-27.037998 z"
       fill="#95a5a6"
       id="path7"
       style="fill:#deaa87;stroke-width:8.81943" /><path
       d="m 67.729473,25.828317 c 16.164176,0 32.116556,16.222756 31.544247,31.544251 0.229824,9.913905 -4.501812,20.729078 -4.677558,30.642986 C 89.878044,82.157336 90.044778,74.947221 90.234042,67.737107 89.278704,62.780153 90.188979,55.570039 85.754759,52.866246 75.056752,47.45866 68.545118,37.094121 65.052718,25.828317 Z"
       fill="#e67e22"
       id="path8"
       style="fill:#777777;fill-opacity:1;stroke-width:8.81943" /><path
       style="baseline-shift:baseline;display:inline;overflow:visible;vector-effect:none;fill:#444444;stroke-linecap:round;stroke-linejoin:round;enable-background:accumulate;stop-color:#000000;stop-opacity:1;opacity:1"
       d="M 67.732422,0 C 30.336868,0 0,30.336868 0,67.732422 0,105.12798 30.336868,135.4668 67.732422,135.4668 105.12798,135.4668 135.4668,105.12798 135.4668,67.732422 135.4668,30.336868 105.12798,0 67.732422,0 Z m 0,2.1171875 c 36.251618,0 65.617188,29.3636135 65.617188,65.6152345 0,36.251618 -29.36557,65.617188 -65.617188,65.617188 -36.251621,0 -65.6152345,-29.36557 -65.6152345,-65.617188 0,-36.251621 29.3636135,-65.6152345 65.6152345,-65.6152345 z"
       id="path1" /></g></svg>
