<?xml version="1.0" encoding="UTF-8" standalone="no"?>
<!-- Created with Inkscape (http://www.inkscape.org/) -->

<svg
   width="512"
   height="512"
   viewBox="0 0 135.46666 135.46667"
   version="1.1"
   id="svg1"
   inkscape:version="1.4.3 (0d15f75042, 2025-12-25)"
   sodipodi:docname="groups-logo.svg"
   xml:space="preserve"
   xmlns:inkscape="http://www.inkscape.org/namespaces/inkscape"
   xmlns:sodipodi="http://sodipodi.sourceforge.net/DTD/sodipodi-0.dtd"
   xmlns="http://www.w3.org/2000/svg"
   xmlns:svg="http://www.w3.org/2000/svg"><sodipodi:namedview
     id="namedview1"
     pagecolor="#ffffff"
     bordercolor="#000000"
     borderopacity="0.25"
     inkscape:showpageshadow="false"
     inkscape:pageopacity="0.0"
     inkscape:pagecheckerboard="0"
     inkscape:deskcolor="#d1d1d1"
     inkscape:document-units="px"
     inkscape:zoom="0.7071068"
     inkscape:cx="-444.06305"
     inkscape:cy="192.33304"
     inkscape:window-width="2518"
     inkscape:window-height="1404"
     inkscape:window-x="2602"
     inkscape:window-y="0"
     inkscape:window-maximized="1"
     inkscape:current-layer="layer1" /><defs
     id="defs1"><inkscape:perspective
       sodipodi:type="inkscape:persp3d"
       inkscape:vp_x="-2.1166666 : 139.55193 : 1"
       inkscape:vp_y="0 : 1000 : 0"
       inkscape:vp_z="128.58749 : 40.333178 : 1"
       inkscape:persp3d-origin="60.854164 : 17.7554 : 1"
       id="perspective69" /><linearGradient
       id="linearGradient841"
       y2="461.2496"
       y1="381.08466"
       x2="290.91505"
       x1="185.41303"
       gradientTransform="matrix(0.33925388,0,0,0.20634794,6.82096,14.11287)"
       gradientUnits="userSpaceOnUse"><stop
         id="stop839"
         style="stop-color:#000000;stop-opacity:.6667"
         offset="0" /><stop
         id="stop840"
         style="stop-color:#003a00;stop-opacity:.1176"
         offset="1" /></linearGradient><linearGradient
       id="linearGradient882"
       y2="324.68274"
       y1="157.96686"
       x2="312.29534"
       x1="207.02526"
       gradientTransform="matrix(0.25245216,0,0,0.27729743,6.82096,14.11287)"
       gradientUnits="userSpaceOnUse"><stop
         id="stop884"
         style="stop-color:#ffffff;stop-opacity:1"
         offset="0" /><stop
         id="stop885"
         style="stop-color:#29abe0;stop-opacity:1"
         offset="1" /></linearGradient><linearGradient
       id="linearGradient886"
       y2="7.5225039"
       y1="7.5225039"
       x1="7.7122393"
       gradientTransform="matrix(0.26207804,0,0,0.26711256,6.82096,14.11287)"
       x2="416.12694"
       gradientUnits="userSpaceOnUse"><stop
         id="stop888"
         style="stop-color:#325d88;stop-opacity:1"
         offset="0" /><stop
         id="stop889"
         style="stop-color:#29abe0;stop-opacity:1"
         offset="1" /></linearGradient></defs><g
     inkscape:label="Layer 1"
     inkscape:groupmode="layer"
     id="layer1"><path
       d="m 26.98269,78.931955 c 5.83722,2.810164 11.68185,5.620328 17.51498,8.685962 2.28691,1.277347 3.14049,28.315493 2.92257,30.870183 -0.10644,1.53282 0.46263,3.57658 -1.12634,4.59845 -1.50959,0.76641 -3.27946,0.25547 -4.91829,0.51094 H 0 V 81.746762 C -1e-5,81.196814 4.65013,79.81935 6.5449,78.931955 h 20.43756 z"
       fill="#c0392b"
       id="path9"
       style="fill:#93c54b;fill-opacity:1;stroke-width:8.81942"
       sodipodi:nodetypes="ccccccsccc" /><path
       d="m 26.98269,78.931955 c 0.83232,0.255469 1.64215,0.766408 2.47498,1.277347 -0.50302,4.85392 -5.97057,8.941431 -12.69376,8.941431 -6.75973,0 -12.2421,-4.087511 -12.69428,-9.1969 0.82261,-0.25547 1.65544,-0.766409 2.4755,-1.021878 z"
       fill="#ecf0f1"
       id="path10"
       style="stroke-width:8.81942" /><rect
       height="12.773474"
       width="15.328168"
       y="71.267937"
       x="-24.427986"
       fill="#95a5a6"
       id="rect10"
       style="fill:#6c5d53;stroke-width:8.81942"
       transform="scale(-1,1)" /><path
       d="m 16.76391,38.056839 c 7.56854,0 13.84133,6.871873 15.08853,15.887135 0.28996,-0.07919 0.61339,-0.16631 0.87831,-0.07996 1.34147,0.436853 1.67205,2.985161 0.79834,5.668102 -0.51273,1.574458 -1.36574,2.813996 -2.23536,3.512705 -1.98321,7.709557 -7.7024,13.332441 -14.52982,13.332441 C 9.93776,76.377262 4.2178,70.754378 2.2328,63.044821 1.36421,62.345856 0.51094,61.106318 0,59.532116 c -0.8737,-2.682941 -0.54414,-5.231249 0.79707,-5.668102 0.26568,-0.08635 0.58758,7.67e-4 0.87881,0.07996 1.24669,-9.015517 7.51847,-15.887135 15.08803,-15.887135 z"
       fill="#bdc3c7"
       id="path11"
       style="fill:#917c6f;stroke-width:8.81942" /><path
       d="m 16.815,38.056839 c 5.21873,-0.255469 10.06192,3.321104 12.72238,8.175024 1.3545,2.299225 2.2581,5.109389 2.65637,7.664084 -0.85429,-0.25547 -1.53333,0.255469 -2.30689,-0.766409 -1.6069,-1.532817 -2.32068,-2.810164 -2.90417,-4.85392 -0.99659,-2.299225 -3.176,-5.875798 -5.10939,-5.109389 -1.77041,0.510939 -2.5547,1.532817 -5.10939,1.532817 -2.5547,0 -3.33899,-1.021878 -5.10939,-1.532817 -1.93391,-0.766409 -4.11306,2.810164 -5.10939,5.109389 -0.58247,2.043756 -1.1956,3.321103 -2.8025,4.85392 -0.77407,1.021878 -1.45362,0.510939 -2.30689,0.766409 0.39853,-2.554695 1.30289,-5.364859 2.65688,-7.664084 2.65944,-4.85392 7.50314,-8.430493 12.72238,-8.175024 z"
       fill="#f39c12"
       id="path12"
       style="fill:#483e37;stroke-width:8.81942" /><path
       d="m 26.98269,78.931954 c 0,4.233129 -4.57521,7.664084 -10.21878,7.664084 -5.64332,0 -10.21878,-3.430955 -10.21878,-7.664084 z"
       fill="#95a5a6"
       id="path13"
       style="fill:#6c5d53;fill-opacity:1;stroke-width:8.81942" /><g
       id="g3"><path
         d="m 108.48397,78.931955 c -5.83722,2.810164 -11.68185,5.620328 -17.51498,8.685962 -2.28691,1.277347 -3.14049,28.315493 -2.92257,30.870183 0.10644,1.53282 -0.46263,3.57658 1.12634,4.59845 1.50959,0.76641 3.27946,0.25547 4.91829,0.51094 h 41.37561 l 0,-41.850728 c 1e-5,-0.549948 -4.65013,-1.927412 -6.5449,-2.814807 H 108.4842 Z"
         fill="#c0392b"
         id="path1-5"
         style="fill:#f47c3c;fill-opacity:1;stroke-width:8.81942"
         sodipodi:nodetypes="ccccccsccc" /><path
         d="m 108.48397,78.931955 c -0.83232,0.255469 -1.64215,0.766408 -2.47498,1.277347 0.50302,4.85392 5.97057,8.941431 12.69376,8.941431 6.75973,0 12.2421,-4.087511 12.69428,-9.1969 -0.82261,-0.25547 -1.65544,-0.766409 -2.4755,-1.021878 z"
         fill="#ecf0f1"
         id="path2-62"
         style="stroke-width:8.81942" /><rect
         height="12.773474"
         width="15.328168"
         y="71.267937"
         x="111.03867"
         fill="#95a5a6"
         id="rect2"
         style="fill:#d4aa00;stroke-width:8.81942" /><path
         d="m 118.70275,38.056839 c -7.56854,0 -13.84133,6.871873 -15.08853,15.887135 -0.28996,-0.07919 -0.61339,-0.16631 -0.87831,-0.07996 -1.34147,0.436853 -1.67205,2.985161 -0.79834,5.668102 0.51273,1.574458 1.36574,2.813996 2.23536,3.512705 1.98321,7.709557 7.7024,13.332441 14.52982,13.332441 6.82615,0 12.54611,-5.622884 14.53111,-13.332441 0.86859,-0.698965 1.72186,-1.938503 2.2328,-3.512705 0.8737,-2.682941 0.54414,-5.231249 -0.79707,-5.668102 -0.26568,-0.08635 -0.58758,7.67e-4 -0.87881,0.07996 -1.24669,-9.015517 -7.51847,-15.887135 -15.08803,-15.887135 z"
         fill="#bdc3c7"
         id="path3-9"
         style="fill:#ffe680;stroke-width:8.81942" /><path
         d="m 118.65166,38.056839 c -5.21873,-0.255469 -10.06192,3.321104 -12.72238,8.175024 -1.3545,2.299225 -2.2581,5.109389 -2.65637,7.664084 0.85429,-0.25547 1.53333,0.255469 2.30689,-0.766409 1.6069,-1.532817 2.32068,-2.810164 2.90417,-4.85392 0.99659,-2.299225 3.176,-5.875798 5.10939,-5.109389 1.77041,0.510939 2.5547,1.532817 5.10939,1.532817 2.5547,0 3.33899,-1.021878 5.10939,-1.532817 1.93391,-0.766409 4.11306,2.810164 5.10939,5.109389 0.58247,2.043756 1.1956,3.321103 2.8025,4.85392 0.77407,1.021878 1.45362,0.510939 2.30689,0.766409 -0.39853,-2.554695 -1.30289,-5.364859 -2.65688,-7.664084 -2.65944,-4.85392 -7.50314,-8.430493 -12.72238,-8.175024 z"
         fill="#f39c12"
         id="path4-1"
         style="fill:#483e37;stroke-width:8.81942" /><path
         d="m 108.48397,78.931954 c 0,4.233129 4.57521,7.664084 10.21878,7.664084 5.64332,0 10.21878,-3.430955 10.21878,-7.664084 z"
         fill="#95a5a6"
         id="path5-2"
         style="fill:#d4aa00;fill-opacity:1;stroke-width:8.81942" /></g><g
       id="g1"
       transform="matrix(1.7845015,0,0,1.7845015,-6.3941218,-58.39162)"
       style="stroke-width:0.560381"><path
         d="m 22.777799,77.040178 c 4.627924,1.939886 11.274405,3.159424 18.75908,3.159424 7.484675,0 14.132104,-1.219538 18.76066,-3.159424 h -37.52132 z"
         fill="#d35400"
         id="path1-3"
         style="fill:#504416;fill-opacity:1;stroke-width:4.94224" /><path
         d="m 25.739759,48.605362 h 31.59424 l 3.159424,28.434816 H 22.580335 Z"
         fill="#d35400"
         id="path2-6"
         style="fill:#504416;fill-opacity:1;stroke-width:4.94224" /><path
         d="m 28.899183,83.359026 c -7.218968,3.475366 -14.447098,6.950732 -21.6610109,10.742041 -2.8282532,1.579712 -3.88388,5.055079 -3.6143811,8.214503 0.1316342,1.89565 -0.5721401,4.42319 1.3929584,5.68696 1.8669353,0.94783 4.0557526,0.31595 6.0825236,0.63189 h 65.513816 c 2.429597,-0.31594 3.074119,-2.84348 2.837162,-4.73914 0.04423,-3.15942 0.214841,-6.318846 -2.078901,-8.530443 -1.867219,-1.895655 -4.533773,-2.843482 -6.814877,-4.107251 -5.459485,-2.52754 -10.922129,-5.371021 -16.381614,-7.89856 H 28.899467 Z"
         fill="#16a085"
         id="path3"
         style="fill:#325d88;fill-opacity:1;stroke-width:4.94224" /><rect
         height="15.79712"
         width="18.956545"
         y="73.880829"
         x="32.058605"
         fill="#95a5a6"
         id="rect3"
         style="fill:#deaa87;stroke-width:4.94224" /><path
         d="m 41.536879,32.808242 c -9.36011,0 -17.117759,8.530444 -18.66019,19.588428 -0.358595,0 -0.758578,-0.315942 -1.08621,-0.315942 -1.659014,0.631885 -2.067843,3.791309 -0.98732,7.266675 0.634096,1.895655 1.689028,3.475367 2.764496,4.107251 2.452661,9.794215 9.525663,16.744948 17.969224,16.744948 8.441981,0 15.515931,-6.950733 17.970804,-16.744948 1.074204,-0.631884 2.129451,-2.211596 2.761336,-4.107251 1.080523,-3.475366 0.672958,-6.63479 -0.98574,-7.266675 -0.32858,0 -0.726668,0.315942 -1.086842,0.315942 C 58.654638,41.338686 50.898252,32.808242 41.536879,32.808242 Z"
         fill="#bdc3c7"
         id="path4-7"
         style="fill:#ffccaa;stroke-width:4.94224" /><path
         d="m 28.899183,83.359026 c 0,5.143542 3.322766,19.013414 7.996502,25.275394 h 9.282388 c 4.672788,-6.26198 7.996502,-20.131852 7.996502,-25.275394 z"
         fill="#ecf0f1"
         id="path5-5"
         style="stroke-width:4.94224" /><path
         d="m 41.536879,32.808242 c -11.334434,0 -22.517531,11.373926 -22.115968,22.115968 -0.16271,6.950732 3.157844,14.53335 3.279798,21.484083 3.307285,-4.107251 3.191018,-9.16233 3.056427,-14.217408 0.671377,-3.475367 0.03286,-8.530445 3.142047,-10.426099 7.500473,-3.791309 12.06584,-11.057984 14.514394,-18.956544 z"
         fill="#f39c12"
         id="path6-3"
         style="fill:#d3bc5f;fill-opacity:1;stroke-width:4.94224" /><path
         d="m 28.899183,83.359026 c 0,4.423193 5.658212,18.956544 12.637696,18.956544 6.979168,0 12.637696,-14.533351 12.637696,-18.956544 z"
         fill="#95a5a6"
         id="path7"
         style="fill:#deaa87;stroke-width:4.94224" /><path
         d="m 41.536879,32.808242 c 11.332854,0 22.517215,11.373926 22.115968,22.115968 0.161131,6.950732 -3.156265,14.53335 -3.279482,21.484083 C 57.065448,72.301042 57.182347,67.245963 57.315042,62.190885 56.645245,58.715518 57.283448,53.66044 54.174575,51.764786 46.674102,47.973477 42.108735,40.706802 39.660181,32.808242 Z"
         fill="#e67e22"
         id="path8"
         style="fill:#a0892c;fill-opacity:1;stroke-width:4.94224" /></g></g></svg>
