<?xml version="1.0" encoding="UTF-8" standalone="no"?>
<!-- Created with Inkscape (http://www.inkscape.org/) -->

<svg
   width="512"
   height="512"
   viewBox="0 0 135.46666 135.46667"
   version="1.1"
   id="svg1"
   inkscape:version="1.4.3 (0d15f75042, 2025-12-25)"
   sodipodi:docname="features-icon.svg"
   xml:space="preserve"
   xmlns:inkscape="http://www.inkscape.org/namespaces/inkscape"
   xmlns:sodipodi="http://sodipodi.sourceforge.net/DTD/sodipodi-0.dtd"
   xmlns="http://www.w3.org/2000/svg"
   xmlns:svg="http://www.w3.org/2000/svg"><sodipodi:namedview
     id="namedview1"
     pagecolor="#ffffff"
     bordercolor="#000000"
     borderopacity="0.25"
     inkscape:showpageshadow="false"
     inkscape:pageopacity="0.0"
     inkscape:pagecheckerboard="0"
     inkscape:deskcolor="#d1d1d1"
     inkscape:document-units="px"
     inkscape:zoom="1"
     inkscape:cx="141"
     inkscape:cy="490"
     inkscape:window-width="2514"
     inkscape:window-height="1404"
     inkscape:window-x="2606"
     inkscape:window-y="0"
     inkscape:window-maximized="1"
     inkscape:current-layer="layer1" /><defs
     id="defs1"><inkscape:perspective
       sodipodi:type="inkscape:persp3d"
       inkscape:vp_x="-2.1166666 : 139.55193 : 1"
       inkscape:vp_y="0 : 1000 : 0"
       inkscape:vp_z="128.58749 : 40.333178 : 1"
       inkscape:persp3d-origin="60.854164 : 17.7554 : 1"
       id="perspective69" /><linearGradient
       id="linearGradient841"
       y2="461.2496"
       y1="381.08466"
       x2="290.91505"
       x1="185.41303"
       gradientTransform="matrix(0.33925388,0,0,0.20634794,6.82096,14.11287)"
       gradientUnits="userSpaceOnUse"><stop
         id="stop839"
         style="stop-color:#000000;stop-opacity:.6667"
         offset="0" /><stop
         id="stop840"
         style="stop-color:#003a00;stop-opacity:.1176"
         offset="1" /></linearGradient><linearGradient
       id="linearGradient882"
       y2="324.68274"
       y1="157.96686"
       x2="312.29534"
       x1="207.02526"
       gradientTransform="matrix(0.25245216,0,0,0.27729743,6.82096,14.11287)"
       gradientUnits="userSpaceOnUse"><stop
         id="stop884"
         style="stop-color:#ffffff;stop-opacity:1"
         offset="0" /><stop
         id="stop885"
         style="stop-color:#29abe0;stop-opacity:1"
         offset="1" /></linearGradient><linearGradient
       id="linearGradient886"
       y2="7.5225039"
       y1="7.5225039"
       x1="7.7122393"
       gradientTransform="matrix(0.26207804,0,0,0.26711256,6.82096,14.11287)"
       x2="416.12694"
       gradientUnits="userSpaceOnUse"><stop
         id="stop888"
         style="stop-color:#325d88;stop-opacity:1"
         offset="0" /><stop
         id="stop889"
         style="stop-color:#29abe0;stop-opacity:1"
         offset="1" /></linearGradient></defs><g
     inkscape:label="Layer 1"
     inkscape:groupmode="layer"
     id="layer1"><path
       style="baseline-shift:baseline;display:inline;overflow:visible;vector-effect:none;fill:#444444;stroke-linecap:round;stroke-linejoin:round;enable-background:accumulate;stop-color:#000000;stop-opacity:1;opacity:1"
       d="M 67.732422,0 C 30.336868,0 0,30.336868 0,67.732422 0,105.12798 30.336868,135.4668 67.732422,135.4668 105.12798,135.4668 135.4668,105.12798 135.4668,67.732422 135.4668,30.336868 105.12798,0 67.732422,0 Z m 0,2.1171875 c 36.251618,0 65.617188,29.3636135 65.617188,65.6152345 0,36.251618 -29.36557,65.617188 -65.617188,65.617188 -36.251621,0 -65.6152345,-29.36557 -65.6152345,-65.617188 0,-36.251621 29.3636135,-65.6152345 65.6152345,-65.6152345 z"
       id="path1" /><g
       id="g1"
       transform="matrix(0.82864715,0,0,0.82864715,199.27713,20.810707)"
       style="stroke-width:1.20678"><rect
         style="fill:#cccccc;fill-opacity:1;stroke:none;stroke-width:0.319295;stroke-linecap:square;stroke-linejoin:round;stroke-dasharray:none"
         id="rect1"
         width="95.788658"
         height="95.788658"
         x="-206.63957"
         y="8.7312508"
         rx="5.2916665"
         ry="5.2916665" /><path
         id="rect2"
         style="fill:#d9230f;stroke-width:0.319295;stroke-linecap:square;stroke-linejoin:round"
         d="m -201.34791,8.7312507 h 85.20532 c 2.93159,0 5.29167,2.3600833 5.29167,5.2916663 v 12.989098 c 0,0.003 -95.78866,0 -95.78866,0 V 14.022917 c 0,-2.931583 2.36009,-5.2916663 5.29167,-5.2916663 z"
         sodipodi:nodetypes="sssccss" /><path
         style="font-weight:bold;font-stretch:condensed;font-size:14.7935px;font-family:'Barlow Condensed';-inkscape-font-specification:'Barlow Condensed,  Bold Condensed';letter-spacing:0px;fill:#ffffff;stroke-width:0.319295;stroke-linecap:square;stroke-linejoin:round"
         d="m -187.27528,13.012912 q 0,-0.07397 0.0444,-0.118348 0.0592,-0.05917 0.13315,-0.05917 h 1.71604 q 0.074,0 0.11835,0.05917 0.0592,0.04438 0.0592,0.118348 v 10.000406 q 0,0.07397 -0.0592,0.133141 -0.0444,0.04438 -0.11835,0.04438 h -1.95274 q -0.14793,0 -0.19231,-0.147935 l -1.8344,-5.725085 q -0.0148,-0.04438 -0.0592,-0.02959 -0.0296,0 -0.0296,0.04438 l 0.0148,5.680704 q 0,0.07397 -0.0592,0.133141 -0.0444,0.04438 -0.11835,0.04438 h -1.71604 q -0.074,0 -0.13314,-0.04438 -0.0444,-0.05917 -0.0444,-0.133141 V 13.012912 q 0,-0.07397 0.0444,-0.118348 0.0592,-0.05917 0.13314,-0.05917 h 1.93795 q 0.14793,0 0.19231,0.147935 l 1.84919,5.725084 q 0.0148,0.04438 0.0444,0.04438 0.0444,-0.01479 0.0444,-0.05917 z"
         id="path3-1" /><path
         style="font-weight:bold;font-stretch:condensed;font-size:14.7935px;font-family:'Barlow Condensed';-inkscape-font-specification:'Barlow Condensed,  Bold Condensed';letter-spacing:0px;fill:#ffffff;stroke-width:0.319295;stroke-linecap:square;stroke-linejoin:round"
         d="m -194.73119,23.19084 q -0.074,0 -0.13314,-0.04438 -0.0444,-0.05917 -0.0444,-0.133141 V 13.012912 q 0,-0.07397 0.0444,-0.118348 0.0592,-0.05917 0.13314,-0.05917 h 1.73084 q 0.074,0 0.11835,0.05917 0.0592,0.04438 0.0592,0.118348 v 10.000406 q 0,0.07397 -0.0592,0.133141 -0.0444,0.04438 -0.11835,0.04438 z"
         id="path2" /><path
         style="font-weight:bold;font-stretch:condensed;font-size:14.7935px;font-family:'Barlow Condensed';-inkscape-font-specification:'Barlow Condensed,  Bold Condensed';letter-spacing:0px;fill:#ffffff;stroke-width:0.319295;stroke-linecap:square;stroke-linejoin:round"
         d="m -198.8142,23.309188 q -0.85802,0 -1.50894,-0.340251 -0.65091,-0.34025 -1.00596,-0.946784 -0.35504,-0.621327 -0.35504,-1.420176 v -0.429011 q 0,-0.07397 0.0444,-0.118348 0.0592,-0.05917 0.13314,-0.05917 h 1.70125 q 0.074,0 0.11835,0.05917 0.0592,0.04438 0.0592,0.118348 v 0.325457 q 0,0.458598 0.2367,0.739675 0.23669,0.281076 0.59174,0.281076 0.35504,0 0.59174,-0.266283 0.23669,-0.266283 0.23669,-0.695294 0,-0.443805 -0.29587,-0.754469 -0.29587,-0.325457 -1.15389,-0.946784 -0.73967,-0.532566 -1.19827,-0.946784 -0.4586,-0.414218 -0.78406,-1.020751 -0.32546,-0.606534 -0.32546,-1.405383 0,-1.257447 0.78406,-2.011916 0.78406,-0.754468 2.07109,-0.754468 1.30183,0 2.08588,0.784055 0.79885,0.784056 0.79885,2.056297 v 0.355044 q 0,0.07397 -0.0592,0.133141 -0.0444,0.04438 -0.11835,0.04438 h -1.70125 q -0.074,0 -0.13314,-0.04438 -0.0444,-0.05917 -0.0444,-0.133141 v -0.399425 q 0,-0.458598 -0.2367,-0.724881 -0.2219,-0.281077 -0.59174,-0.281077 -0.35504,0 -0.57694,0.266283 -0.2219,0.25149 -0.2219,0.710088 0,0.443805 0.28107,0.784056 0.28108,0.34025 1.10951,0.946784 0.9172,0.680501 1.3758,1.109512 0.47339,0.414218 0.72488,0.931991 0.26628,0.502979 0.26628,1.213067 0,1.301828 -0.79884,2.07109 -0.79885,0.769262 -2.10068,0.769262 z"
         id="text2" /><path
         id="rect4"
         style="fill:#ffffff;stroke-width:0.319295;stroke-linecap:square;stroke-linejoin:round"
         d="m -195.0111,41.79523 h 72.53171 c 0.58631,0 1.05833,0.472017 1.05833,1.058334 v 8.921564 c 0,0.586317 -0.47202,1.058333 -1.05833,1.058333 h -72.53171 c -0.58632,0 -1.05834,-0.472016 -1.05834,-1.058333 v -8.921564 c 0,-0.586317 0.47202,-1.058334 1.05834,-1.058334 z" /><path
         id="rect5"
         style="fill:#d9230f;stroke-width:0.319295;stroke-linecap:square;stroke-linejoin:round"
         d="m -195.0111,41.79523 h 12.53744 v 11.038231 h -12.53744 c -0.58632,0 -1.05834,-0.472016 -1.05834,-1.058333 v -8.921564 c 0,-0.586317 0.47202,-1.058334 1.05834,-1.058334 z"
         sodipodi:nodetypes="sccssss" /><path
         id="path5"
         style="fill:#ffffff;stroke-width:0.319295;stroke-linecap:square;stroke-linejoin:round"
         d="m -195.0111,58.199405 h 72.53171 c 0.58631,0 1.05833,0.47202 1.05833,1.05834 v 8.92156 c 0,0.58632 -0.47202,1.05833 -1.05833,1.05833 h -72.53171 c -0.58632,0 -1.05834,-0.47201 -1.05834,-1.05833 v -8.92156 c 0,-0.58632 0.47202,-1.05834 1.05834,-1.05834 z" /><path
         id="path6"
         style="fill:#d9230f;stroke-width:0.319295;stroke-linecap:square;stroke-linejoin:round"
         d="m -195.0111,58.199405 h 12.53744 v 11.03823 h -12.53744 c -0.58632,0 -1.05834,-0.47201 -1.05834,-1.05833 v -8.92156 c 0,-0.58632 0.47202,-1.05834 1.05834,-1.05834 z"
         sodipodi:nodetypes="sccssss" /><path
         id="path9"
         style="fill:#ffffff;stroke-width:0.319295;stroke-linecap:square;stroke-linejoin:round"
         d="m -195.0111,74.603585 h 72.53171 c 0.58631,0 1.05833,0.47202 1.05833,1.05833 v 8.92157 c 0,0.58631 -0.47202,1.05833 -1.05833,1.05833 h -72.53171 c -0.58632,0 -1.05834,-0.47202 -1.05834,-1.05833 v -8.92157 c 0,-0.58631 0.47202,-1.05833 1.05834,-1.05833 z" /><path
         id="path10"
         style="fill:#d9230f;stroke-width:0.319295;stroke-linecap:square;stroke-linejoin:round"
         d="m -195.0111,74.603585 h 12.53744 v 11.03823 h -12.53744 c -0.58632,0 -1.05834,-0.47202 -1.05834,-1.05833 v -8.92157 c 0,-0.58631 0.47202,-1.05833 1.05834,-1.05833 z"
         sodipodi:nodetypes="sccssss" /></g></g></svg>
