<?xml version="1.0" encoding="UTF-8" standalone="no"?>
<!-- Created with Inkscape (http://www.inkscape.org/) -->

<svg
   width="512"
   height="512"
   viewBox="0 0 135.46666 135.46667"
   version="1.1"
   id="svg1"
   inkscape:version="1.4.3 (0d15f75042, 2025-12-25)"
   sodipodi:docname="features-logo.svg"
   xml:space="preserve"
   xmlns:inkscape="http://www.inkscape.org/namespaces/inkscape"
   xmlns:sodipodi="http://sodipodi.sourceforge.net/DTD/sodipodi-0.dtd"
   xmlns="http://www.w3.org/2000/svg"
   xmlns:svg="http://www.w3.org/2000/svg"><sodipodi:namedview
     id="namedview1"
     pagecolor="#ffffff"
     bordercolor="#000000"
     borderopacity="0.25"
     inkscape:showpageshadow="false"
     inkscape:pageopacity="0.0"
     inkscape:pagecheckerboard="0"
     inkscape:deskcolor="#d1d1d1"
     inkscape:document-units="px"
     inkscape:zoom="0.7071068"
     inkscape:cx="114.5513"
     inkscape:cy="428.5067"
     inkscape:window-width="2518"
     inkscape:window-height="1404"
     inkscape:window-x="2602"
     inkscape:window-y="0"
     inkscape:window-maximized="1"
     inkscape:current-layer="layer1" /><defs
     id="defs1"><inkscape:perspective
       sodipodi:type="inkscape:persp3d"
       inkscape:vp_x="-2.1166666 : 139.55193 : 1"
       inkscape:vp_y="0 : 1000 : 0"
       inkscape:vp_z="128.58749 : 40.333178 : 1"
       inkscape:persp3d-origin="60.854164 : 17.7554 : 1"
       id="perspective69" /><linearGradient
       id="linearGradient841"
       y2="461.2496"
       y1="381.08466"
       x2="290.91505"
       x1="185.41303"
       gradientTransform="matrix(0.33925388,0,0,0.20634794,6.82096,14.11287)"
       gradientUnits="userSpaceOnUse"><stop
         id="stop839"
         style="stop-color:#000000;stop-opacity:.6667"
         offset="0" /><stop
         id="stop840"
         style="stop-color:#003a00;stop-opacity:.1176"
         offset="1" /></linearGradient><linearGradient
       id="linearGradient882"
       y2="324.68274"
       y1="157.96686"
       x2="312.29534"
       x1="207.02526"
       gradientTransform="matrix(0.25245216,0,0,0.27729743,6.82096,14.11287)"
       gradientUnits="userSpaceOnUse"><stop
         id="stop884"
         style="stop-color:#ffffff;stop-opacity:1"
         offset="0" /><stop
         id="stop885"
         style="stop-color:#29abe0;stop-opacity:1"
         offset="1" /></linearGradient><linearGradient
       id="linearGradient886"
       y2="7.5225039"
       y1="7.5225039"
       x1="7.7122393"
       gradientTransform="matrix(0.26207804,0,0,0.26711256,6.82096,14.11287)"
       x2="416.12694"
       gradientUnits="userSpaceOnUse"><stop
         id="stop888"
         style="stop-color:#325d88;stop-opacity:1"
         offset="0" /><stop
         id="stop889"
         style="stop-color:#29abe0;stop-opacity:1"
         offset="1" /></linearGradient></defs><g
     inkscape:label="Layer 1"
     inkscape:groupmode="layer"
     id="layer1"><path
       style="fill:#bfbb9c;fill-opacity:1;stroke:none;stroke-width:12.1709;stroke-linecap:square;stroke-linejoin:round"
       d="M 0.18553733,0.4676461 10.016062,6.7714846 9.8305254,135.46666 -2.2404751e-8,129.16281 Z"
       id="path3"
       sodipodi:nodetypes="ccccc" /><path
       style="fill:#d10000;fill-opacity:1;stroke:none;stroke-width:12.1709;stroke-linecap:square;stroke-linejoin:round"
       d="M 0,0 10.016062,6.7714846 9.8618847,30.418539 0.03135967,24.1147 Z"
       id="path5"
       sodipodi:nodetypes="ccccc" /><path
       style="fill:#ffadad;fill-opacity:1;stroke:none;stroke-width:12.1709;stroke-linecap:square;stroke-linejoin:round"
       d="M 125.85802,0 135.46666,6.637141 10.016062,6.771483 0,0 Z"
       id="path7"
       sodipodi:nodetypes="ccccc" /><path
       style="fill:#ff0000;stroke-width:0.499999;stroke-linecap:square;fill-opacity:1"
       d="M 10.016062,6.7714846 9.8618846,30.41854 H 135.46666 V 6.6371411 Z"
       id="path8" /><path
       style="fill:#dfd7ca;fill-opacity:1;stroke-width:0.499999;stroke-linecap:square"
       d="M 9.8618846,30.41854 9.8305256,135.46666 H 135.46666 V 30.41854 Z"
       id="path9" /><path
       style="font-style:italic;font-weight:900;font-stretch:condensed;font-size:22.6568px;font-family:'Barlow Condensed';-inkscape-font-specification:'Barlow Condensed,  Heavy Italic Condensed';letter-spacing:0px;fill:#f9f9f9;stroke-width:0.5;stroke-linecap:square"
       d="m 38.614269,10.996028 q 0.02266,-0.158597 0.113284,-0.249224 0.113284,-0.09063 0.271881,-0.09063 h 3.421177 q 0.158598,0 0.226568,0.09063 0.09063,0.09063 0.06797,0.249224 l -1.880514,15.180056 q -0.02266,0.158598 -0.113284,0.249225 -0.09063,0.09063 -0.249225,0.09063 H 36.5525 q -0.271882,0 -0.317195,-0.294538 L 35.374346,19.26576 q 0,-0.06797 -0.04531,-0.06797 -0.04531,0 -0.04531,0.06797 l -0.815644,6.910324 q -0.02266,0.158598 -0.135941,0.249225 -0.09063,0.09063 -0.226568,0.09063 h -3.443834 q -0.135941,0 -0.226568,-0.09063 -0.06797,-0.09063 -0.04531,-0.249225 l 1.857857,-15.180056 q 0.02266,-0.158597 0.113284,-0.249224 0.113284,-0.09063 0.249225,-0.09063 h 3.874313 q 0.271881,0 0.317195,0.294539 l 0.883615,7.000951 q 0,0.06797 0.04531,0.04531 0.04531,-0.02266 0.06797,-0.06797 z"
       id="path11" /><path
       style="font-style:italic;font-weight:900;font-stretch:condensed;font-size:22.6568px;font-family:'Barlow Condensed';-inkscape-font-specification:'Barlow Condensed,  Heavy Italic Condensed';letter-spacing:0px;fill:#f9f9f9;stroke-width:0.5;stroke-linecap:square"
       d="m 25.382702,26.515936 q -0.13594,0 -0.226568,-0.09063 -0.06797,-0.09063 -0.04531,-0.249225 l 1.857857,-15.180056 q 0.02266,-0.158597 0.113284,-0.249224 0.113284,-0.09063 0.249225,-0.09063 h 3.489147 q 0.135941,0 0.203911,0.09063 0.09063,0.09063 0.06797,0.249224 L 29.23436,26.176081 q -0.02266,0.158598 -0.135941,0.249225 -0.09063,0.09063 -0.226568,0.09063 z"
       id="path10" /><path
       style="font-style:italic;font-weight:900;font-stretch:condensed;font-size:22.6568px;font-family:'Barlow Condensed';-inkscape-font-specification:'Barlow Condensed,  Heavy Italic Condensed';letter-spacing:0px;fill:#f9f9f9;stroke-width:0.5;stroke-linecap:square"
       d="m 19.469291,26.69719 q -1.948485,0 -3.081325,-0.996899 -1.13284,-1.019556 -1.13284,-2.696159 0,-0.158598 0.04531,-0.56642 l 0.09063,-0.702361 q 0.02266,-0.158597 0.113284,-0.249225 0.113284,-0.09063 0.249225,-0.09063 h 3.443833 q 0.135941,0 0.203912,0.09063 0.09063,0.09063 0.06797,0.249225 l -0.04531,0.49845 q -0.04531,0.362509 0.09063,0.589077 0.13594,0.226568 0.407822,0.226568 0.294538,0 0.49845,-0.249225 0.203911,-0.249225 0.203911,-0.611734 0,-0.339852 -0.339852,-0.702361 -0.317195,-0.362508 -1.246124,-1.110183 -0.906272,-0.747674 -1.495349,-1.314094 -0.589077,-0.589077 -1.019556,-1.427378 -0.430479,-0.860959 -0.430479,-1.948485 0,-0.203911 0.04531,-0.702361 0.249225,-2.016455 1.676604,-3.262579 1.427378,-1.246124 3.557117,-1.246124 1.948485,0 3.058668,1.042213 1.13284,1.042213 1.13284,2.809443 0,0.203911 -0.04531,0.657047 l -0.06797,0.49845 q -0.02266,0.158597 -0.135941,0.249224 -0.09063,0.09063 -0.226568,0.09063 H 21.667 q -0.13594,0 -0.226568,-0.09063 -0.06797,-0.09063 -0.04531,-0.249224 l 0.06797,-0.589077 q 0.02266,-0.339852 -0.135941,-0.543763 -0.13594,-0.226568 -0.407822,-0.226568 -0.317195,0 -0.521106,0.271881 -0.203911,0.271882 -0.203911,0.725018 0,0.385165 0.317195,0.792988 0.317195,0.407822 1.178153,1.13284 1.155497,0.974242 1.767231,1.585976 0.611733,0.589077 0.951585,1.314094 0.362509,0.702361 0.362509,1.608633 0,0.181254 -0.04531,0.63439 -0.271881,2.061769 -1.721916,3.285236 -1.427379,1.223467 -3.534461,1.223467 z"
       id="text9" /><g
       id="g25"><path
         id="rect11"
         style="fill:#ff0000;stroke-width:0.499999;stroke-linecap:square"
         d="M 17.586334,39.101528 H 54.816978 V 52.197735 H 17.586334 Z" /><path
         id="rect12"
         style="fill:#f8f5f0;stroke-width:0.499999;stroke-linecap:square"
         d="M 54.816978,39.101528 H 126.28485 V 52.197735 H 54.816978 Z" /></g><g
       id="g15"
       transform="translate(0,-0.99780667)"><path
         id="path12"
         style="fill:#ff0000;stroke-width:0.499999;stroke-linecap:square"
         d="M 17.586334,63.048877 H 54.816978 V 76.145084 H 17.586334 Z" /><path
         id="path15"
         style="fill:#f8f5f0;stroke-width:0.499999;stroke-linecap:square"
         d="M 54.816978,63.048877 H 126.28485 V 76.145084 H 54.816978 Z" /></g><g
       id="g22"
       transform="translate(0,21.951736)"><path
         id="path21"
         style="fill:#ff0000;stroke-width:0.499999;stroke-linecap:square"
         d="M 17.586334,63.048877 H 54.816978 V 76.145084 H 17.586334 Z" /><path
         id="path22"
         style="fill:#f8f5f0;stroke-width:0.499999;stroke-linecap:square"
         d="M 54.816978,63.048877 H 126.28485 V 76.145084 H 54.816978 Z" /></g><g
       id="g24"
       transform="translate(0,44.901278)"><path
         id="path23"
         style="fill:#ff0000;stroke-width:0.499999;stroke-linecap:square"
         d="M 17.586334,63.048877 H 54.816978 V 76.145084 H 17.586334 Z" /><path
         id="path24"
         style="fill:#f8f5f0;stroke-width:0.499999;stroke-linecap:square"
         d="M 54.816978,63.048877 H 126.28485 V 76.145084 H 54.816978 Z" /></g></g></svg>
