<?xml version="1.0" encoding="UTF-8" standalone="no"?>
<!-- Created with Inkscape (http://www.inkscape.org/) -->

<svg
   width="512"
   height="512"
   viewBox="0 0 135.46666 135.46667"
   version="1.1"
   id="svg1"
   inkscape:version="1.4.3 (0d15f75042, 2025-12-25)"
   sodipodi:docname="features-logo.svg"
   xml:space="preserve"
   xmlns:inkscape="http://www.inkscape.org/namespaces/inkscape"
   xmlns:sodipodi="http://sodipodi.sourceforge.net/DTD/sodipodi-0.dtd"
   xmlns="http://www.w3.org/2000/svg"
   xmlns:svg="http://www.w3.org/2000/svg"><sodipodi:namedview
     id="namedview1"
     pagecolor="#ffffff"
     bordercolor="#000000"
     borderopacity="0.25"
     inkscape:showpageshadow="false"
     inkscape:pageopacity="0.0"
     inkscape:pagecheckerboard="0"
     inkscape:deskcolor="#d1d1d1"
     inkscape:document-units="px"
     inkscape:zoom="0.7071068"
     inkscape:cx="326.68332"
     inkscape:cy="629.32502"
     inkscape:window-width="2514"
     inkscape:window-height="1404"
     inkscape:window-x="2606"
     inkscape:window-y="0"
     inkscape:window-maximized="1"
     inkscape:current-layer="layer1" /><defs
     id="defs1"><inkscape:perspective
       sodipodi:type="inkscape:persp3d"
       inkscape:vp_x="-2.1166666 : 139.55193 : 1"
       inkscape:vp_y="0 : 1000 : 0"
       inkscape:vp_z="128.58749 : 40.333178 : 1"
       inkscape:persp3d-origin="60.854164 : 17.7554 : 1"
       id="perspective69" /><linearGradient
       id="linearGradient841"
       y2="461.2496"
       y1="381.08466"
       x2="290.91505"
       x1="185.41303"
       gradientTransform="matrix(0.33925388,0,0,0.20634794,6.82096,14.11287)"
       gradientUnits="userSpaceOnUse"><stop
         id="stop839"
         style="stop-color:#000000;stop-opacity:.6667"
         offset="0" /><stop
         id="stop840"
         style="stop-color:#003a00;stop-opacity:.1176"
         offset="1" /></linearGradient><linearGradient
       id="linearGradient882"
       y2="324.68274"
       y1="157.96686"
       x2="312.29534"
       x1="207.02526"
       gradientTransform="matrix(0.25245216,0,0,0.27729743,6.82096,14.11287)"
       gradientUnits="userSpaceOnUse"><stop
         id="stop884"
         style="stop-color:#ffffff;stop-opacity:1"
         offset="0" /><stop
         id="stop885"
         style="stop-color:#29abe0;stop-opacity:1"
         offset="1" /></linearGradient><linearGradient
       id="linearGradient886"
       y2="7.5225039"
       y1="7.5225039"
       x1="7.7122393"
       gradientTransform="matrix(0.26207804,0,0,0.26711256,6.82096,14.11287)"
       x2="416.12694"
       gradientUnits="userSpaceOnUse"><stop
         id="stop888"
         style="stop-color:#325d88;stop-opacity:1"
         offset="0" /><stop
         id="stop889"
         style="stop-color:#29abe0;stop-opacity:1"
         offset="1" /></linearGradient></defs><g
     inkscape:label="Layer 1"
     inkscape:groupmode="layer"
     id="layer1"><g
       id="g10"
       transform="matrix(1.1875014,0,0,1.1875014,-12.700097,-12.700097)"
       style="stroke-width:0.842104"><rect
         style="fill:#cccccc;fill-opacity:1;stroke:none;stroke-width:0.222806;stroke-linecap:square;stroke-linejoin:round;stroke-dasharray:none"
         id="rect1"
         width="95.788658"
         height="95.788658"
         x="19.839003"
         y="19.839003"
         rx="5.2916665"
         ry="5.2916665" /><path
         id="rect2"
         style="fill:#d9230f;stroke-width:0.222806;stroke-linecap:square;stroke-linejoin:round"
         d="m 25.130669,19.839003 h 85.205321 c 2.93159,0 5.29167,2.360083 5.29167,5.291666 v 12.989098 c 0,0.003 -95.788657,0 -95.788657,0 V 25.130669 c 0,-2.931583 2.360083,-5.291666 5.291666,-5.291666 z"
         sodipodi:nodetypes="sssccss" /><path
         style="font-weight:bold;font-stretch:condensed;font-size:14.7935px;font-family:'Barlow Condensed';-inkscape-font-specification:'Barlow Condensed,  Bold Condensed';letter-spacing:0px;fill:#ffffff;stroke-width:0.222806;stroke-linecap:square;stroke-linejoin:round"
         d="m 39.203304,24.120664 q 0,-0.07397 0.04438,-0.118348 0.05917,-0.05917 0.133141,-0.05917 h 1.716046 q 0.07397,0 0.118348,0.05917 0.05917,0.04438 0.05917,0.118348 V 34.12107 q 0,0.07397 -0.05917,0.133141 -0.04438,0.04438 -0.118348,0.04438 H 39.14413 q -0.147935,0 -0.192315,-0.147935 l -1.834394,-5.725085 q -0.01479,-0.04438 -0.05917,-0.02959 -0.02959,0 -0.02959,0.04438 l 0.01479,5.680704 q 0,0.07397 -0.05917,0.133141 -0.04438,0.04438 -0.118348,0.04438 h -1.716046 q -0.07397,0 -0.133141,-0.04438 -0.04438,-0.05917 -0.04438,-0.133141 V 24.120664 q 0,-0.07397 0.04438,-0.118348 0.05917,-0.05917 0.133141,-0.05917 h 1.937949 q 0.147935,0 0.192315,0.147935 l 1.849188,5.725084 q 0.01479,0.04438 0.04438,0.04438 0.04438,-0.01479 0.04438,-0.05917 z"
         id="path3" /><path
         style="font-weight:bold;font-stretch:condensed;font-size:14.7935px;font-family:'Barlow Condensed';-inkscape-font-specification:'Barlow Condensed,  Bold Condensed';letter-spacing:0px;fill:#ffffff;stroke-width:0.222806;stroke-linecap:square;stroke-linejoin:round"
         d="m 31.747387,34.298592 q -0.07397,0 -0.133141,-0.04438 -0.04438,-0.05917 -0.04438,-0.133141 V 24.120664 q 0,-0.07397 0.04438,-0.118348 0.05917,-0.05917 0.133141,-0.05917 h 1.73084 q 0.07397,0 0.118348,0.05917 0.05917,0.04438 0.05917,0.118348 V 34.12107 q 0,0.07397 -0.05917,0.133141 -0.04438,0.04438 -0.118348,0.04438 z"
         id="path2" /><path
         style="font-weight:bold;font-stretch:condensed;font-size:14.7935px;font-family:'Barlow Condensed';-inkscape-font-specification:'Barlow Condensed,  Bold Condensed';letter-spacing:0px;fill:#ffffff;stroke-width:0.222806;stroke-linecap:square;stroke-linejoin:round"
         d="m 27.664378,34.41694 q -0.858023,0 -1.508937,-0.340251 -0.650914,-0.34025 -1.005958,-0.946784 -0.355044,-0.621327 -0.355044,-1.420176 v -0.429011 q 0,-0.07397 0.04438,-0.118348 0.05917,-0.05917 0.133142,-0.05917 h 1.701252 q 0.07397,0 0.118348,0.05917 0.05917,0.04438 0.05917,0.118348 v 0.325457 q 0,0.458598 0.236696,0.739675 0.236696,0.281076 0.59174,0.281076 0.355044,0 0.59174,-0.266283 0.236696,-0.266283 0.236696,-0.695294 0,-0.443805 -0.29587,-0.754469 -0.29587,-0.325457 -1.153893,-0.946784 -0.739675,-0.532566 -1.198273,-0.946784 -0.458599,-0.414218 -0.784056,-1.020751 -0.325457,-0.606534 -0.325457,-1.405383 0,-1.257447 0.784056,-2.011916 0.784055,-0.754468 2.07109,-0.754468 1.301828,0 2.085883,0.784055 0.798849,0.784056 0.798849,2.056297 v 0.355044 q 0,0.07397 -0.05917,0.133141 -0.04438,0.04438 -0.118348,0.04438 h -1.701252 q -0.07397,0 -0.133142,-0.04438 -0.04438,-0.05917 -0.04438,-0.133141 v -0.399425 q 0,-0.458598 -0.236696,-0.724881 -0.221903,-0.281077 -0.59174,-0.281077 -0.355044,0 -0.576947,0.266283 -0.221902,0.25149 -0.221902,0.710088 0,0.443805 0.281076,0.784056 0.281077,0.34025 1.109513,0.946784 0.917197,0.680501 1.375795,1.109512 0.473392,0.414218 0.724882,0.931991 0.266283,0.502979 0.266283,1.213067 0,1.301828 -0.798849,2.07109 -0.798849,0.769262 -2.100677,0.769262 z"
         id="text2" /><path
         id="rect4"
         style="fill:#ffffff;stroke-width:0.222806;stroke-linecap:square;stroke-linejoin:round"
         d="m 31.467477,52.902982 h 72.531713 c 0.58631,0 1.05833,0.472017 1.05833,1.058334 v 8.921564 c 0,0.586317 -0.47202,1.058333 -1.05833,1.058333 H 31.467477 c -0.586317,0 -1.058334,-0.472016 -1.058334,-1.058333 v -8.921564 c 0,-0.586317 0.472017,-1.058334 1.058334,-1.058334 z" /><path
         id="rect5"
         style="fill:#d9230f;stroke-width:0.222806;stroke-linecap:square;stroke-linejoin:round"
         d="M 31.467477,52.902982 H 44.004921 V 63.941213 H 31.467477 c -0.586317,0 -1.058334,-0.472016 -1.058334,-1.058333 v -8.921564 c 0,-0.586317 0.472017,-1.058334 1.058334,-1.058334 z"
         sodipodi:nodetypes="sccssss" /><path
         id="path5"
         style="fill:#ffffff;stroke-width:0.222806;stroke-linecap:square;stroke-linejoin:round"
         d="m 31.467477,69.307159 h 72.531713 c 0.58631,0 1.05833,0.472017 1.05833,1.058334 v 8.921564 c 0,0.586317 -0.47202,1.058333 -1.05833,1.058333 H 31.467477 c -0.586317,0 -1.058334,-0.472016 -1.058334,-1.058333 v -8.921564 c 0,-0.586317 0.472017,-1.058334 1.058334,-1.058334 z" /><path
         id="path6"
         style="fill:#d9230f;stroke-width:0.222806;stroke-linecap:square;stroke-linejoin:round"
         d="M 31.467477,69.307159 H 44.004921 V 80.34539 H 31.467477 c -0.586317,0 -1.058334,-0.472016 -1.058334,-1.058333 v -8.921564 c 0,-0.586317 0.472017,-1.058334 1.058334,-1.058334 z"
         sodipodi:nodetypes="sccssss" /><path
         id="path9"
         style="fill:#ffffff;stroke-width:0.222806;stroke-linecap:square;stroke-linejoin:round"
         d="m 31.467477,85.711336 h 72.531713 c 0.58631,0 1.05833,0.472017 1.05833,1.058334 v 8.921564 c 0,0.586317 -0.47202,1.058333 -1.05833,1.058333 H 31.467477 c -0.586317,0 -1.058334,-0.472016 -1.058334,-1.058333 V 86.76967 c 0,-0.586317 0.472017,-1.058334 1.058334,-1.058334 z" /><path
         id="path10"
         style="fill:#d9230f;stroke-width:0.222806;stroke-linecap:square;stroke-linejoin:round"
         d="M 31.467477,85.711336 H 44.004921 V 96.749567 H 31.467477 c -0.586317,0 -1.058334,-0.472016 -1.058334,-1.058333 V 86.76967 c 0,-0.586317 0.472017,-1.058334 1.058334,-1.058334 z"
         sodipodi:nodetypes="sccssss" /></g></g></svg>
