<?xml version="1.0" encoding="UTF-8" standalone="no"?>
<!-- Created with Inkscape (http://www.inkscape.org/) -->

<svg
   width="512"
   height="512"
   viewBox="0 0 135.46666 135.46667"
   version="1.1"
   id="svg1"
   inkscape:version="1.4.3 (0d15f75042, 2025-12-25)"
   sodipodi:docname="features-hover-icon.svg"
   xml:space="preserve"
   xmlns:inkscape="http://www.inkscape.org/namespaces/inkscape"
   xmlns:sodipodi="http://sodipodi.sourceforge.net/DTD/sodipodi-0.dtd"
   xmlns="http://www.w3.org/2000/svg"
   xmlns:svg="http://www.w3.org/2000/svg"><sodipodi:namedview
     id="namedview1"
     pagecolor="#ffffff"
     bordercolor="#000000"
     borderopacity="0.25"
     inkscape:showpageshadow="false"
     inkscape:pageopacity="0.0"
     inkscape:pagecheckerboard="0"
     inkscape:deskcolor="#d1d1d1"
     inkscape:document-units="px"
     inkscape:zoom="1.4142136"
     inkscape:cx="362.03866"
     inkscape:cy="436.99198"
     inkscape:window-width="2514"
     inkscape:window-height="1404"
     inkscape:window-x="2606"
     inkscape:window-y="0"
     inkscape:window-maximized="1"
     inkscape:current-layer="layer1" /><defs
     id="defs1"><inkscape:perspective
       sodipodi:type="inkscape:persp3d"
       inkscape:vp_x="-2.1166666 : 139.55193 : 1"
       inkscape:vp_y="0 : 1000 : 0"
       inkscape:vp_z="128.58749 : 40.333178 : 1"
       inkscape:persp3d-origin="60.854164 : 17.7554 : 1"
       id="perspective69" /><linearGradient
       id="linearGradient841"
       y2="461.2496"
       y1="381.08466"
       x2="290.91505"
       x1="185.41303"
       gradientTransform="matrix(0.33925388,0,0,0.20634794,6.82096,14.11287)"
       gradientUnits="userSpaceOnUse"><stop
         id="stop839"
         style="stop-color:#000000;stop-opacity:.6667"
         offset="0" /><stop
         id="stop840"
         style="stop-color:#003a00;stop-opacity:.1176"
         offset="1" /></linearGradient><linearGradient
       id="linearGradient882"
       y2="324.68274"
       y1="157.96686"
       x2="312.29534"
       x1="207.02526"
       gradientTransform="matrix(0.25245216,0,0,0.27729743,6.82096,14.11287)"
       gradientUnits="userSpaceOnUse"><stop
         id="stop884"
         style="stop-color:#ffffff;stop-opacity:1"
         offset="0" /><stop
         id="stop885"
         style="stop-color:#29abe0;stop-opacity:1"
         offset="1" /></linearGradient><linearGradient
       id="linearGradient886"
       y2="7.5225039"
       y1="7.5225039"
       x1="7.7122393"
       gradientTransform="matrix(0.26207804,0,0,0.26711256,6.82096,14.11287)"
       x2="416.12694"
       gradientUnits="userSpaceOnUse"><stop
         id="stop888"
         style="stop-color:#325d88;stop-opacity:1"
         offset="0" /><stop
         id="stop889"
         style="stop-color:#29abe0;stop-opacity:1"
         offset="1" /></linearGradient></defs><g
     inkscape:label="Layer 1"
     inkscape:groupmode="layer"
     id="layer1"><circle
       style="fill:#dddddd;fill-opacity:1;stroke:none;stroke-width:2.11667;stroke-linecap:round;stroke-linejoin:round"
       id="path2"
       cx="67.73333"
       cy="67.73333"
       r="67.73333" /><path
       style="baseline-shift:baseline;display:inline;overflow:visible;vector-effect:none;fill:#444444;stroke-linecap:round;stroke-linejoin:round;enable-background:accumulate;stop-color:#000000;stop-opacity:1;opacity:1"
       d="M 67.732422,0 C 30.336868,0 0,30.336868 0,67.732422 0,105.12798 30.336868,135.4668 67.732422,135.4668 105.12798,135.4668 135.4668,105.12798 135.4668,67.732422 135.4668,30.336868 105.12798,0 67.732422,0 Z m 0,2.1171875 c 36.251618,0 65.617188,29.3636135 65.617188,65.6152345 0,36.251618 -29.36557,65.617188 -65.617188,65.617188 -36.251621,0 -65.6152345,-29.36557 -65.6152345,-65.617188 0,-36.251621 29.3636135,-65.6152345 65.6152345,-65.6152345 z"
       id="path1" /><g
       id="g1"
       transform="matrix(0.85529645,0,0,0.85529645,9.8012553,9.8012548)"
       style="stroke-width:1.16919"><rect
         style="fill:#ffffff;fill-opacity:1;stroke:none;stroke-width:0.309347;stroke-linecap:square;stroke-linejoin:round;stroke-dasharray:none"
         id="rect1"
         width="92.804077"
         height="92.804077"
         x="21.331293"
         y="21.331293"
         rx="5.1267891"
         ry="5.1267891" /><path
         id="rect2"
         style="fill:#d9230f;stroke-width:0.309347;stroke-linecap:square;stroke-linejoin:round"
         d="m 26.458084,21.331292 h 82.550496 c 2.84025,0 5.12679,2.286548 5.12679,5.126789 v 12.584384 c 0,0.0029 -92.804079,0 -92.804079,0 V 26.458081 c 0,-2.840241 2.286545,-5.126789 5.126793,-5.126789 z"
         sodipodi:nodetypes="sssccss" /><path
         style="font-weight:bold;font-stretch:condensed;font-size:14.7935px;font-family:'Barlow Condensed';-inkscape-font-specification:'Barlow Condensed,  Bold Condensed';letter-spacing:0px;fill:#ffffff;stroke-width:0.309347;stroke-linecap:square;stroke-linejoin:round"
         d="m 40.09224,25.479545 q 0,-0.07167 0.04302,-0.11466 0.05736,-0.05733 0.128992,-0.05733 h 1.662581 q 0.07169,0 0.114653,0.05733 0.05736,0.043 0.05736,0.11466 v 9.688814 q 0,0.07166 -0.05736,0.128993 -0.04302,0.043 -0.114653,0.043 h -1.891896 q -0.143331,0 -0.186328,-0.143326 L 38.071371,29.65032 q -0.01434,-0.043 -0.05736,-0.02867 -0.02868,0 -0.02868,0.043 l 0.01434,5.503705 q 0,0.07167 -0.05736,0.128993 -0.04302,0.043 -0.114663,0.043 h -1.662581 q -0.07169,0 -0.128992,-0.043 -0.04302,-0.05733 -0.04302,-0.128993 v -9.688809 q 0,-0.07167 0.04302,-0.11466 0.05736,-0.05733 0.128992,-0.05733 h 1.877568 q 0.14333,0 0.186327,0.143326 l 1.791564,5.546702 q 0.01434,0.043 0.04302,0.043 0.04302,-0.01433 0.04302,-0.05733 z"
         id="path3" /><path
         style="font-weight:bold;font-stretch:condensed;font-size:14.7935px;font-family:'Barlow Condensed';-inkscape-font-specification:'Barlow Condensed,  Bold Condensed';letter-spacing:0px;fill:#ffffff;stroke-width:0.309347;stroke-linecap:square;stroke-linejoin:round"
         d="m 32.868631,35.34035 q -0.07169,0 -0.128992,-0.043 -0.04302,-0.05733 -0.04302,-0.128993 v -9.688815 q 0,-0.07167 0.04302,-0.11466 0.05736,-0.05733 0.128992,-0.05733 h 1.67691 q 0.07169,0 0.114663,0.05733 0.05736,0.043 0.05736,0.11466 v 9.688814 q 0,0.07166 -0.05736,0.128993 -0.04302,0.043 -0.114663,0.043 z"
         id="path2-3" /><path
         style="font-weight:bold;font-stretch:condensed;font-size:14.7935px;font-family:'Barlow Condensed';-inkscape-font-specification:'Barlow Condensed,  Bold Condensed';letter-spacing:0px;fill:#ffffff;stroke-width:0.309347;stroke-linecap:square;stroke-linejoin:round"
         d="m 28.912839,35.45501 q -0.831286,0 -1.461915,-0.329649 -0.630639,-0.329648 -0.974616,-0.917284 -0.343978,-0.601968 -0.343978,-1.375926 v -0.415644 q 0,-0.07167 0.04302,-0.114661 0.05736,-0.05733 0.128991,-0.05733 h 1.648243 q 0.07169,0 0.114662,0.05733 0.05736,0.043 0.05736,0.114661 v 0.315316 q 0,0.444309 0.229315,0.716628 0.229325,0.272319 0.573303,0.272319 0.343987,0 0.573302,-0.257987 0.229325,-0.257986 0.229325,-0.67363 0,-0.429977 -0.286651,-0.730961 -0.286652,-0.315316 -1.117937,-0.917284 -0.716633,-0.515972 -1.160944,-0.917284 -0.444311,-0.401312 -0.759621,-0.988947 -0.315319,-0.587635 -0.315319,-1.361594 0,-1.218267 0.75963,-1.949229 0.759621,-0.73096 2.006559,-0.73096 1.261258,0 2.020888,0.759626 0.77396,0.759626 0.77396,1.992227 v 0.343981 q 0,0.07166 -0.05736,0.128993 -0.04302,0.043 -0.114662,0.043 h -1.648243 q -0.07169,0 -0.128991,-0.043 -0.04302,-0.05733 -0.04302,-0.128993 v -0.38698 q 0,-0.444309 -0.229325,-0.702295 -0.214986,-0.272319 -0.573302,-0.272319 -0.343978,0 -0.558974,0.257986 -0.214986,0.243654 -0.214986,0.687963 0,0.429977 0.272322,0.759627 0.272313,0.329648 1.07494,0.917284 0.888622,0.659298 1.332933,1.074942 0.45864,0.401311 0.702294,0.902952 0.257984,0.487307 0.257984,1.17527 0,1.261266 -0.77396,2.006559 -0.773959,0.745293 -2.035227,0.745293 z"
         id="text2" /><path
         id="rect4"
         style="fill:#dddddd;fill-opacity:1;stroke-width:0.309347;stroke-linecap:square;stroke-linejoin:round"
         d="m 32.597442,53.365065 h 70.271778 c 0.56804,0 1.02536,0.45731 1.02536,1.025359 v 8.643586 c 0,0.568049 -0.45732,1.025358 -1.02536,1.025358 H 32.597442 c -0.568042,0 -1.025354,-0.457309 -1.025354,-1.025358 v -8.643586 c 0,-0.568049 0.457312,-1.025359 1.025354,-1.025359 z" /><path
         id="rect5"
         style="fill:#d9230f;stroke-width:0.309347;stroke-linecap:square;stroke-linejoin:round"
         d="M 32.597442,53.365065 H 44.744251 V 64.059368 H 32.597442 c -0.568042,0 -1.025354,-0.457309 -1.025354,-1.025358 v -8.643586 c 0,-0.568049 0.457312,-1.025359 1.025354,-1.025359 z"
         sodipodi:nodetypes="sccssss" /><path
         id="path5"
         style="fill:#dddddd;fill-opacity:1;stroke-width:0.309347;stroke-linecap:square;stroke-linejoin:round"
         d="m 32.597442,69.258122 h 70.271778 c 0.56804,0 1.02536,0.45731 1.02536,1.025358 v 8.643587 c 0,0.568051 -0.45732,1.025354 -1.02536,1.025354 H 32.597442 c -0.568042,0 -1.025354,-0.457303 -1.025354,-1.025354 V 70.28348 c 0,-0.568048 0.457312,-1.025358 1.025354,-1.025358 z" /><path
         id="path6"
         style="fill:#d9230f;stroke-width:0.309347;stroke-linecap:square;stroke-linejoin:round"
         d="M 32.597442,69.258122 H 44.744251 V 79.952421 H 32.597442 c -0.568042,0 -1.025354,-0.457303 -1.025354,-1.025354 V 70.28348 c 0,-0.568048 0.457312,-1.025358 1.025354,-1.025358 z"
         sodipodi:nodetypes="sccssss" /><path
         id="path9"
         style="fill:#dddddd;fill-opacity:1;stroke-width:0.309347;stroke-linecap:square;stroke-linejoin:round"
         d="m 32.597442,85.151179 h 70.271778 c 0.56804,0 1.02536,0.457313 1.02536,1.025355 v 8.643592 c 0,0.568042 -0.45732,1.025355 -1.02536,1.025355 H 32.597442 c -0.568042,0 -1.025354,-0.457313 -1.025354,-1.025355 v -8.643592 c 0,-0.568042 0.457312,-1.025355 1.025354,-1.025355 z" /><path
         id="path10"
         style="fill:#d9230f;stroke-width:0.309347;stroke-linecap:square;stroke-linejoin:round"
         d="M 32.597442,85.151179 H 44.744251 V 95.845481 H 32.597442 c -0.568042,0 -1.025354,-0.457313 -1.025354,-1.025355 v -8.643592 c 0,-0.568042 0.457312,-1.025355 1.025354,-1.025355 z"
         sodipodi:nodetypes="sccssss" /></g></g></svg>
