<?xml version="1.0" encoding="UTF-8" standalone="no"?>
<!-- Created with Inkscape (http://www.inkscape.org/) -->

<svg
   width="512"
   height="512"
   viewBox="0 0 135.46666 135.46667"
   version="1.1"
   id="svg1"
   inkscape:version="1.4.3 (0d15f75042, 2025-12-25)"
   sodipodi:docname="voices-logo.svg"
   xml:space="preserve"
   xmlns:inkscape="http://www.inkscape.org/namespaces/inkscape"
   xmlns:sodipodi="http://sodipodi.sourceforge.net/DTD/sodipodi-0.dtd"
   xmlns="http://www.w3.org/2000/svg"
   xmlns:svg="http://www.w3.org/2000/svg"><sodipodi:namedview
     id="namedview1"
     pagecolor="#ffffff"
     bordercolor="#000000"
     borderopacity="0.25"
     inkscape:showpageshadow="false"
     inkscape:pageopacity="0.0"
     inkscape:pagecheckerboard="0"
     inkscape:deskcolor="#d1d1d1"
     inkscape:document-units="px"
     inkscape:zoom="1"
     inkscape:cx="580.99998"
     inkscape:cy="340.99999"
     inkscape:window-width="2514"
     inkscape:window-height="1404"
     inkscape:window-x="2606"
     inkscape:window-y="0"
     inkscape:window-maximized="1"
     inkscape:current-layer="layer1"
     showguides="false" /><defs
     id="defs1"><inkscape:perspective
       sodipodi:type="inkscape:persp3d"
       inkscape:vp_x="-2.1166666 : 139.55193 : 1"
       inkscape:vp_y="0 : 1000 : 0"
       inkscape:vp_z="128.58749 : 40.333178 : 1"
       inkscape:persp3d-origin="60.854164 : 17.7554 : 1"
       id="perspective69" /><linearGradient
       id="linearGradient841"
       y2="461.2496"
       y1="381.08466"
       x2="290.91505"
       x1="185.41303"
       gradientTransform="matrix(0.33925388,0,0,0.20634794,6.82096,14.11287)"
       gradientUnits="userSpaceOnUse"><stop
         id="stop839"
         style="stop-color:#000000;stop-opacity:.6667"
         offset="0" /><stop
         id="stop840"
         style="stop-color:#003a00;stop-opacity:.1176"
         offset="1" /></linearGradient><linearGradient
       id="linearGradient882"
       y2="324.68274"
       y1="157.96686"
       x2="312.29534"
       x1="207.02526"
       gradientTransform="matrix(0.25245216,0,0,0.27729743,6.82096,14.11287)"
       gradientUnits="userSpaceOnUse"><stop
         id="stop884"
         style="stop-color:#ffffff;stop-opacity:1"
         offset="0" /><stop
         id="stop885"
         style="stop-color:#29abe0;stop-opacity:1"
         offset="1" /></linearGradient><linearGradient
       id="linearGradient886"
       y2="7.5225039"
       y1="7.5225039"
       x1="7.7122393"
       gradientTransform="matrix(0.26207804,0,0,0.26711256,6.82096,14.11287)"
       x2="416.12694"
       gradientUnits="userSpaceOnUse"><stop
         id="stop888"
         style="stop-color:#325d88;stop-opacity:1"
         offset="0" /><stop
         id="stop889"
         style="stop-color:#29abe0;stop-opacity:1"
         offset="1" /></linearGradient></defs><g
     inkscape:label="Layer 1"
     inkscape:groupmode="layer"
     id="layer1"><rect
       style="fill:#cccccc;fill-opacity:1;stroke:none;stroke-width:0.264582;stroke-linecap:square;stroke-linejoin:round;stroke-dasharray:none"
       id="rect1"
       width="113.74917"
       height="113.74917"
       x="10.858747"
       y="10.858747"
       rx="6.2838612"
       ry="6.2838612" /><path
       id="rect2"
       style="fill:#d9230f;stroke-width:0.264582;stroke-linecap:square;stroke-linejoin:round"
       d="M 17.142608,10.858747 H 118.32405 c 3.48126,0 6.28386,2.802602 6.28386,6.283861 V 32.56718 c 0,0.0036 -113.749163,0 -113.749163,0 V 17.142608 c 0,-3.481259 2.802602,-6.283861 6.283861,-6.283861 z"
       sodipodi:nodetypes="sssccss" /><path
       style="font-weight:bold;font-stretch:condensed;font-size:14.7935px;font-family:'Barlow Condensed';-inkscape-font-specification:'Barlow Condensed,  Bold Condensed';letter-spacing:0px;fill:#ffffff;stroke-width:0.264582;stroke-linecap:square;stroke-linejoin:round"
       d="m 33.853881,15.943225 q 0,-0.08784 0.0527,-0.140538 0.07026,-0.07027 0.158105,-0.07027 h 2.037807 q 0.08784,0 0.140538,0.07027 0.07027,0.0527 0.07027,0.140538 v 11.875496 q 0,0.08784 -0.07027,0.158106 -0.0527,0.0527 -0.140538,0.0527 H 33.78361 q -0.175673,0 -0.228374,-0.175673 L 31.37689,21.055307 q -0.01756,-0.0527 -0.07026,-0.03514 -0.03514,0 -0.03514,0.0527 l 0.01756,6.745843 q 0,0.08784 -0.07026,0.158106 -0.0527,0.0527 -0.140538,0.0527 h -2.037807 q -0.08784,0 -0.158105,-0.0527 -0.0527,-0.07027 -0.0527,-0.158106 V 15.94322 q 0,-0.08784 0.0527,-0.140538 0.07026,-0.07027 0.158105,-0.07027 h 2.301317 q 0.175673,0 0.228375,0.175673 l 2.195913,6.798546 q 0.01756,0.0527 0.0527,0.0527 0.0527,-0.01756 0.0527,-0.07026 z"
       id="path3" /><path
       style="font-weight:bold;font-stretch:condensed;font-size:14.7935px;font-family:'Barlow Condensed';-inkscape-font-specification:'Barlow Condensed,  Bold Condensed';letter-spacing:0px;fill:#ffffff;stroke-width:0.264582;stroke-linecap:square;stroke-linejoin:round"
       d="m 24.99997,28.029529 q -0.08784,0 -0.158106,-0.0527 -0.0527,-0.07027 -0.0527,-0.158105 V 15.943225 q 0,-0.08784 0.0527,-0.140538 0.07026,-0.07027 0.158106,-0.07027 h 2.055374 q 0.08784,0 0.140539,0.07027 0.07026,0.0527 0.07026,0.140538 v 11.875496 q 0,0.08784 -0.07026,0.158106 -0.0527,0.0527 -0.140539,0.0527 z"
       id="path2" /><path
       style="font-weight:bold;font-stretch:condensed;font-size:14.7935px;font-family:'Barlow Condensed';-inkscape-font-specification:'Barlow Condensed,  Bold Condensed';letter-spacing:0px;fill:#ffffff;stroke-width:0.264582;stroke-linecap:square;stroke-linejoin:round"
       d="m 20.151391,28.170067 q -1.018904,0 -1.791865,-0.404048 -0.772961,-0.404047 -1.194577,-1.124307 -0.421615,-0.737827 -0.421615,-1.686461 v -0.509452 q 0,-0.08784 0.0527,-0.140538 0.07026,-0.07026 0.158107,-0.07026 h 2.020239 q 0.08784,0 0.140538,0.07026 0.07026,0.0527 0.07026,0.140538 v 0.386481 q 0,0.544586 0.281076,0.878365 0.281077,0.333778 0.702693,0.333778 0.421615,0 0.702692,-0.316211 0.281076,-0.316212 0.281076,-0.825663 0,-0.527019 -0.351346,-0.895933 -0.351346,-0.38648 -1.370249,-1.124307 -0.878365,-0.632423 -1.422951,-1.124307 -0.544587,-0.491885 -0.931068,-1.212144 -0.38648,-0.72026 -0.38648,-1.668894 0,-1.49322 0.931067,-2.389153 0.931067,-0.895932 2.459423,-0.895932 1.545922,0 2.476989,0.931067 0.948634,0.931067 0.948634,2.441855 v 0.421615 q 0,0.08784 -0.07026,0.158106 -0.0527,0.0527 -0.140538,0.0527 h -2.020239 q -0.08784,0 -0.158106,-0.0527 -0.0527,-0.07026 -0.0527,-0.158106 v -0.474317 q 0,-0.544586 -0.281077,-0.860797 -0.26351,-0.33378 -0.702692,-0.33378 -0.421615,0 -0.685125,0.316212 -0.263509,0.298644 -0.263509,0.84323 0,0.527019 0.333778,0.931068 0.33378,0.404047 1.317548,1.124307 1.089173,0.808096 1.633759,1.317547 0.562154,0.491885 0.860798,1.106741 0.316212,0.597288 0.316212,1.440518 0,1.545923 -0.948635,2.459423 -0.948634,0.913499 -2.494557,0.913499 z"
       id="text2" /><path
       id="path5"
       style="fill:#ffffff;stroke-width:0.264582;stroke-linecap:square;stroke-linejoin:round"
       d="m 24.667576,69.602251 h 86.131514 c 0.69624,0 1.25677,0.560521 1.25677,1.256773 v 10.59437 c 0,0.696252 -0.56053,1.256772 -1.25677,1.256772 H 24.667576 c -0.696252,0 -1.256773,-0.56052 -1.256773,-1.256772 v -10.59437 c 0,-0.696252 0.560521,-1.256773 1.256773,-1.256773 z" /><path
       id="path6"
       style="fill:#d9230f;stroke-width:0.264582;stroke-linecap:square;stroke-linejoin:round"
       d="M 24.667576,69.602251 H 39.555808 V 82.710166 H 24.667576 c -0.696252,0 -1.256773,-0.56052 -1.256773,-1.256772 v -10.59437 c 0,-0.696252 0.560521,-1.256773 1.256773,-1.256773 z"
       sodipodi:nodetypes="sccssss" /><path
       d="m 32.124209,70.964931 q 1.253313,0 2.236025,0.526961 0.996954,0.512719 1.538158,1.466947 0.555446,0.939985 0.555446,2.179056 0,0.341813 -0.04273,0.71211 -0.185149,1.409978 -0.939985,2.207541 -0.754837,0.783321 -1.865728,0.783321 -0.954228,0 -1.466947,-0.58393 -0.05697,-0.04273 -0.0997,0.01424 -0.213633,0.313328 -0.541204,0.441508 -0.313328,0.113938 -0.612415,0.113938 -0.769078,0 -1.182102,-0.455751 -0.398782,-0.45575 -0.398782,-1.096649 0,-0.299086 0.07121,-0.769079 l 0.04273,-0.370297 q 0.04273,-0.484235 0.113937,-0.854532 0.142422,-0.868774 0.541204,-1.267556 0.413024,-0.413023 1.139376,-0.413023 0.170906,0 0.384539,0.07121 0.213633,0.07121 0.370298,0.242117 0.09969,0.07121 0.09969,-0.02848 v -0.04273 q 0.01424,-0.156664 0.185149,-0.156664 h 1.011196 q 0.170906,0 0.156664,0.185148 l -0.327571,2.492385 q -0.01424,0.0997 -0.01424,0.270602 0,0.441508 0.199391,0.683626 0.213633,0.227875 0.526961,0.227875 0.469993,0 0.769079,-0.484235 0.299086,-0.484235 0.398782,-1.253313 0.04273,-0.299087 0.04273,-0.569688 0,-0.911501 -0.384539,-1.595127 -0.384539,-0.683625 -1.082407,-1.053923 -0.683626,-0.370297 -1.566642,-0.370297 -0.996954,0 -1.865728,0.526962 -0.868775,0.512719 -1.452705,1.438462 -0.569688,0.911501 -0.71211,2.079361 -0.04273,0.341813 -0.04273,0.640899 0,1.011196 0.413023,1.737548 0.427266,0.71211 1.082408,1.068165 0.669383,0.356055 1.409977,0.356055 0.954228,0 1.780275,-0.569688 0.07121,-0.04273 0.0997,-0.04273 0.08545,0 0.12818,0.08545 l 0.469992,0.783321 q 0.02849,0.02848 0.02849,0.09969 0,0.08545 -0.07121,0.142422 -1.182103,0.783321 -2.663292,0.783321 -1.139376,0 -2.079361,-0.526961 -0.925743,-0.526962 -1.466947,-1.509673 -0.526961,-0.982712 -0.526961,-2.292995 0,-0.427266 0.05697,-0.811805 0.185148,-1.509673 0.968469,-2.706018 0.797564,-1.196345 2.008151,-1.865728 1.210587,-0.669383 2.577838,-0.669383 z m -1.039681,6.750802 q 0.227875,0 0.370297,-0.156664 0.156665,-0.156664 0.199391,-0.427266 l 0.113938,-0.911501 q 0.04273,-0.484234 0.113937,-0.868774 0.02848,-0.256359 -0.08545,-0.413024 -0.113937,-0.170906 -0.341813,-0.170906 -0.227875,0 -0.398781,0.170906 -0.156664,0.156665 -0.185149,0.413024 -0.0997,0.754837 -0.113937,0.911501 l -0.113938,0.868774 q -0.02848,0.270602 0.08545,0.427266 0.12818,0.156664 0.356055,0.156664 z"
       id="text1"
       style="font-weight:bold;font-stretch:condensed;font-size:14.2422px;font-family:'Barlow Condensed';-inkscape-font-specification:'Barlow Condensed,  Bold Condensed';letter-spacing:0px;fill:#ffffff;stroke-width:0.793749;stroke-linecap:square;stroke-linejoin:round"
       aria-label="@" /><path
       style="font-stretch:condensed;font-size:10.063px;font-family:'Barlow Condensed';-inkscape-font-specification:'Barlow Condensed,  Condensed';letter-spacing:0px;fill:#4d4d4d;stroke-width:0.793749;stroke-linecap:square;stroke-linejoin:round"
       d="m 93.715329,74.022842 q 0,0.10063 -0.10063,0.10063 h -0.764788 q -0.04025,0 -0.04025,0.04025 V 77.243 q 0,0.462897 0.161008,0.644031 0.161008,0.171071 0.493087,0.161008 h 0.10063 q 0.10063,0 0.10063,0.10063 v 0.432709 q 0,0.10063 -0.10063,0.10063 h -0.251575 q -0.593717,0 -0.90567,-0.251575 -0.30189,-0.261638 -0.30189,-0.976111 v -3.2906 q 0,-0.04025 -0.04025,-0.04025 h -0.392457 q -0.10063,0 -0.10063,-0.10063 v -0.332079 q 0,-0.10063 0.10063,-0.10063 h 0.392457 q 0.04025,0 0.04025,-0.04025 v -1.127056 q 0,-0.10063 0.10063,-0.10063 h 0.50315 q 0.10063,0 0.10063,0.10063 v 1.127056 q 0,0.04025 0.04025,0.04025 h 0.764788 q 0.10063,0 0.10063,0.10063 z"
       id="path21" /><path
       style="font-stretch:condensed;font-size:10.063px;font-family:'Barlow Condensed';-inkscape-font-specification:'Barlow Condensed,  Condensed';letter-spacing:0px;fill:#4d4d4d;stroke-width:0.793749;stroke-linecap:square;stroke-linejoin:round"
       d="m 90.012144,78.68201 q -0.10063,0 -0.10063,-0.10063 v -4.890617 q 0,-0.10063 0.10063,-0.10063 h 0.513213 q 0.10063,0 0.10063,0.10063 v 4.890617 q 0,0.10063 -0.10063,0.10063 z"
       id="path20" /><path
       style="font-stretch:condensed;font-size:10.063px;font-family:'Barlow Condensed';-inkscape-font-specification:'Barlow Condensed,  Condensed';letter-spacing:0px;fill:#4d4d4d;stroke-width:0.793749;stroke-linecap:square;stroke-linejoin:round"
       d="m 90.263719,72.664337 q -0.251575,0 -0.412583,-0.161008 -0.150945,-0.161008 -0.150945,-0.40252 0,-0.251575 0.150945,-0.40252 0.161008,-0.161008 0.412583,-0.161008 0.241512,0 0.392457,0.161008 0.161008,0.150945 0.161008,0.40252 0,0.241512 -0.161008,0.40252 -0.150945,0.161008 -0.392457,0.161008 z"
       id="path19" /><path
       style="font-stretch:condensed;font-size:10.063px;font-family:'Barlow Condensed';-inkscape-font-specification:'Barlow Condensed,  Condensed';letter-spacing:0px;fill:#4d4d4d;stroke-width:0.793749;stroke-linecap:square;stroke-linejoin:round"
       d="m 88.261176,78.661884 q -0.251575,0 -0.412583,-0.161008 -0.150945,-0.161008 -0.150945,-0.40252 0,-0.251575 0.150945,-0.40252 0.161008,-0.161008 0.412583,-0.161008 0.241512,0 0.40252,0.161008 0.161008,0.150945 0.161008,0.40252 0,0.241512 -0.161008,0.40252 -0.161008,0.161008 -0.40252,0.161008 z"
       id="path18" /><path
       style="font-stretch:condensed;font-size:10.063px;font-family:'Barlow Condensed';-inkscape-font-specification:'Barlow Condensed,  Condensed';letter-spacing:0px;fill:#4d4d4d;stroke-width:0.793749;stroke-linecap:square;stroke-linejoin:round"
       d="m 86.137886,78.682014 q -0.10063,0 -0.10063,-0.10063 v -6.842839 q 0,-0.10063 0.10063,-0.10063 h 0.513213 q 0.10063,0 0.10063,0.10063 v 6.842839 q 0,0.10063 -0.10063,0.10063 z"
       id="path17" /><path
       style="font-stretch:condensed;font-size:10.063px;font-family:'Barlow Condensed';-inkscape-font-specification:'Barlow Condensed,  Condensed';letter-spacing:0px;fill:#4d4d4d;stroke-width:0.793749;stroke-linecap:square;stroke-linejoin:round"
       d="m 84.185661,78.682014 q -0.10063,0 -0.10063,-0.10063 v -4.890617 q 0,-0.10063 0.10063,-0.10063 h 0.513213 q 0.10063,0 0.10063,0.10063 v 4.890617 q 0,0.10063 -0.10063,0.10063 z"
       id="path16" /><path
       style="font-stretch:condensed;font-size:10.063px;font-family:'Barlow Condensed';-inkscape-font-specification:'Barlow Condensed,  Condensed';letter-spacing:0px;fill:#4d4d4d;stroke-width:0.793749;stroke-linecap:square;stroke-linejoin:round"
       d="m 84.437236,72.664341 q -0.251575,0 -0.412583,-0.161008 -0.150945,-0.161008 -0.150945,-0.40252 0,-0.251575 0.150945,-0.40252 0.161008,-0.161008 0.412583,-0.161008 0.241512,0 0.392457,0.161008 0.161008,0.150945 0.161008,0.40252 0,0.241512 -0.161008,0.40252 -0.150945,0.161008 -0.392457,0.161008 z"
       id="path15" /><path
       style="font-stretch:condensed;font-size:10.063px;font-family:'Barlow Condensed';-inkscape-font-specification:'Barlow Condensed,  Condensed';letter-spacing:0px;fill:#4d4d4d;stroke-width:0.793749;stroke-linecap:square;stroke-linejoin:round"
       d="m 82.102615,73.690767 q 0,-0.10063 0.10063,-0.10063 h 0.513213 q 0.10063,0 0.10063,0.10063 v 4.890617 q 0,1.076741 -0.50315,1.630206 -0.493087,0.563528 -1.660395,0.513213 -0.10063,-0.01006 -0.10063,-0.110693 v -0.432709 q 0,-0.10063 0.10063,-0.10063 0.80504,0.02013 1.127056,-0.372331 0.322016,-0.382394 0.322016,-1.187434 v -0.30189 q 0,-0.02013 -0.02013,-0.03019 -0.01006,-0.01006 -0.03019,0.01006 -0.171071,0.251575 -0.442772,0.382394 -0.261638,0.130819 -0.563528,0.130819 -0.633969,0 -1.0063,-0.422646 -0.362268,-0.422646 -0.362268,-1.116992 v -2.123293 q 0,-0.70441 0.362268,-1.116993 0.372331,-0.422646 1.0063,-0.422646 0.30189,0 0.563528,0.130819 0.271701,0.120756 0.442772,0.372331 0.02013,0.03019 0.03019,0.03019 0.02013,-0.01006 0.02013,-0.04025 z m -0.845292,4.39753 q 0.372331,0 0.60378,-0.261638 0.241512,-0.271701 0.241512,-0.694346 v -2.032726 q 0,-0.432709 -0.241512,-0.694347 -0.231449,-0.271701 -0.60378,-0.271701 -0.382394,0 -0.623906,0.271701 -0.241512,0.261638 -0.241512,0.694347 v 2.032726 q 0,0.422645 0.241512,0.694346 0.241512,0.261638 0.623906,0.261638 z"
       id="path14" /><path
       style="font-stretch:condensed;font-size:10.063px;font-family:'Barlow Condensed';-inkscape-font-specification:'Barlow Condensed,  Condensed';letter-spacing:0px;fill:#4d4d4d;stroke-width:0.793749;stroke-linecap:square;stroke-linejoin:round"
       d="m 77.20193,78.762518 q -0.714473,0 -1.147182,-0.422646 -0.422646,-0.422646 -0.422646,-1.116992 v -2.173608 q 0,-0.684284 0.432709,-1.10693 0.432709,-0.432709 1.137119,-0.432709 0.472961,0 0.835229,0.191197 0.362268,0.191197 0.553465,0.513213 0.20126,0.311953 0.20126,0.694347 v 0.10063 q 0,0.10063 -0.10063,0.10063 l -0.513213,0.02013 q -0.10063,0 -0.10063,-0.10063 v -0.07044 q 0,-0.332079 -0.251575,-0.573591 -0.241512,-0.251575 -0.623906,-0.251575 -0.382394,0 -0.623906,0.271701 -0.231449,0.261638 -0.231449,0.694347 v 2.072978 q 0,0.432708 0.231449,0.704409 0.241512,0.261638 0.623906,0.261638 0.382394,0 0.623906,-0.241512 0.251575,-0.251575 0.251575,-0.583653 v -0.07044 q 0,-0.10063 0.10063,-0.10063 l 0.513213,0.01006 q 0.10063,0 0.10063,0.10063 v 0.110693 q 0,0.603779 -0.442772,1.006299 -0.432709,0.392457 -1.147182,0.392457 z"
       id="path13" /><path
       style="font-stretch:condensed;font-size:10.063px;font-family:'Barlow Condensed';-inkscape-font-specification:'Barlow Condensed,  Condensed';letter-spacing:0px;fill:#4d4d4d;stroke-width:0.793749;stroke-linecap:square;stroke-linejoin:round"
       d="m 71.717602,72.483207 q 0.865418,0 1.519513,0.352205 0.664158,0.342142 1.026426,0.986174 0.362268,0.644032 0.362268,1.489324 0,0.261638 -0.03019,0.533339 -0.130819,0.945922 -0.60378,1.479261 -0.462898,0.523275 -1.167308,0.523275 -0.664158,0 -0.955985,-0.452834 -0.03019,-0.03019 -0.06038,0 -0.140882,0.241511 -0.372331,0.362267 -0.221386,0.110693 -0.472961,0.110693 -0.452835,0 -0.734599,-0.261638 -0.271701,-0.2717 -0.271701,-0.724535 0,-0.161008 0.09057,-0.885544 0.04025,-0.362268 0.10063,-0.714473 0.07044,-0.50315 0.362268,-0.794977 0.291827,-0.291827 0.754725,-0.291827 0.171071,0 0.342142,0.07044 0.171071,0.07044 0.291827,0.211323 0.02013,0.02013 0.03019,0.01006 0.02013,-0.01006 0.02013,-0.03019 l 0.01006,-0.120756 q 0.01006,-0.09057 0.10063,-0.09057 h 0.322016 q 0.05031,0 0.0805,0.04025 0.03019,0.03019 0.02013,0.07044 l -0.261638,2.052852 q -0.01006,0.06038 -0.01006,0.181134 0,0.352205 0.181134,0.563528 0.191197,0.211323 0.513213,0.211323 0.442772,0 0.744662,-0.40252 0.30189,-0.40252 0.392457,-1.116993 0.03019,-0.261638 0.03019,-0.483024 0,-0.724536 -0.30189,-1.267938 -0.291827,-0.543402 -0.845292,-0.835229 -0.543402,-0.291827 -1.267938,-0.291827 -0.774851,0 -1.449072,0.392457 -0.674221,0.392457 -1.127056,1.10693 -0.442772,0.70441 -0.553465,1.600017 -0.03019,0.251575 -0.03019,0.483024 0,0.764788 0.311953,1.338378 0.311953,0.563528 0.835229,0.865418 0.533339,0.30189 1.187434,0.30189 0.483024,0 0.895607,-0.140882 0.412583,-0.130819 0.674221,-0.322016 0.02013,-0.02013 0.06038,-0.02013 0.05031,0 0.0805,0.04025 l 0.161008,0.231449 q 0.02013,0.04025 0.02013,0.06038 0,0.05031 -0.05031,0.0805 -0.332079,0.251575 -0.835229,0.40252 -0.50315,0.161008 -1.096867,0.161008 -0.80504,0 -1.439009,-0.362268 -0.633969,-0.352205 -0.986174,-1.016363 -0.352205,-0.674221 -0.352205,-1.569827 0,-0.181134 0.04025,-0.563528 0.130819,-1.036489 0.654095,-1.841529 0.533339,-0.815103 1.338379,-1.257875 0.80504,-0.452835 1.720773,-0.452835 z m -0.02013,4.005074 0.0805,-0.654095 0.06038,-0.533339 q 0.01006,-0.04025 0.01006,-0.110693 0,-0.241512 -0.140882,-0.392457 -0.140882,-0.150945 -0.372331,-0.150945 -0.261638,0 -0.452835,0.191197 -0.181134,0.181134 -0.221386,0.462898 -0.02013,0.211323 -0.04025,0.30189 -0.04025,0.241512 -0.05031,0.432709 l -0.09057,0.714473 q -0.02013,0.291827 0.120756,0.472961 0.140882,0.181134 0.392457,0.181134 0.251575,0 0.432709,-0.181134 0.181134,-0.181134 0.231449,-0.472961 z"
       id="path12" /><path
       style="font-stretch:condensed;font-size:10.063px;font-family:'Barlow Condensed';-inkscape-font-specification:'Barlow Condensed,  Condensed';letter-spacing:0px;fill:#4d4d4d;stroke-width:0.793749;stroke-linecap:square;stroke-linejoin:round"
       d="m 66.303711,78.682014 q -0.10063,0 -0.10063,-0.10063 v -6.842839 q 0,-0.10063 0.10063,-0.10063 h 0.513213 q 0.10063,0 0.10063,0.10063 v 6.842839 q 0,0.10063 -0.10063,0.10063 z"
       id="path11" /><path
       style="font-stretch:condensed;font-size:10.063px;font-family:'Barlow Condensed';-inkscape-font-specification:'Barlow Condensed,  Condensed';letter-spacing:0px;fill:#4d4d4d;stroke-width:0.793749;stroke-linecap:square;stroke-linejoin:round"
       d="m 64.351487,78.682014 q -0.10063,0 -0.10063,-0.10063 v -4.890617 q 0,-0.10063 0.10063,-0.10063 H 64.8647 q 0.10063,0 0.10063,0.10063 v 4.890617 q 0,0.10063 -0.10063,0.10063 z"
       id="path8" /><path
       style="font-stretch:condensed;font-size:10.063px;font-family:'Barlow Condensed';-inkscape-font-specification:'Barlow Condensed,  Condensed';letter-spacing:0px;fill:#4d4d4d;stroke-width:0.793749;stroke-linecap:square;stroke-linejoin:round"
       d="m 64.603062,72.664341 q -0.251575,0 -0.412583,-0.161008 -0.150945,-0.161008 -0.150945,-0.40252 0,-0.251575 0.150945,-0.40252 0.161008,-0.161008 0.412583,-0.161008 0.241512,0 0.392457,0.161008 0.161008,0.150945 0.161008,0.40252 0,0.241512 -0.161008,0.40252 -0.150945,0.161008 -0.392457,0.161008 z"
       id="path7" /><path
       style="font-stretch:condensed;font-size:10.063px;font-family:'Barlow Condensed';-inkscape-font-specification:'Barlow Condensed,  Condensed';letter-spacing:0px;fill:#4d4d4d;stroke-width:0.793749;stroke-linecap:square;stroke-linejoin:round"
       d="m 62.26844,73.690767 q 0,-0.10063 0.10063,-0.10063 h 0.513213 q 0.10063,0 0.10063,0.10063 v 4.890617 q 0,1.076741 -0.50315,1.630206 -0.493087,0.563528 -1.660395,0.513213 -0.10063,-0.01006 -0.10063,-0.110693 v -0.432709 q 0,-0.10063 0.10063,-0.10063 0.80504,0.02013 1.127056,-0.372331 0.322016,-0.382394 0.322016,-1.187434 v -0.30189 q 0,-0.02013 -0.02013,-0.03019 -0.01006,-0.01006 -0.03019,0.01006 -0.171071,0.251575 -0.442772,0.382394 -0.261638,0.130819 -0.563528,0.130819 -0.633969,0 -1.0063,-0.422646 -0.362268,-0.422646 -0.362268,-1.116992 v -2.123293 q 0,-0.70441 0.362268,-1.116993 0.372331,-0.422646 1.0063,-0.422646 0.30189,0 0.563528,0.130819 0.271701,0.120756 0.442772,0.372331 0.02013,0.03019 0.03019,0.03019 0.02013,-0.01006 0.02013,-0.04025 z m -0.845292,4.39753 q 0.372331,0 0.60378,-0.261638 0.241512,-0.271701 0.241512,-0.694346 v -2.032726 q 0,-0.432709 -0.241512,-0.694347 -0.231449,-0.271701 -0.60378,-0.271701 -0.382394,0 -0.623906,0.271701 -0.241512,0.261638 -0.241512,0.694347 v 2.032726 q 0,0.422645 0.241512,0.694346 0.241512,0.261638 0.623906,0.261638 z"
       id="path4" /><path
       style="font-stretch:condensed;font-size:10.063px;font-family:'Barlow Condensed';-inkscape-font-specification:'Barlow Condensed,  Condensed';letter-spacing:0px;fill:#4d4d4d;stroke-width:0.793749;stroke-linecap:square;stroke-linejoin:round"
       d="m 57.367755,78.762518 q -0.714473,0 -1.147182,-0.422646 -0.422646,-0.422646 -0.422646,-1.116992 v -2.173608 q 0,-0.684284 0.432709,-1.10693 0.432709,-0.432709 1.137119,-0.432709 0.472961,0 0.835229,0.191197 0.362268,0.191197 0.553465,0.513213 0.20126,0.311953 0.20126,0.694347 v 0.10063 q 0,0.10063 -0.10063,0.10063 l -0.513213,0.02013 q -0.10063,0 -0.10063,-0.10063 v -0.07044 q 0,-0.332079 -0.251575,-0.573591 -0.241512,-0.251575 -0.623906,-0.251575 -0.382394,0 -0.623906,0.271701 -0.231449,0.261638 -0.231449,0.694347 v 2.072978 q 0,0.432708 0.231449,0.704409 0.241512,0.261638 0.623906,0.261638 0.382394,0 0.623906,-0.241512 0.251575,-0.251575 0.251575,-0.583653 v -0.07044 q 0,-0.10063 0.10063,-0.10063 l 0.513213,0.01006 q 0.10063,0 0.10063,0.10063 v 0.110693 q 0,0.603779 -0.442772,1.006299 -0.432709,0.392457 -1.147182,0.392457 z"
       id="text3" /></g></svg>
