<?xml version="1.0" encoding="UTF-8" standalone="no"?>
<!-- Created with Inkscape (http://www.inkscape.org/) -->

<svg
   width="512"
   height="512"
   viewBox="0 0 135.46666 135.46667"
   version="1.1"
   id="svg1"
   inkscape:version="1.4.3 (0d15f75042, 2025-12-25)"
   sodipodi:docname="voices-icon.svg"
   xml:space="preserve"
   xmlns:inkscape="http://www.inkscape.org/namespaces/inkscape"
   xmlns:sodipodi="http://sodipodi.sourceforge.net/DTD/sodipodi-0.dtd"
   xmlns="http://www.w3.org/2000/svg"
   xmlns:svg="http://www.w3.org/2000/svg"><sodipodi:namedview
     id="namedview1"
     pagecolor="#ffffff"
     bordercolor="#000000"
     borderopacity="0.25"
     inkscape:showpageshadow="false"
     inkscape:pageopacity="0.0"
     inkscape:pagecheckerboard="0"
     inkscape:deskcolor="#d1d1d1"
     inkscape:document-units="px"
     inkscape:zoom="1"
     inkscape:cx="141"
     inkscape:cy="490"
     inkscape:window-width="2514"
     inkscape:window-height="1404"
     inkscape:window-x="2606"
     inkscape:window-y="0"
     inkscape:window-maximized="1"
     inkscape:current-layer="layer1" /><defs
     id="defs1"><inkscape:perspective
       sodipodi:type="inkscape:persp3d"
       inkscape:vp_x="-2.1166666 : 139.55193 : 1"
       inkscape:vp_y="0 : 1000 : 0"
       inkscape:vp_z="128.58749 : 40.333178 : 1"
       inkscape:persp3d-origin="60.854164 : 17.7554 : 1"
       id="perspective69" /><linearGradient
       id="linearGradient841"
       y2="461.2496"
       y1="381.08466"
       x2="290.91505"
       x1="185.41303"
       gradientTransform="matrix(0.33925388,0,0,0.20634794,6.82096,14.11287)"
       gradientUnits="userSpaceOnUse"><stop
         id="stop839"
         style="stop-color:#000000;stop-opacity:.6667"
         offset="0" /><stop
         id="stop840"
         style="stop-color:#003a00;stop-opacity:.1176"
         offset="1" /></linearGradient><linearGradient
       id="linearGradient882"
       y2="324.68274"
       y1="157.96686"
       x2="312.29534"
       x1="207.02526"
       gradientTransform="matrix(0.25245216,0,0,0.27729743,6.82096,14.11287)"
       gradientUnits="userSpaceOnUse"><stop
         id="stop884"
         style="stop-color:#ffffff;stop-opacity:1"
         offset="0" /><stop
         id="stop885"
         style="stop-color:#29abe0;stop-opacity:1"
         offset="1" /></linearGradient><linearGradient
       id="linearGradient886"
       y2="7.5225039"
       y1="7.5225039"
       x1="7.7122393"
       gradientTransform="matrix(0.26207804,0,0,0.26711256,6.82096,14.11287)"
       x2="416.12694"
       gradientUnits="userSpaceOnUse"><stop
         id="stop888"
         style="stop-color:#325d88;stop-opacity:1"
         offset="0" /><stop
         id="stop889"
         style="stop-color:#29abe0;stop-opacity:1"
         offset="1" /></linearGradient></defs><g
     inkscape:label="Layer 1"
     inkscape:groupmode="layer"
     id="layer1"><path
       style="baseline-shift:baseline;display:inline;overflow:visible;vector-effect:none;fill:#444444;stroke-linecap:round;stroke-linejoin:round;enable-background:accumulate;stop-color:#000000;stop-opacity:1;opacity:1"
       d="M 67.732422,0 C 30.336868,0 0,30.336868 0,67.732422 0,105.12798 30.336868,135.4668 67.732422,135.4668 105.12798,135.4668 135.4668,105.12798 135.4668,67.732422 135.4668,30.336868 105.12798,0 67.732422,0 Z m 0,2.1171875 c 36.251618,0 65.617188,29.3636135 65.617188,65.6152345 0,36.251618 -29.36557,65.617188 -65.617188,65.617188 -36.251621,0 -65.6152345,-29.36557 -65.6152345,-65.617188 0,-36.251621 29.3636135,-65.6152345 65.6152345,-65.6152345 z"
       id="path1" /><rect
       style="fill:#cccccc;fill-opacity:1;stroke:none;stroke-width:0.264583;stroke-linecap:square;stroke-linejoin:round;stroke-dasharray:none"
       id="rect1"
       width="79.375"
       height="79.375"
       x="28.045837"
       y="28.045834"
       rx="4.3849244"
       ry="4.3849244" /><path
       id="rect2"
       style="fill:#d9230f;stroke-width:0.264583;stroke-linecap:square;stroke-linejoin:round"
       d="M 32.430758,28.045833 H 103.0359 c 2.42926,0 4.38493,1.955676 4.38493,4.384924 v 10.763379 c 0,0.0025 -79.374999,0 -79.374999,0 V 32.430757 c 0,-2.429248 1.955682,-4.384924 4.384927,-4.384924 z"
       sodipodi:nodetypes="sssccss" /><path
       style="font-weight:bold;font-stretch:condensed;font-size:14.7935px;font-family:'Barlow Condensed';-inkscape-font-specification:'Barlow Condensed,  Bold Condensed';letter-spacing:0px;fill:#ffffff;stroke-width:0.264583;stroke-linecap:square;stroke-linejoin:round"
       d="m 44.092003,31.593819 q 0,-0.0613 0.03679,-0.09807 0.04906,-0.04903 0.110334,-0.04903 h 1.421992 q 0.06132,0 0.09807,0.04903 0.04906,0.03678 0.04906,0.09807 v 8.286808 q 0,0.0613 -0.04906,0.110327 -0.03679,0.03678 -0.09807,0.03678 h -1.618133 q -0.122581,0 -0.159357,-0.122586 l -1.52007,-4.744076 q -0.01226,-0.03677 -0.04906,-0.02452 -0.02453,0 -0.02453,0.03677 l 0.01226,4.707299 q 0,0.0613 -0.04906,0.110327 -0.03679,0.03678 -0.09807,0.03678 h -1.421992 q -0.06132,0 -0.110326,-0.03678 -0.03679,-0.04903 -0.03679,-0.110327 v -8.286804 q 0,-0.0613 0.03679,-0.09807 0.04906,-0.04903 0.110326,-0.04903 H 42.339 q 0.122582,0 0.159357,0.122586 l 1.532326,4.744074 q 0.01226,0.03677 0.03679,0.03677 0.03679,-0.01226 0.03679,-0.04903 z"
       id="path3-1" /><path
       style="font-weight:bold;font-stretch:condensed;font-size:14.7935px;font-family:'Barlow Condensed';-inkscape-font-specification:'Barlow Condensed,  Bold Condensed';letter-spacing:0px;fill:#ffffff;stroke-width:0.264583;stroke-linecap:square;stroke-linejoin:round"
       d="m 37.913684,40.02773 q -0.06132,0 -0.110326,-0.03677 -0.03679,-0.04903 -0.03679,-0.110327 v -8.286809 q 0,-0.0613 0.03679,-0.09807 0.04906,-0.04903 0.110326,-0.04903 h 1.434256 q 0.06132,0 0.09807,0.04903 0.04906,0.03678 0.04906,0.09807 v 8.286808 q 0,0.0613 -0.04906,0.110327 -0.03679,0.03678 -0.09807,0.03678 z"
       id="path2" /><path
       style="font-weight:bold;font-stretch:condensed;font-size:14.7935px;font-family:'Barlow Condensed';-inkscape-font-specification:'Barlow Condensed,  Bold Condensed';letter-spacing:0px;fill:#ffffff;stroke-width:0.264583;stroke-linecap:square;stroke-linejoin:round"
       d="m 34.53031,40.125799 q -0.710996,0 -1.250379,-0.281948 -0.539375,-0.281947 -0.833586,-0.78455 -0.294203,-0.514861 -0.294203,-1.176824 v -0.355499 q 0,-0.0613 0.03679,-0.09807 0.04906,-0.04903 0.110326,-0.04903 h 1.409736 q 0.06132,0 0.09807,0.04903 0.04905,0.03678 0.04905,0.09807 v 0.269689 q 0,0.380016 0.196141,0.612929 0.196133,0.232913 0.490344,0.232913 0.294203,0 0.490344,-0.220654 0.196132,-0.220655 0.196132,-0.576154 0,-0.367758 -0.245172,-0.625188 -0.245172,-0.269689 -0.956167,-0.78455 -0.612926,-0.44131 -0.992943,-0.78455 -0.380018,-0.343241 -0.64971,-0.845843 -0.269691,-0.502602 -0.269691,-1.164566 0,-1.04198 0.649709,-1.667169 0.649709,-0.625187 1.716203,-0.625187 1.078758,0 1.728458,0.649705 0.661965,0.649705 0.661965,1.703944 v 0.294206 q 0,0.0613 -0.04906,0.110327 -0.03679,0.03678 -0.09807,0.03678 h -1.409736 q -0.06132,0 -0.110326,-0.03678 -0.03679,-0.04903 -0.03679,-0.110327 v -0.330982 q 0,-0.380016 -0.196141,-0.600671 -0.183877,-0.232913 -0.490344,-0.232913 -0.294202,0 -0.478079,0.220654 -0.183877,0.208397 -0.183877,0.588413 0,0.367758 0.232908,0.649706 0.232916,0.281947 0.919392,0.784549 0.760035,0.563896 1.140053,0.919394 0.392273,0.343241 0.60067,0.772292 0.220652,0.416792 0.220652,1.005205 0,1.078756 -0.661957,1.716202 -0.661964,0.637447 -1.740722,0.637447 z"
       id="text2" /><path
       id="path5"
       style="fill:#ffffff;stroke-width:0.264583;stroke-linecap:square;stroke-linejoin:round"
       d="m 37.681738,69.037478 h 60.103195 c 0.485844,0 0.876982,0.391138 0.876982,0.876991 v 7.392825 c 0,0.485852 -0.391138,0.876982 -0.876982,0.876982 H 37.681738 c -0.485853,0 -0.876991,-0.39113 -0.876991,-0.876982 v -7.392825 c 0,-0.485853 0.391138,-0.876991 0.876991,-0.876991 z" /><path
       id="path6"
       style="fill:#d9230f;stroke-width:0.264583;stroke-linecap:square;stroke-linejoin:round"
       d="m 37.681738,69.037478 h 10.389114 v 9.146798 H 37.681738 c -0.485853,0 -0.876991,-0.39113 -0.876991,-0.876982 v -7.392825 c 0,-0.485853 0.391138,-0.876991 0.876991,-0.876991 z"
       sodipodi:nodetypes="sccssss" /></g></svg>
