<?xml version="1.0" encoding="UTF-8" standalone="no"?>
<!-- Created with Inkscape (http://www.inkscape.org/) -->

<svg
   width="54"
   height="54"
   viewBox="0 0 14.2875 14.2875"
   version="1.1"
   id="svg1"
   inkscape:version="1.4.3 (0d15f75042, 2025-12-25)"
   sodipodi:docname="voices-icon-value-group.svg"
   xml:space="preserve"
   xmlns:inkscape="http://www.inkscape.org/namespaces/inkscape"
   xmlns:sodipodi="http://sodipodi.sourceforge.net/DTD/sodipodi-0.dtd"
   xmlns:xlink="http://www.w3.org/1999/xlink"
   xmlns="http://www.w3.org/2000/svg"
   xmlns:svg="http://www.w3.org/2000/svg"><sodipodi:namedview
     id="namedview1"
     pagecolor="#ffffff"
     bordercolor="#000000"
     borderopacity="0.25"
     inkscape:showpageshadow="false"
     inkscape:pageopacity="0.0"
     inkscape:pagecheckerboard="0"
     inkscape:deskcolor="#d1d1d1"
     inkscape:document-units="px"
     inkscape:zoom="7.85"
     inkscape:cx="39.363057"
     inkscape:cy="25.732484"
     inkscape:window-width="2514"
     inkscape:window-height="1404"
     inkscape:window-x="2606"
     inkscape:window-y="0"
     inkscape:window-maximized="1"
     inkscape:current-layer="layer1" /><defs
     id="defs1"><linearGradient
       id="linearGradient2"
       inkscape:collect="always"><stop
         style="stop-color:#029acf;stop-opacity:1;"
         offset="0"
         id="stop2" /><stop
         style="stop-color:#63d3fd;stop-opacity:1;"
         offset="1"
         id="stop3" /></linearGradient><linearGradient
       inkscape:collect="always"
       xlink:href="#linearGradient2"
       id="linearGradient3"
       x1="7.1437502"
       y1="14.155209"
       x2="7.1437502"
       y2="0.13229179"
       gradientUnits="userSpaceOnUse"
       gradientTransform="matrix(1.0188679,0,0,1.0188679,-0.13478758,-0.13478758)" /></defs><g
     inkscape:label="Layer 1"
     inkscape:groupmode="layer"
     id="layer1"><circle
       style="fill:url(#linearGradient3);fill-opacity:1;stroke:none;stroke-width:0.264583;stroke-linecap:round;stroke-opacity:1"
       id="path2"
       cx="7.1437502"
       cy="7.1437502"
       r="7.1437497" /><path
       d="m 4.1107706,5.3022977 c 0,-0.8381314 0.6783584,-1.5164897 1.5164882,-1.5164897 0.8381326,0 1.5164909,0.6783583 1.5164909,1.5164897 0,0.8381319 -0.6783583,1.5164906 -1.5164909,1.5164906 -0.8381298,0 -1.5164882,-0.6783587 -1.5164882,-1.5164906 z M 3.2442031,9.8517683 c 0,-1.3160965 1.0669615,-2.383056 2.3830557,-2.383056 1.3160972,0 2.3830557,1.0669595 2.3830557,2.383056 v 0.08124 c 0,0.3141297 -0.2545424,0.5686837 -0.5686812,0.5686837 H 3.8128874 c -0.3141306,0 -0.5686842,-0.254554 -0.5686842,-0.5686837 z M 9.0935232,4.4357322 c 0.7176232,0 1.2998498,0.5822239 1.2998498,1.2998488 0,0.7176248 -0.5822266,1.2998486 -1.2998498,1.2998486 -0.7176258,0 -1.2998499,-0.5822238 -1.2998499,-1.2998486 0,-0.7176249 0.5822241,-1.2998488 1.2998499,-1.2998488 z m 0,3.2496216 c 1.0764368,0 1.9497738,0.873336 1.9497738,1.9497735 v 0.303297 c 0,0.3114227 -0.251838,0.5632677 -0.563269,0.5632677 H 8.5194215 c 0.089365,-0.169251 0.1408073,-0.362874 0.1408073,-0.5686827 v -0.08124 c 0,-0.697315 -0.2356095,-1.3391149 -0.6296137,-1.8509305 C 8.3366209,7.8017989 8.7022035,7.6853544 9.0935112,7.6853544 Z"
       id="path1-6"
       style="fill:#ffffff;stroke-width:0.264585" /></g></svg>
