<?xml version="1.0" encoding="UTF-8" standalone="no"?>
<!-- Created with Inkscape (http://www.inkscape.org/) -->

<svg
   width="512"
   height="512"
   viewBox="0 0 135.46666 135.46667"
   version="1.1"
   id="svg1"
   inkscape:version="1.4.3 (0d15f75042, 2025-12-25)"
   sodipodi:docname="voices-hover-icon.svg"
   xml:space="preserve"
   xmlns:inkscape="http://www.inkscape.org/namespaces/inkscape"
   xmlns:sodipodi="http://sodipodi.sourceforge.net/DTD/sodipodi-0.dtd"
   xmlns="http://www.w3.org/2000/svg"
   xmlns:svg="http://www.w3.org/2000/svg"><sodipodi:namedview
     id="namedview1"
     pagecolor="#ffffff"
     bordercolor="#000000"
     borderopacity="0.25"
     inkscape:showpageshadow="false"
     inkscape:pageopacity="0.0"
     inkscape:pagecheckerboard="0"
     inkscape:deskcolor="#d1d1d1"
     inkscape:document-units="px"
     inkscape:zoom="1.4142136"
     inkscape:cx="362.03866"
     inkscape:cy="267.28636"
     inkscape:window-width="2514"
     inkscape:window-height="1404"
     inkscape:window-x="2606"
     inkscape:window-y="0"
     inkscape:window-maximized="1"
     inkscape:current-layer="layer1" /><defs
     id="defs1"><inkscape:perspective
       sodipodi:type="inkscape:persp3d"
       inkscape:vp_x="-2.1166666 : 139.55193 : 1"
       inkscape:vp_y="0 : 1000 : 0"
       inkscape:vp_z="128.58749 : 40.333178 : 1"
       inkscape:persp3d-origin="60.854164 : 17.7554 : 1"
       id="perspective69" /><linearGradient
       id="linearGradient841"
       y2="461.2496"
       y1="381.08466"
       x2="290.91505"
       x1="185.41303"
       gradientTransform="matrix(0.33925388,0,0,0.20634794,6.82096,14.11287)"
       gradientUnits="userSpaceOnUse"><stop
         id="stop839"
         style="stop-color:#000000;stop-opacity:.6667"
         offset="0" /><stop
         id="stop840"
         style="stop-color:#003a00;stop-opacity:.1176"
         offset="1" /></linearGradient><linearGradient
       id="linearGradient882"
       y2="324.68274"
       y1="157.96686"
       x2="312.29534"
       x1="207.02526"
       gradientTransform="matrix(0.25245216,0,0,0.27729743,6.82096,14.11287)"
       gradientUnits="userSpaceOnUse"><stop
         id="stop884"
         style="stop-color:#ffffff;stop-opacity:1"
         offset="0" /><stop
         id="stop885"
         style="stop-color:#29abe0;stop-opacity:1"
         offset="1" /></linearGradient><linearGradient
       id="linearGradient886"
       y2="7.5225039"
       y1="7.5225039"
       x1="7.7122393"
       gradientTransform="matrix(0.26207804,0,0,0.26711256,6.82096,14.11287)"
       x2="416.12694"
       gradientUnits="userSpaceOnUse"><stop
         id="stop888"
         style="stop-color:#325d88;stop-opacity:1"
         offset="0" /><stop
         id="stop889"
         style="stop-color:#29abe0;stop-opacity:1"
         offset="1" /></linearGradient></defs><g
     inkscape:label="Layer 1"
     inkscape:groupmode="layer"
     id="layer1"><circle
       style="fill:#dddddd;fill-opacity:1;stroke:none;stroke-width:2.11667;stroke-linecap:round;stroke-linejoin:round"
       id="path2"
       cx="67.73333"
       cy="67.73333"
       r="67.73333" /><path
       style="baseline-shift:baseline;display:inline;overflow:visible;vector-effect:none;fill:#444444;stroke-linecap:round;stroke-linejoin:round;enable-background:accumulate;stop-color:#000000;stop-opacity:1;opacity:1"
       d="M 67.732422,0 C 30.336868,0 0,30.336868 0,67.732422 0,105.12798 30.336868,135.4668 67.732422,135.4668 105.12798,135.4668 135.4668,105.12798 135.4668,67.732422 135.4668,30.336868 105.12798,0 67.732422,0 Z m 0,2.1171875 c 36.251618,0 65.617188,29.3636135 65.617188,65.6152345 0,36.251618 -29.36557,65.617188 -65.617188,65.617188 -36.251621,0 -65.6152345,-29.36557 -65.6152345,-65.617188 0,-36.251621 29.3636135,-65.6152345 65.6152345,-65.6152345 z"
       id="path1" /><rect
       style="fill:#ffffff;fill-opacity:1;stroke:none;stroke-width:0.264583;stroke-linecap:square;stroke-linejoin:round;stroke-dasharray:none"
       id="rect1"
       width="79.375"
       height="79.375"
       x="28.045835"
       y="28.045834"
       rx="4.3849244"
       ry="4.3849244" /><path
       id="rect2"
       style="fill:#d9230f;stroke-width:0.264583;stroke-linecap:square;stroke-linejoin:round"
       d="m 32.430761,28.045833 h 70.605149 c 2.42925,0 4.38492,1.955677 4.38492,4.384925 v 10.763379 c 0,0.0025 -79.374997,0 -79.374997,0 V 32.430758 c 0,-2.429248 1.955674,-4.384925 4.384928,-4.384925 z"
       sodipodi:nodetypes="sssccss" /><path
       style="font-weight:bold;font-stretch:condensed;font-size:14.7935px;font-family:'Barlow Condensed';-inkscape-font-specification:'Barlow Condensed,  Bold Condensed';letter-spacing:0px;fill:#ffffff;stroke-width:0.264583;stroke-linecap:square;stroke-linejoin:round"
       d="m 44.092006,31.593819 q 0,-0.0613 0.0368,-0.09807 0.04906,-0.04903 0.110326,-0.04903 h 1.422 q 0.06132,0 0.09806,0.04903 0.04906,0.03678 0.04906,0.09807 v 8.286808 q 0,0.06129 -0.04906,0.110328 -0.03679,0.03678 -0.09806,0.03678 H 44.043 q -0.122591,0 -0.159366,-0.122586 l -1.520065,-4.744078 q -0.01226,-0.03678 -0.04906,-0.02452 -0.02453,0 -0.02453,0.03678 l 0.01226,4.707299 q 0,0.0613 -0.04906,0.110327 -0.0368,0.03678 -0.09807,0.03678 H 40.73311 q -0.06132,0 -0.110327,-0.03678 -0.03679,-0.04903 -0.03679,-0.110327 v -8.28681 q 0,-0.0613 0.03679,-0.09807 0.04906,-0.04903 0.110327,-0.04903 h 1.605877 q 0.12259,0 0.159365,0.122586 l 1.532318,4.744074 q 0.01226,0.03678 0.03679,0.03678 0.03679,-0.01226 0.03679,-0.04903 z"
       id="path3" /><path
       style="font-weight:bold;font-stretch:condensed;font-size:14.7935px;font-family:'Barlow Condensed';-inkscape-font-specification:'Barlow Condensed,  Bold Condensed';letter-spacing:0px;fill:#ffffff;stroke-width:0.264583;stroke-linecap:square;stroke-linejoin:round"
       d="m 37.913679,40.027731 q -0.06132,0 -0.110327,-0.03678 -0.03679,-0.04903 -0.03679,-0.110327 v -8.286809 q 0,-0.0613 0.03679,-0.09807 0.04906,-0.04903 0.110327,-0.04903 h 1.434255 q 0.06132,0 0.09807,0.04903 0.04906,0.03678 0.04906,0.09807 v 8.286808 q 0,0.06129 -0.04906,0.110327 -0.03679,0.03678 -0.09807,0.03678 z"
       id="path2-3" /><path
       style="font-weight:bold;font-stretch:condensed;font-size:14.7935px;font-family:'Barlow Condensed';-inkscape-font-specification:'Barlow Condensed,  Bold Condensed';letter-spacing:0px;fill:#ffffff;stroke-width:0.264583;stroke-linecap:square;stroke-linejoin:round"
       d="m 34.530304,40.125799 q -0.710996,0 -1.250371,-0.281948 -0.539383,-0.281946 -0.833585,-0.784549 -0.294204,-0.514861 -0.294204,-1.176825 v -0.355499 q 0,-0.0613 0.03679,-0.09807 0.04906,-0.04903 0.110326,-0.04903 h 1.409736 q 0.06132,0 0.09807,0.04903 0.04906,0.03678 0.04906,0.09807 v 0.269689 q 0,0.380016 0.196132,0.612929 0.196141,0.232914 0.490344,0.232914 0.294211,0 0.490343,-0.220656 0.196141,-0.220654 0.196141,-0.576153 0,-0.367758 -0.245171,-0.625188 -0.245173,-0.269689 -0.956168,-0.78455 -0.612933,-0.441309 -0.992951,-0.78455 -0.380018,-0.343241 -0.649701,-0.845843 -0.269691,-0.502602 -0.269691,-1.164566 0,-1.04198 0.649708,-1.667169 0.649702,-0.625187 1.716203,-0.625187 1.07875,0 1.728459,0.649705 0.661965,0.649705 0.661965,1.703945 v 0.294205 q 0,0.06129 -0.04906,0.110328 -0.0368,0.03678 -0.09807,0.03678 h -1.409736 q -0.06132,0 -0.110326,-0.03678 -0.03679,-0.04903 -0.03679,-0.110328 v -0.330982 q 0,-0.380016 -0.196141,-0.600671 -0.183876,-0.232913 -0.490343,-0.232913 -0.294203,0 -0.478088,0.220654 -0.183877,0.208397 -0.183877,0.588413 0,0.367758 0.232916,0.649706 0.232908,0.281947 0.919392,0.78455 0.760036,0.563895 1.140053,0.919394 0.392273,0.34324 0.60067,0.772291 0.220653,0.416792 0.220653,1.005205 0,1.078756 -0.661966,1.716203 -0.661964,0.637446 -1.740722,0.637446 z"
       id="text2" /><path
       id="path5"
       style="fill:#dddddd;fill-opacity:1;stroke-width:0.264583;stroke-linecap:square;stroke-linejoin:round"
       d="m 37.681732,69.037481 h 60.103202 c 0.485843,0 0.876987,0.391135 0.876987,0.876985 v 7.392829 c 0,0.485852 -0.391144,0.876982 -0.876987,0.876982 H 37.681732 c -0.485845,0 -0.876982,-0.39113 -0.876982,-0.876982 v -7.392829 c 0,-0.48585 0.391137,-0.876985 0.876982,-0.876985 z" /><path
       id="path6"
       style="fill:#d9230f;stroke-width:0.264583;stroke-linecap:square;stroke-linejoin:round"
       d="m 37.681732,69.037481 h 10.389122 v 9.146796 H 37.681732 c -0.485845,0 -0.876982,-0.39113 -0.876982,-0.876982 v -7.392829 c 0,-0.48585 0.391137,-0.876985 0.876982,-0.876985 z"
       sodipodi:nodetypes="sccssss" /></g></svg>
