<?xml version="1.0" encoding="UTF-8" standalone="no"?>
<!-- Created with Inkscape (http://www.inkscape.org/) -->

<svg
   width="54"
   height="54"
   viewBox="0 0 14.2875 14.2875"
   version="1.1"
   id="svg1"
   inkscape:version="1.4.3 (0d15f75042, 2025-12-25)"
   sodipodi:docname="voices-icon-value-no.svg"
   xml:space="preserve"
   xmlns:inkscape="http://www.inkscape.org/namespaces/inkscape"
   xmlns:sodipodi="http://sodipodi.sourceforge.net/DTD/sodipodi-0.dtd"
   xmlns:xlink="http://www.w3.org/1999/xlink"
   xmlns="http://www.w3.org/2000/svg"
   xmlns:svg="http://www.w3.org/2000/svg"><sodipodi:namedview
     id="namedview1"
     pagecolor="#ffffff"
     bordercolor="#000000"
     borderopacity="0.25"
     inkscape:showpageshadow="false"
     inkscape:pageopacity="0.0"
     inkscape:pagecheckerboard="0"
     inkscape:deskcolor="#d1d1d1"
     inkscape:document-units="px"
     inkscape:zoom="11.101576"
     inkscape:cx="43.05695"
     inkscape:cy="28.37435"
     inkscape:window-width="2514"
     inkscape:window-height="1404"
     inkscape:window-x="2606"
     inkscape:window-y="0"
     inkscape:window-maximized="1"
     inkscape:current-layer="layer1" /><defs
     id="defs1"><linearGradient
       id="linearGradient2"
       inkscape:collect="always"><stop
         style="stop-color:#cc210f;stop-opacity:1;"
         offset="0"
         id="stop2" /><stop
         style="stop-color:#ed8482;stop-opacity:1;"
         offset="1"
         id="stop3" /></linearGradient><linearGradient
       inkscape:collect="always"
       xlink:href="#linearGradient2"
       id="linearGradient3"
       x1="7.1437502"
       y1="14.155209"
       x2="7.1437502"
       y2="0.13229179"
       gradientUnits="userSpaceOnUse"
       gradientTransform="matrix(1.0188679,0,0,1.0188679,-0.13478758,-0.13478758)" /></defs><g
     inkscape:label="Layer 1"
     inkscape:groupmode="layer"
     id="layer1"><circle
       style="fill:url(#linearGradient3);fill-opacity:1;stroke:none;stroke-width:0.264583;stroke-linecap:round;stroke-opacity:1"
       id="path2"
       cx="7.1437502"
       cy="7.1437502"
       r="7.1437497" /><path
       d="m 4.7621846,3.9787304 c -0.2166625,-0.2166625 -0.5685253,-0.2166625 -0.7851885,0 -0.2166626,0.2166626 -0.2166626,0.5685254 0,0.7851883 L 6.3585609,7.1437506 3.9787293,9.5253165 c -0.2166626,0.216663 -0.2166626,0.5685245 0,0.7851895 0.2166625,0.216662 0.568525,0.216662 0.7851885,0 L 7.1437494,7.9289385 9.5253156,10.308771 c 0.216663,0.216663 0.5685254,0.216663 0.7851884,0 0.216663,-0.216662 0.216663,-0.5685245 0,-0.7851885 L 7.9289396,7.1437506 10.308772,4.7621855 c 0.216662,-0.2166626 0.216662,-0.5685253 0,-0.7851882 -0.216666,-0.2166658 -0.5685264,-0.2166658 -0.7851894,0 L 7.1437494,6.358562 Z"
       id="path1-1"
       style="fill:#ffffff;fill-opacity:1;stroke-width:0.264583" /></g></svg>
