<?xml version="1.0" encoding="UTF-8" standalone="no"?>
<!-- Created with Inkscape (http://www.inkscape.org/) -->

<svg
   width="512"
   height="512"
   viewBox="0 0 135.46666 135.46667"
   version="1.1"
   id="svg1"
   inkscape:version="1.4.3 (0d15f75042, 2025-12-25)"
   sodipodi:docname="supervisors-icon.svg"
   xml:space="preserve"
   xmlns:inkscape="http://www.inkscape.org/namespaces/inkscape"
   xmlns:sodipodi="http://sodipodi.sourceforge.net/DTD/sodipodi-0.dtd"
   xmlns="http://www.w3.org/2000/svg"
   xmlns:svg="http://www.w3.org/2000/svg"><sodipodi:namedview
     id="namedview1"
     pagecolor="#ffffff"
     bordercolor="#000000"
     borderopacity="0.25"
     inkscape:showpageshadow="false"
     inkscape:pageopacity="0.0"
     inkscape:pagecheckerboard="0"
     inkscape:deskcolor="#d1d1d1"
     inkscape:document-units="px"
     inkscape:zoom="2"
     inkscape:cx="328"
     inkscape:cy="268.5"
     inkscape:window-width="2514"
     inkscape:window-height="1404"
     inkscape:window-x="2606"
     inkscape:window-y="0"
     inkscape:window-maximized="1"
     inkscape:current-layer="layer1" /><defs
     id="defs1"><inkscape:perspective
       sodipodi:type="inkscape:persp3d"
       inkscape:vp_x="-2.1166666 : 139.55193 : 1"
       inkscape:vp_y="0 : 1000 : 0"
       inkscape:vp_z="128.58749 : 40.333178 : 1"
       inkscape:persp3d-origin="60.854164 : 17.7554 : 1"
       id="perspective69" /><linearGradient
       id="linearGradient841"
       y2="461.2496"
       y1="381.08466"
       x2="290.91505"
       x1="185.41303"
       gradientTransform="matrix(0.33925388,0,0,0.20634794,6.82096,14.11287)"
       gradientUnits="userSpaceOnUse"><stop
         id="stop839"
         style="stop-color:#000000;stop-opacity:.6667"
         offset="0" /><stop
         id="stop840"
         style="stop-color:#003a00;stop-opacity:.1176"
         offset="1" /></linearGradient><linearGradient
       id="linearGradient882"
       y2="324.68274"
       y1="157.96686"
       x2="312.29534"
       x1="207.02526"
       gradientTransform="matrix(0.25245216,0,0,0.27729743,6.82096,14.11287)"
       gradientUnits="userSpaceOnUse"><stop
         id="stop884"
         style="stop-color:#ffffff;stop-opacity:1"
         offset="0" /><stop
         id="stop885"
         style="stop-color:#29abe0;stop-opacity:1"
         offset="1" /></linearGradient><linearGradient
       id="linearGradient886"
       y2="7.5225039"
       y1="7.5225039"
       x1="7.7122393"
       gradientTransform="matrix(0.26207804,0,0,0.26711256,6.82096,14.11287)"
       x2="416.12694"
       gradientUnits="userSpaceOnUse"><stop
         id="stop888"
         style="stop-color:#325d88;stop-opacity:1"
         offset="0" /><stop
         id="stop889"
         style="stop-color:#29abe0;stop-opacity:1"
         offset="1" /></linearGradient></defs><g
     inkscape:label="Layer 1"
     inkscape:groupmode="layer"
     id="layer1"><circle
       cx="67.73333"
       cy="67.733093"
       fill="#485a69"
       r="66.675003"
       id="circle1"
       style="fill:none;fill-opacity:1;stroke:#444444;stroke-width:2.11667;stroke-dasharray:none;stroke-opacity:1" /><path
       id="path3"
       style="fill:#469408;fill-opacity:1;stroke:none;stroke-width:0.499999;stroke-linecap:square"
       d="m 37.417019,21.418109 a 4.0018444,4.0018444 0 0 0 -1.466253,5.465937 4.0018444,4.0018444 0 0 0 4.860751,1.75004 l 12.691319,26.96902 5.476342,-3.16177 -17.01019,-24.475514 a 4.0018444,4.0018444 0 0 0 0.914799,-5.084559 4.0018444,4.0018444 0 0 0 -5.466768,-1.463154 z" /><path
       d="m 50.947088,93.861582 34.896903,0.458132 v 28.316466 l -34.868406,-0.26523 z"
       fill="#f9dca4"
       fill-rule="evenodd"
       id="path1"
       style="fill:#356808;fill-opacity:1;stroke-width:3.42505" /><path
       d="m 20.445179,115.78613 30.52383,-13.6168 c 0,9.94079 4.03331,13.48528 17.470371,13.68695 16.593565,0.24769 17.404611,-3.52038 17.404611,-13.76587 l 28.035889,13.76806 c -11.89168,9.07742 -42.841155,39.31938 -93.434701,-0.0723 z"
       fill="#d5e1ed"
       fill-rule="evenodd"
       id="path2"
       style="fill:#444444;fill-opacity:1;stroke-width:3.42505"
       sodipodi:nodetypes="cccccc" /><path
       d="m 85.850567,94.269297 v 7.461623 c -6.028045,10.77157 -30.688231,10.9557 -34.903479,-7.869338 z"
       fill-rule="evenodd"
       opacity="0.11"
       id="path3-3"
       style="fill:#356808;fill-opacity:1;stroke-width:3.42505" /><path
       d="m 68.235523,27.750365 c 46.648307,0 28.467718,77.303655 0,77.303655 -26.889467,0 -46.648304,-77.303655 0,-77.303655 z"
       fill="#ffe8be"
       fill-rule="evenodd"
       id="path4"
       style="fill:#469408;fill-opacity:1;stroke-width:3.42505" /><path
       id="path7"
       style="fill:#469408;fill-opacity:1;stroke:none;stroke-width:0.499999;stroke-linecap:square"
       d="m 98.146432,21.418109 a 4.0018444,4.0018444 0 0 1 1.466251,5.465937 4.0018444,4.0018444 0 0 1 -4.860735,1.75004 L 82.060636,55.603106 76.58429,52.441336 93.594476,27.965822 a 4.0018444,4.0018444 0 0 1 -0.914795,-5.084559 4.0018444,4.0018444 0 0 1 5.466751,-1.463154 z" /><path
       d="m 50.975585,101.72435 a 38.119167,38.119167 0 0 0 17.444067,14.12973 l -11.35903,11.7251 -14.44758,-22.14813 z"
       fill="#ffffff"
       fill-rule="evenodd"
       id="path8-7"
       style="stroke-width:3.42505" /><path
       d="M 85.839607,101.72435 A 38.121359,38.121359 0 0 1 68.39554,115.85408 l 11.356837,11.7251 14.449773,-22.14594 z"
       fill="#ffffff"
       fill-rule="evenodd"
       id="path9"
       style="stroke-width:3.42505" /><path
       d="m 62.411335,122.05968 5.999549,-6.17491 5.997357,6.17491 -5.997357,6.17491 z"
       fill="#3dbc93"
       fill-rule="evenodd"
       id="path11"
       style="fill:#d9230f;fill-opacity:1;stroke-width:3.42505" /></g></svg>
