<?xml version="1.0" encoding="UTF-8" standalone="no"?>
<!-- Created with Inkscape (http://www.inkscape.org/) -->

<svg
   width="512"
   height="512"
   viewBox="0 0 135.46666 135.46667"
   version="1.1"
   id="svg1"
   inkscape:version="1.4.3 (0d15f75042, 2025-12-25)"
   sodipodi:docname="nodes-icon.svg"
   xml:space="preserve"
   xmlns:inkscape="http://www.inkscape.org/namespaces/inkscape"
   xmlns:sodipodi="http://sodipodi.sourceforge.net/DTD/sodipodi-0.dtd"
   xmlns:xlink="http://www.w3.org/1999/xlink"
   xmlns="http://www.w3.org/2000/svg"
   xmlns:svg="http://www.w3.org/2000/svg"><sodipodi:namedview
     id="namedview1"
     pagecolor="#ffffff"
     bordercolor="#000000"
     borderopacity="0.25"
     inkscape:showpageshadow="false"
     inkscape:pageopacity="0.0"
     inkscape:pagecheckerboard="0"
     inkscape:deskcolor="#d1d1d1"
     inkscape:document-units="px"
     inkscape:zoom="0.35355339"
     inkscape:cx="1414.2136"
     inkscape:cy="231.93102"
     inkscape:window-width="2514"
     inkscape:window-height="1404"
     inkscape:window-x="2606"
     inkscape:window-y="0"
     inkscape:window-maximized="1"
     inkscape:current-layer="layer1" /><defs
     id="defs1"><linearGradient
       id="linearGradient1"
       inkscape:collect="always"><stop
         style="stop-color:#d69f00;stop-opacity:1;"
         offset="0"
         id="stop1" /><stop
         style="stop-color:#ffc107;stop-opacity:1;"
         offset="1"
         id="stop2" /></linearGradient><inkscape:perspective
       sodipodi:type="inkscape:persp3d"
       inkscape:vp_x="-2.1166666 : 139.55193 : 1"
       inkscape:vp_y="0 : 1000 : 0"
       inkscape:vp_z="128.58749 : 40.333178 : 1"
       inkscape:persp3d-origin="60.854164 : 17.7554 : 1"
       id="perspective69" /><linearGradient
       id="linearGradient841"
       y2="461.2496"
       y1="381.08466"
       x2="290.91505"
       x1="185.41303"
       gradientTransform="matrix(0.33925388,0,0,0.20634794,6.82096,14.11287)"
       gradientUnits="userSpaceOnUse"><stop
         id="stop839"
         style="stop-color:#000000;stop-opacity:.6667"
         offset="0" /><stop
         id="stop840"
         style="stop-color:#003a00;stop-opacity:.1176"
         offset="1" /></linearGradient><linearGradient
       id="linearGradient882"
       y2="324.68274"
       y1="157.96686"
       x2="312.29534"
       x1="207.02526"
       gradientTransform="matrix(0.25245216,0,0,0.27729743,6.82096,14.11287)"
       gradientUnits="userSpaceOnUse"><stop
         id="stop884"
         style="stop-color:#ffffff;stop-opacity:1"
         offset="0" /><stop
         id="stop885"
         style="stop-color:#29abe0;stop-opacity:1"
         offset="1" /></linearGradient><linearGradient
       id="linearGradient886"
       y2="7.5225039"
       y1="7.5225039"
       x1="7.7122393"
       gradientTransform="matrix(0.26207804,0,0,0.26711256,6.82096,14.11287)"
       x2="416.12694"
       gradientUnits="userSpaceOnUse"><stop
         id="stop888"
         style="stop-color:#325d88;stop-opacity:1"
         offset="0" /><stop
         id="stop889"
         style="stop-color:#29abe0;stop-opacity:1"
         offset="1" /></linearGradient><inkscape:perspective
       sodipodi:type="inkscape:persp3d"
       inkscape:vp_x="-2.1166666 : 139.55193 : 1"
       inkscape:vp_y="0 : 1000 : 0"
       inkscape:vp_z="128.58749 : 40.333178 : 1"
       inkscape:persp3d-origin="60.854164 : 17.7554 : 1"
       id="perspective69-5" /><inkscape:perspective
       sodipodi:type="inkscape:persp3d"
       inkscape:vp_x="-2.1166666 : 139.55193 : 1"
       inkscape:vp_y="0 : 1000 : 0"
       inkscape:vp_z="128.58749 : 40.333178 : 1"
       inkscape:persp3d-origin="60.854164 : 17.7554 : 1"
       id="perspective69-2" /><linearGradient
       inkscape:collect="always"
       xlink:href="#linearGradient1"
       id="linearGradient2"
       x1="72.653412"
       y1="90.333939"
       x2="72.653412"
       y2="52.577766"
       gradientUnits="userSpaceOnUse" /><linearGradient
       inkscape:collect="always"
       xlink:href="#linearGradient1"
       id="linearGradient5"
       gradientUnits="userSpaceOnUse"
       x1="72.653412"
       y1="90.333939"
       x2="72.653412"
       y2="52.577766" /></defs><g
     inkscape:label="Layer 1"
     inkscape:groupmode="layer"
     id="layer1"><path
       style="baseline-shift:baseline;display:inline;overflow:visible;vector-effect:none;fill:#444444;stroke-linecap:round;stroke-linejoin:round;enable-background:accumulate;stop-color:#000000;stop-opacity:1;opacity:1"
       d="M 67.732422,0 C 30.336868,0 0,30.336868 0,67.732422 0,105.12798 30.336868,135.4668 67.732422,135.4668 105.12798,135.4668 135.4668,105.12798 135.4668,67.732422 135.4668,30.336868 105.12798,0 67.732422,0 Z m 0,2.1171875 c 36.251618,0 65.617188,29.3636135 65.617188,65.6152345 0,36.251618 -29.36557,65.617188 -65.617188,65.617188 -36.251621,0 -65.6152345,-29.36557 -65.6152345,-65.617188 0,-36.251621 29.3636135,-65.6152345 65.6152345,-65.6152345 z"
       id="path1" /><g
       id="g15"
       transform="translate(4.7625002,2.6458334)"><path
         id="path6"
         style="baseline-shift:baseline;display:inline;overflow:visible;opacity:1;vector-effect:none;fill:#777777;stroke-linecap:square;stroke-linejoin:round;enable-background:accumulate;stop-color:#000000;stop-opacity:1"
         d="m 28.310416,25.333854 v 2.646867 17.508491 10e-4 2.644283 46.632812 a 2.6460995,2.6460995 0 0 0 2.646867,2.646867 h 12.824023 2.64635 v -5.293217 h -2.64635 -10.17974 V 48.134529 h 10.17974 2.64635 v -5.290633 h -2.64635 -10.17974 V 27.980721 25.333854 Z" /><g
         id="g6"
         transform="translate(-10.166252,1.9729631)"><g
           id="g2"
           transform="matrix(0.88810782,0,0,0.88810782,13.375518,29.334046)"
           style="stroke-width:1.12599"><path
             d="M 94.228372,52.577766 H 69.956546 L 64.562807,47.184027 H 51.078459 c -2.966557,0 -5.393739,2.427183 -5.393739,5.393739 v 10.787479 h 53.937391 v -5.39374 c 0,-2.966556 -2.427182,-5.393739 -5.393739,-5.393739 z"
             fill="#ffa000"
             id="path1-36"
             style="fill:#d9831f;fill-opacity:1;stroke-width:0.232749" /><path
             d="M 94.228372,52.577766 H 51.078459 c -2.966557,0 -5.393739,2.427183 -5.393739,5.393739 v 26.968696 c 0,2.966556 2.427182,5.393739 5.393739,5.393739 h 43.149913 c 2.966557,0 5.393739,-2.427183 5.393739,-5.393739 V 57.971505 c 0,-2.966556 -2.427182,-5.393739 -5.393739,-5.393739 z"
             fill="#ffca28"
             id="path2"
             style="fill:url(#linearGradient2);fill-opacity:1;stroke-width:0.232749" /></g><g
           id="g5"
           transform="matrix(0.88810782,0,0,0.88810782,13.375518,-19.944089)"
           style="stroke-width:1.12599"><path
             d="M 94.228372,52.577766 H 69.956546 L 64.562807,47.184027 H 51.078459 c -2.966557,0 -5.393739,2.427183 -5.393739,5.393739 v 10.787479 h 53.937391 v -5.39374 c 0,-2.966556 -2.427182,-5.393739 -5.393739,-5.393739 z"
             fill="#ffa000"
             id="path4"
             style="fill:#d9831f;fill-opacity:1;stroke-width:0.232749" /><path
             d="M 94.228372,52.577766 H 51.078459 c -2.966557,0 -5.393739,2.427183 -5.393739,5.393739 v 26.968696 c 0,2.966556 2.427182,5.393739 5.393739,5.393739 h 43.149913 c 2.966557,0 5.393739,-2.427183 5.393739,-5.393739 V 57.971505 c 0,-2.966556 -2.427182,-5.393739 -5.393739,-5.393739 z"
             fill="#ffca28"
             id="path5"
             style="fill:url(#linearGradient5);fill-opacity:1;stroke-width:0.232749" /></g></g></g></g></svg>
